<?xml version="1.0" encoding="utf-8"?><svg width="14" height="13" fill="none" xmlns="http://www.w3.org/2000/svg" viewBox="0 0 14 13"><path d="M3.3 12.819c-1.156 0-2.055-.235-2.417-.61C.108 11.463-.12 9.94.236 8.17A10.267 10.267 0 018.285.208c1.755-.333 3.294-.089 4.02.64 1.395 1.401.974 6.094-2.177 9.236-2.023 2.014-4.812 2.734-6.829 2.734zM9.804.583c-1.874 0-4.455.857-6.378 2.77A9.752 9.752 0 00.748 8.272c-.304 1.578-.125 2.95.503 3.58.744.744 5.443.915 8.509-2.133 3.065-3.047 3.26-7.408 2.175-8.496-.411-.426-1.179-.64-2.13-.64z" fill="#B7B7B7"/><path d="M3.3 12.895c-1.162 0-2.085-.232-2.472-.61C.05 11.502-.2 9.963.163 8.168a10.334 10.334 0 018.11-8.02c1.78-.339 3.352-.086 4.086.658.734.743.966 2.273.637 4.035a10.202 10.202 0 01-2.813 5.308C8.141 12.17 5.29 12.895 3.3 12.895zM9.774.138A8 8 0 008.3.285 10.175 10.175 0 00.313 8.184c-.354 1.749-.12 3.236.624 3.982.354.357 1.259.576 2.362.576 1.956 0 4.766-.713 6.774-2.712a10.03 10.03 0 002.774-5.229c.32-1.716.091-3.209-.595-3.9-.496-.497-1.39-.763-2.477-.763zM3.293 12.377c-1.057 0-1.828-.21-2.094-.482-.646-.649-.847-2.044-.527-3.657a9.87 9.87 0 012.7-4.958A9.654 9.654 0 019.805.49c.988 0 1.765.232 2.185.655 1.1 1.106.942 5.504-2.176 8.606a9.355 9.355 0 01-5.18 2.514c-.444.07-.892.108-1.341.113zM9.805.65a9.471 9.471 0 00-6.323 2.743A9.657 9.657 0 00.825 8.27c-.305 1.551-.128 2.898.481 3.51.354.354 1.688.576 3.319.333a9.206 9.206 0 005.083-2.469c3.047-3.047 3.24-7.313 2.172-8.392C11.49.876 10.753.66 9.805.66V.65z" fill="#B7B7B7"/><path d="M12.274 6.24a.152.152 0 01-.15-.131A6.458 6.458 0 0010.4 2.705 6.15 6.15 0 006.813.98a.153.153 0 11.021-.305 6.482 6.482 0 013.773 1.829 6.796 6.796 0 011.813 3.565.15.15 0 01-.125.168l-.021.003z" fill="#B7B7B7"/><path d="M12.274 6.316a.226.226 0 01-.223-.195 6.4 6.4 0 00-1.703-3.352 6.095 6.095 0 00-3.535-1.713.235.235 0 01-.156-.08.216.216 0 01-.052-.164.229.229 0 01.241-.207 6.58 6.58 0 013.819 1.828 6.856 6.856 0 011.828 3.62.216.216 0 01-.043.165.226.226 0 01-.149.089l-.027.009zM6.828.757a.073.073 0 00-.073.067c0 .02.006.04.018.055.013.013.03.022.049.025a6.244 6.244 0 013.647 1.746 6.567 6.567 0 011.747 3.45.076.076 0 00.073.063.073.073 0 00.049-.027.083.083 0 00.015-.055 6.726 6.726 0 00-1.789-3.529A6.415 6.415 0 006.84.76L6.828.757zM6.109 12.24H6.09a6.659 6.659 0 01-3.545-1.81C1.486 9.369.803 8.046.718 6.89a.153.153 0 01.305-.02c.082 1.084.737 2.336 1.746 3.351a6.437 6.437 0 003.389 1.725.153.153 0 11-.022.305l-.027-.012z" fill="#B7B7B7"/><path d="M6.109 12.316h-.03a6.757 6.757 0 01-3.603-1.829C1.406 9.417.712 8.077.62 6.903a.229.229 0 01.372-.192c.046.04.075.098.08.159.082 1.07.725 2.3 1.724 3.3a6.372 6.372 0 003.352 1.704.22.22 0 01.112.391.226.226 0 01-.151.05zm-5.26-5.51a.073.073 0 00-.07.076c.088 1.14.765 2.438 1.81 3.49a6.616 6.616 0 003.517 1.788.077.077 0 00.073-.064.076.076 0 00-.015-.055.074.074 0 00-.046-.027 6.527 6.527 0 01-3.434-1.746C1.663 9.247 1 7.976.916 6.873A.08.08 0 00.87 6.81a.055.055 0 00-.021-.004z" fill="#B7B7B7"/><path d="M1.062 12.072a.073.073 0 01-.054-.021.076.076 0 010-.104l1.627-1.627a.073.073 0 01.082-.017c.01.004.018.01.025.017a.076.076 0 010 .104L1.114 12.05a.07.07 0 01-.052.021z" fill="#B7B7B7"/><path d="M1.062 12.152a.158.158 0 01-.11-.043.152.152 0 01-.03-.165.143.143 0 01.034-.048l1.627-1.628a.15.15 0 01.21 0 .147.147 0 010 .214L1.17 12.109a.158.158 0 01-.107.043zM10.47 2.659a.073.073 0 01-.055-.022.076.076 0 010-.103L12.042.906a.073.073 0 01.127.052c0 .02-.007.038-.02.052L10.53 2.625a.07.07 0 01-.061.034z" fill="#B7B7B7"/><path d="M10.47 2.735a.152.152 0 01-.153-.15.143.143 0 01.046-.106l1.63-1.627A.15.15 0 0112.1.806c.04.002.078.018.107.046a.155.155 0 010 .213l-1.628 1.627a.158.158 0 01-.11.043zM4.332 8.918a.159.159 0 01-.107-.043.15.15 0 010-.21l4.572-4.571a.15.15 0 11.213.213L4.439 8.878a.15.15 0 01-.107.04z" fill="#B7B7B7"/><path d="M4.332 8.994a.22.22 0 01-.225-.225.22.22 0 01.064-.159l4.57-4.57a.222.222 0 01.378.201.225.225 0 01-.06.115L4.487 8.927a.223.223 0 01-.155.067zm4.571-4.876a.085.085 0 00-.052.022l-4.57 4.57a.07.07 0 00-.022.053.064.064 0 00.021.051.076.076 0 00.104 0l4.57-4.57a.076.076 0 000-.104.085.085 0 00-.042-.025l-.009.003z" fill="#B7B7B7"/><path d="M8.717 5.715a.158.158 0 01-.107-.043L7.422 4.49a.15.15 0 01.21-.21l1.183 1.182a.15.15 0 010 .21.15.15 0 01-.098.043z" fill="#B7B7B7"/><path d="M8.717 5.791a.229.229 0 01-.161-.067L7.373 4.542a.229.229 0 010-.305.232.232 0 01.32 0l1.183 1.182a.225.225 0 010 .305.238.238 0 01-.159.067zm-1.182-1.48a.073.073 0 00-.073.072.064.064 0 00.021.052l1.182 1.182a.073.073 0 00.104-.103L7.587 4.33a.085.085 0 00-.052-.02zM7.654 6.779a.158.158 0 01-.107-.043L6.365 5.554a.15.15 0 010-.21.143.143 0 01.21 0l1.182 1.182a.15.15 0 010 .21.15.15 0 01-.103.043z" fill="#B7B7B7"/><path d="M7.654 6.855a.232.232 0 01-.159-.064L6.31 5.605a.226.226 0 01.305-.304l1.182 1.182a.222.222 0 01.067.158c0 .06-.025.119-.067.162a.238.238 0 01-.143.052zM6.47 5.368a.08.08 0 00-.068.044.07.07 0 00.017.08l1.182 1.183a.076.076 0 00.104 0 .073.073 0 00.02-.052.085.085 0 00-.02-.052L6.523 5.39a.085.085 0 00-.052-.021zM6.59 7.843a.158.158 0 01-.106-.043L5.289 6.618a.15.15 0 010-.21.143.143 0 01.21 0L6.682 7.59a.143.143 0 010 .21.15.15 0 01-.092.043z" fill="#B7B7B7"/><path d="M6.59 7.918a.216.216 0 01-.158-.067L5.249 6.67a.225.225 0 11.305-.305l1.183 1.183a.222.222 0 010 .317.223.223 0 01-.147.054zm-1.182-1.48a.085.085 0 00-.052.02.076.076 0 000 .104l1.182 1.183a.076.076 0 00.104 0 .073.073 0 00.021-.052.085.085 0 00-.02-.052L5.46 6.46a.085.085 0 00-.052-.022zM5.527 8.906a.158.158 0 01-.107-.043L4.238 7.681a.152.152 0 010-.213.15.15 0 01.21 0L5.63 8.653a.143.143 0 010 .21.15.15 0 01-.103.043z" fill="#B7B7B7"/><path d="M5.527 8.982a.216.216 0 01-.159-.067L4.186 7.733a.225.225 0 01.158-.384.223.223 0 01.159.067l1.182 1.182a.225.225 0 01-.158.384zM4.344 7.501a.073.073 0 00-.052.125l1.183 1.182a.074.074 0 00.119-.088L4.41 7.538a.085.085 0 00-.067-.037z" fill="#B7B7B7"/></svg>