<?xml version="1.0" encoding="utf-8"?><svg width="14" height="13" fill="none" xmlns="http://www.w3.org/2000/svg" viewBox="0 0 14 13"><path d="M3.292 12.864c-1.145 0-2.042-.232-2.402-.61C.127 11.49-.12 9.973.234 8.2A10.268 10.268 0 018.274.215c1.758-.338 3.302-.097 4.028.629 1.401 1.4.992 6.103-2.16 9.255-2.026 2.038-4.83 2.764-6.85 2.764zM9.782.6c-.472.002-.943.05-1.407.14A9.676 9.676 0 003.42 3.386a9.765 9.765 0 00-2.673 4.93c-.305 1.581-.12 2.955.512 3.583.745.745 5.453.916 8.514-2.157a9.658 9.658 0 002.633-4.97c.305-1.57.113-2.96-.473-3.547C11.524.825 10.74.6 9.782.6z" fill="#B7B7B7"/><path d="M3.292 12.94c-1.15 0-2.07-.23-2.457-.61-.781-.782-1.034-2.323-.674-4.123A10.347 10.347 0 018.274.15c1.78-.342 3.357-.095 4.096.653 1.421 1.422 1.019 6.18-2.16 9.359-2.06 2.047-4.923 2.777-6.918 2.777zM9.782.15c-.501.003-1 .053-1.492.15A10.198 10.198 0 00.31 8.233c-.35 1.749-.113 3.238.635 3.985.35.351 1.251.571 2.347.571 1.965 0 4.784-.717 6.798-2.746C13.21 6.928 13.627 2.29 12.241.91c-.488-.495-1.376-.76-2.46-.76zm-6.49 12.27c-1.035 0-1.816-.199-2.088-.467-.647-.65-.851-2.048-.53-3.662A9.826 9.826 0 018.36.664a7.552 7.552 0 011.422-.14c1.004 0 1.785.228 2.203.65.61.61.796 2.02.494 3.612a9.713 9.713 0 01-2.651 5.007c-1.99 1.99-4.672 2.628-6.536 2.628zM9.782.676a7.22 7.22 0 00-1.392.14A9.667 9.667 0 00.823 8.332c-.305 1.553-.122 2.902.491 3.515.733.73 5.374.87 8.407-2.16a9.578 9.578 0 002.609-4.928c.305-1.544.116-2.911-.452-3.479-.384-.384-1.147-.604-2.096-.604z" fill="#B7B7B7"/><path d="M2.15 12.42a1.417 1.417 0 01-1.043-.368C.55 11.495.625 10.4 1.31 8.963a16.95 16.95 0 013.28-4.406 16.99 16.99 0 014.404-3.28c1.437-.687 2.535-.76 3.09-.205 1.124 1.126-.405 4.416-3.484 7.495-2.395 2.395-4.904 3.854-6.45 3.854zm8.892-11.418a4.68 4.68 0 00-1.916.546 16.68 16.68 0 00-4.324 3.22A16.783 16.783 0 001.58 9.092c-.61 1.293-.714 2.297-.263 2.746.974.973 4.211-.61 7.074-3.485 2.862-2.874 4.455-6.103 3.484-7.073a1.15 1.15 0 00-.833-.278z" fill="#B7B7B7"/><path d="M2.15 12.497a1.491 1.491 0 01-1.098-.39c-.58-.58-.513-1.71.189-3.177a17.088 17.088 0 013.296-4.425A16.99 16.99 0 018.964 1.21c1.468-.705 2.597-.772 3.177-.193 1.153 1.157-.379 4.495-3.485 7.605-2.356 2.355-4.91 3.875-6.506 3.875zM11.042.779a4.907 4.907 0 00-2.014.568 16.899 16.899 0 00-4.382 3.265 16.722 16.722 0 00-3.265 4.385c-.674 1.404-.75 2.472-.22 3.003a1.343 1.343 0 00.99.344c1.559 0 4.07-1.504 6.407-3.83 3.052-3.05 4.578-6.294 3.485-7.387a1.347 1.347 0 00-1-.348zM2.135 12.195a1.189 1.189 0 01-.873-.305c-.476-.476-.384-1.526.25-2.838A16.71 16.71 0 014.748 4.71a16.737 16.737 0 014.345-3.238 4.818 4.818 0 011.95-.552 1.22 1.22 0 01.888.305c.495.494.39 1.526-.305 2.914A16.925 16.925 0 018.43 8.411c-2.291 2.304-4.845 3.784-6.295 3.784zm8.907-11.116a4.687 4.687 0 00-1.886.537 16.597 16.597 0 00-4.3 3.207A16.536 16.536 0 001.65 9.125c-.61 1.263-.708 2.234-.278 2.664.943.94 4.132-.656 6.964-3.488A16.743 16.743 0 0011.5 4.078c.644-1.303.76-2.3.32-2.746a1.065 1.065 0 00-.778-.253z" fill="#B7B7B7"/></svg>