<?xml version="1.0" encoding="utf-8"?><svg width="14" height="14" fill="none" xmlns="http://www.w3.org/2000/svg" viewBox="0 0 14 14"><path d="M2.28 12.962A2.206 2.206 0 01.72 9.198l1.248-1.249 3.118 3.122-1.245 1.245a2.196 2.196 0 01-1.56.646zm-.306-4.284l-.875.878a1.681 1.681 0 002.378 2.378l.875-.875-2.378-2.381z" fill="#B7B7B7"/><path d="M2.28 13.039a2.258 2.258 0 01-1.613-.667 2.286 2.286 0 010-3.23l1.301-1.3 3.229 3.229-1.304 1.3a2.258 2.258 0 01-1.613.668zm-.306-4.98L.781 9.254a2.142 2.142 0 003.011 3.011l1.194-1.193L1.974 8.06zm.306 4.456a1.757 1.757 0 01-1.242-2.999l.918-.918 2.488 2.488-.918.918a1.745 1.745 0 01-1.246.514v-.003zM1.974 8.8l-.823.823a1.604 1.604 0 001.135 2.74c.422.003.828-.161 1.13-.457l.817-.835L1.974 8.8z" fill="#B7B7B7"/><path d="M3.954 11.906a.07.07 0 01-.052-.022L1.148 9.13a.077.077 0 01.107-.107l2.754 2.754a.08.08 0 010 .107.074.074 0 01-.055.022z" fill="#B7B7B7"/><path d="M3.954 11.982a.138.138 0 01-.104-.045L1.096 9.182a.147.147 0 01-.043-.107.16.16 0 01.043-.107.153.153 0 01.214 0l2.754 2.754a.148.148 0 010 .215.139.139 0 01-.11.046zM4.845 11.203a.266.266 0 01-.245-.165.263.263 0 01.147-.34l7.895-3.127a.263.263 0 11.196.486l-7.895 3.128a.26.26 0 01-.098.018z" fill="#B7B7B7"/><path d="M4.845 11.295a.34.34 0 01-.306-.214.334.334 0 01.186-.441l7.893-3.14a.334.334 0 01.44.187.334.334 0 01-.072.369.306.306 0 01-.111.068L4.97 11.255a.335.335 0 01-.125.04zm7.898-3.673a.174.174 0 00-.067 0l-7.899 3.146a.186.186 0 00-.1.098.196.196 0 000 .144.193.193 0 00.241.104l7.884-3.127a.193.193 0 00.104-.098.196.196 0 00-.039-.205.176.176 0 00-.06-.04.21.21 0 00-.064-.022zM2.14 8.494a.263.263 0 01-.245-.358L5.022.24a.263.263 0 01.487.193L2.396 8.33a.263.263 0 01-.257.165z" fill="#B7B7B7"/><path d="M2.14 8.57a.352.352 0 01-.237-.095.337.337 0 01-.079-.366l3.128-7.9a.324.324 0 01.18-.183.327.327 0 01.257 0 .34.34 0 01.19.441l-3.124 7.89a.334.334 0 01-.316.214zM5.263.153a.16.16 0 00-.073 0 .187.187 0 00-.098.1L1.968 8.165a.196.196 0 000 .143c.022.045.059.08.104.098a.187.187 0 00.239-.104L5.438.406a.187.187 0 00-.104-.242.18.18 0 00-.07-.012z" fill="#B7B7B7"/><path d="M12.743 8.075a.306.306 0 01-.1-.018l-1.424-.588-.544-1.322-1.322-.545-.53-1.322-1.337-.544L6.94 2.42 5.62 1.878 5.035.452a.26.26 0 01.143-.34.263.263 0 01.343.14l.499 1.225 1.325.542.542 1.319 1.322.544.532 1.32 1.322.544.545 1.322 1.224.502a.263.263 0 01.153.358.257.257 0 01-.242.147z" fill="#B7B7B7"/><path d="M12.743 8.152a.355.355 0 01-.128-.025l-1.454-.612-.544-1.325-1.323-.526-.544-1.326-1.322-.541-.545-1.325L5.56 1.93 4.949.476a.349.349 0 010-.26.34.34 0 01.612 0l.508 1.194 1.325.544.542 1.323 1.325.544.541 1.322 1.322.545.554 1.322 1.194.49a.349.349 0 01.21.313.336.336 0 01-.339.338zm-1.472-.741l1.396.575a.19.19 0 00.242-.1.196.196 0 000-.144.177.177 0 00-.101-.098l-1.23-.518-.545-1.322L9.71 5.26l-.56-1.31-1.322-.545-.536-1.334-1.322-.542L5.457.277a.184.184 0 00-.242-.1.193.193 0 00-.101.1.187.187 0 000 .141l.563 1.39 1.31.547.545 1.322 1.322.545.545 1.322 1.334.548.538 1.319zM7.198 10.177h-.034l-.847-.186a.147.147 0 01-.114-.113l-.165-.753-.753-.166a.156.156 0 01-.116-.113l-.165-.756-.753-.162a.147.147 0 01-.113-.113l-.165-.753-.753-.165a.156.156 0 01-.117-.117l-.183-.847a.147.147 0 01.113-.178.15.15 0 01.178.113l.165.756.753.166a.147.147 0 01.116.113l.165.753.753.165a.147.147 0 01.113.116l.18.744.757.165a.153.153 0 01.113.113l.165.756.753.166a.15.15 0 01-.046.296z" fill="#B7B7B7"/><path d="M7.198 10.254H7.15l-.848-.184a.223.223 0 01-.171-.17l-.156-.708-.707-.156a.223.223 0 01-.171-.171l-.156-.707-.704-.153a.236.236 0 01-.175-.175l-.153-.704-.707-.156a.223.223 0 01-.171-.174l-.187-.845a.224.224 0 01.091-.234.22.22 0 01.08-.035.214.214 0 01.172.03.211.211 0 01.098.141l.156.707.707.153a.226.226 0 01.171.175l.156.704.704.156a.233.233 0 01.175.171l.153.707.707.156a.223.223 0 01.171.171l.156.707.707.153a.226.226 0 01.171.27.23.23 0 01-.22.171zM3.064 5.82a.077.077 0 00-.046.03.086.086 0 000 .055l.186.848a.073.073 0 00.055.055l.802.178.175.798a.073.073 0 00.055.059l.802.174.177.802a.073.073 0 00.055.055l.802.177.177.802a.073.073 0 00.056.055l.863.19a.073.073 0 00.07-.058.073.073 0 00-.055-.089l-.802-.174-.177-.802a.073.073 0 00-.056-.058l-.801-.175-.175-.801a.073.073 0 00-.055-.056l-.802-.177-.177-.802a.073.073 0 00-.055-.055l-.823-.171-.175-.802a.074.074 0 00-.034-.046.061.061 0 00-.042-.012z" fill="#B7B7B7"/><path d="M3.085 9.222a.14.14 0 01-.134-.088.147.147 0 01.033-.163l1.2-1.3a.15.15 0 01.22.202l-1.2 1.3a.147.147 0 01-.119.05z" fill="#B7B7B7"/><path d="M3.085 9.299a.223.223 0 01-.226-.217.23.23 0 01.058-.163l1.2-1.297a.226.226 0 01.333.306l-1.2 1.3a.217.217 0 01-.165.07zm1.2-1.6a.077.077 0 00-.055.024l-1.2 1.3a.083.083 0 00-.018.052.073.073 0 00.021.052.076.076 0 00.104 0l1.2-1.3a.077.077 0 000-.104.086.086 0 00-.052-.025zM3.835 10.288a.15.15 0 01-.145-.187.15.15 0 01.047-.076l1.481-1.328a.147.147 0 01.211 0 .15.15 0 010 .21l-1.502 1.341a.156.156 0 01-.092.04z" fill="#B7B7B7"/><path d="M3.835 10.377a.223.223 0 01-.169-.077.226.226 0 01.019-.306l1.481-1.331A.227.227 0 015.469 9l-1.481 1.306a.232.232 0 01-.153.07zm1.481-1.631a.077.077 0 00-.049.018L3.786 10.07a.077.077 0 000 .104.073.073 0 00.1 0l1.482-1.328a.074.074 0 000-.104.064.064 0 00-.052-.025v.028zM4.098 7.01a.061.061 0 01-.04 0 .073.073 0 01-.024-.104l3.045-4.713a.076.076 0 01.125-.001.073.073 0 010 .084L4.16 6.988a.07.07 0 01-.061.022z" fill="#B7B7B7"/><path d="M4.098 7.077a.153.153 0 01-.129-.233l3.06-4.712a.153.153 0 01.258.162L4.233 7.01a.15.15 0 01-.135.067zM5.13 8.035a.077.077 0 01-.053-.128l3.878-3.88a.08.08 0 01.107 0 .073.073 0 010 .106L5.184 8.011a.076.076 0 01-.055.024z" fill="#B7B7B7"/><path d="M5.13 8.112a.162.162 0 01-.108-.046.156.156 0 010-.214l3.88-3.88a.147.147 0 01.108-.044.147.147 0 01.15.15.147.147 0 01-.043.107l-3.88 3.88a.15.15 0 01-.108.047zM6.164 9.067a.07.07 0 01-.061-.034.073.073 0 01.02-.104l4.71-3.045a.076.076 0 01.106.08.077.077 0 01-.023.046L6.203 9.07a.061.061 0 01-.04-.003z" fill="#B7B7B7"/><path d="M6.164 9.152a.147.147 0 01-.126-.067.153.153 0 01.043-.211l4.713-3.06a.148.148 0 01.208.045.15.15 0 010 .167.15.15 0 01-.043.041l-4.713 3.06a.153.153 0 01-.082.025z" fill="#B7B7B7"/></svg>