<?xml version="1.0" encoding="utf-8"?><svg width="13" height="13" fill="none" xmlns="http://www.w3.org/2000/svg" viewBox="0 0 13 13"><path d="M5.703 2.886a1.396 1.396 0 110-2.792 1.396 1.396 0 010 2.792zm0-2.51a1.105 1.105 0 00-.786.328 1.108 1.108 0 000 1.575 1.152 1.152 0 001.575 0A1.117 1.117 0 005.703.376z" fill="#B7B7B7"/><path d="M5.703 2.958A1.465 1.465 0 115.71.028a1.465 1.465 0 01-.007 2.93zm0-2.79a1.321 1.321 0 10.005 2.643A1.321 1.321 0 005.703.168zm0 2.5A1.169 1.169 0 014.517 1.49a1.186 1.186 0 111.175 1.177h.011zm0-2.22a1.04 1.04 0 100 2.075c.274.005.539-.099.737-.288a1.042 1.042 0 000-1.474 1.036 1.036 0 00-.737-.313z" fill="#B7B7B7"/><path d="M5.645 2.75a.049.049 0 01-.034 0 .055.055 0 010-.08c.025-.03.052-.06.08-.089a.058.058 0 01.072 0l.09.055a.054.054 0 01.027.032.055.055 0 01-.004.042.058.058 0 01-.078.024l-.058-.035-.043.046a.052.052 0 01-.052.006z" fill="#B7B7B7"/><path d="M5.645 2.822a.12.12 0 01-.08-.028.124.124 0 01-.046-.087.121.121 0 01.026-.092.977.977 0 01.089-.098.127.127 0 01.161 0l.084.052a.127.127 0 01-.023.233.124.124 0 01-.101 0 .124.124 0 01-.11.02zM5.81 2.477a.07.07 0 01-.038 0c-.017-.017-.034-.031-.049-.049l-.054.035a.058.058 0 01-.078-.017.055.055 0 01.014-.078.966.966 0 01.104-.06.058.058 0 01.066 0l.072.074a.055.055 0 010 .078.052.052 0 01-.037.017z" fill="#B7B7B7"/><path d="M5.81 2.55a.127.127 0 01-.087-.035.127.127 0 01-.142 0 .127.127 0 01-.055-.08.121.121 0 01.001-.05.112.112 0 01.052-.08c.035-.025.072-.047.11-.067a.133.133 0 01.155.029.72.72 0 00.066.066c.026.023.041.055.044.09a.135.135 0 01-.035.092.13.13 0 01-.11.034zM5.867 2.247a.055.055 0 01-.046-.023.689.689 0 01-.037-.06l-.06.016a.058.058 0 01-.073-.034.058.058 0 01.038-.072.803.803 0 01.112-.029.052.052 0 01.06.029l.052.086a.055.055 0 01-.014.078.066.066 0 01-.032.009z" fill="#B7B7B7"/><path d="M5.867 2.32a.124.124 0 01-.106-.059.13.13 0 01-.098 0 .13.13 0 01-.066-.074.132.132 0 01.083-.164l.12-.032a.127.127 0 01.14.066.75.75 0 00.048.08.127.127 0 01-.106.2l-.015-.018z" fill="#B7B7B7"/><path d="M5.98 2.048a.058.058 0 01-.055-.037.575.575 0 01-.02-.066H5.84a.06.06 0 01-.06-.055.055.055 0 01.055-.057h.115a.058.058 0 01.052.043.968.968 0 00.028.098.058.058 0 01-.034.072l-.017.002z" fill="#B7B7B7"/><path d="M5.98 2.118a.13.13 0 01-.124-.087.04.04 0 000-.017.13.13 0 01-.13-.17.118.118 0 01.026-.043.12.12 0 01.09-.043h.123a.127.127 0 01.118.098.867.867 0 00.029.092.13.13 0 010 .098.153.153 0 01-.075.066l-.058.006z" fill="#B7B7B7"/><path d="M6.135 1.878a.055.055 0 01-.055-.052.557.557 0 010-.069h-.06a.056.056 0 11.02-.11.746.746 0 01.115.027.055.055 0 01.037.054v.101a.057.057 0 01-.051.064l-.006-.015z" fill="#B7B7B7"/><path d="M6.135 1.95a.13.13 0 01-.127-.135.124.124 0 01-.08-.055.13.13 0 01.031-.178.13.13 0 01.098-.02l.121.028a.127.127 0 01.09.127v.092a.115.115 0 01-.03.095.124.124 0 01-.086.046h-.017z" fill="#B7B7B7"/><path d="M6.342 1.76a.055.055 0 01-.046-.063c0-.023 0-.046.014-.07L6.256 1.6a.058.058 0 01-.03-.075.055.055 0 01.076-.026c.036.016.07.034.103.055a.058.058 0 01.026.063.682.682 0 00-.023.098.058.058 0 01-.066.046z" fill="#B7B7B7"/><path d="M6.342 1.827H6.32a.124.124 0 01-.104-.147v-.017a.124.124 0 01-.066-.072.127.127 0 010-.098.124.124 0 01.072-.066.13.13 0 01.098 0 .813.813 0 01.11.06.13.13 0 01.057.144.475.475 0 00-.02.092.132.132 0 01-.124.104z" fill="#B7B7B7"/><path d="M6.552 1.683H6.53a.058.058 0 01-.029-.075l.032-.063-.046-.04a.055.055 0 010-.081.058.058 0 01.08 0l.087.077a.06.06 0 010 .07.942.942 0 00-.049.089.058.058 0 01-.052.023z" fill="#B7B7B7"/><path d="M6.552 1.76a.187.187 0 01-.054 0 .127.127 0 01-.06-.17.04.04 0 010-.017.124.124 0 01-.047-.086.127.127 0 01.029-.095.13.13 0 01.181-.014l.092.083a.13.13 0 01.018.158.732.732 0 00-.046.081.127.127 0 01-.113.06zM6.794 1.671a.052.052 0 01-.037 0 .055.055 0 010-.077l.046-.052-.035-.052a.055.055 0 01.053-.088c.015.002.028.01.037.022a.553.553 0 01.066.1.049.049 0 010 .07l-.072.075a.058.058 0 01-.058.002z" fill="#B7B7B7"/><path d="M6.794 1.743a.127.127 0 01-.083-.031.127.127 0 010-.182.135.135 0 01-.026-.095.124.124 0 01.052-.083.127.127 0 01.178.026c.026.034.05.07.072.106a.132.132 0 01-.026.164.464.464 0 00-.066.064.13.13 0 01-.1.031zM4.436 1.572a.052.052 0 01-.043-.02.052.052 0 010-.078l.046-.043-.034-.058a.058.058 0 01.1-.055.575.575 0 00.055.09.058.058 0 010 .072.806.806 0 01-.09.08.049.049 0 01-.034.012z" fill="#B7B7B7"/><path d="M4.436 1.644a.138.138 0 01-.1-.046.127.127 0 01-.026-.095.13.13 0 01.046-.087.13.13 0 01.055-.172.12.12 0 01.095 0 .127.127 0 01.077.06c.015.029.031.057.05.084a.13.13 0 01-.015.164l-.095.086a.135.135 0 01-.087.006z" fill="#B7B7B7"/><path d="M4.73 1.58a.058.058 0 01-.032 0 .055.055 0 01-.014-.078l.032-.054c-.018 0-.032-.032-.05-.05a.058.058 0 010-.08.055.055 0 01.081 0c.023.025.047.05.072.072a.052.052 0 010 .066.965.965 0 01-.06.104.06.06 0 01-.029.02z" fill="#B7B7B7"/><path d="M4.73 1.652a.13.13 0 01-.072-.02.127.127 0 01-.054-.133.127.127 0 01.02-.046.127.127 0 010-.181.147.147 0 01.092-.035.132.132 0 01.089.043l.066.067a.124.124 0 01.029.155l-.063.11a.13.13 0 01-.107.04z" fill="#B7B7B7"/><path d="M5 1.514h-.017a.055.055 0 01-.034-.072l.017-.06a.394.394 0 01-.057-.038.058.058 0 01-.018-.078.055.055 0 01.078 0l.09.052a.058.058 0 01.028.06c0 .038-.02.075-.032.113a.055.055 0 01-.054.023z" fill="#B7B7B7"/><path d="M5 1.586h-.037a.127.127 0 01-.083-.162h-.015a.13.13 0 01-.037-.178.138.138 0 01.083-.055.127.127 0 01.095.02l.081.05a.127.127 0 01.066.14c0 .038-.02.078-.031.118A.127.127 0 015 1.586zM5.243 1.381a.055.055 0 01-.052-.06v-.063l-.067-.02a.06.06 0 01-.034-.073.058.058 0 01.072-.034l.098.029a.055.055 0 01.043.051.769.769 0 010 .116.06.06 0 01-.06.054z" fill="#B7B7B7"/><path d="M5.243 1.453a.13.13 0 01-.121-.135h-.018a.135.135 0 01-.072-.066.13.13 0 010-.098.12.12 0 01.165-.075l.089.026a.127.127 0 01.098.118.885.885 0 010 .124.132.132 0 01-.141.106zM5.444 1.185a.058.058 0 01-.057-.046.46.46 0 00-.015-.06h-.069a.054.054 0 01-.049-.061.06.06 0 01.06-.052h.101a.052.052 0 01.055.037c0 .038.02.075.029.116a.06.06 0 01-.046.066h-.009z" fill="#B7B7B7"/><path d="M5.444 1.265a.127.127 0 01-.127-.103H5.3a.13.13 0 01-.115-.139.13.13 0 01.135-.118h.095a.127.127 0 01.121.09c.013.04.022.08.029.12a.124.124 0 01-.1.15h-.02zM5.591.964a.058.058 0 01-.052-.035.501.501 0 00-.029-.055h-.069a.058.058 0 01-.063-.046.058.058 0 01.046-.066.602.602 0 00.098-.023.058.058 0 01.063.026.576.576 0 01.06.125.055.055 0 01-.031.053l-.023.02z" fill="#B7B7B7"/><path d="M5.59 1.035A.138.138 0 015.474.96h-.017A.124.124 0 015.36.94a.135.135 0 01-.055-.083.12.12 0 01.023-.095.127.127 0 01.083-.055c.03-.004.06-.01.09-.02a.135.135 0 01.146.057c.02.035.04.072.058.11a.135.135 0 01-.066.17.118.118 0 01-.05.011zM5.674.696a.055.055 0 01-.043-.02L5.591.63 5.527.66a.06.06 0 01-.074-.028.058.058 0 01.028-.075c.031-.014.061-.03.09-.05a.06.06 0 01.069 0c.026.03.054.058.077.087a.055.055 0 01-.043.092v.009z" fill="#B7B7B7"/><path d="M5.674.768a.124.124 0 01-.098-.046h-.014a.13.13 0 01-.098 0 .13.13 0 010-.236L5.548.44a.127.127 0 01.155.017l.086.092a.132.132 0 01-.017.182.124.124 0 01-.098.037z" fill="#B7B7B7"/><path d="M5.516.423a.055.055 0 01-.038-.1.9.9 0 00.072-.075.052.052 0 01.07 0 .76.76 0 01.1.066.052.052 0 010 .078.055.055 0 01-.077 0L5.59.357l-.05.046a.052.052 0 01-.025.02z" fill="#B7B7B7"/><path d="M5.516.495a.13.13 0 01-.098-.043.144.144 0 01-.032-.092.127.127 0 01.043-.087l.067-.069a.127.127 0 01.16-.026.863.863 0 01.107.072.124.124 0 01.052.084.115.115 0 01-.026.095.127.127 0 01-.178.026.12.12 0 01-.095.04zM1.514 12.51c-.207 0-.492-.178-.883-.547-.533-.575-.674-.906-.464-1.117a.432.432 0 01.518-.06l3.403-3.4c.297-.298.562-.627.789-.982l.152-.236A12.235 12.235 0 016.65 4.153l3.867-3.86a.864.864 0 01.92-.153 1.563 1.563 0 011.008 1.007.864.864 0 01-.152.922L8.55 5.81c-.68.68-1.439 1.278-2.26 1.78l-.063.037c-.4.244-.77.534-1.103.864L1.76 11.86c.158.288.066.47 0 .55a.311.311 0 01-.245.1zm-.771-1.168c.057.074.135.164.236.273.1.11.152.138.213.187a.227.227 0 01.069-.14l3.506-3.51c.361-.358.762-.673 1.195-.939l.064-.037a11.608 11.608 0 002.167-1.707l3.743-3.743c.086-.083.095-.227.034-.423a1.09 1.09 0 00-.688-.688c-.195-.06-.34-.052-.423.032L6.993 4.513a11.668 11.668 0 00-1.555 1.929l-.152.236c-.249.384-.538.74-.864 1.062L.898 11.261a.236.236 0 01-.155.08z" fill="#B7B7B7"/><path d="M1.514 12.582c-.224 0-.52-.178-.932-.575-.412-.398-.778-.907-.464-1.221a.49.49 0 01.55-.092l3.368-3.368c.293-.292.555-.613.78-.96l.153-.235a12.091 12.091 0 011.63-2.015L10.464.249a.918.918 0 01.996-.172 1.633 1.633 0 011.05 1.053.913.913 0 01-.17.996L8.6 5.87a12.21 12.21 0 01-2.274 1.788l-.063.04a5.758 5.758 0 00-1.089.864l-3.33 3.33a.475.475 0 01-.046.576.378.378 0 01-.283.115zM.45 10.803a.331.331 0 00-.23.092c-.11.113-.181.334.463 1.02.513.48.824.636 1.005.452.107-.104.104-.265 0-.464l-.026-.046.038-.037L5.067 8.45c.335-.336.709-.63 1.114-.878l.063-.037a12.149 12.149 0 002.249-1.768l3.742-3.742a.775.775 0 00.136-.864 1.49 1.49 0 00-.962-.959.786.786 0 00-.864.136L6.682 4.205A11.953 11.953 0 005.07 6.203l-.153.236c-.23.358-.498.69-.8.99L.682 10.867l-.046-.02a.478.478 0 00-.187-.044zm.798 1.152l-.101-.084a3.293 3.293 0 01-.216-.19 2.12 2.12 0 01-.245-.288l-.083-.106h.135a.19.19 0 00.112-.05L4.385 7.7c.318-.32.602-.672.846-1.051l.153-.236c.45-.7.975-1.349 1.563-1.938L10.813.61a.47.47 0 01.495-.049 1.152 1.152 0 01.734.731.469.469 0 01-.049.498L8.252 5.532c-.656.66-1.389 1.24-2.182 1.727l-.064.038a6.363 6.363 0 00-1.18.93L1.32 11.733a.159.159 0 00-.05.1l-.022.122zm-.375-.573c.05.058.104.118.167.184l.124.112a.311.311 0 01.052-.069l3.504-3.515a6.52 6.52 0 011.206-.95l.063-.04A11.438 11.438 0 008.142 5.41l3.742-3.742c.078-.078.052-.234.014-.349a1.016 1.016 0 00-.641-.642c-.17-.054-.288-.049-.349.015L7.042 4.559c-.582.582-1.1 1.223-1.546 1.914l-.153.236a6.359 6.359 0 01-.863 1.074L.94 11.321a.286.286 0 01-.069.06z" fill="#B7B7B7"/><path d="M4.192 7.442l-.2.2.925.923.2-.2-.925-.923z" fill="#B7B7B7"/><path d="M4.903 8.67L3.878 7.645l.288-.288 1.027 1.025-.29.288zm-.82-1.025l.82.823L5 8.37l-.824-.823-.095.098z" fill="#B7B7B7"/></svg>