<?xml version="1.0" encoding="utf-8"?><svg width="14" height="14" fill="none" xmlns="http://www.w3.org/2000/svg" viewBox="0 0 14 14"><path d="M6.6 13.13a6.527 6.527 0 114.615-1.912 6.482 6.482 0 01-4.616 1.911zM6.6.592a6.013 6.013 0 10.008 12.025A6.013 6.013 0 006.599.593z" fill="#B7B7B7"/><path d="M6.6 13.204a6.602 6.602 0 114.669-1.933 6.553 6.553 0 01-4.67 1.933zM6.6.153A6.45 6.45 0 1011.16 2.04 6.415 6.415 0 006.599.153zm0 12.536a6.087 6.087 0 114.307-1.795 6.067 6.067 0 01-4.308 1.801v-.006zM6.6.667a5.935 5.935 0 10-.011 11.87 5.935 5.935 0 00.01-11.87z" fill="#B7B7B7"/><path d="M6.076 13.077a.15.15 0 01-.147-.134 6.416 6.416 0 016.88-7.024.147.147 0 01.135.159.143.143 0 01-.155.134 6.123 6.123 0 00-6.566 6.704.144.144 0 01-.132.158l-.015.003z" fill="#B7B7B7"/><path d="M6.076 13.152a.224.224 0 01-.221-.2 6.494 6.494 0 016.957-7.108.215.215 0 01.15.078.213.213 0 01.054.161.227.227 0 01-.236.204 6.048 6.048 0 00-6.486 6.62.219.219 0 01-.197.242l-.021.003zm6.237-7.18a6.342 6.342 0 00-6.309 6.964.072.072 0 00.072.066v.075-.078a.07.07 0 00.063-.05.071.071 0 00.003-.027 6.198 6.198 0 016.64-6.785.071.071 0 00.078-.066.06.06 0 00-.018-.053.081.081 0 00-.048-.024 6.359 6.359 0 00-.481-.018v-.003zM.886 7.31a6.56 6.56 0 01-.485-.018.147.147 0 01-.134-.158.144.144 0 01.155-.135A6.126 6.126 0 006.98.29a.144.144 0 01.132-.158.147.147 0 01.162.132A6.416 6.416 0 01.886 7.31z" fill="#B7B7B7"/><path d="M.886 7.38c-.164 0-.329 0-.49-.019a.215.215 0 01-.15-.077.212.212 0 01-.054-.162.215.215 0 01.08-.153.21.21 0 01.16-.05A6.045 6.045 0 006.904.293a.221.221 0 01.44-.045A6.494 6.494 0 01.885 7.379zm-.476-.3a.066.066 0 00-.041 0 .063.063 0 00-.027.051.069.069 0 00.015.054c.014.012.032.02.05.024.159 0 .318.018.479.018A6.345 6.345 0 007.198.26.072.072 0 007.07.223a.072.072 0 00-.016.052 6.198 6.198 0 01-6.638 6.79L.41 7.08z" fill="#B7B7B7"/><path d="M11.036 11.2a.146.146 0 01-.105-.045L2.065 2.274a.147.147 0 11.206-.207l8.866 8.866a.147.147 0 010 .207.14.14 0 01-.101.06z" fill="#B7B7B7"/><path d="M11.036 11.26a.225.225 0 01-.159-.066l-8.866-8.87a.213.213 0 01-.049-.24.218.218 0 01.049-.07.224.224 0 01.299 0l8.87 8.865a.224.224 0 01-.156.38h.012zm-8.87-9.163a.072.072 0 00-.05.123l8.869 8.866a.066.066 0 00.076.016.064.064 0 00.022-.016.06.06 0 00.021-.048.063.063 0 00-.02-.05l-8.867-8.87a.072.072 0 00-.05-.021z" fill="#B7B7B7"/><path d="M2.166 11.2a.138.138 0 01-.102-.045.14.14 0 010-.207l8.876-8.88a.14.14 0 01.16-.034.14.14 0 01.046.033.147.147 0 010 .206L2.265 11.14a.147.147 0 01-.099.06z" fill="#B7B7B7"/><path d="M2.166 11.26a.218.218 0 01-.155-.066.221.221 0 010-.3l8.866-8.866a.227.227 0 01.299 0 .215.215 0 01.063.156.208.208 0 01-.063.155L2.322 11.2a.212.212 0 01-.156.06zm8.87-9.163a.072.072 0 00-.051.021l-8.87 8.87a.071.071 0 00-.02.05.072.072 0 00.071.07.072.072 0 00.051-.022l8.866-8.86a.063.063 0 00.021-.051.072.072 0 00-.069-.072v-.006z" fill="#B7B7B7"/></svg>