<?xml version="1.0" encoding="utf-8"?><svg width="13" height="13" fill="none" xmlns="http://www.w3.org/2000/svg" viewBox="0 0 13 13"><path d="M6.498 12.926A6.411 6.411 0 116.516.104a6.411 6.411 0 01-.018 12.822zm0-12.327a5.91 5.91 0 10.027 11.819A5.91 5.91 0 006.498.599z" fill="#B7B7B7"/><path d="M6.498 13a6.5 6.5 0 114.594-1.9A6.452 6.452 0 016.498 13zm0-12.832a6.34 6.34 0 10.006 12.681A6.34 6.34 0 006.498.17zm0 12.327a5.986 5.986 0 114.234-1.752 5.965 5.965 0 01-4.234 1.755v-.003zm0-11.818a5.835 5.835 0 102.24.44A5.797 5.797 0 006.497.68V.677z" fill="#B7B7B7"/><path d="M6.214 12.565a.149.149 0 01-.141-.163.148.148 0 01.029-.074c.12-.148.25-.29.387-.422a.148.148 0 01.183-.018c.146.1.297.191.452.275a.145.145 0 11-.136.254 5.527 5.527 0 01-.378-.222 4.13 4.13 0 00-.295.32.145.145 0 01-.101.05z" fill="#B7B7B7"/><path d="M6.214 12.639a.216.216 0 01-.216-.195.204.204 0 01.045-.16c.123-.153.255-.3.396-.437a.216.216 0 01.274-.024c.144.098.293.187.447.27.05.026.088.072.106.126a.21.21 0 01-.018.169.221.221 0 01-.214.114.216.216 0 01-.081-.026 6.341 6.341 0 01-.331-.192 3.463 3.463 0 00-.237.272.212.212 0 01-.17.083zm.378-.706a.064.064 0 00-.05.02 4.754 4.754 0 00-.384.423.08.08 0 00-.015.053.071.071 0 00.093.06.07.07 0 00.034-.025c.092-.114.19-.224.296-.328l.041-.04.05.032c.124.08.248.153.375.218a.07.07 0 00.054 0 .072.072 0 00.041-.035.065.065 0 000-.053.07.07 0 00-.035-.042c-.154-.082-.296-.177-.458-.277a.066.066 0 00-.042-.006zM7.024 11.219a.148.148 0 01-.098-.036 3.98 3.98 0 01-.295-.295 5.11 5.11 0 00-.36.221.146.146 0 01-.165.006.146.146 0 01-.064-.152.145.145 0 01.066-.093 6.54 6.54 0 01.487-.296.147.147 0 01.175.033c.114.13.237.252.366.366a.145.145 0 01-.051.238.136.136 0 01-.061.008z" fill="#B7B7B7"/><path d="M7.024 11.293a.216.216 0 01-.148-.057 7.053 7.053 0 01-.275-.266 3.62 3.62 0 00-.295.19.222.222 0 01-.163.035.216.216 0 01-.139-.092.222.222 0 01.056-.295c.16-.107.326-.206.497-.296a.218.218 0 01.263.05c.112.127.232.248.357.361a.216.216 0 01.018.296.212.212 0 01-.171.074zm-.393-.506l.038.042c.098.103.201.204.296.295a.071.071 0 00.115-.022.068.068 0 00-.015-.075 5.526 5.526 0 01-.372-.373.068.068 0 00-.083 0c-.166.09-.327.188-.482.296a.074.074 0 00-.017.1.092.092 0 00.044.03.066.066 0 00.053 0c.118-.08.242-.157.367-.225l.056-.068zM7.301 10.096a.148.148 0 01-.12-.065 5.503 5.503 0 01-.225-.367 4.85 4.85 0 00-.405.116.15.15 0 01-.183-.092.145.145 0 01.094-.183c.178-.06.358-.11.541-.148a.148.148 0 01.157.074c.079.152.166.299.263.44a.145.145 0 01-.122.225z" fill="#B7B7B7"/><path d="M7.301 10.17a.21.21 0 01-.18-.098 4.51 4.51 0 01-.2-.322 4.606 4.606 0 00-.346.098.201.201 0 01-.166 0 .213.213 0 01-.11-.127.204.204 0 010-.166.213.213 0 01.128-.11c.18-.059.364-.108.55-.147a.216.216 0 01.236.112c.078.149.164.293.257.432a.225.225 0 01.035.162.219.219 0 01-.068.13.198.198 0 01-.136.036zm-.295-.591l.027.05c.07.124.144.245.221.36a.071.071 0 00.098.02.066.066 0 00.032-.07.065.065 0 00-.012-.026 5.078 5.078 0 01-.266-.446.068.068 0 00-.076-.036 5.71 5.71 0 00-.535.142.065.065 0 00-.039.035.074.074 0 000 .056.06.06 0 00.036.039.068.068 0 00.053 0c.136-.044.275-.083.414-.115l.047-.01zM7.848 9.1a.142.142 0 01-.136-.094 5.066 5.066 0 01-.127-.41 3.983 3.983 0 00-.42 0 .148.148 0 01-.017-.296h.558a.142.142 0 01.133.112c.042.166.089.328.145.488a.142.142 0 01-.089.183.133.133 0 01-.047.017z" fill="#B7B7B7"/><path d="M7.848 9.174a.225.225 0 01-.207-.145 4.726 4.726 0 01-.112-.363h-.36a.222.222 0 01-.23-.204.222.222 0 01.206-.233h.564a.225.225 0 01.204.168c.038.163.086.324.142.482a.222.222 0 01-.133.277.216.216 0 01-.074.018zm-.387-.656h.183v.053c.039.14.08.275.124.405a.077.077 0 00.092.044.074.074 0 00.044-.091 4.394 4.394 0 01-.147-.497.077.077 0 00-.065-.053h-.55a.089.089 0 00-.05.024.083.083 0 00-.018.053.074.074 0 00.074.065c.112 0 .213-.003.313-.003zM8.619 8.276a.142.142 0 01-.142-.13 4.173 4.173 0 01-.02-.431 6.117 6.117 0 00-.408-.098.145.145 0 11.056-.283c.181.036.36.081.538.135a.148.148 0 01.103.142c-.003.17.003.34.018.508a.142.142 0 01-.13.157h-.015z" fill="#B7B7B7"/><path d="M8.62 8.362a.213.213 0 01-.217-.198c0-.127-.017-.254-.02-.381a7.411 7.411 0 00-.349-.08.225.225 0 01-.139-.092.219.219 0 01-.032-.165.213.213 0 01.17-.172.219.219 0 01.087 0c.183.036.37.083.546.136a.222.222 0 01.154.213c-.003.168.003.335.018.502a.219.219 0 01-.198.237h-.02zm-.545-.946a.097.097 0 00-.038 0 .08.08 0 00-.03.048.086.086 0 000 .053.074.074 0 00.048.03c.136.026.275.058.413.097l.054.015v.056c0 .139 0 .295.017.425a.074.074 0 00.071.062v.074-.074a.071.071 0 00.065-.077 4.982 4.982 0 01-.017-.517.07.07 0 00-.05-.068 5.181 5.181 0 00-.533-.133v.01zM9.576 7.667H9.55a.148.148 0 01-.118-.168 3.68 3.68 0 01.091-.423 11.07 11.07 0 00-.372-.195.145.145 0 01.124-.26c.168.08.331.167.49.263a.148.148 0 01.065.166c-.047.164-.085.33-.112.5a.145.145 0 01-.142.117z" fill="#B7B7B7"/><path d="M9.576 7.74h-.038a.222.222 0 01-.142-.088.21.21 0 01-.035-.162c.02-.124.044-.248.077-.375a5.376 5.376 0 00-.32-.163.242.242 0 01-.112-.124.236.236 0 010-.168.23.23 0 01.124-.113.236.236 0 01.169 0c.171.083.337.172.496.27a.219.219 0 01.098.247 4.888 4.888 0 00-.113.49.216.216 0 01-.204.187zM9.21 6.68h-.024a.07.07 0 00-.04.036.068.068 0 000 .053.07.07 0 00.035.041c.128.06.253.126.375.198l.05.027-.015.053c-.035.139-.065.295-.088.42a.062.062 0 000 .05.062.062 0 00.047.03.068.068 0 00.068-.06c.03-.165.068-.337.115-.505a.071.071 0 00-.032-.08 5.058 5.058 0 00-.485-.263H9.21zM10.67 7.316a.153.153 0 01-.062 0 .145.145 0 01-.068-.192c.06-.132.127-.26.2-.384-.1-.098-.206-.192-.316-.296a.144.144 0 01-.047-.154.146.146 0 01.124-.102.145.145 0 01.107.032c.147.12.295.25.42.384a.147.147 0 01.017.177c-.09.146-.171.297-.245.452a.142.142 0 01-.13.083z" fill="#B7B7B7"/><path d="M10.67 7.39a.24.24 0 01-.092-.018.225.225 0 01-.106-.296 6.14 6.14 0 01.174-.34 5.182 5.182 0 00-.269-.239.206.206 0 01-.077-.148.222.222 0 01.048-.16.219.219 0 01.295-.029c.148.122.295.254.423.387a.22.22 0 01.03.27 4.03 4.03 0 00-.24.445.219.219 0 01-.186.127zm-.154-1.13a.068.068 0 00-.053.027.08.08 0 00-.018.05c.002.02.012.038.027.05.111.094.218.192.319.296l.041.039-.03.05a5.14 5.14 0 00-.197.378.074.074 0 00.035.095.07.07 0 00.095-.036c.074-.157.157-.31.248-.458a.077.077 0 000-.088 5.58 5.58 0 00-.414-.376.06.06 0 00-.053-.026zM11.87 7.265a.133.133 0 01-.095-.038.145.145 0 010-.204c.097-.106.2-.21.295-.295a4.703 4.703 0 00-.242-.355.148.148 0 01-.027-.108.146.146 0 01.165-.123.146.146 0 01.095.057c.115.154.222.315.32.481a.145.145 0 01-.03.183 3.992 3.992 0 00-.372.37.154.154 0 01-.11.032z" fill="#B7B7B7"/><path d="M11.87 7.339a.221.221 0 01-.146-.056.219.219 0 01-.017-.296 3.97 3.97 0 01.268-.275 3.557 3.557 0 00-.206-.295.22.22 0 01.121-.344.22.22 0 01.23.081c.119.162.228.325.325.49a.215.215 0 01-.044.275 4.71 4.71 0 00-.366.36.226.226 0 01-.166.06zm.076-1.138a.083.083 0 00-.044 0 .077.077 0 00-.015.1c.089.116.17.236.245.361l.033.05-.045.042a5.56 5.56 0 00-.295.295.074.074 0 000 .1.07.07 0 00.097 0c.12-.132.247-.257.381-.375a.068.068 0 000-.088c-.094-.16-.2-.32-.316-.476a.074.074 0 00-.05-.009h.009zM.273 6.775a.142.142 0 01-.116-.056.145.145 0 01.024-.201c.112-.092.219-.186.322-.296a5.528 5.528 0 01-.224-.378.145.145 0 01.257-.136c.081.156.172.307.271.452a.148.148 0 01-.014.184c-.136.138-.28.267-.432.387a.148.148 0 01-.088.044z" fill="#B7B7B7"/><path d="M.273 6.848A.213.213 0 01.1 6.766a.219.219 0 01-.02-.242.216.216 0 01.056-.066c.091-.073.183-.153.272-.236a4.21 4.21 0 01-.195-.33.222.222 0 01.025-.243.219.219 0 01.361.036c.082.153.172.302.27.445a.222.222 0 01-.024.275 5.08 5.08 0 01-.437.396.225.225 0 01-.136.047zm.133-1.131H.373a.07.07 0 00-.03.094c.069.127.142.252.222.376l.033.05-.045.041a4.25 4.25 0 01-.325.296.077.077 0 00-.026.047.068.068 0 00.037.07.065.065 0 00.078-.017A4.8 4.8 0 00.74 6.29a.07.07 0 000-.089c-.101-.147-.194-.3-.278-.458a.077.077 0 00-.056-.026zM1.712 6.813a.157.157 0 01-.08-.023.145.145 0 01-.039-.201c.08-.118.154-.24.222-.36-.106-.101-.21-.205-.295-.31a.145.145 0 01.212-.196c.116.127.24.251.367.366a.145.145 0 01.032.175 4.806 4.806 0 01-.295.487.142.142 0 01-.124.062z" fill="#B7B7B7"/><path d="M1.712 6.884a.204.204 0 01-.121-.038.216.216 0 01-.092-.139.21.21 0 01.032-.162c.068-.098.13-.201.19-.296-.092-.092-.184-.183-.266-.275a.22.22 0 11.325-.295c.109.12.233.242.36.357a.222.222 0 01.047.266c-.09.17-.188.335-.295.494a.222.222 0 01-.18.088zm-.095-1.137a.074.074 0 00-.047.018.07.07 0 000 .1c.094.103.195.207.295.295l.042.039-.027.05c-.07.127-.148.248-.224.366a.065.065 0 000 .054.074.074 0 00.03.044.074.074 0 00.097-.018c.107-.154.206-.313.295-.478a.071.071 0 00-.015-.086 5.532 5.532 0 01-.372-.372.074.074 0 00-.074-.01v-.002zM3.05 6.482h-.044a.145.145 0 01-.092-.184 4.85 4.85 0 00.115-.404 5.12 5.12 0 01-.37-.225.145.145 0 01-.038-.2.145.145 0 01.201-.042c.141.095.287.183.438.263a.145.145 0 01.076.156c-.04.183-.089.364-.147.541a.145.145 0 01-.14.095z" fill="#B7B7B7"/><path d="M3.05 6.556a.183.183 0 01-.068 0 .207.207 0 01-.124-.11.216.216 0 01-.015-.165c.038-.112.071-.23.1-.346a3.993 3.993 0 01-.324-.2.216.216 0 01-.092-.14.21.21 0 01.032-.162.219.219 0 01.296-.059c.136.092.295.177.431.257a.219.219 0 01.112.24c-.039.184-.088.367-.147.546a.219.219 0 01-.201.139zm-.296-1.084a.068.068 0 00-.059.032.065.065 0 000 .053.074.074 0 00.03.045c.114.076.235.15.363.221l.048.027v.053c-.033.139-.071.278-.116.414a.068.068 0 000 .053.071.071 0 00.095.031.07.07 0 00.035-.04c.059-.176.107-.354.145-.535a.074.074 0 00-.035-.077 4.231 4.231 0 01-.446-.266.065.065 0 00-.071-.011h.011zM4.235 5.832a.145.145 0 01-.136-.154v-.42a4.727 4.727 0 01-.41-.126.145.145 0 11.097-.272c.16.057.322.105.487.145a.142.142 0 01.11.133c.01.186.01.372 0 .558a.145.145 0 01-.148.136z" fill="#B7B7B7"/><path d="M4.235 5.906a.219.219 0 01-.204-.23v-.36a4.28 4.28 0 01-.36-.113.22.22 0 11.144-.414c.157.056.316.104.482.145a.213.213 0 01.165.2c.01.189.01.377 0 .565a.219.219 0 01-.227.207zm-.5-.98a.068.068 0 00-.065.046.074.074 0 00.042.092c.13.044.266.086.405.124l.056.015v.481a.07.07 0 00.065.074.068.068 0 00.07-.068c.01-.183.01-.366 0-.55a.07.07 0 00-.053-.064 4.584 4.584 0 01-.496-.148l-.024-.003zM5.216 4.913a.145.145 0 01-.142-.118 4.81 4.81 0 00-.098-.408c-.144 0-.295 0-.428-.017a.15.15 0 01-.133-.16.145.145 0 01.157-.13c.17.015.34.02.51.018a.157.157 0 01.143.103c.053.177.098.357.133.538a.145.145 0 01-.113.171l-.03.003z" fill="#B7B7B7"/><path d="M5.216 4.987a.219.219 0 01-.213-.177 4.967 4.967 0 00-.083-.349c-.127 0-.254 0-.38-.02a.216.216 0 01-.149-.077.233.233 0 01-.05-.16.222.222 0 01.24-.198c.166.015.334.021.502.018a.233.233 0 01.212.154c.054.177.098.363.136.55a.216.216 0 01-.171.253l-.044.006zm-.66-.833a.07.07 0 00-.04.015.077.077 0 00-.033.056.077.077 0 00.065.077c.139 0 .28.018.422.018h.057l.014.053a5.6 5.6 0 01.1.413.07.07 0 00.128.027.065.065 0 000-.053 5.18 5.18 0 00-.133-.532.08.08 0 00-.071-.05 4.982 4.982 0 01-.517-.018l.009-.006zM5.942 3.776a.145.145 0 01-.133-.083 4.79 4.79 0 00-.195-.372c-.139.038-.28.068-.422.091a.145.145 0 01-.141-.227.145.145 0 01.094-.06c.168-.026.335-.064.499-.111a.142.142 0 01.163.065c.097.158.186.322.265.49a.145.145 0 01-.13.207z" fill="#B7B7B7"/><path d="M5.943 3.85a.222.222 0 01-.198-.124 4.065 4.065 0 00-.166-.32c-.124.033-.251.057-.375.08a.224.224 0 01-.071-.443c.165-.029.329-.066.49-.112a.222.222 0 01.249.097c.097.161.186.327.266.497a.21.21 0 010 .168.219.219 0 01-.113.124.19.19 0 01-.082.033zm-.296-.615l.027.05c.07.122.139.249.198.376a.074.074 0 00.094.035.071.071 0 00.036-.041.068.068 0 000-.053 5.045 5.045 0 00-.26-.485.068.068 0 00-.08-.032c-.169.047-.34.085-.508.115a.068.068 0 00-.056.083.07.07 0 00.08.056c.137-.024.276-.054.416-.089l.053-.015zM6.359 2.473a.136.136 0 01-.11-.053 3.289 3.289 0 00-.295-.316 4.787 4.787 0 01-.384.2.145.145 0 01-.197-.179.142.142 0 01.076-.08c.155-.073.306-.155.452-.246a.142.142 0 01.177.021c.135.132.262.27.381.417a.148.148 0 01-.017.203.166.166 0 01-.083.033z" fill="#B7B7B7"/><path d="M6.359 2.547a.219.219 0 01-.168-.08 4.094 4.094 0 00-.24-.269 5.266 5.266 0 01-.34.175.227.227 0 01-.238-.045.219.219 0 01-.057-.236.204.204 0 01.112-.124c.153-.072.302-.152.446-.24a.216.216 0 01.266.03c.137.134.266.275.387.423a.219.219 0 01-.168.357v.009zm-.381-.535l.041.042c.1.1.195.21.296.319a.074.074 0 00.1 0 .07.07 0 000-.098 5.023 5.023 0 00-.378-.413.071.071 0 00-.086 0 4.353 4.353 0 01-.46.248.07.07 0 00-.036.041.083.083 0 000 .053c.009.017.024.03.041.039a.083.083 0 00.053 0c.128-.06.255-.127.379-.198l.05-.033zM5.573 1.129a.148.148 0 01-.11-.05.145.145 0 010-.204c.13-.117.253-.241.367-.373a.145.145 0 01.183-.03c.167.098.327.205.482.32a.142.142 0 01.03.204.145.145 0 01-.201.03 4.698 4.698 0 00-.355-.243c-.1.104-.204.202-.313.296a.148.148 0 01-.083.05z" fill="#B7B7B7"/><path d="M5.573 1.203A.219.219 0 015.425.82c.13-.114.25-.238.364-.369a.216.216 0 01.275-.044c.165.1.33.21.487.325a.219.219 0 11-.26.351 5.966 5.966 0 00-.295-.206c-.09.094-.18.186-.275.268a.222.222 0 01-.148.057zM5.96.526a.08.08 0 00-.053.024c-.117.134-.24.261-.372.38a.071.071 0 000 .101.074.074 0 00.1 0c.103-.093.202-.192.296-.295L5.96.68l.052.032c.121.074.243.157.36.245a.08.08 0 00.054 0A.062.062 0 006.47.931a.07.07 0 00.015-.053.08.08 0 00-.03-.048 6.269 6.269 0 00-.472-.316.083.083 0 00-.024.012z" fill="#B7B7B7"/></svg>