<?xml version="1.0" encoding="utf-8"?><svg width="12" height="13" fill="none" xmlns="http://www.w3.org/2000/svg" viewBox="0 0 12 13"><path d="M3.932 12.35a1.216 1.216 0 01-1.123-1.28 94.133 94.133 0 000-9.709 1.14 1.14 0 112.26-.014 61.867 61.867 0 000 9.703 1.218 1.218 0 01-1.137 1.3zm0-11.789a.733.733 0 00-.649.797 93.83 93.83 0 010 9.734.663.663 0 101.297 0 62.682 62.682 0 010-9.74.727.727 0 00-.648-.802v.011z" fill="#B7B7B7"/><path d="M3.932 12.42a1.283 1.283 0 01-1.202-1.35 94.077 94.077 0 000-9.706A1.46 1.46 0 013.09.4 1.123 1.123 0 013.932 0a1.283 1.283 0 011.201 1.347 62.488 62.488 0 000 9.698 1.47 1.47 0 01-.348.974 1.122 1.122 0 01-.853.401zm0-12.28a.988.988 0 00-.739.348 1.31 1.31 0 00-.311.87 94.186 94.186 0 010 9.712 1.145 1.145 0 001.05 1.207.992.992 0 00.746-.354c.206-.245.317-.556.312-.876a62.633 62.633 0 010-9.708A1.142 1.142 0 003.932.14zm0 11.789a.797.797 0 01-.719-.842c.169-3.24.169-6.488 0-9.729a.808.808 0 01.719-.87.794.794 0 01.718.842 62.608 62.608 0 000 9.734.808.808 0 01-.718.873v-.008zm0-11.317a.665.665 0 00-.562.735 93.94 93.94 0 010 9.74.592.592 0 101.157-.017 62.405 62.405 0 010-9.745.665.665 0 00-.595-.705V.612z" fill="#B7B7B7"/><path d="M4.688 2.086L3.114 3.363l.087.107 1.573-1.277-.086-.107z" fill="#B7B7B7"/><path d="M4.696 1.993L3.014 3.358l.175.216 1.683-1.365-.176-.216zM4.64 3.075L3.064 4.352l.174.214 1.574-1.277-.174-.214z" fill="#B7B7B7"/><path d="M3.23 4.664l-.261-.322 1.684-1.364.26.322L3.23 4.664zm-.065-.303l.087.104 1.462-1.187-.084-.104-1.465 1.187zM1.192 12.35A1.213 1.213 0 01.07 11.07a93.348 93.348 0 000-9.71A1.215 1.215 0 011.192.07a1.213 1.213 0 011.123 1.277 62.212 62.212 0 000 9.703c.008.724-.5 1.3-1.123 1.3zm0-11.789a.735.735 0 00-.648.797 93.832 93.832 0 010 9.734.733.733 0 00.648.786.735.735 0 00.651-.797 61.993 61.993 0 010-9.74.73.73 0 00-.65-.791V.56z" fill="#B7B7B7"/><path d="M1.192 12.42a1.283 1.283 0 01-1.19-1.35 93.29 93.29 0 000-9.706A1.46 1.46 0 01.35.4 1.123 1.123 0 011.192 0a1.283 1.283 0 011.201 1.347 62.14 62.14 0 000 9.698 1.47 1.47 0 01-.348.974 1.122 1.122 0 01-.853.401zm0-12.28a.982.982 0 00-.744.348 1.314 1.314 0 00-.314.87 93.4 93.4 0 010 9.712 1.143 1.143 0 001.058 1.207.988.988 0 00.747-.354c.204-.244.314-.554.308-.873a62.285 62.285 0 010-9.72A1.14 1.14 0 001.192.14zm0 11.789a.797.797 0 01-.719-.842c.169-3.24.169-6.488 0-9.729a.808.808 0 01.719-.87.794.794 0 01.721.842 61.923 61.923 0 000 9.734.808.808 0 01-.721.873v-.008zm0-11.317a.668.668 0 00-.578.727 93.94 93.94 0 010 9.74.665.665 0 00.578.71.668.668 0 00.581-.727 62.064 62.064 0 010-9.746.662.662 0 00-.581-.696V.612z" fill="#B7B7B7"/><path d="M1.746 8.508L.174 9.783l.173.213L1.92 8.721l-.173-.213z" fill="#B7B7B7"/><path d="M.339 10.09l-.261-.322 1.684-1.364.26.323L.34 10.09zm-.056-.3l.084.104 1.462-1.187-.084-.104L.283 9.79zM1.786 9.599L.215 10.874l.087.107 1.57-1.275-.086-.107z" fill="#B7B7B7"/><path d="M1.797 9.5l-1.68 1.364.175.215 1.68-1.363-.175-.216zM8.2 12.196a.138.138 0 01-.137-.137V1.182a.14.14 0 11.28 0V12.06a.138.138 0 01-.143.137z" fill="#B7B7B7"/><path d="M8.2 12.277a.208.208 0 01-.207-.208V1.182a.208.208 0 01.415 0v10.876a.208.208 0 01-.208.219zm0-11.151a.067.067 0 00-.067.067v10.876a.068.068 0 00.115.048.068.068 0 00.02-.048V1.182a.067.067 0 00-.068-.068v.012z" fill="#B7B7B7"/><path d="M6.716 2.032a.91.91 0 01-.388-.093.132.132 0 01-.073-.081c-.08-.247-.05-.348.135-.446a1.17 1.17 0 00.483-.5c.35-.561.805-.755 1.285-.53.034.016.06.045.073.08.082.248.05.349-.134.447-.209.114-.377.29-.483.503a1.1 1.1 0 01-.898.62zM6.5 1.715c.165.067.513.143.878-.45a1.44 1.44 0 01.59-.597l.03-.017V.606c-.165-.067-.513-.14-.878.45a1.437 1.437 0 01-.59.597l-.03.017s-.006.025 0 .045z" fill="#B7B7B7"/><path d="M6.716 2.102a1 1 0 01-.419-.098.225.225 0 01-.12-.112c-.093-.28-.048-.413.168-.53.197-.11.356-.275.458-.475.37-.6.859-.797 1.372-.561a.205.205 0 01.11.123c.092.28.05.415-.166.53-.197.11-.356.276-.457.478-.256.418-.584.645-.946.645zM7.768.36a1.061 1.061 0 00-.842.59c-.112.222-.289.406-.508.525-.146.078-.177.134-.1.362a.065.065 0 00.033.042c.443.205.87.025 1.195-.506.115-.221.293-.404.511-.524.146-.076.177-.135.101-.362a.07.07 0 00-.036-.04.842.842 0 00-.354-.087zM6.713 1.83a.617.617 0 01-.242-.05h-.03v-.034-.101l.073-.042c.24-.126.435-.322.56-.562.357-.561.722-.561.966-.477l.034.014V.61a.365.365 0 010 .053V.71l-.076.042c-.237.13-.432.324-.561.562-.25.395-.508.516-.724.516zm-.093-.152c.247.05.483-.098.7-.449.132-.24.325-.443.56-.586-.247-.05-.482.1-.698.449a1.575 1.575 0 01-.562.586z" fill="#B7B7B7"/><path d="M8.2 2.86a.244.244 0 01-.241-.241V.836a.241.241 0 11.48 0V2.62a.241.241 0 01-.239.24z" fill="#B7B7B7"/><path d="M8.2 2.93a.312.312 0 01-.311-.311V.836a.312.312 0 11.62 0V2.62a.312.312 0 01-.309.311zm0-2.265a.171.171 0 00-.171.171V2.62a.171.171 0 10.34 0V.836A.169.169 0 008.2.665zM8.807 10.815c0 .106-.281.19-.607.19-.325 0-.609-.084-.609-.19 0-.107.281-.188.61-.188.328 0 .606.084.606.188z" fill="#B7B7B7"/><path d="M8.2 11.076c-.336 0-.679-.082-.679-.261 0-.18.427-.258.68-.258.252 0 .676.053.676.258 0 .205-.424.26-.677.26zm0-.379c-.348 0-.525.087-.539.12.162.1.352.14.54.119a.814.814 0 00.535-.121c-.02-.037-.196-.118-.536-.118zM10.668 12.195a.138.138 0 01-.138-.137V1.18a.14.14 0 01.28 0v10.877a.137.137 0 01-.142.137z" fill="#B7B7B7"/><path d="M10.668 12.277a.208.208 0 01-.208-.208V1.182a.208.208 0 11.413 0v10.876a.208.208 0 01-.205.219zm0-11.152a.065.065 0 00-.068.068v10.876a.068.068 0 00.066.081.068.068 0 00.066-.081V1.182a.064.064 0 00-.018-.048.063.063 0 00-.046-.02v.011z" fill="#B7B7B7"/><path d="M9.189 2.032a.91.91 0 01-.388-.093.123.123 0 01-.073-.081c-.081-.247-.05-.348.135-.446a1.17 1.17 0 00.483-.5c.348-.561.805-.755 1.285-.53a.135.135 0 01.07.08c.082.248.054.349-.131.447-.21.114-.38.29-.486.503a1.092 1.092 0 01-.895.62zm-.205-.317c.163.067.513.143.878-.45a1.44 1.44 0 01.587-.597l.03-.017a.225.225 0 000-.045c-.165-.067-.516-.14-.88.45a1.42 1.42 0 01-.615.597l-.031.017a.205.205 0 00.03.045z" fill="#B7B7B7"/><path d="M9.189 2.102a1 1 0 01-.419-.099.225.225 0 01-.11-.123c-.092-.28-.05-.415.17-.53.196-.11.355-.275.457-.475.37-.6.842-.797 1.372-.561.052.025.091.07.11.123.092.281.05.416-.169.53a1.1 1.1 0 00-.454.478 1.174 1.174 0 01-.957.657zm1.058-1.74a1.033 1.033 0 00-.842.586c-.113.222-.29.405-.508.525-.146.079-.177.135-.101.362a.064.064 0 00.033.042c.444.205.868.025 1.196-.505.113-.223.291-.405.51-.525.147-.076.178-.135.102-.362a.07.07 0 00-.037-.04.842.842 0 00-.353-.083zM9.186 1.829a.617.617 0 01-.242-.05h-.03v-.135l.039-.022.034-.02a1.37 1.37 0 00.56-.561c.357-.562.722-.562.966-.477l.031.014V.71l-.07.039c-.24.133-.434.333-.561.575-.253.385-.511.505-.727.505zm-.096-.151c.25.05.486-.098.702-.45.133-.24.326-.443.561-.586-.25-.05-.482.101-.698.45a1.572 1.572 0 01-.565.586z" fill="#B7B7B7"/><path d="M10.667 2.86a.242.242 0 01-.241-.241V.836a.242.242 0 01.338-.246.241.241 0 01.142.246V2.62a.242.242 0 01-.239.24z" fill="#B7B7B7"/><path d="M10.667 2.93a.312.312 0 01-.311-.311V.836a.312.312 0 11.62 0V2.62a.312.312 0 01-.309.311zm0-2.265a.171.171 0 00-.17.171V2.62a.172.172 0 10.339 0V.836a.168.168 0 00-.169-.171zM11.28 10.815c0 .106-.281.19-.607.19-.325 0-.609-.084-.609-.19 0-.107.28-.188.61-.188.328 0 .606.084.606.188z" fill="#B7B7B7"/><path d="M10.668 11.076c-.34 0-.68-.082-.68-.261 0-.18.427-.258.68-.258.252 0 .676.053.676.258 0 .205-.334.26-.676.26zm0-.379c-.348 0-.525.087-.54.12-.013.034.191.119.54.119a.823.823 0 00.536-.121.842.842 0 00-.536-.118z" fill="#B7B7B7"/></svg>