<?xml version="1.0" encoding="utf-8"?><svg width="14" height="10" fill="none" xmlns="http://www.w3.org/2000/svg" viewBox="0 0 14 10"><path d="M13.813 6.277a12.895 12.895 0 00-.38-2.496c-.206-.791-.464-1.532-.774-2.1C11.454-.436 10.146-.109 8.58.304c-.498.12-1.032.259-1.583.31h-.172C6.274.563 5.74.424 5.24.304 3.674-.092 2.366-.436 1.16 1.7c-.31.568-.585 1.308-.774 2.1a12.9 12.9 0 00-.379 2.496c-.034.877.052 1.514.241 1.962.19.413.465.671.827.775.327.086.705.051 1.101-.121.672-.275 1.446-.86 2.204-1.566.533-.517 1.532-.775 2.53-.775.998 0 1.997.258 2.53.775.758.705 1.532 1.29 2.204 1.566.396.155.774.207 1.101.12.345-.103.637-.344.827-.791.189-.43.275-1.068.24-1.963zM12.986 8c-.103.24-.24.378-.413.43-.19.052-.43.017-.706-.086-.602-.241-1.308-.775-1.996-1.429-.654-.654-1.808-.98-2.961-.98-1.153 0-2.307.326-2.978.946-.706.654-1.411 1.205-1.997 1.429-.275.103-.516.155-.705.086-.173-.052-.31-.19-.414-.43C.68 7.636.61 7.103.644 6.311c.035-.74.155-1.584.362-2.376.19-.74.43-1.428.723-1.945C2.676.287 3.777.563 5.085.907c.534.137 1.085.275 1.687.327h.259c.62-.052 1.17-.19 1.704-.327 1.308-.327 2.41-.62 3.356 1.084.293.517.534 1.188.723 1.945.19.792.327 1.618.362 2.376.034.792-.035 1.325-.19 1.687z" fill="#B7B7B7"/><path d="M5.326 2.92c-.172-.154-.378-.275-.62-.292a.98.98 0 00-.275-.602l-.017-.018a.975.975 0 00-.706-.292c-.275 0-.533.12-.705.292a1 1 0 00-.293.62c-.241.017-.448.12-.62.276l-.017.017a.975.975 0 00-.293.706c0 .275.12.533.293.705a.96.96 0 00.637.293c.017.24.12.465.293.62.189.189.43.292.705.292.276 0 .534-.12.706-.292.155-.173.275-.38.293-.62a.918.918 0 00.62-.293c.189-.19.292-.43.292-.705 0-.276-.12-.534-.293-.706zm-.43.965a.35.35 0 01-.258.103h-.241a.327.327 0 00-.327.327v.224a.35.35 0 01-.362.361.35.35 0 01-.361-.361v-.241a.327.327 0 00-.327-.327h-.241a.35.35 0 01-.258-.103.35.35 0 010-.5l.017-.017a.411.411 0 01.24-.086h.242a.327.327 0 00.327-.327v-.241a.35.35 0 01.361-.361.35.35 0 01.258.103l.018.017a.411.411 0 01.086.241v.241c0 .172.137.327.327.327h.24A.35.35 0 015 3.627a.35.35 0 01-.103.258zM9.905 3.007a.603.603 0 100-1.205.603.603 0 000 1.205zM9.905 5.451a.602.602 0 100-1.205.602.602 0 000 1.205zM8.683 4.229a.602.602 0 100-1.205.602.602 0 000 1.205zM11.127 4.229a.602.602 0 100-1.205.602.602 0 000 1.205z" fill="#B7B7B7"/></svg>