<?xml version="1.0" encoding="utf-8"?><svg width="13" height="12" fill="none" xmlns="http://www.w3.org/2000/svg" viewBox="0 0 13 12"><path fill-rule="evenodd" clip-rule="evenodd" d="M5.569 2.677L4.053 5.305l1.734 1.784.108.11-.044.138-.568 1.727.156.06 1.341-1.96-1.164-1.292-.123-.135.095-.156.862-1.41.197-.323.27.271.729.731 1.183.038-.993-.288-.114-.032-.054-.098-.596-1.062-1.503-.725v-.006zM3.308 5.843l.019.161.609-.034-.124-.127h-.504zm1.902 1.44l.038.04-.035-.05-.003.01zm.733 2.098h.032v-.023.023h-.032zm.352-.518l1.081-1.578.089-.135 1.167-.665.067.155-2.176 2.554-.228-.331zm.83-2.136l-.95-1.045.573-.941.54.54.082.081h.124l.818.026-.12.05.094.227.13.316-1.3.743.01.003zm2.56-1.79l.19.38-.951.397.12.287.245.593.057.136.206.495c.226-.055.46-.083.694-.084a2.86 2.86 0 011.614.491c.464.318.802.766.961 1.274.16.509.132 1.05-.079 1.543-.21.493-.592.91-1.088 1.188a2.896 2.896 0 01-1.656.352 2.812 2.812 0 01-1.556-.624 2.38 2.38 0 01-.827-1.35 2.23 2.23 0 01.237-1.53L6.723 9.812l-.254.288-1.154-.083c-.103.479-.36.92-.739 1.266-.374.34-.852.573-1.372.667a2.934 2.934 0 01-1.549-.138 2.641 2.641 0 01-1.203-.895c-.295-.4-.452-.87-.452-1.352 0-.481.157-.952.452-1.352.295-.4.713-.712 1.203-.896a2.934 2.934 0 011.55-.137c.519.094.997.326 1.371.666.074.066.143.137.206.21l.203-.115-1.088-1.586-.76.044H2.93l-.022-.19-.054-.513V5.62l.05-.06.045-.053.064-.077h.425l-.07-.072.092-.162 1.744-3.019.136-.233.254.124 1.84.883.079.04.04.075.584 1.04 1.396.414.26.078-.073.239-.022.08-.013.02zM7.28 0c-.193 0-.384.034-.563.102-.178.067-.34.165-.477.29-.136.123-.245.27-.318.432a1.227 1.227 0 000 1.02c.073.162.182.309.318.433s.298.222.476.289a1.6 1.6 0 001.125 0c.178-.067.34-.165.476-.29a1.33 1.33 0 00.32-.431 1.224 1.224 0 000-1.021 1.33 1.33 0 00-.32-.433 1.482 1.482 0 00-.475-.289A1.595 1.595 0 007.28 0zm.634.76a.897.897 0 00-.29-.18.967.967 0 00-.688 0 .897.897 0 00-.29.18.778.778 0 00-.263.576c0 .215.095.423.263.575a.945.945 0 00.634.239.945.945 0 00.634-.239.81.81 0 00.197-.263.745.745 0 000-.624.81.81 0 00-.197-.264zm2.379 8.238l-.428-1.03c.128-.026.259-.039.39-.038.418-.002.825.128 1.15.367.324.24.548.575.631.947.083.372.022.76-.174 1.095-.196.336-.515.6-.901.746a1.98 1.98 0 01-1.217.057c-.401-.11-.748-.342-.98-.658a1.526 1.526 0 01-.298-1.073c.04-.378.224-.732.52-1a1.76 1.76 0 01.359-.25l.425 1.027a.537.537 0 00-.047.712c.08.106.2.184.335.221a.696.696 0 00.416-.014.622.622 0 00.316-.245.532.532 0 00.081-.37.56.56 0 00-.188-.336.665.665 0 00-.378-.158h-.012zm-7.611 0a.684.684 0 00-.314.077.609.609 0 00-.23.209.536.536 0 00-.005.57c.053.088.131.16.226.212a.682.682 0 00.628.014.614.614 0 00.237-.201l1.218.086a1.6 1.6 0 01-.479.774c-.34.308-.8.481-1.281.481-.48 0-.941-.173-1.281-.48a1.603 1.603 0 01-.496-.84 1.503 1.503 0 01.1-.947c.136-.3.366-.557.662-.739a1.914 1.914 0 012.27.2l.08.077-1.034.59a.659.659 0 00-.317-.083h.016zm5.797-1.25l.453-.529.083.199c-.193.09-.373.201-.536.33zM4.357 8.933c.065.134.108.275.13.42l-.834-.017.704-.403z" fill="#B7B7B7"/></svg>