<?xml version="1.0" encoding="utf-8"?><svg width="30" height="30" fill="none" xmlns="http://www.w3.org/2000/svg" viewBox="0 0 30 30"><path d="M24.384 6.796h-4.217c-.3 0-.542.243-.542.542v11.9c0 .3.243.543.542.543h4.217c.3 0 .543-.243.543-.542V7.338c0-.3-.243-.542-.543-.542zM6.656 12.992a1.57 1.57 0 000 3.139h.17c-.898 0-1.625.678-1.625 1.514s.727 1.514 1.624 1.514h4.92c-.205.547-1.197 4.162-.953 5.43.143.742.661 1.921 1.894 2.002.224.014.443-.083.623-.204a.97.97 0 00.43-.835c-.017-.578-.023-1.575.126-1.962.194-.503 1.03-1.246 1.393-1.643.521-.57 1.635-1.663 2.037-2.323.282-.464.729-1.712.96-2.382.097-.286.148-.585.148-.887v-6.303a2.646 2.646 0 00-2.647-2.646H7.467c-.709 0-1.297.567-1.302 1.276A1.285 1.285 0 007.45 9.977h-.455c-.806 0-1.482.627-1.521 1.432a1.507 1.507 0 001.505 1.583" fill="#FE3C3C"/><path d="M15 30c-2.025 0-3.99-.397-5.839-1.18a15.041 15.041 0 01-7.982-7.981A14.907 14.907 0 010 15c0-2.025.397-3.99 1.18-5.839A15.041 15.041 0 019.16 1.18 14.908 14.908 0 0115 0c2.025 0 3.99.397 5.839 1.18a15.041 15.041 0 017.982 7.981A14.907 14.907 0 0130 15.001c0 2.024-.397 3.988-1.18 5.838a15.041 15.041 0 01-7.981 7.982A14.907 14.907 0 0115 30zm0-28.302C7.665 1.698 1.698 7.666 1.698 15c0 7.335 5.967 13.302 13.302 13.302S28.302 22.335 28.302 15c0-7.334-5.967-13.302-13.302-13.302z" fill="#FE3C3C"/></svg>