<?xml version="1.0" encoding="utf-8"?><svg width="13" height="13" fill="none" xmlns="http://www.w3.org/2000/svg" viewBox="0 0 13 13"><path d="M9.46 11.981c-1.191 0-2.523-.748-2.523-1.75 0-1.003 1.332-1.749 2.524-1.749 1.191 0 2.224.786 2.224 1.748 0 .963-.996 1.751-2.224 1.751zm0-2.976c-1.008 0-1.998.611-1.998 1.222s.99 1.223 1.999 1.223c.938 0 1.702-.55 1.702-1.223 0-.672-.764-1.219-1.702-1.219v-.003z" fill="#B7B7B7"/><path d="M9.46 12.024c-1.222 0-2.56-.767-2.56-1.79 0-1.024 1.35-1.788 2.56-1.788s2.265.803 2.265 1.787c0 .984-1.018 1.791-2.264 1.791zm0-3.502c-1.173 0-2.484.734-2.484 1.711 0 .978 1.311 1.715 2.485 1.715 1.173 0 2.188-.77 2.188-1.715 0-.944-.981-1.71-2.188-1.71zm0 2.976c-1.026 0-2.038-.626-2.038-1.265 0-.638 1.012-1.262 2.039-1.262.96 0 1.738.566 1.738 1.262 0 .697-.773 1.265-1.738 1.265zm0-2.444c-.99 0-1.961.587-1.961 1.185 0 .6.972 1.19 1.962 1.19.916 0 1.662-.533 1.662-1.19 0-.656-.746-1.191-1.662-1.191v.006zM3.092 11.981c-1.222 0-2.224-.785-2.224-1.75 0-.966.996-1.749 2.224-1.749 1.229 0 2.524.75 2.524 1.748 0 1-1.332 1.751-2.524 1.751zm0-2.976c-.938 0-1.702.55-1.702 1.222 0 .672.764 1.223 1.702 1.223 1.009 0 1.999-.612 1.999-1.223 0-.61-.99-1.219-1.999-1.219v-.003z" fill="#B7B7B7"/><path d="M3.092 12.024c-1.246 0-2.264-.804-2.264-1.79 0-.988 1.018-1.788 2.264-1.788 1.247 0 2.561.767 2.561 1.787 0 1.021-1.338 1.791-2.56 1.791zm0-3.502c-1.207 0-2.188.77-2.188 1.711 0 .942.981 1.715 2.188 1.715 1.207 0 2.485-.734 2.485-1.715 0-.98-1.311-1.71-2.485-1.71zm0 2.976c-.96 0-1.738-.565-1.738-1.265s.779-1.262 1.738-1.262c1.027 0 2.038.612 2.038 1.262 0 .651-1.011 1.265-2.038 1.265zm0-2.444c-.916 0-1.662.532-1.662 1.185 0 .654.746 1.19 1.662 1.19.99 0 1.962-.588 1.962-1.19 0-.601-.972-1.191-1.962-1.191v.006z" fill="#B7B7B7"/><path d="M5.354 10.353a.263.263 0 01-.26-.225.26.26 0 01.128-.261 2.16 2.16 0 012.115 0 .263.263 0 01-.275.446 1.643 1.643 0 00-1.577 0 .248.248 0 01-.131.04z" fill="#B7B7B7"/><path d="M5.354 10.392a.305.305 0 01-.26-.15.306.306 0 01-.03-.226.306.306 0 01.137-.183 2.221 2.221 0 012.154 0 .306.306 0 11-.305.51 1.614 1.614 0 00-1.528 0 .305.305 0 01-.168.049zm.965-.77a2.295 2.295 0 00-1.078.278.22.22 0 00.057.406.23.23 0 00.169-.02 1.686 1.686 0 011.616 0 .223.223 0 00.306-.074.226.226 0 00-.073-.306 1.895 1.895 0 00-.997-.284zM12.26 9.537l-.917-.159a.068.068 0 00-.08.042.08.08 0 00-.006.032v.8c0 .022.01.043.025.058.014.012.03.019.049.019l.917-.16a.077.077 0 00.06-.072v-.483a.076.076 0 00-.048-.077z" fill="#B7B7B7"/><path d="M11.322 10.371a.113.113 0 01-.113-.113v-.8a.118.118 0 01.04-.09.119.119 0 01.094-.024l.917.162a.113.113 0 01.095.11v.483a.113.113 0 01-.095.11l-.917.162h-.021zm0-.95h-.025a.04.04 0 000 .027v.801a.04.04 0 000 .027.04.04 0 00.025 0l.916-.161a.04.04 0 00.03-.034v-.483a.04.04 0 00-.03-.034l-.916-.161v.018zM1.26 9.399a.064.064 0 00-.062-.015l-.917.159a.076.076 0 00-.06.073v.483a.077.077 0 00.06.073l.917.159a.067.067 0 00.046-.018.077.077 0 00.027-.059v-.8a.07.07 0 00-.012-.055z" fill="#B7B7B7"/><path d="M1.21 10.37h-.021l-.917-.161a.113.113 0 01-.095-.11v-.483a.113.113 0 01.095-.11l.917-.162a.12.12 0 01.123.064.113.113 0 01.011.05v.8a.113.113 0 01-.113.113zm0-.95l-.917.162a.037.037 0 00-.03.034v.483a.037.037 0 00.03.034l.917.161a.04.04 0 00.03 0 .034.034 0 000-.027v-.8a.034.034 0 000-.028.034.034 0 00-.03-.019zM12.565 7.624H.342a.26.26 0 01-.26-.232 6.417 6.417 0 1112.758 0 .263.263 0 01-.275.232zM.578 7.092h11.758c0-.131.015-.263.015-.394a5.894 5.894 0 00-11.786 0c0 .14.003.272.013.394z" fill="#B7B7B7"/><path d="M12.565 7.664H.342a.306.306 0 01-.305-.27 6.454 6.454 0 1112.834 0 .306.306 0 01-.306.27zM6.454.33A6.374 6.374 0 00.116 7.398a.223.223 0 00.223.201h12.226a.226.226 0 00.223-.201 7.25 7.25 0 00.034-.679A6.384 6.384 0 006.454.33zM12.37 7.14H.544v-.049-.397a5.931 5.931 0 0111.862 0v.397l-.036.049zM.61 7.065H12.3v-.358a5.855 5.855 0 00-11.71 0c.013.12.02.238.025.358H.611z" fill="#B7B7B7"/><path d="M7.887 7.514H4.926a.147.147 0 01-.15-.137L4.166.94a.144.144 0 01.079-.143c.968-.514 3.22-.517 4.299 0a.144.144 0 01.086.146L8.018 7.38a.15.15 0 01-.131.134zM5.054 7.21h2.699l.574-6.194c-.996-.416-2.943-.416-3.847 0l.574 6.194z" fill="#B7B7B7"/><path d="M7.887 7.551H4.926a.19.19 0 01-.19-.171L4.126.948a.186.186 0 01.1-.184c.978-.52 3.248-.522 4.336 0a.186.186 0 01.104.19l-.611 6.432a.186.186 0 01-.168.165zM6.359.446a4.846 4.846 0 00-2.096.386.116.116 0 00-.061.106l.61 6.436a.113.113 0 00.114.1h2.967a.107.107 0 00.11-.1L8.614.938a.107.107 0 00-.06-.11A5.46 5.46 0 006.364.446H6.36zM7.78 7.252H5.015v-.034L4.437.981h.024c.917-.418 2.876-.418 3.881 0h.025v.03l-.587 6.24zm-2.695-.077H7.71l.577-6.13c-.99-.397-2.866-.4-3.767 0l.565 6.13zM8.486 7.438a.073.073 0 01-.064-.083l.473-3.88a.076.076 0 01.15.018l-.477 3.88a.073.073 0 01-.082.065z" fill="#B7B7B7"/><path d="M8.486 7.477a.116.116 0 01-.076-.04.122.122 0 01-.025-.085l.477-3.878a.107.107 0 01.043-.076.116.116 0 01.082-.024c.03.004.055.02.073.042a.12.12 0 01.025.083l-.492 3.878a.113.113 0 01-.107.1zm.474-4.03h-.022a.04.04 0 00-.015.027l-.474 3.878a.037.037 0 000 .028.034.034 0 00.025.015.04.04 0 00.036-.034l.474-3.88a.025.025 0 000-.025.043.043 0 00-.024-.015v.006zM4.315 7.437a.076.076 0 01-.077-.064l-.473-3.88a.076.076 0 01.122-.068.073.073 0 01.027.049l.474 3.88a.073.073 0 01-.064.083h-.01z" fill="#B7B7B7"/><path d="M4.315 7.477a.113.113 0 01-.113-.101l-.474-3.88a.116.116 0 01.021-.083.134.134 0 01.077-.043.11.11 0 01.08.021.104.104 0 01.045.08l.474 3.878a.098.098 0 01-.022.082.107.107 0 01-.076.043l-.012.003zm-.474-4.03a.04.04 0 00-.027.015.024.024 0 000 .024l.473 3.88a.04.04 0 00.037.034.043.043 0 00.024-.015.037.037 0 000-.027L3.872 3.48a.04.04 0 000-.028l-.03-.006z" fill="#B7B7B7"/></svg>