<?xml version="1.0" encoding="utf-8"?><svg width="14" height="14" fill="none" xmlns="http://www.w3.org/2000/svg" viewBox="0 0 14 14"><path d="M10.24 6.934a.13.13 0 01-.061 0 8.764 8.764 0 01-.455-.19l-.437-.184a.164.164 0 01-.104-.15c0-.022.004-.044.013-.064L11.77.196a.16.16 0 01.2-.09l.86.287a.157.157 0 01.11.152.16.16 0 01-.013.065l-2.54 6.234a.167.167 0 01-.148.09zm-.67-.628l.295.127.294.124 2.41-5.923-.548-.184-2.45 5.856z" fill="#B7B7B7"/><path d="M10.24 7.018a.27.27 0 01-.091-.017l-.451-.19v-.087l-.034.077c-.14-.06-.277-.12-.418-.174a.244.244 0 01-.137-.134.26.26 0 010-.194L11.687.152a.248.248 0 01.304-.14l.859.287c.064.023.117.07.147.13a.253.253 0 010 .198L10.46 6.864a.244.244 0 01-.22.154zM11.91.166a.08.08 0 00-.073.05L9.263 6.363a.08.08 0 00.044.107l.424.177h.024c.15.067.297.13.444.187a.08.08 0 00.104-.043l2.54-6.238a.083.083 0 000-.063.083.083 0 00-.047-.044L11.937.16l-.026.007zm-1.724 6.501l-.08-.033-.295-.124-.294-.127-.077-.034L11.954.333l.709.237-2.477 6.097zm-.525-.404l.217.093.214.09 2.34-5.762-.388-.13-2.383 5.709z" fill="#B7B7B7"/><path d="M10.61 6.65a.3.3 0 00-.157-.157 12.867 12.867 0 01-.494-.207c-.221-.097-.445-.191-.669-.278a.287.287 0 00-.364.154l-.448 1.036c-.28.638-.619.983-1.551.842a52.068 52.068 0 01-2.594-.22 15.555 15.555 0 00-.95-.08l-.447-.027c-1.194-.07-2.056-.124-2.53.37a1.44 1.44 0 00-.298 1.208c.083.725.318 1.426.689 2.055.4.756 1.387 1.003 2.005 1.087v-.579c-.561-.087-1.24-.31-1.487-.778a.313.313 0 00-.054-.077 4.917 4.917 0 01-.568-1.765.95.95 0 01.144-.756c.29-.3 1.08-.254 2.082-.194l.458.027c.2 0 .498.037.913.08.628.064 1.484.154 2.593.218 1.337.2 1.832-.485 2.136-1.184l.335-.775.39.167.238.104-1.598 3.62c-.334.772-1.003 1.186-2.082 1.307v.581c.986-.097 2.079-.454 2.604-1.671l1.701-3.894a.274.274 0 00.003-.214z" fill="#B7B7B7"/><path d="M6.218 12.526v-.748h.074c1.053-.117 1.691-.519 2.005-1.257l1.551-3.553-.16-.07-.314-.134-.305.698c-.317.729-.832 1.444-2.226 1.234-1.096-.064-1.952-.154-2.577-.218-.428-.043-.722-.073-.92-.08l-.457-.027c-.943-.056-1.755-.103-2.006.17a.852.852 0 00-.12.67c.072.604.26 1.19.552 1.724a.505.505 0 01.06.087c.267.505 1.086.669 1.427.739h.07v.745h-.097c-.581-.08-1.628-.334-2.049-1.13a5.396 5.396 0 01-.698-2.085 1.52 1.52 0 01.334-1.274c.498-.521 1.38-.471 2.597-.398l.448.027c.217 0 .542.04.95.084.631.063 1.477.15 2.59.217.889.134 1.2-.177 1.47-.792l.449-1.03a.371.371 0 01.47-.197c.225.084.449.18.67.274.22.094.334.147.497.21a.361.361 0 01.204.205.375.375 0 010 .287l-1.701 3.898c-.441 1.019-1.317 1.577-2.674 1.71l-.114.014zm.167-.601v.417c1.237-.143 2.04-.668 2.447-1.604l1.698-3.897a.197.197 0 000-.158.193.193 0 00-.114-.11l-.484-.207c-.23-.1-.455-.194-.669-.28a.204.204 0 00-.257.11l-.448 1.029c-.287.668-.669 1.04-1.641.892A57.572 57.572 0 014.34 7.9c-.418-.043-.74-.077-.956-.083l-.448-.027C1.762 7.72.93 7.67.469 8.124A1.394 1.394 0 00.19 9.267c.084.707.312 1.39.669 2.006.374.702 1.274.953 1.838 1.04v-.408c-.46-.084-1.203-.291-1.477-.816a.146.146 0 00-.04-.05v-.02A5.067 5.067 0 01.603 9.22a1.003 1.003 0 01.167-.822c.317-.334 1.123-.28 2.146-.22l.458.026c.2 0 .498.037.909.08.645.064 1.497.154 2.597.218 1.287.194 1.748-.431 2.056-1.133l.37-.85.074.03.395.168.314.134-1.635 3.727c-.334.782-1.002 1.213-2.069 1.347z" fill="#B7B7B7"/><path d="M3.5 9.204l-1.838-.117a.168.168 0 00-.023.334l1.862.12v-.337z" fill="#B7B7B7"/><path d="M3.584 9.602l-1.948-.124a.24.24 0 01-.171-.083.23.23 0 01-.06-.178.24.24 0 01.083-.17.25.25 0 01.178-.06l1.918.12v.495zM1.65 9.154a.09.09 0 00-.05.017.084.084 0 00-.027.056.064.064 0 00.02.057.07.07 0 00.054.027l1.771.114v-.16l-1.761-.111h-.007zM7.117 9.418l-1.42-.09v.334l1.4.087a.167.167 0 100-.334l.02.003z" fill="#B7B7B7"/><path d="M7.117 9.83l-1.494-.098v-.494l1.511.097a.24.24 0 01.17.083.247.247 0 01-.187.411zM5.78 9.574l1.337.084a.08.08 0 00.084-.074.073.073 0 00-.02-.056.07.07 0 00-.054-.027L5.79 9.415l-.01.16zM2.682 10.37l-1.02-.063a.163.163 0 00-.174.154.157.157 0 00.15.17l1.044.067v-.328z" fill="#B7B7B7"/><path d="M2.772 10.788l-1.13-.073a.24.24 0 01-.17-.084.226.226 0 01-.06-.177.247.247 0 01.26-.23l1.1.07v.494zm-1.113-.397a.077.077 0 00-.08.073.06.06 0 00.02.057.087.087 0 00.053.03l.953.06v-.16l-.943-.06H1.66zM7.117 10.655l-.585-.057v.334l.565.057a.167.167 0 000-.334h.02z" fill="#B7B7B7"/><path d="M7.117 11.066l-.668-.067v-.495l.668.067a.247.247 0 01.158.42.247.247 0 01-.158.075zm-.49-.217l.49.05a.08.08 0 00.007-.16l-.498-.05v.16z" fill="#B7B7B7"/><path d="M4.507 13.5a2.37 2.37 0 110-4.74 2.37 2.37 0 010 4.74zm0-4.169a1.798 1.798 0 100 3.597 1.798 1.798 0 000-3.597z" fill="#B7B7B7"/><path d="M4.507 13.583a2.453 2.453 0 110-4.907 2.453 2.453 0 010 4.907zm0-4.74a2.286 2.286 0 100 4.573 2.286 2.286 0 000-4.573zm0 4.165a1.882 1.882 0 110-3.764 1.882 1.882 0 010 3.764zm0-3.593a1.715 1.715 0 100 3.43 1.715 1.715 0 000-3.43z" fill="#B7B7B7"/></svg>