<?xml version="1.0" encoding="utf-8"?><svg width="13" height="13" fill="none" xmlns="http://www.w3.org/2000/svg" viewBox="0 0 13 13"><path d="M6.385 12.728a6.328 6.328 0 110-12.656 6.328 6.328 0 010 12.656zm0-12.167a5.841 5.841 0 10.006 11.683A5.841 5.841 0 006.385.56z" fill="#B7B7B7"/><path d="M6.385 12.799A6.4 6.4 0 116.414 0 6.4 6.4 0 016.385 12.8zm0-12.654a6.263 6.263 0 100 12.526 6.263 6.263 0 000-12.526zm0 12.167a5.913 5.913 0 114.178-1.732 5.919 5.919 0 01-4.178 1.735v-.003zm0-11.672a5.77 5.77 0 105.768 5.77A5.773 5.773 0 006.385.644V.64z" fill="#B7B7B7"/><path d="M6.385 12.728a6.328 6.328 0 110-12.656 6.328 6.328 0 010 12.656zm0-12.167a5.841 5.841 0 10.006 11.683A5.841 5.841 0 006.385.56z" fill="#B7B7B7"/><path d="M6.385 12.799A6.4 6.4 0 116.414 0 6.4 6.4 0 016.385 12.8zm0-12.654a6.263 6.263 0 100 12.526 6.263 6.263 0 000-12.526zm0 12.167a5.913 5.913 0 114.178-1.732 5.919 5.919 0 01-4.178 1.735v-.003zm0-11.672a5.77 5.77 0 105.768 5.77A5.773 5.773 0 006.385.644V.64z" fill="#B7B7B7"/><path d="M7.737 7.413l-.814-2.42a.071.071 0 00-.065-.048l-2.562.025a.068.068 0 00-.066.049l-.766 2.437a.071.071 0 00.026.076l2.08 1.48a.068.068 0 00.04 0 .071.071 0 00.043 0L7.706 7.49a.065.065 0 00.031-.077z" fill="#B7B7B7"/><path d="M5.62 9.098a.134.134 0 01-.08-.026l-2.081-1.48a.142.142 0 01-.054-.156l.765-2.437a.137.137 0 01.134-.1l2.562-.025A.142.142 0 017 4.97l.814 2.42a.14.14 0 01-.051.16l-2.05 1.52a.134.134 0 01-.094.028zm1.238-4.082l-2.562.025-.755 2.434 2.081 1.48 2.053-1.52-.817-2.42zM1.548 10.02l.632-2.012a.071.071 0 00-.025-.077L.35 6.647a5.995 5.995 0 001.198 3.373z" fill="#B7B7B7"/><path d="M1.574 10.174l-.082-.11A6.075 6.075 0 01.279 6.646v-.142L2.2 7.87a.14.14 0 01.055.157l-.68 2.146zM.435 6.792A5.927 5.927 0 001.53 9.867l.589-1.879L.435 6.792zM6.385 12.443a5.98 5.98 0 001.605-.22.08.08 0 00-.028-.034l-2.135-1.398a.074.074 0 00-.083 0l-1.54 1.239a5.978 5.978 0 002.18.413z" fill="#B7B7B7"/><path d="M6.385 12.514c-.756 0-1.505-.14-2.21-.413l-.113-.046 1.64-1.315a.137.137 0 01.165 0l2.135 1.398a.133.133 0 01.054.071l.028.071-.074.02a6.066 6.066 0 01-1.625.214zm-2.041-.501a6.012 6.012 0 003.493.179l-2.05-1.34-1.443 1.16zM12.418 6.726l-.914-.57a.066.066 0 00-.08 0L9.463 7.792a.071.071 0 00-.023.08l.95 2.37a.069.069 0 00.066.046l.584-.04a6.016 6.016 0 001.378-3.521z" fill="#B7B7B7"/><path d="M10.461 10.356a.14.14 0 01-.136-.088l-.942-2.369a.142.142 0 01.042-.162l1.95-1.634a.137.137 0 01.165 0l.948.598v.04a6.072 6.072 0 01-1.397 3.552v.029l-.615.04-.015-.006zm1.005-4.145L9.508 7.848l.948 2.368.552-.037a5.904 5.904 0 001.335-3.416l-.877-.552zM1.127 3.416l2.3.322A.071.071 0 003.49 3.7l1.056-2.172a.068.068 0 00-.014-.083L3.937.877a6.05 6.05 0 00-2.81 2.54z" fill="#B7B7B7"/><path d="M3.444 3.809h-.02L1.02 3.473l.051-.091A6.192 6.192 0 013.917.82L3.96.8l.632.609a.148.148 0 01.028.165L3.561 3.746a.14.14 0 01-.117.063zm-2.197-.45l2.197.307L4.5 1.497l-.569-.54a6.02 6.02 0 00-2.684 2.402zM10.703 3.735a.071.071 0 00.063-.04l.45-.923A6.058 6.058 0 007.99.578l-.284.156a.068.068 0 00-.034.074l.444 2.514a.074.074 0 00.057.057l2.53.353v.003z" fill="#B7B7B7"/><path d="M10.703 3.806h-.017l-2.53-.353a.145.145 0 01-.12-.117L7.592.823a.142.142 0 01.071-.148l.319-.171h.028a6.158 6.158 0 013.263 2.22l.025.037-.466.96a.142.142 0 01-.129.085zM8 .643l-.268.143.445 2.513 2.527.353.43-.882A6.02 6.02 0 008 .643zM1.392 9.604v.174l3.425 2.434v-.17L1.392 9.603z" fill="#B7B7B7"/><path d="M4.888 12.352L1.32 9.812v-.344l3.567 2.537v.347zM3.638 7.436l-2.1.706.107.108 2.039-.683a.071.071 0 00.042-.088.065.065 0 00-.088-.043z" fill="#B7B7B7"/><path d="M1.625 8.33l-.222-.222 2.212-.743a.125.125 0 01.106 0 .15.15 0 01.074.082.145.145 0 01-.089.18l-2.08.703zM1.805 2.824L.46 7.103H.61L2.02 2.61l-.214.213z" fill="#B7B7B7"/><path d="M.66 7.174H.364l1.392-4.401.416-.419L.66 7.174zM8.463 1.532H3.055l-.14.14h5.693c-.05-.05-.1-.095-.145-.14z" fill="#B7B7B7"/><path d="M8.773 1.74H2.727l.288-.28h5.477l.281.28zM9.098 2.162L6.744 5.128a.074.074 0 000 .1c.015.004.03.004.045 0a.071.071 0 00.055-.026l2.34-2.955-.086-.085z" fill="#B7B7B7"/><path d="M6.8 5.313a.142.142 0 01-.11-.228l2.408-3.018.202.2L6.917 5.27a.134.134 0 01-.116.043zM12.061 8.614a.11.11 0 000-.031l-1.753-5.215-.214-.21 1.8 5.354-4.302-1.11a.071.071 0 00-.085.05.074.074 0 00.05.086l4.27 1.102-4.642 3.444v.174l4.84-3.601a.073.073 0 00.02-.031l.016-.012z" fill="#B7B7B7"/><path d="M7.105 12.398v-.35l4.555-3.382-4.128-1.068a.147.147 0 11.071-.285L11.78 8.39 9.926 2.875l.45.456 1.754 5.215a.095.095 0 010 .049v.042a.051.051 0 01-.018.029v.017l-.04.023-4.967 3.692zM2.576 2.066l-.102.103 1.784 2.906a.071.071 0 00.06.035.063.063 0 00.037 0 .068.068 0 00.023-.094l-1.802-2.95z" fill="#B7B7B7"/><path d="M4.304 5.18a.14.14 0 01-.12-.067l-1.799-2.97.205-.205 1.834 3.03a.142.142 0 01-.046.193.168.168 0 01-.074.02zM5.622 8.83a.071.071 0 00-.062.077l.333 3.208h.14L5.698 8.9a.071.071 0 00-.077-.069z" fill="#B7B7B7"/><path d="M6.112 12.187h-.285l-.339-3.271a.14.14 0 01.126-.154.142.142 0 01.15.125l.348 3.3z" fill="#B7B7B7"/><path d="M6.385 12.728a6.328 6.328 0 110-12.656 6.328 6.328 0 010 12.656zm0-12.167a5.841 5.841 0 10.006 11.683A5.841 5.841 0 006.385.56z" fill="#B7B7B7"/><path d="M6.385 12.799A6.4 6.4 0 116.414 0 6.4 6.4 0 016.385 12.8zm0-12.654a6.263 6.263 0 100 12.526 6.263 6.263 0 000-12.526zm0 12.167a5.913 5.913 0 114.178-1.732 5.919 5.919 0 01-4.178 1.735v-.003zm0-11.672a5.77 5.77 0 105.768 5.77A5.773 5.773 0 006.385.644V.64z" fill="#B7B7B7"/></svg>