<?xml version="1.0" encoding="utf-8"?><svg width="14" height="14" fill="none" xmlns="http://www.w3.org/2000/svg" viewBox="0 0 14 14"><path d="M6.536 13.002a6.479 6.479 0 114.588-11.029 6.479 6.479 0 01-4.573 11.038L6.536 13zm0-12.422a5.958 5.958 0 10.006 11.915A5.958 5.958 0 006.536.58z" fill="#B7B7B7"/><path d="M6.536 13.075a6.537 6.537 0 114.624-1.914 6.502 6.502 0 01-4.624 1.914zm0-12.925a6.387 6.387 0 10.015 12.775A6.387 6.387 0 006.536.15zm0 12.422a6.034 6.034 0 114.267-1.767 5.996 5.996 0 01-4.267 1.77v-.003zm0-11.918a5.89 5.89 0 104.164 1.72A5.847 5.847 0 006.536.654z" fill="#B7B7B7"/><path d="M6.536 13.002a6.479 6.479 0 114.588-11.029 6.479 6.479 0 01-4.573 11.038L6.536 13zm0-12.422a5.958 5.958 0 10.006 11.915A5.958 5.958 0 006.536.58z" fill="#B7B7B7"/><path d="M6.536 13.075a6.537 6.537 0 114.624-1.914 6.502 6.502 0 01-4.624 1.914zm0-12.925a6.387 6.387 0 10.015 12.775A6.387 6.387 0 006.536.15zm0 12.422a6.034 6.034 0 114.267-1.767 5.996 5.996 0 01-4.267 1.77v-.003zm0-11.918a5.89 5.89 0 104.164 1.72A5.847 5.847 0 006.536.654z" fill="#B7B7B7"/><path d="M6.745 10.354a4.185 4.185 0 01-2.794-1.04l-.13-.12a3.887 3.887 0 01-1.119-3.14c.1-1.042.607-2.317 1.729-2.774 2-.815 2.945-1.808 2.738-2.868a.141.141 0 01.039-.127.144.144 0 01.126-.044 6.376 6.376 0 015.386 5.495.141.141 0 01-.103.157.144.144 0 01-.067.002c-1.27-.273-2.238.59-2.724 2.412a2.68 2.68 0 01-1.941 1.888c-.37.108-.754.162-1.14.159zM7.482.559c.064.834-.442 1.968-2.945 2.986-1.005.413-1.473 1.579-1.552 2.536a3.622 3.622 0 001.036 2.91l.121.111a3.934 3.934 0 003.652.822A2.397 2.397 0 009.546 8.24c.5-1.88 1.537-2.833 2.862-2.65A6.093 6.093 0 007.482.582V.559z" fill="#B7B7B7"/><path d="M6.745 10.428a4.252 4.252 0 01-2.844-1.057l-.133-.127a3.967 3.967 0 01-1.14-3.198c.1-1.06.622-2.356 1.767-2.833 1.962-.8 2.892-1.767 2.695-2.786A.215.215 0 017.233.18a.23.23 0 01.101-.01 6.464 6.464 0 015.451 5.556.214.214 0 01-.158.238.224.224 0 01-.104.004c-1.222-.265-2.158.589-2.635 2.355a2.753 2.753 0 01-2.003 1.944c-.37.108-.754.163-1.14.162zM7.314.315a.068.068 0 00-.07.083c.214 1.098-.749 2.12-2.784 2.945-1.092.444-1.587 1.693-1.687 2.712A3.828 3.828 0 004 9.256a4.097 4.097 0 002.744 1.019c.376.002.75-.05 1.11-.156a2.612 2.612 0 001.9-1.838c.498-1.873 1.493-2.747 2.81-2.465a.062.062 0 00.061-.017.064.064 0 00.024-.06A6.31 6.31 0 007.323.31l-.01.006zm-.572 9.827a3.982 3.982 0 01-2.65-.983c-.041-.039-.082-.077-.12-.118a3.684 3.684 0 01-1.06-2.968c.093-.978.562-2.17 1.598-2.595C7.013 2.456 7.455 1.328 7.405.566V.468L7.5.486a6.166 6.166 0 014.98 5.08l.018.097h-.1c-1.278-.17-2.294.778-2.78 2.6a2.474 2.474 0 01-1.803 1.738c-.348.099-.71.146-1.072.141zm.82-9.494c.02.81-.507 1.953-2.993 2.966-.975.397-1.42 1.54-1.508 2.473a3.534 3.534 0 001.016 2.85c.039.04.077.077.118.113a3.872 3.872 0 003.578.8 2.356 2.356 0 001.702-1.637c.495-1.855 1.529-2.838 2.845-2.72A6.023 6.023 0 007.561.647z" fill="#B7B7B7"/></svg>