<?xml version="1.0" encoding="utf-8"?><svg width="12" height="13" fill="none" xmlns="http://www.w3.org/2000/svg" viewBox="0 0 12 13"><path d="M3.093 6.602c-.48 0-.647-.17-.703-.316a.138.138 0 11.255-.098c.028.07.176.148.501.14.41-.03.812-.124 1.19-.28.94-.365 1.402-.841 1.34-1.04a.134.134 0 01.079-.177.135.135 0 01.176.076c.18.465-.616 1.054-1.496 1.401a3.981 3.981 0 01-1.283.294h-.06z" fill="#B7B7B7"/><path d="M3.093 6.672c-.521 0-.706-.196-.768-.359a.207.207 0 01.118-.28.207.207 0 01.28.118c0 .022.11.106.432.095.401-.03.796-.125 1.168-.28.955-.373 1.342-.84 1.297-.95a.224.224 0 010-.16.207.207 0 01.384 0c.095.244-.03.53-.37.821a4.11 4.11 0 01-1.165.664 4.037 4.037 0 01-1.306.297l-.07.034zm-.574-.501h-.014a.07.07 0 00-.04.086c.073.188.314.28.695.28a3.922 3.922 0 001.261-.28 4.029 4.029 0 001.12-.638c.203-.174.424-.432.331-.664a.064.064 0 00-.086-.04.076.076 0 00-.037.037.078.078 0 000 .05c.095.25-.434.762-1.378 1.12-.388.16-.799.255-1.216.281-.309 0-.519-.059-.56-.185a.059.059 0 00-.037-.036l-.04-.011z" fill="#B7B7B7"/><path d="M3.519 7.796c-.538 0-.731-.204-.801-.378L2.32 6.39c-.07-.182-.062-.48.38-.86a4.054 4.054 0 011.175-.667c.42-.173.864-.276 1.317-.303.58 0 .79.199.86.381l.398 1.026c.073.182.064.479-.378.863a4.629 4.629 0 01-2.491.966h-.062zm1.74-2.757c-.417.02-.827.114-1.21.28-.933.362-1.3.802-1.28.908l.397 1.026c.059.09.625.165 1.558-.196.933-.362 1.297-.802 1.28-.908l-.398-1.026c-.02-.047-.145-.084-.347-.084z" fill="#B7B7B7"/><path d="M3.519 7.866c-.58 0-.79-.23-.866-.423l-.398-1.028c-.078-.202-.076-.53.398-.939.358-.291.763-.52 1.196-.678.427-.176.88-.28 1.34-.308.619 0 .84.224.927.426l.4 1.025c.08.205.074.532-.4.942a4.713 4.713 0 01-2.522.983H3.52zM5.245 4.63h-.053a4.13 4.13 0 00-1.292.297 4.088 4.088 0 00-1.155.655c-.325.28-.45.56-.361.782l.4 1.043c.085.218.34.333.735.333h.059a4.606 4.606 0 002.448-.95c.325-.28.449-.56.36-.784L5.986 4.98c-.061-.168-.238-.35-.742-.35zM3.51 7.39c-.218 0-.361-.042-.403-.11L2.7 6.244c-.034-.196.42-.65 1.322-1 .392-.168.81-.263 1.236-.28.123 0 .342 0 .403.106l.407 1.04c.033.193-.42.646-1.32.997a3.572 3.572 0 01-1.239.283zm-.28-.185c.073.053.586.12 1.471-.222.886-.341 1.216-.742 1.236-.84l-.392-.978a.605.605 0 00-.28-.045c-.41.021-.81.116-1.186.28-.885.345-1.216.74-1.235.84l.386.965z" fill="#B7B7B7"/><path d="M5.22 5.263a.126.126 0 01-.073.169.13.13 0 11.047-.211c.011.012.02.027.026.042z" fill="#B7B7B7"/><path d="M5.1 5.51a.2.2 0 01-.182-.28.202.202 0 01.111-.107.19.19 0 01.152 0 .185.185 0 01.107.11.21.21 0 010 .154.205.205 0 01-.112.104.163.163 0 01-.076.02zm0-.26h-.02a.062.062 0 00-.036.078.053.053 0 00.033.031.05.05 0 00.045 0 .065.065 0 00.034-.034.062.062 0 000-.045.07.07 0 00-.031-.033l-.025.002z" fill="#B7B7B7"/><path d="M1.616 12.264h-.025a1.491 1.491 0 01-1.3-1.04C.23 10.993.2 10.8.168 10.632c-.017-.104-.031-.196-.05-.28a.877.877 0 01.12-.819c.193-.221.53-.3 1.053-.246l4.38.232C7.13 9.476 7.999 8.33 8.229 7.98c.328-.496 1.053-3.121 1.639-5.231.26-.944.51-1.838.7-2.474a.24.24 0 01.23-.171h.877a.24.24 0 01.237.202.247.247 0 01-.007.112c-.46 1.465-1.239 4.564-1.754 6.615-.219.877-.392 1.57-.474 1.858a5.686 5.686 0 01-.664 1.516c-.893 1.4-2.894 1.566-2.98 1.571l-4.4.28-.017.006zm-.608-2.521c-.28 0-.38.064-.411.098-.068.078-.045.257 0 .392.044.134.039.196.056.308.028.16.058.342.112.56a1.026 1.026 0 00.868.681l4.38-.28s1.843-.157 2.611-1.359c.265-.43.468-.895.602-1.381.079-.28.253-.972.471-1.844.482-1.922 1.194-4.763 1.664-6.332h-.372c-.182.614-.41 1.432-.648 2.292-.778 2.802-1.358 4.847-1.7 5.363-.264.403-1.255 1.709-2.967 1.756l-4.408-.235a3.222 3.222 0 00-.258-.011v-.008z" fill="#B7B7B7"/><path d="M1.616 12.334h-.033A1.569 1.569 0 01.22 11.241a7.072 7.072 0 01-.12-.6v-.036c-.017-.087-.029-.165-.048-.238a.944.944 0 01.137-.88c.21-.24.56-.327 1.12-.28l4.377.233c1.424-.042 2.27-1.163 2.497-1.508.322-.487 1.045-3.099 1.628-5.2.238-.863.504-1.83.703-2.485a.311.311 0 01.297-.222h.877a.308.308 0 01.306.26.315.315 0 01-.009.147c-.462 1.468-1.238 4.564-1.754 6.612v.067c-.213.841-.38 1.51-.46 1.79A5.808 5.808 0 019.1 10.44c-.913 1.429-2.947 1.597-3.034 1.603l-4.45.291zM1.003 9.34a.885.885 0 00-.712.24.804.804 0 00-.106.755c.02.078.03.16.047.249v.036c.028.166.062.356.12.586a1.42 1.42 0 001.24.989h.019v.07-.07l4.404-.28c.082 0 2.048-.165 2.925-1.541.29-.465.51-.969.656-1.496.079-.28.244-.945.457-1.788l.017-.067C10.585 4.97 11.36 1.872 11.824.4a.17.17 0 00-.163-.222h-.863a.171.171 0 00-.162.121c-.196.656-.465 1.622-.7 2.474-.59 2.118-1.315 4.744-1.648 5.25-.236.357-1.121 1.525-2.617 1.57l-4.383-.227a1.251 1.251 0 00-.285-.028zm.625 2.522a1.101 1.101 0 01-.942-.735 6.148 6.148 0 01-.112-.56c-.02-.11-.036-.21-.059-.303-.05-.22-.042-.372.031-.453.073-.082.168-.124.465-.124h.25l4.407.236c1.681-.048 2.645-1.331 2.905-1.723.337-.51.911-2.539 1.682-5.346.226-.819.46-1.665.647-2.295l.014-.048h.521l-.028.09c-.47 1.572-1.188 4.435-1.664 6.33v.053c-.213.84-.381 1.515-.46 1.793a5.47 5.47 0 01-.61 1.4c-.785 1.228-2.648 1.402-2.665 1.402l-4.382.283zM1.01 9.826c-.28 0-.35.062-.361.076-.012.014-.042.137 0 .33.022.096.039.2.059.312.02.112.056.336.112.546a.948.948 0 00.807.63l4.365-.28c.017 0 1.813-.16 2.558-1.325.26-.425.46-.884.594-1.365.076-.28.244-.941.457-1.787l.014-.056c.465-1.858 1.165-4.651 1.639-6.243h-.227c-.185.62-.412 1.443-.633 2.242-.782 2.818-1.362 4.855-1.71 5.382-.266.406-1.277 1.737-3.023 1.788L1.25 9.84a1.237 1.237 0 00-.238-.02v.006z" fill="#B7B7B7"/><path d="M9.691 7.687l-.91-.093a.14.14 0 11.025-.28l.913.093a.137.137 0 01.12.15.134.134 0 01-.148.13z" fill="#B7B7B7"/><path d="M9.691 7.765h-.02l-.913-.09a.213.213 0 01-.14-.075.216.216 0 01-.044-.152.213.213 0 01.224-.187l.913.092a.207.207 0 01.185.227.207.207 0 01-.205.185zm-.91-.359a.07.07 0 00-.067.062.062.062 0 000 .048.073.073 0 00.044.025l.92.092a.067.067 0 00.064-.061.062.062 0 00-.014-.048.073.073 0 00-.045-.025l-.91-.093h.008zM10.204 5.724h-.014l-.91-.09a.137.137 0 01-.124-.15.143.143 0 01.152-.124l.91.093a.14.14 0 010 .28l-.014-.009z" fill="#B7B7B7"/><path d="M10.204 5.78h-.02l-.913-.092a.202.202 0 01-.137-.073.207.207 0 01-.048-.154.21.21 0 01.227-.185l.914.093a.205.205 0 01.137.075.199.199 0 01.047.152.21.21 0 01-.207.185zm-.908-.367a.073.073 0 00-.07.06.065.065 0 00.014.05c.012.014.03.023.048.025l.916.092a.067.067 0 00.067-.061.059.059 0 00-.014-.048.073.073 0 00-.047-.025l-.91-.093h-.004zM2.16 12.132a.137.137 0 01-.132-.103l-.644-2.424a.134.134 0 01.025-.12.149.149 0 01.11-.05l4.944.134a.132.132 0 01.127.095l.577 1.813a.126.126 0 01-.017.117.144.144 0 01-.101.062l-4.884.473-.005.003zm-.457-2.418l.56 2.133 4.601-.449-.496-1.558-4.665-.126z" fill="#B7B7B7"/><path d="M2.16 12.202a.208.208 0 01-.2-.157l-.638-2.42a.221.221 0 01.04-.183.23.23 0 01.159-.078l4.954.134a.204.204 0 01.19.143l.577 1.816a.207.207 0 01-.176.28l-4.906.465zm-.633-2.698a.095.095 0 00-.056.025.064.064 0 000 .059l.636 2.424a.07.07 0 00.064.05v.07-.073l4.884-.473a.076.076 0 00.05-.031.056.056 0 000-.056l-.574-1.813a.073.073 0 00-.065-.048l-4.94-.134zm.683 2.418l-.6-2.275 4.809.129.538 1.68-4.747.466zm-.417-2.138l.524 1.987 4.452-.443-.454-1.43-4.522-.114z" fill="#B7B7B7"/><path d="M2.928 11.889a.064.064 0 01-.064-.05l-.625-2.242a.067.067 0 01.047-.084.07.07 0 01.084.047l.625 2.242a.07.07 0 01-.047.084l-.02.003z" fill="#B7B7B7"/><path d="M2.928 11.964a.134.134 0 01-.132-.1l-.625-2.242a.134.134 0 010-.104.143.143 0 01.084-.067.137.137 0 01.171.098l.625 2.228a.14.14 0 01-.098.17l-.025.017zM3.625 11.889a.07.07 0 01-.067-.05l-.622-2.242a.067.067 0 01.1-.077.07.07 0 01.032.04l.622 2.242a.067.067 0 01-.048.084l-.017.003z" fill="#B7B7B7"/><path d="M3.625 11.965a.14.14 0 01-.134-.101l-.625-2.242a.143.143 0 01.098-.17.14.14 0 01.17.098l.623 2.227a.132.132 0 010 .104.143.143 0 01-.084.067l-.048.017zM4.342 11.889a.067.067 0 01-.064-.05l-.625-2.242a.07.07 0 01.048-.084.07.07 0 01.084.047l.625 2.242a.067.067 0 01-.048.084l-.02.003z" fill="#B7B7B7"/><path d="M4.342 11.964a.138.138 0 01-.131-.1l-.625-2.242a.134.134 0 01.014-.104.134.134 0 01.084-.067.14.14 0 01.17.095l.623 2.242a.14.14 0 010 .106.149.149 0 01-.084.065l-.05.005zM5.052 11.889a.067.067 0 01-.065-.05l-.624-2.242a.067.067 0 01.047-.084.07.07 0 01.084.047l.625 2.242a.07.07 0 01-.048.084l-.02.003z" fill="#B7B7B7"/><path d="M5.052 11.964a.137.137 0 01-.132-.1l-.625-2.242a.134.134 0 010-.104.143.143 0 01.084-.067.137.137 0 01.171.098l.625 2.228a.143.143 0 01-.014.106.143.143 0 01-.081.065l-.028.016zM5.76 11.889a.07.07 0 01-.067-.05L5.07 9.596a.067.067 0 01.1-.077.07.07 0 01.032.04l.624 2.242a.073.073 0 01-.05.084l-.017.003z" fill="#B7B7B7"/><path d="M5.76 11.964a.14.14 0 01-.134-.1l-.622-2.242a.132.132 0 010-.104.143.143 0 01.084-.067.14.14 0 01.17.095l.626 2.242a.14.14 0 01-.098.17l-.026.006zM6.47 11.889a.07.07 0 01-.068-.05l-.625-2.242a.07.07 0 01.048-.084.073.073 0 01.087.048l.622 2.241a.067.067 0 01-.048.084l-.017.003z" fill="#B7B7B7"/><path d="M6.47 11.964a.14.14 0 01-.135-.1L5.71 9.622a.14.14 0 01.245-.122c.011.015.02.031.024.05l.622 2.227a.14.14 0 010 .106.148.148 0 01-.084.065l-.048.016z" fill="#B7B7B7"/></svg>