<?xml version="1.0" encoding="utf-8"?><svg width="34" height="35" fill="none" xmlns="http://www.w3.org/2000/svg" viewBox="0 0 34 35"><path d="M16.89 34.178A16.77 16.77 0 016.175 30.3a17.127 17.127 0 01-5.85-9.876 17.267 17.267 0 011.67-11.39A16.962 16.962 0 0110.425 1.3 16.705 16.705 0 0121.792.736a16.908 16.908 0 019.14 6.859 17.245 17.245 0 012.766 11.169 17.174 17.174 0 01-4.866 10.409 16.767 16.767 0 01-5.475 3.713 16.608 16.608 0 01-6.467 1.292zm0-31.727C8.913 2.45 2.422 9.018 2.422 17.09c0 8.071 6.491 14.64 14.468 14.64 7.978 0 14.469-6.568 14.469-14.64 0-8.072-6.49-14.64-14.469-14.64z" fill="#00D54B"/><path d="M16.434 12.82a1.922 1.922 0 001.405-.59 1.929 1.929 0 00.584-1.411c0-.584-.194-1.065-.584-1.445a1.967 1.967 0 00-1.405-.568 1.862 1.862 0 00-1.395.59 1.942 1.942 0 00-.584 1.423 1.924 1.924 0 00.584 1.411 1.902 1.902 0 001.395.59zM20.675 22.427h-1.309s-.638.01-.66-.59c-.06-.787-.113-1.435-.12-1.621l-.076-1.926a7.806 7.806 0 01-.011-.46c0-.422-.004-.754-.011-.994a3.598 3.598 0 01-.01-.296l.032-.82v-1.926c-1.875.898-3.536 1.467-4.985 1.707l-.292 1.367c.257.051.517.077.779.077.333.003.663-.06.973-.184l.043 2.745c0 .674.018 1.525.035 2.378.014.555-.534.545-.534.545h-1.422v2.945h7.568v-2.947z" fill="#00D54B"/></svg>