<?xml version="1.0" encoding="utf-8"?><svg width="30" height="30" fill="none" xmlns="http://www.w3.org/2000/svg" viewBox="0 0 30 30"><path d="M9.702 10.069h-3.96a.527.527 0 00-.527.527v11.93c0 .292.236.528.527.528h3.96a.527.527 0 00.527-.528v-11.93a.527.527 0 00-.527-.527zM23.198 16.858a1.57 1.57 0 100-3.14h-.17c.897 0 1.625-.678 1.625-1.513 0-.835-.728-1.514-1.625-1.514H18.11c.205-.547 1.197-4.161.952-5.43-.142-.742-.66-1.921-1.893-2.002-.224-.014-.443.083-.624.204a.968.968 0 00-.43.835c.018.578.024 1.575-.125 1.962-.194.503-1.03 1.246-1.394 1.644-.52.57-1.634 1.662-2.036 2.322-.283.464-.729 1.712-.96 2.382a2.73 2.73 0 00-.148.887v6.302a2.646 2.646 0 002.646 2.647h8.289c.71 0 1.297-.568 1.302-1.277a1.286 1.286 0 00-1.285-1.294h.456c.805 0 1.481-.627 1.52-1.432a1.51 1.51 0 00-1.505-1.583" fill="#00D54B"/><path d="M15 30c-2.025 0-3.99-.397-5.839-1.18A15.041 15.041 0 011.18 20.84 14.907 14.907 0 010 15c0-2.025.397-3.99 1.18-5.839A15.041 15.041 0 019.16 1.18 14.908 14.908 0 0115 0c2.025 0 3.99.397 5.839 1.18A15.041 15.041 0 0128.82 9.16 14.907 14.907 0 0130 15.001c0 2.024-.397 3.988-1.18 5.838a15.041 15.041 0 01-7.981 7.982A14.907 14.907 0 0115 30zm0-28.302C7.665 1.698 1.698 7.666 1.698 15c0 7.335 5.967 13.302 13.302 13.302 7.334 0 13.302-5.967 13.302-13.302 0-7.334-5.968-13.302-13.302-13.302z" fill="#00D54B"/></svg>