<?xml version="1.0" encoding="utf-8"?><svg width="14" height="14" fill="none" xmlns="http://www.w3.org/2000/svg" viewBox="0 0 14 14"><path d="M1.782 13.127a.262.262 0 01-.188-.077L.155 11.605a.266.266 0 01-.057-.288.259.259 0 01.057-.084L1.5 9.892c.575-.569.8-1.556.587-2.574l-.135-.64c-.363-2.02.089-3.622 1.377-4.92A5.78 5.78 0 019.618.513a5.722 5.722 0 013.526 5.324 5.778 5.778 0 01-1.698 4.078c-1.291 1.285-2.896 1.728-4.904 1.356l-.655-.127c-.797-.169-1.891-.107-2.577.576l-1.344 1.337a.251.251 0 01-.184.07zM.715 11.42l1.067 1.07 1.159-1.15c.695-.695 1.866-.968 3.056-.716l.64.135c1.82.338 3.272-.058 4.431-1.211a5.261 5.261 0 001.56-3.712A5.198 5.198 0 007.427.61 5.252 5.252 0 003.71 2.146C2.55 3.3 2.148 4.748 2.48 6.577l.132.634c.249 1.19-.03 2.361-.729 3.056L.715 11.42z" fill="#B7B7B7"/><path d="M1.782 13.204a.338.338 0 01-.243-.099l-1.44-1.448a.338.338 0 010-.48L1.444 9.84c.554-.554.77-1.513.563-2.506l-.132-.64c-.369-2.045.09-3.671 1.4-4.975A5.843 5.843 0 017.414 0a5.796 5.796 0 015.812 5.842 5.843 5.843 0 01-1.738 4.136c-1.307 1.304-2.936 1.753-4.972 1.378l-.649-.139c-.778-.166-1.845-.107-2.506.554L2.02 13.108a.338.338 0 01-.237.096zM7.427.154a5.704 5.704 0 00-4.043 1.673c-1.27 1.266-1.716 2.847-1.356 4.836l.132.64c.218 1.042-.015 2.057-.615 2.644L.201 11.285a.197.197 0 00-.055.132.178.178 0 00.055.133l1.44 1.445a.19.19 0 00.264 0l1.343-1.338c.705-.7 1.83-.765 2.645-.593l.649.138c1.98.366 3.564-.07 4.834-1.338a5.694 5.694 0 001.69-4.025A5.64 5.64 0 007.419.154h.01zM1.782 12.6L.604 11.417l1.215-1.196c.68-.676.95-1.82.707-2.983l-.132-.636c-.336-1.845.077-3.33 1.251-4.502A5.341 5.341 0 019.45.936a5.27 5.27 0 013.255 4.91 5.335 5.335 0 01-1.565 3.76c-1.178 1.175-2.65 1.578-4.499 1.23l-.643-.138c-1.165-.246-2.309.018-2.988.695L1.782 12.6zm-.96-1.18l.96.953 1.104-1.098c.716-.713 1.912-.993 3.127-.738l.64.138c1.795.332 3.222-.058 4.36-1.193a5.17 5.17 0 001.537-3.656 5.12 5.12 0 00-7.112-4.736c-.63.264-1.202.65-1.682 1.135-1.14 1.132-1.538 2.562-1.212 4.364l.133.615c.252 1.23-.034 2.413-.75 3.124L.821 11.42z" fill="#B7B7B7"/><path d="M6.351 10.987a.16.16 0 01-.108-.043L2.311 7.008a.15.15 0 01.212-.213l3.933 3.933a.154.154 0 010 .216.15.15 0 01-.105.043z" fill="#B7B7B7"/><path d="M6.351 11.063a.23.23 0 01-.163-.067L2.255 7.063a.225.225 0 010-.308.234.234 0 01.308 0l3.963 3.921a.224.224 0 010 .307.228.228 0 01-.175.08zM2.415 6.838a.062.062 0 00-.05.022.07.07 0 000 .105L6.3 10.897a.074.074 0 10.104-.104L2.467 6.838a.065.065 0 00-.052 0zM8.783 9.354a1.464 1.464 0 11.006-2.927 1.464 1.464 0 01-.006 2.927zm0-2.626a1.162 1.162 0 10.006 2.325 1.162 1.162 0 00-.006-2.325z" fill="#B7B7B7"/><path d="M8.783 9.43a1.537 1.537 0 110-3.074 1.537 1.537 0 010 3.075zm0-2.926a1.387 1.387 0 10.006 2.773 1.387 1.387 0 00-.006-2.773zm0 2.626a1.23 1.23 0 110-2.46 1.23 1.23 0 010 2.46zm0-2.325a1.085 1.085 0 10.006 2.17 1.085 1.085 0 00-.006-2.17zM1.83 13.01a.07.07 0 01-.051-.021L.263 11.473a.073.073 0 010-.108l3.53-3.075a.074.074 0 01.101 0L4.99 9.357a.077.077 0 010 .102l-3.1 3.53a.076.076 0 01-.055.024l-.003-.003zM.427 11.424l1.402 1.402L4.82 9.413l-.978-.981-3.416 2.992z" fill="#B7B7B7"/><path d="M1.837 13.087a.16.16 0 01-.108-.043L.217 11.528a.151.151 0 01-.047-.11.163.163 0 01.053-.111L3.75 8.232a.157.157 0 01.209 0l1.073 1.067a.15.15 0 010 .206l-3.075 3.527a.142.142 0 01-.11.052l-.01.003zM.54 11.43l1.286 1.285 2.89-3.3-.88-.876L.54 11.43z" fill="#B7B7B7"/></svg>