<?xml version="1.0" encoding="utf-8"?><svg width="13" height="14" fill="none" xmlns="http://www.w3.org/2000/svg" viewBox="0 0 13 14"><path d="M3.529 3.548a1.267 1.267 0 11-.006-2.533 1.267 1.267 0 01.006 2.533zm0-2.249a.985.985 0 10-.006 1.97.985.985 0 00.006-1.97z" fill="#B7B7B7"/><path d="M3.529 3.62A1.338 1.338 0 113.523.943a1.338 1.338 0 01.006 2.677zm0-2.53a1.195 1.195 0 10-.006 2.39 1.195 1.195 0 00.006-2.39zm0 2.249a1.057 1.057 0 11-.006-2.114 1.057 1.057 0 01.006 2.114zm0-1.968a.913.913 0 10-.006 1.827.913.913 0 00.006-1.827z" fill="#B7B7B7"/><path d="M3.5 3.037c-.101 0-.2-.027-.288-.078A.81.81 0 012.8 2.31v-.034a.75.75 0 01.287-.575.629.629 0 01.62-.14c.236.1.543.18.664 0a.072.072 0 01.057-.029.072.072 0 01.058.026c.152.207.235.458.235.715.001.264-.087.521-.25.73a.08.08 0 01-.06.028A.072.072 0 014.356 3c-.153-.236-.44-.118-.598-.026a.508.508 0 01-.258.063zm.02-1.376a.574.574 0 00-.35.144.603.603 0 00-.225.47v.03a.686.686 0 00.34.534.4.4 0 00.396 0c.287-.175.56-.175.723 0a1.051 1.051 0 000-1.132c-.12.104-.344.155-.766-.02a.322.322 0 00-.138-.026h.02z" fill="#B7B7B7"/><path d="M3.5 3.12a.646.646 0 01-.316-.086.887.887 0 01-.451-.71v-.037a.816.816 0 01.301-.635.7.7 0 01.696-.152c.172.075.476.175.574.026a.14.14 0 01.115-.06.15.15 0 01.118.054 1.272 1.272 0 01-.015 1.534.155.155 0 01-.109.055.15.15 0 01-.123-.066c-.112-.176-.336-.098-.503 0a.574.574 0 01-.287.077zm.887-.187c.009.01.017.02.023.032l-.023-.032zm-.861-1.189a.5.5 0 00-.305.127.537.537 0 00-.198.416v.026a.609.609 0 00.302.474.319.319 0 00.327 0 .68.68 0 01.741-.055.994.994 0 00.115-.462.948.948 0 00-.112-.454.896.896 0 01-.773-.06.221.221 0 00-.123-.023l.026.011zm.901-.138a.422.422 0 01-.028.038l.034-.029-.006-.009zM7.681 8.71a2.705 2.705 0 01-1.973-.77c-1.163-1.148-1.117-3.71.977-5.804C8.379.44 10.557.25 11.978 1.671c1.422 1.422 1.204 3.587-.502 5.293-1.034 1.04-2.49 1.747-3.795 1.747zm2.04-7.504c-.89 0-1.841.43-2.689 1.278-1.47 1.47-2.214 3.874-.976 5.11 1.238 1.234 3.61.485 5.072-.977 1.525-1.525 1.723-3.375.503-4.596a2.656 2.656 0 00-1.91-.815z" fill="#B7B7B7"/><path d="M7.681 8.782a2.792 2.792 0 01-2.01-.79c-1.186-1.186-1.149-3.782.98-5.908C8.372.361 10.59.17 12.043 1.62c1.453 1.45 1.22 3.66-.503 5.397-1.105 1.088-2.584 1.766-3.86 1.766zM9.726.795c-1.002 0-2.068.47-2.99 1.39-2.065 2.065-2.114 4.57-.979 5.707a2.662 2.662 0 001.924.747c1.247 0 2.68-.66 3.734-1.724 1.677-1.677 1.884-3.814.503-5.192A3.054 3.054 0 009.726.795zM7.684 8.29a2.318 2.318 0 01-1.68-.638c-.592-.591-.784-1.49-.546-2.536a5.744 5.744 0 011.525-2.676c.836-.836 1.81-1.299 2.738-1.299a2.734 2.734 0 011.961.833 2.674 2.674 0 01.799 2.246 4.193 4.193 0 01-1.301 2.456 5.728 5.728 0 01-2.66 1.514c-.274.065-.554.099-.836.1zm2.037-7.005c-.89 0-1.827.445-2.637 1.258a5.56 5.56 0 00-1.485 2.608c-.227.994-.049 1.844.506 2.398.554.554 1.395.73 2.38.503a5.578 5.578 0 002.585-1.477 4.052 4.052 0 001.264-2.369 2.535 2.535 0 00-.761-2.128 2.584 2.584 0 00-1.852-.802v.009z" fill="#B7B7B7"/><path d="M3.657 9.675a.25.25 0 01-.215-.367 14.412 14.412 0 001.51-3.496.245.245 0 01.475.127 14.915 14.915 0 01-1.557 3.61.247.247 0 01-.213.126z" fill="#B7B7B7"/><path d="M3.657 9.747a.31.31 0 01-.158-.043.307.307 0 01-.149-.192.31.31 0 01.032-.242 14.473 14.473 0 001.502-3.475.287.287 0 01.146-.192.313.313 0 01.434.115.307.307 0 01.032.24 14.823 14.823 0 01-1.563 3.625.319.319 0 01-.276.164zm1.531-4.041c-.03 0-.06.007-.086.023a.166.166 0 00-.08.106 14.593 14.593 0 01-1.523 3.507.175.175 0 00-.017.132.184.184 0 00.083.107.175.175 0 00.236-.067 14.711 14.711 0 001.55-3.593.175.175 0 00-.128-.215.118.118 0 00-.035 0zM4.217 10.232a.247.247 0 01-.123-.46 14.395 14.395 0 013.579-1.55.245.245 0 11.126.474 14.02 14.02 0 00-3.46 1.505.237.237 0 01-.122.031z" fill="#B7B7B7"/><path d="M4.218 10.301a.319.319 0 01-.158-.595A14.329 14.329 0 017.655 8.15a.301.301 0 01.239.031.322.322 0 01.15.193.319.319 0 01-.227.39 13.86 13.86 0 00-3.447 1.497.327.327 0 01-.152.04zm3.518-2.01H7.69c-1.251.35-2.448.87-3.559 1.545a.173.173 0 00.17.301 14.09 14.09 0 013.478-1.51.166.166 0 00.106-.08.164.164 0 00.017-.133.167.167 0 00-.08-.106.184.184 0 00-.086-.017zM3.388 11.103a.142.142 0 01-.1-.043l-.719-.716a.144.144 0 010-.2.14.14 0 01.198 0l.733.732a.14.14 0 010 .198.132.132 0 01-.112.029z" fill="#B7B7B7"/><path d="M3.388 11.163a.215.215 0 01-.153-.063l-.715-.718a.207.207 0 010-.288.215.215 0 01.287 0l.718.718a.207.207 0 01-.137.35zm-.718-1a.061.061 0 00-.05.02.07.07 0 00-.02.05.07.07 0 00.02.048L3.34 11a.072.072 0 00.097 0 .08.08 0 00.02-.049.069.069 0 00-.02-.048l-.718-.719a.066.066 0 00-.048-.008v-.012z" fill="#B7B7B7"/><path d="M1.03 13.558a.244.244 0 01-.173-.072l-.715-.712a.247.247 0 010-.348l3.07-3.067a.244.244 0 01.348 0l.715.712a.247.247 0 010 .348l-3.073 3.067a.244.244 0 01-.172.072zm-.365-.96l.365.365 2.72-2.717-.365-.367-2.72 2.72z" fill="#B7B7B7"/><path d="M1.03 13.63a.317.317 0 01-.225-.092l-.712-.715a.316.316 0 010-.448l3.068-3.068a.322.322 0 01.448 0l.715.712a.317.317 0 01.092.227.327.327 0 01-.092.224l-3.068 3.068a.317.317 0 01-.227.092zm2.355-4.271a.175.175 0 00-.124.049L.194 12.475a.178.178 0 000 .247l.712.712a.178.178 0 00.247 0L4.22 10.37a.184.184 0 00.052-.124.166.166 0 00-.052-.123l-.72-.715a.18.18 0 00-.115-.05zm-2.356 3.708l-.465-.468 2.82-2.82.469.467-2.824 2.82zm-.264-.468l.264.264 2.62-2.617-.264-.264L.765 12.6zM5.51 7.237a.069.069 0 01-.052-.02.072.072 0 010-.098l5.796-5.804a.066.066 0 01.098 0 .07.07 0 01.016.077.07.07 0 01-.016.023L5.55 7.217a.066.066 0 01-.04.02z" fill="#B7B7B7"/><path d="M5.51 7.309a.138.138 0 01-.098-.04.138.138 0 010-.202l5.802-5.804a.142.142 0 01.201.2L5.611 7.269a.138.138 0 01-.101.04z" fill="#B7B7B7"/><path d="M11.274 6.984a.072.072 0 01-.048-.023L6.659 2.403a.072.072 0 010-.098.069.069 0 01.1 0l4.567 4.55a.072.072 0 010 .098.072.072 0 01-.052.031z" fill="#B7B7B7"/><path d="M11.274 7.056a.152.152 0 01-.1-.043L6.619 2.454a.138.138 0 010-.2.146.146 0 01.198 0l4.558 4.557a.139.139 0 01.032.156.139.139 0 01-.032.046.14.14 0 01-.1.043zM10.04 7.717a.066.066 0 01-.05-.02L5.932 3.638a.07.07 0 01.098-.097l4.075 4.058a.075.075 0 010 .1.068.068 0 01-.066.018z" fill="#B7B7B7"/><path d="M10.04 7.791a.15.15 0 01-.101-.04L5.88 3.696a.144.144 0 01-.04-.1.15.15 0 01.04-.101.144.144 0 01.1-.04c.038 0 .074.014.101.04l4.059 4.061a.14.14 0 01-.1.241v-.006zM8.804 8.457a.072.072 0 01-.049-.023L5.194 4.873a.072.072 0 010-.098.069.069 0 01.1 0l3.562 3.562a.072.072 0 01-.052.12z" fill="#B7B7B7"/><path d="M8.804 8.529a.152.152 0 01-.1-.043L5.145 4.924a.135.135 0 01-.043-.1.14.14 0 01.043-.1.144.144 0 01.201 0L8.905 8.29a.138.138 0 01-.1.239zM12.044 5.705a.066.066 0 01-.049-.02L7.937 1.627a.07.07 0 01.049-.12c.018 0 .035.007.048.02l4.062 4.058a.074.074 0 010 .1.068.068 0 01-.052.02z" fill="#B7B7B7"/><path d="M12.044 5.786a.15.15 0 01-.1-.04L7.885 1.683a.144.144 0 010-.2.15.15 0 01.201 0l4.059 4.06a.135.135 0 01.043.1.14.14 0 01-.043.101.143.143 0 01-.101.04zM12.782 4.48a.069.069 0 01-.052-.02L9.172.898A.07.07 0 119.269.8l3.562 3.559a.07.07 0 01.016.078.07.07 0 01-.016.023.066.066 0 01-.049.02z" fill="#B7B7B7"/><path d="M12.782 4.557a.144.144 0 01-.1-.04L9.12.956a.142.142 0 11.201-.201l3.562 3.561a.138.138 0 01.04.1.138.138 0 01-.14.141z" fill="#B7B7B7"/><path d="M5.105 5.596a.06.06 0 01-.049-.02.069.069 0 010-.1L9.677.855a.072.072 0 01.098 0 .069.069 0 010 .1L5.154 5.576a.066.066 0 01-.049.02z" fill="#B7B7B7"/><path d="M5.105 5.668a.144.144 0 01-.144-.14.138.138 0 01.044-.101L9.625.806a.138.138 0 01.202 0 .138.138 0 01.04.097.138.138 0 01-.04.1L5.206 5.629a.15.15 0 01-.101.04zM6.504 8.224a.08.08 0 01-.05-.02.069.069 0 010-.1l5.555-5.558a.065.065 0 01.05-.022.066.066 0 01.048.022.07.07 0 01.016.078.07.07 0 01-.016.022L6.552 8.204a.075.075 0 01-.048.02z" fill="#B7B7B7"/><path d="M6.504 8.29a.14.14 0 01-.1-.043.144.144 0 01-.04-.1.15.15 0 01.04-.101l5.554-5.555a.142.142 0 01.201.201L6.604 8.247a.135.135 0 01-.1.043zM8.112 8.578a.072.072 0 01-.049-.12l4.627-4.61a.069.069 0 01.098 0 .07.07 0 01.015.075.07.07 0 01-.015.023L8.16 8.578a.072.072 0 01-.049 0z" fill="#B7B7B7"/><path d="M8.112 8.662a.147.147 0 01-.1-.043.135.135 0 01-.044-.1c.001-.039.017-.075.044-.101l4.62-4.622a.144.144 0 01.202.201L8.213 8.62a.152.152 0 01-.1.043z" fill="#B7B7B7"/></svg>