<?xml version="1.0" encoding="utf-8"?><svg width="13" height="13" fill="none" xmlns="http://www.w3.org/2000/svg" viewBox="0 0 13 13"><path d="M6.5 12.927A6.427 6.427 0 1112.927 6.5 6.433 6.433 0 016.5 12.927zM6.5.571A5.929 5.929 0 1012.429 6.5 5.935 5.935 0 006.5.56V.57z" fill="#B7B7B7"/><path d="M6.5 13A6.5 6.5 0 116.5.001 6.5 6.5 0 016.5 13zM6.5.146a6.354 6.354 0 100 12.708A6.354 6.354 0 006.5.146zm0 12.356a6.002 6.002 0 114.243-1.758 6.007 6.007 0 01-4.243 1.76v-.002zM6.5.644A5.856 5.856 0 1012.356 6.5 5.865 5.865 0 006.5.644z" fill="#B7B7B7"/><path d="M3.563 12.114l-.233-.163.082-.117a17.09 17.09 0 002.502-6.138c-1.31-.47-2.692-2.943-2.674-4.391v-.143h.291v.143c-.017 1.372 1.37 3.84 2.59 4.152a.143.143 0 01.105.166 17.38 17.38 0 01-2.575 6.369l-.088.122z" fill="#B7B7B7"/><path d="M3.578 12.213l-.356-.245.123-.177a17.03 17.03 0 002.482-6.049c-1.352-.539-2.683-3.007-2.666-4.44v-.216h.431v.216c-.017 1.352 1.34 3.788 2.535 4.079a.213.213 0 01.157.25 17.481 17.481 0 01-2.584 6.41l-.122.172zm-.152-.291L3.54 12l.04-.058A17.332 17.332 0 006.143 5.6a.07.07 0 00-.05-.081C4.845 5.2 3.43 2.692 3.447 1.293v-.067h-.14v.07C3.289 2.69 4.647 5.16 5.929 5.62l.058.02v.061a17.297 17.297 0 01-2.514 6.165l-.047.056z" fill="#B7B7B7"/><path d="M12.397 6.546l-.134-.05a13.632 13.632 0 00-6.051-.757h-.143l-.024-.291h.14c2.091-.212 4.203.052 6.177.772l.131.05-.096.276z" fill="#B7B7B7"/><path d="M12.438 6.64l-.201-.076a13.615 13.615 0 00-6.02-.76l-.215.02-.038-.428.216-.02a14.02 14.02 0 016.205.774l.204.076-.151.414zM7.604 5.605c1.597-.008 3.183.27 4.682.822l.067.026.047-.13-.064-.027a13.865 13.865 0 00-6.15-.766h-.07v.14h.07c.495-.044.96-.065 1.418-.065z" fill="#B7B7B7"/><path d="M6.25 12.75a.064.064 0 01-.038 0 .07.07 0 01-.033-.071.07.07 0 01.01-.026c1.945-3.146 2.391-7.042 2.394-7.08a.07.07 0 01.079-.064.073.073 0 01.064.079c0 .04-.452 3.968-2.415 7.138a.073.073 0 01-.062.023z" fill="#B7B7B7"/><path d="M6.25 12.822a.172.172 0 01-.065-.026.148.148 0 01-.046-.201c1.926-3.12 2.377-7.004 2.377-7.042a.137.137 0 01.157-.128.143.143 0 01.097.055.137.137 0 01.032.105c0 .038-.452 3.977-2.427 7.17a.145.145 0 01-.126.067zM9.256 12.1a.058.058 0 01-.038 0 .067.067 0 01-.023-.097 12.796 12.796 0 001.85-5.94.073.073 0 01.071-.056.073.073 0 01.072.088 12.942 12.942 0 01-1.874 5.97.067.067 0 01-.058.034z" fill="#B7B7B7"/><path d="M9.256 12.172a.146.146 0 01-.079-.02.146.146 0 01-.043-.201 12.723 12.723 0 001.838-5.857.146.146 0 01.14-.142.149.149 0 01.149.148 13.017 13.017 0 01-1.87 6.005.131.131 0 01-.135.067zM12.181 4.14h-.026c-3.575-1.456-7.93-.486-7.974-.477a.07.07 0 01-.085-.056.07.07 0 01.053-.084c.046 0 4.443-.979 8.058.484a.073.073 0 01.038.093.064.064 0 01-.064.04z" fill="#B7B7B7"/><path d="M12.181 4.213a.169.169 0 01-.055 0c-3.578-1.457-7.884-.483-7.928-.475a.143.143 0 01-.107-.017.152.152 0 01-.067-.09.146.146 0 01.11-.172c.044 0 4.458-.988 8.1.486a.143.143 0 01-.053.277v-.009zM3.432 1.943a.073.073 0 01-.07-.072.09.09 0 01.047-.076c.218-.163 3.275-1.25 7.304-.015a.076.076 0 01.046.09.073.073 0 01-.09.047c-3.91-1.2-6.978-.157-7.176 0a.067.067 0 01-.06.026z" fill="#B7B7B7"/><path d="M3.432 2.016a.143.143 0 01-.143-.145.163.163 0 01.076-.137c.222-.164 3.313-1.268 7.368-.024a.145.145 0 01.024.268.146.146 0 01-.111 0C6.821.813 3.82 1.78 3.546 1.95a.143.143 0 01-.114.067zm3.479-.74a12.86 12.86 0 013.321.449c-3.123-.84-5.582-.292-6.453 0a10.488 10.488 0 013.132-.449zM5.265 8.271H5.24c-3.496-1.165-3.895-4.51-3.939-5.168v-.024a.07.07 0 11.14-.017v.032c.044.64.431 3.9 3.843 5.043a.067.067 0 01.044.09.073.073 0 01-.064.044z" fill="#B7B7B7"/><path d="M5.265 8.344a.116.116 0 01-.044 0C1.678 7.158 1.276 3.775 1.229 3.099v-.023a.143.143 0 01.03-.105.166.166 0 01.099-.052.125.125 0 01.096.026.137.137 0 01.061.099v.035c.044.632.425 3.852 3.788 4.98a.149.149 0 01.084.072.16.16 0 010 .11.146.146 0 01-.122.103zM4.358 10.596C2.398 10.37.475 7.973.256 6.516a.07.07 0 01.061-.08.067.067 0 01.08.057c.212 1.41 2.076 3.747 3.976 3.969a.07.07 0 01.064.078.073.073 0 01-.079.056z" fill="#B7B7B7"/><path d="M4.359 10.669h-.015c-1.99-.23-3.945-2.675-4.166-4.15A.146.146 0 01.3 6.358a.14.14 0 01.163.122c.21 1.387 2.04 3.688 3.913 3.904a.14.14 0 01.121.104.146.146 0 01.004.056.14.14 0 01-.142.126z" fill="#B7B7B7"/></svg>