<?xml version="1.0" encoding="utf-8"?><svg width="13" height="17" fill="none" xmlns="http://www.w3.org/2000/svg" viewBox="0 0 13 17"><path d="M6.501 4.073A6.442 6.442 0 111.94 15.038 6.441 6.441 0 016.487 4.064l.014.01zm0 12.35a5.923 5.923 0 10-.006-11.845 5.923 5.923 0 00.006 11.845z" fill="#B7B7B7"/><path d="M6.501 4a6.5 6.5 0 11-4.597 1.903A6.465 6.465 0 016.501 4zm0 12.85a6.35 6.35 0 10-.015-12.7 6.35 6.35 0 00.015 12.7zm0-12.35A6 6 0 112.26 6.258 5.961 5.961 0 016.5 4.497v.004zm0 11.85a5.855 5.855 0 10-4.14-1.71 5.812 5.812 0 004.14 1.71z" fill="#B7B7B7"/><path d="M6.501 4.073A6.442 6.442 0 111.94 15.038 6.441 6.441 0 016.487 4.064l.014.01zm0 12.35a5.923 5.923 0 10-.006-11.845 5.923 5.923 0 00.006 11.845z" fill="#B7B7B7"/><path d="M6.501 4a6.5 6.5 0 11-4.597 1.903A6.465 6.465 0 016.501 4zm0 12.85a6.35 6.35 0 10-.015-12.7 6.35 6.35 0 00.015 12.7zm0-12.35A6 6 0 112.26 6.258 5.961 5.961 0 016.5 4.497v.004zm0 11.85a5.855 5.855 0 10-4.14-1.71 5.812 5.812 0 004.14 1.71z" fill="#B7B7B7"/><path d="M6.294 6.706a4.16 4.16 0 012.778 1.033l.13.12a3.864 3.864 0 011.112 3.121c-.1 1.037-.603 2.305-1.719 2.758-1.988.812-2.928 1.798-2.723 2.852a.14.14 0 01-.038.126.143.143 0 01-.126.044 6.339 6.339 0 01-5.355-5.463.14.14 0 01.103-.156.141.141 0 01.067-.002c1.262.272 2.225-.586 2.708-2.398a2.664 2.664 0 011.93-1.877c.368-.108.75-.161 1.133-.158zm-.732 9.738c-.065-.829.439-1.956 2.928-2.969.998-.41 1.464-1.57 1.543-2.52A3.601 3.601 0 009.002 8.06l-.12-.11a3.912 3.912 0 00-3.63-.818 2.383 2.383 0 00-1.743 1.675c-.498 1.868-1.528 2.817-2.846 2.635a6.058 6.058 0 004.899 4.978v.023z" fill="#B7B7B7"/><path d="M6.293 6.633a4.228 4.228 0 012.829 1.05l.132.127a3.944 3.944 0 011.133 3.18c-.1 1.053-.618 2.342-1.757 2.816-1.95.796-2.875 1.757-2.68 2.77a.214.214 0 01-.141.247.23.23 0 01-.101.01 6.426 6.426 0 01-5.42-5.525.214.214 0 01.158-.236.222.222 0 01.103-.004c1.215.264 2.146-.585 2.62-2.342A2.738 2.738 0 015.16 6.794c.368-.108.75-.162 1.133-.161zm-.565 10.054a.067.067 0 00.07-.051.067.067 0 000-.031c-.213-1.092.744-2.108 2.768-2.928 1.086-.442 1.578-1.684 1.677-2.697a3.806 3.806 0 00-1.095-3.062c-.04-.041-.082-.082-.126-.12a4.073 4.073 0 00-2.729-1.013 3.839 3.839 0 00-1.103.155A2.597 2.597 0 003.3 8.767c-.495 1.862-1.484 2.732-2.793 2.45a.061.061 0 00-.062.018.065.065 0 00-.023.059 6.274 6.274 0 005.297 5.399l.008-.006zm.568-9.77a3.959 3.959 0 012.636.977c.04.039.081.077.12.118a3.663 3.663 0 011.054 2.95c-.094.973-.56 2.159-1.59 2.58-2.489 1.016-2.928 2.138-2.878 2.896v.097l-.094-.018a6.131 6.131 0 01-4.951-5.05l-.018-.097h.1c1.27.17 2.28-.773 2.764-2.585A2.46 2.46 0 015.23 7.057a3.736 3.736 0 011.065-.14zm-.814 9.44c-.02-.806.504-1.942 2.975-2.95.97-.395 1.411-1.53 1.5-2.459a3.513 3.513 0 00-1.01-2.834c-.039-.038-.077-.076-.118-.111a3.85 3.85 0 00-3.557-.797 2.342 2.342 0 00-1.693 1.628C3.087 10.68 2.06 11.657.751 11.54a5.987 5.987 0 004.731 4.816z" fill="#B7B7B7"/><path fill-rule="evenodd" clip-rule="evenodd" d="M10.035 11.16h2.669v.415h-2.669v-.415zM5.084 2.92V.548H5.5V2.92h-.415z" fill="#B7B7B7"/></svg>