<svg width="14" height="13" viewBox="0 0 14 13" fill="none" xmlns="http://www.w3.org/2000/svg">
<path d="M3.2991 12.8186C2.14414 12.8186 1.24516 12.5839 0.882524 12.2091C0.108486 11.4625 -0.120066 9.93877 0.236478 8.16823C0.650155 6.19869 1.63357 4.39416 3.06447 2.97897C4.49537 1.56378 6.31064 0.600352 8.28463 0.208446C10.0399 -0.12372 11.5789 0.120071 12.3041 0.848398C13.6998 2.2502 13.2793 6.94318 10.1283 10.085C8.10484 12.0994 5.31648 12.8186 3.2991 12.8186ZM9.80529 0.583275C7.93114 0.583275 5.35 1.43959 3.4271 3.35335C2.07249 4.69566 1.14119 6.4057 0.748438 8.27184C0.443699 9.85039 0.623493 11.2217 1.25126 11.8525C1.99482 12.5961 6.6939 12.7667 9.75958 9.71936C12.8253 6.67196 13.0203 2.31115 11.9354 1.22323C11.524 0.796593 10.7561 0.583275 9.80529 0.583275Z" fill="#B7B7B7"/>
<path d="M3.29908 12.8948C2.13802 12.8948 1.21466 12.6632 0.827637 12.2854C0.0505524 11.5022 -0.199332 9.96325 0.163308 8.16834C0.578705 6.18317 1.56909 4.36412 3.01106 2.93787C4.45303 1.51162 6.28282 0.54122 8.27242 0.147601C10.0521 -0.19066 11.6246 0.0622735 12.359 0.805837C13.0934 1.5494 13.325 3.07919 12.9959 4.84058C12.6123 6.8523 11.6323 8.70202 10.1831 10.1491C8.14138 12.1696 5.28902 12.8948 3.29908 12.8948ZM9.77479 0.138459C9.27967 0.141466 8.78591 0.190435 8.29985 0.284733C6.34016 0.671961 4.5378 1.62745 3.11746 3.03207C1.69712 4.43669 0.721643 6.22831 0.312637 8.18357C-0.0408608 9.93278 0.193785 11.4199 0.937348 12.1665C1.29085 12.5231 2.19592 12.7425 3.29908 12.7425C5.2555 12.7425 8.0652 12.0294 10.0734 10.0303C11.5029 8.60588 12.4693 6.78338 12.8466 4.80097C13.1665 3.08529 12.938 1.59206 12.2523 0.900307C11.7556 0.403582 10.8627 0.138459 9.77479 0.138459ZM3.29299 12.3768C2.23554 12.3768 1.46454 12.1665 1.19942 11.8953C0.553372 11.2462 0.35225 9.8505 0.672227 8.23843C1.0703 6.3581 2.00868 4.6349 3.37221 3.28032C5.09088 1.57641 7.38683 0.580153 9.80526 0.488909C10.7926 0.488909 11.5697 0.72051 11.9902 1.1441C13.0903 2.2503 12.9319 6.64769 9.8144 9.74993C8.39482 11.1118 6.58207 11.9915 4.63384 12.264C4.19026 12.3345 3.7421 12.3722 3.29299 12.3768ZM9.80526 0.650421C7.42783 0.73803 5.17044 1.71714 3.48192 3.39307C2.1379 4.72314 1.21392 6.41852 0.824596 8.2689C0.519857 9.82002 0.696602 11.167 1.30608 11.7795C1.65958 12.133 2.99434 12.3555 4.62469 12.1117C6.53591 11.8421 8.31404 10.9786 9.70774 9.64327C12.7551 6.59588 12.9471 2.32953 11.8805 1.25076C11.4905 0.875928 10.753 0.659562 9.80526 0.659562V0.650421Z" fill="#B7B7B7"/>
<path d="M12.2737 6.23972C12.2372 6.23935 12.2021 6.22592 12.1747 6.20188C12.1473 6.17784 12.1294 6.14477 12.1243 6.10868C11.9054 4.82618 11.3042 3.63972 10.3995 2.70474C9.42816 1.74811 8.16646 1.14138 6.81273 0.979917C6.79272 0.978516 6.77318 0.973189 6.75523 0.964237C6.73728 0.955286 6.72127 0.942887 6.70812 0.927748C6.68154 0.897173 6.6682 0.857293 6.67103 0.816882C6.67386 0.776471 6.69262 0.738839 6.7232 0.712265C6.75377 0.68569 6.79365 0.672349 6.83406 0.675178C8.25945 0.849908 9.58645 1.49304 10.6067 2.50361C11.5551 3.48328 12.1869 4.72559 12.4199 6.06906C12.4252 6.10779 12.415 6.14704 12.3917 6.17838C12.3683 6.20971 12.3336 6.23064 12.295 6.23667L12.2737 6.23972Z" fill="#B7B7B7"/>
<path d="M12.2736 6.31568C12.2192 6.31545 12.1668 6.29558 12.1259 6.25975C12.085 6.22391 12.0585 6.17451 12.0511 6.12065C11.8318 4.8579 11.2383 3.6901 10.3476 2.76852C9.39061 1.82317 8.1477 1.22101 6.81266 1.05589C6.7526 1.05043 6.69694 1.02206 6.65724 0.976653C6.63778 0.954244 6.62314 0.92807 6.61423 0.899761C6.60532 0.871451 6.60233 0.84161 6.60544 0.812094C6.61088 0.753081 6.63902 0.698486 6.68393 0.659826C6.72885 0.621165 6.78702 0.601461 6.84618 0.604871C8.28566 0.777019 9.62798 1.41979 10.6646 2.43331C11.6252 3.42808 12.2626 4.69007 12.493 6.05361C12.4974 6.0825 12.4958 6.11197 12.4885 6.14025C12.4812 6.16853 12.4682 6.19504 12.4503 6.21817C12.4325 6.24203 12.4101 6.26212 12.3845 6.27729C12.3589 6.29246 12.3305 6.3024 12.301 6.30654L12.2736 6.31568ZM6.8279 0.757241C6.80951 0.757177 6.79178 0.764041 6.77823 0.776465C6.76467 0.788889 6.75629 0.805962 6.75476 0.824284C6.75429 0.844139 6.76075 0.863538 6.77305 0.879137C6.78644 0.892033 6.80345 0.900537 6.8218 0.903515C8.19775 1.06479 9.481 1.67908 10.4695 2.64967C11.3846 3.59828 11.993 4.80027 12.2157 6.09932C12.2185 6.11683 12.2274 6.13281 12.2407 6.14449C12.2541 6.15617 12.2711 6.16283 12.2888 6.16331C12.3081 6.16099 12.3256 6.15113 12.3376 6.13589C12.349 6.12 12.3544 6.10055 12.3528 6.08103C12.1238 4.752 11.5006 3.5225 10.564 2.55215C9.55435 1.56043 8.24507 0.930433 6.84009 0.760289L6.8279 0.757241Z" fill="#B7B7B7"/>
<path d="M6.10886 12.2396H6.09058C4.7523 12.0116 3.51568 11.38 2.54646 10.4295C1.48597 9.36897 0.803351 8.0464 0.718024 6.89144C0.716624 6.87143 0.719176 6.85134 0.725539 6.83231C0.731902 6.81329 0.741954 6.79571 0.755112 6.78057C0.768271 6.76543 0.784285 6.75303 0.802235 6.74408C0.820185 6.73513 0.839718 6.7298 0.859727 6.7284C0.879736 6.727 0.899824 6.72956 0.918846 6.73592C0.937869 6.74228 0.955452 6.75233 0.970591 6.76549C0.98573 6.77865 0.998133 6.79466 1.00708 6.81261C1.01604 6.83056 1.02136 6.8501 1.02276 6.8701C1.10504 7.95498 1.76024 9.20745 2.76892 10.2222C3.699 11.1253 4.88012 11.7265 6.15762 11.9471C6.19803 11.9499 6.23566 11.9687 6.26223 11.9992C6.28881 12.0298 6.30215 12.0697 6.29932 12.1101C6.29649 12.1505 6.27773 12.1881 6.24715 12.2147C6.21658 12.2413 6.1767 12.2546 6.13629 12.2518L6.10886 12.2396Z" fill="#B7B7B7"/>
<path d="M6.10879 12.3156H6.07832C4.71927 12.0877 3.4624 11.4497 2.4763 10.4872C1.40666 9.41753 0.711861 8.07668 0.620439 6.90343C0.617676 6.85916 0.627859 6.81504 0.649743 6.77645C0.671627 6.73786 0.704265 6.70648 0.743681 6.68612C0.783097 6.66577 0.82759 6.65733 0.871722 6.66182C0.915855 6.66632 0.957721 6.68356 0.992221 6.71145C1.03832 6.75189 1.06677 6.80877 1.07146 6.86991C1.15374 7.93955 1.79674 9.17069 2.79628 10.1702C3.71687 11.0623 4.88512 11.656 6.14841 11.8737C6.17791 11.8771 6.20643 11.8863 6.23223 11.901C6.25804 11.9157 6.2806 11.9355 6.29855 11.9591C6.3165 11.9827 6.32946 12.0098 6.33665 12.0386C6.34384 12.0674 6.34512 12.0974 6.3404 12.1267C6.33151 12.181 6.30305 12.2302 6.26039 12.265C6.21773 12.2998 6.16381 12.3178 6.10879 12.3156ZM0.848993 6.80592C0.839386 6.80631 0.829957 6.80859 0.821233 6.81263C0.812509 6.81668 0.804661 6.8224 0.798151 6.82948C0.791641 6.83655 0.786592 6.84484 0.783289 6.85387C0.779987 6.8629 0.778501 6.8725 0.778909 6.8821C0.867284 8.02183 1.54381 9.32001 2.58906 10.3714C3.55207 11.3114 4.77886 11.9355 6.10574 12.1602C6.12348 12.1597 6.14049 12.153 6.15384 12.1414C6.16719 12.1297 6.17606 12.1137 6.17889 12.0962C6.18109 12.0766 6.17562 12.057 6.16364 12.0413C6.1524 12.0268 6.13608 12.017 6.11794 12.0139C4.82352 11.7907 3.62657 11.1821 2.68353 10.2678C1.66265 9.24688 1.00136 7.97612 0.916036 6.87296C0.913853 6.85282 0.90404 6.83428 0.888611 6.82115C0.883351 6.81611 0.877138 6.81216 0.870337 6.80955C0.863535 6.80693 0.856278 6.8057 0.848993 6.80592Z" fill="#B7B7B7"/>
<path d="M1.06249 12.0722C1.05236 12.0726 1.04226 12.071 1.03282 12.0673C1.02338 12.0636 1.0148 12.058 1.00763 12.0509C0.994569 12.0368 0.987305 12.0183 0.987305 11.9991C0.987305 11.9799 0.994569 11.9614 1.00763 11.9473L2.63494 10.32C2.64178 10.3127 2.65004 10.3069 2.65921 10.3029C2.66839 10.2989 2.67827 10.2969 2.68827 10.2969C2.69826 10.2969 2.70815 10.2989 2.71732 10.3029C2.72649 10.3069 2.73476 10.3127 2.7416 10.32C2.75467 10.334 2.76192 10.3526 2.76192 10.3718C2.76192 10.391 2.75467 10.4095 2.7416 10.4236L1.11429 12.0509C1.10758 12.0578 1.09952 12.0633 1.09061 12.0669C1.08169 12.0706 1.07212 12.0724 1.06249 12.0722Z" fill="#B7B7B7"/>
<path d="M1.06241 12.1517C1.02172 12.1521 0.982438 12.1368 0.952703 12.109C0.925112 12.0804 0.909806 12.0421 0.910045 12.0023C0.909801 11.9824 0.913741 11.9626 0.921614 11.9442C0.929486 11.9258 0.941115 11.9093 0.955754 11.8957L2.58306 10.2684C2.61103 10.2407 2.64881 10.2251 2.6882 10.2251C2.72758 10.2251 2.76536 10.2407 2.79333 10.2684C2.80791 10.2821 2.81953 10.2986 2.82747 10.3169C2.83541 10.3353 2.8395 10.3551 2.8395 10.375C2.8395 10.395 2.83541 10.4148 2.82747 10.4332C2.81953 10.4515 2.80791 10.468 2.79333 10.4817L1.16907 12.109C1.14011 12.1361 1.10205 12.1513 1.06241 12.1517Z" fill="#B7B7B7"/>
<path d="M10.4697 2.65864C10.4596 2.65908 10.4495 2.65741 10.44 2.65373C10.4306 2.65006 10.422 2.64447 10.4149 2.63731C10.4018 2.62322 10.3945 2.60471 10.3945 2.5855C10.3945 2.56629 10.4018 2.54778 10.4149 2.53369L12.0422 0.906388C12.049 0.8991 12.0573 0.893291 12.0664 0.88932C12.0756 0.885349 12.0855 0.883301 12.0955 0.883301C12.1055 0.883301 12.1154 0.885349 12.1246 0.88932C12.1337 0.893291 12.142 0.8991 12.1488 0.906388C12.1619 0.920476 12.1691 0.938979 12.1691 0.958193C12.1691 0.977407 12.1619 0.995911 12.1488 1.01L10.5307 2.62512C10.5243 2.63552 10.5153 2.64409 10.5046 2.64997C10.4939 2.65585 10.4819 2.65884 10.4697 2.65864Z" fill="#B7B7B7"/>
<path d="M10.4696 2.73515C10.4298 2.73516 10.3915 2.71953 10.363 2.69161C10.3345 2.66369 10.3181 2.62571 10.3173 2.58583C10.317 2.56585 10.321 2.54603 10.3288 2.52766C10.3367 2.50929 10.3483 2.49278 10.363 2.47917L11.9933 0.851864C12.0072 0.837512 12.0237 0.826074 12.042 0.818224C12.0604 0.810373 12.0801 0.806268 12.1 0.806152C12.14 0.80765 12.178 0.82394 12.2067 0.851864C12.2339 0.880708 12.249 0.918865 12.249 0.958522C12.249 0.998179 12.2339 1.03634 12.2067 1.06518L10.5793 2.69249C10.5496 2.72027 10.5103 2.73554 10.4696 2.73515Z" fill="#B7B7B7"/>
<path d="M4.33207 8.91801C4.29243 8.91762 4.25439 8.9024 4.22542 8.87534C4.19769 8.84738 4.18213 8.80959 4.18213 8.77021C4.18213 8.73082 4.19769 8.69304 4.22542 8.66507L8.79651 4.09398C8.8248 4.0657 8.86315 4.0498 8.90316 4.0498C8.94316 4.0498 8.98153 4.0657 9.00982 4.09398C9.03811 4.12227 9.054 4.16064 9.054 4.20064C9.054 4.24065 9.03811 4.27901 9.00982 4.3073L4.43873 8.87839C4.4098 8.90515 4.37146 8.91939 4.33207 8.91801Z" fill="#B7B7B7"/>
<path d="M4.33204 8.99427C4.30219 8.99511 4.2725 8.98985 4.24476 8.97882C4.21702 8.96778 4.19182 8.9512 4.17071 8.93009C4.1496 8.90898 4.13302 8.88379 4.12199 8.85605C4.11095 8.82831 4.10569 8.79861 4.10653 8.76876C4.10606 8.73941 4.11148 8.71026 4.12247 8.68304C4.13346 8.65583 4.1498 8.63109 4.17052 8.6103L8.74161 4.03921C8.76225 4.01807 8.7869 4.00126 8.81411 3.98975C8.84131 3.97824 8.87054 3.97226 8.90008 3.97217C8.9444 3.97256 8.98761 3.98599 9.02433 4.0108C9.06105 4.0356 9.08965 4.07067 9.10656 4.11164C9.12346 4.1526 9.12793 4.19764 9.11939 4.24112C9.11085 4.28461 9.08969 4.32461 9.05854 4.35614L4.48746 8.92723C4.44651 8.96918 4.39065 8.99327 4.33204 8.99427ZM8.90312 4.11844C8.88395 4.11952 8.8657 4.12704 8.85132 4.13978L4.28024 8.71086C4.27331 8.71757 4.26784 8.72563 4.26417 8.73454C4.2605 8.74345 4.2587 8.75303 4.2589 8.76267C4.2583 8.77236 4.2599 8.78206 4.2636 8.79103C4.26729 8.80001 4.27298 8.80802 4.28024 8.81447C4.29432 8.82754 4.31282 8.8348 4.33204 8.8348C4.35125 8.8348 4.36976 8.82754 4.38385 8.81447L8.95493 4.24339C8.968 4.2293 8.97526 4.21079 8.97526 4.19158C8.97526 4.17237 8.968 4.15386 8.95493 4.13978C8.94341 4.12764 8.92858 4.11916 8.91227 4.1154L8.90312 4.11844Z" fill="#B7B7B7"/>
<path d="M8.71714 5.71487C8.67751 5.71449 8.63945 5.69927 8.61048 5.67221L7.422 4.48982C7.39823 4.46118 7.38601 4.42471 7.38773 4.38753C7.38945 4.35036 7.405 4.31517 7.43131 4.28885C7.45763 4.26254 7.49281 4.247 7.52998 4.24528C7.56716 4.24356 7.60364 4.25578 7.63227 4.27955L8.81466 5.46194C8.84239 5.4899 8.85795 5.52769 8.85795 5.56707C8.85795 5.60645 8.84239 5.64424 8.81466 5.67221C8.7885 5.69792 8.75379 5.71311 8.71714 5.71487Z" fill="#B7B7B7"/>
<path d="M8.71716 5.79116C8.65657 5.79111 8.59847 5.76699 8.55565 5.72412L7.37326 4.54173C7.33578 4.49983 7.31506 4.44558 7.31506 4.38936C7.31506 4.33314 7.33578 4.2789 7.37326 4.23699C7.41635 4.19583 7.47365 4.17285 7.53325 4.17285C7.59284 4.17285 7.65015 4.19583 7.69324 4.23699L8.87562 5.41938C8.91374 5.46097 8.93489 5.51533 8.93489 5.57175C8.93489 5.62816 8.91374 5.68253 8.87562 5.72412C8.83303 5.76547 8.7765 5.78939 8.71716 5.79116ZM7.53477 4.31013C7.52516 4.31011 7.51564 4.31198 7.50675 4.31564C7.49786 4.3193 7.48978 4.32468 7.48297 4.33146C7.47605 4.33817 7.47057 4.34623 7.4669 4.35514C7.46323 4.36405 7.46144 4.37363 7.46164 4.38327C7.46103 4.39296 7.46264 4.40265 7.46634 4.41163C7.47003 4.4206 7.47572 4.42862 7.48297 4.43507L8.66535 5.61746C8.67909 5.6312 8.69773 5.63892 8.71716 5.63892C8.73659 5.63892 8.75523 5.6312 8.76897 5.61746C8.78271 5.60372 8.79043 5.58509 8.79043 5.56566C8.79043 5.54623 8.78271 5.52759 8.76897 5.51385L7.58658 4.33146C7.57221 4.31872 7.55395 4.31121 7.53477 4.31013Z" fill="#B7B7B7"/>
<path d="M7.65374 6.77864C7.61411 6.77826 7.57605 6.76304 7.54708 6.73598L6.36469 5.55359C6.33696 5.52563 6.32141 5.48784 6.32141 5.44846C6.32141 5.40908 6.33696 5.37129 6.36469 5.34332C6.3781 5.32883 6.39436 5.31726 6.41246 5.30936C6.43055 5.30145 6.45008 5.29736 6.46983 5.29736C6.48957 5.29736 6.50911 5.30145 6.5272 5.30936C6.54529 5.31726 6.56155 5.32883 6.57496 5.34332L7.75735 6.52571C7.78508 6.55368 7.80063 6.59146 7.80063 6.63085C7.80063 6.67023 7.78508 6.70802 7.75735 6.73598C7.72966 6.76311 7.69251 6.77841 7.65374 6.77864Z" fill="#B7B7B7"/>
<path d="M7.65372 6.85471C7.59467 6.85436 7.53798 6.83147 7.49525 6.79071L6.30982 5.60528C6.2873 5.56267 6.27903 5.51396 6.28621 5.4663C6.2934 5.41865 6.31566 5.37454 6.34974 5.34046C6.38382 5.30638 6.42792 5.28412 6.47558 5.27693C6.52323 5.26975 6.57194 5.27802 6.61455 5.30054L7.79694 6.48293C7.81808 6.50357 7.83489 6.52821 7.8464 6.55541C7.85791 6.58262 7.86389 6.61185 7.86399 6.64139C7.86328 6.70186 7.83927 6.75972 7.79694 6.8029C7.75618 6.83541 7.70585 6.85362 7.65372 6.85471ZM6.47133 5.36758C6.45204 5.36815 6.43361 5.37573 6.41952 5.38891C6.41231 5.39548 6.40655 5.40348 6.40261 5.4124C6.39867 5.42132 6.39664 5.43097 6.39664 5.44072C6.39664 5.45047 6.39867 5.46012 6.40261 5.46904C6.40655 5.47796 6.41231 5.48596 6.41952 5.49252L7.60191 6.67491C7.61599 6.68798 7.6345 6.69524 7.65372 6.69524C7.67293 6.69524 7.69143 6.68798 7.70552 6.67491C7.7123 6.6681 7.71768 6.66002 7.72134 6.65113C7.72501 6.64224 7.72687 6.63272 7.72685 6.62311C7.72577 6.60393 7.71826 6.58568 7.70552 6.5713L6.52313 5.38891C6.50875 5.37617 6.4905 5.36866 6.47133 5.36758Z" fill="#B7B7B7"/>
<path d="M6.59024 7.84261C6.5506 7.84223 6.51256 7.82701 6.48359 7.79995L5.28901 6.61756C5.26128 6.58959 5.24573 6.55181 5.24573 6.51242C5.24573 6.47304 5.26128 6.43526 5.28901 6.40729C5.30242 6.3928 5.31868 6.38123 5.33677 6.37332C5.35487 6.36541 5.3744 6.36133 5.39414 6.36133C5.41389 6.36133 5.43342 6.36541 5.45152 6.37332C5.46961 6.38123 5.48587 6.3928 5.49928 6.40729L6.68167 7.58968C6.69616 7.60309 6.70772 7.61935 6.71563 7.63744C6.72354 7.65553 6.72763 7.67507 6.72763 7.69481C6.72763 7.71456 6.72354 7.73409 6.71563 7.75218C6.70772 7.77028 6.69616 7.78654 6.68167 7.79995C6.65707 7.82435 6.62474 7.83943 6.59024 7.84261Z" fill="#B7B7B7"/>
<path d="M6.59027 7.91846C6.56068 7.91872 6.53134 7.9129 6.50409 7.90137C6.47683 7.88984 6.45223 7.87284 6.43181 7.85142L5.24942 6.66903C5.21821 6.65254 5.1913 6.62895 5.17087 6.60015C5.15044 6.57136 5.13706 6.53817 5.13179 6.50327C5.12653 6.46836 5.12953 6.4327 5.14056 6.39916C5.1516 6.36563 5.17036 6.33515 5.19532 6.31019C5.22029 6.28523 5.25076 6.26647 5.28429 6.25544C5.31783 6.24441 5.35349 6.2414 5.3884 6.24666C5.42331 6.25192 5.45649 6.26531 5.48528 6.28574C5.51407 6.30617 5.53766 6.33308 5.55416 6.36429L6.73655 7.54668C6.75769 7.56732 6.7745 7.59196 6.78601 7.61917C6.79753 7.64637 6.8035 7.6756 6.80359 7.70514C6.80385 7.73474 6.79803 7.76407 6.7865 7.79133C6.77497 7.81858 6.75797 7.84318 6.73655 7.86361C6.69602 7.89897 6.64406 7.91846 6.59027 7.91846ZM5.40789 6.43743C5.38871 6.43851 5.37046 6.44602 5.35608 6.45876C5.34301 6.47285 5.33575 6.49135 5.33575 6.51057C5.33575 6.52978 5.34301 6.54828 5.35608 6.56237L6.53847 7.74476C6.55256 7.75783 6.57106 7.76509 6.59027 7.76509C6.60948 7.76509 6.62799 7.75783 6.64208 7.74476C6.64887 7.73795 6.65424 7.72987 6.6579 7.72098C6.66156 7.71209 6.66344 7.70257 6.66341 7.69295C6.66234 7.67378 6.65482 7.65552 6.64208 7.64115L5.45969 6.45876C5.44532 6.44602 5.42707 6.43851 5.40789 6.43743Z" fill="#B7B7B7"/>
<path d="M5.52669 8.90597C5.48706 8.90559 5.449 8.89037 5.42003 8.86331L4.23764 7.68092C4.20973 7.65244 4.19409 7.61414 4.19409 7.57426C4.19409 7.53438 4.20973 7.49609 4.23764 7.4676C4.26561 7.43987 4.3034 7.42432 4.34278 7.42432C4.38216 7.42432 4.41995 7.43987 4.44791 7.4676L5.6303 8.65304C5.6448 8.66645 5.65637 8.68271 5.66428 8.7008C5.67219 8.71889 5.67626 8.73843 5.67626 8.75817C5.67626 8.77792 5.67219 8.79745 5.66428 8.81554C5.65637 8.83364 5.6448 8.8499 5.6303 8.86331C5.60261 8.89044 5.56546 8.90574 5.52669 8.90597Z" fill="#B7B7B7"/>
<path d="M5.52665 8.98204C5.49706 8.98229 5.46773 8.97648 5.44047 8.96494C5.41321 8.95341 5.38862 8.93641 5.36819 8.91499L4.1858 7.7326C4.15466 7.70108 4.13349 7.66107 4.12495 7.61759C4.11641 7.5741 4.12088 7.52907 4.13779 7.4881C4.15469 7.44714 4.18329 7.41206 4.22002 7.38726C4.25674 7.36246 4.29995 7.34902 4.34426 7.34863C4.3738 7.34873 4.40303 7.3547 4.43024 7.36621C4.45745 7.37773 4.48209 7.39454 4.50273 7.41568L5.68511 8.59806C5.71626 8.62959 5.73742 8.6696 5.74596 8.71308C5.7545 8.75656 5.75004 8.8016 5.73314 8.84256C5.71623 8.88353 5.68763 8.9186 5.65091 8.94341C5.61419 8.96821 5.57097 8.98165 5.52665 8.98204ZM4.34426 7.501C4.33465 7.50098 4.32513 7.50285 4.31624 7.50651C4.30735 7.51017 4.29927 7.51555 4.29246 7.52233C4.28564 7.52913 4.28023 7.5372 4.27654 7.54609C4.27285 7.55498 4.27095 7.56451 4.27095 7.57414C4.27095 7.58377 4.27285 7.5933 4.27654 7.60219C4.28023 7.61108 4.28564 7.61915 4.29246 7.62595L5.47484 8.80833C5.48656 8.82409 5.50407 8.83455 5.5235 8.83741C5.54293 8.84027 5.5627 8.83529 5.57846 8.82357C5.59422 8.81185 5.60468 8.79435 5.60753 8.77492C5.61039 8.75549 5.60541 8.73572 5.5937 8.71996L4.41131 7.53757C4.40374 7.52669 4.39374 7.51771 4.3821 7.51137C4.37047 7.50502 4.35751 7.50147 4.34426 7.501Z" fill="#B7B7B7"/>
</svg>
