<svg width="14" height="14" viewBox="0 0 14 14" fill="none" xmlns="http://www.w3.org/2000/svg">
<path d="M2.28017 12.962C1.84424 12.9616 1.41819 12.8321 1.05579 12.5898C0.693393 12.3475 0.410884 12.0033 0.243916 11.6007C0.0769485 11.198 0.0330035 10.7548 0.117627 10.3272C0.202251 9.89956 0.411652 9.50658 0.719404 9.19783L1.96801 7.94922L5.08648 11.0707L3.84093 12.3163C3.63623 12.5216 3.39294 12.6843 3.12507 12.7951C2.8572 12.9059 2.57005 12.9627 2.28017 12.962ZM1.97413 8.67757L1.09888 9.55589C0.94275 9.71202 0.818899 9.89738 0.7344 10.1014C0.649902 10.3054 0.606411 10.524 0.606411 10.7448C0.606411 10.9656 0.649902 11.1843 0.7344 11.3883C0.818899 11.5923 0.94275 11.7776 1.09888 11.9338C1.25502 12.0899 1.44037 12.2137 1.64437 12.2982C1.84837 12.3827 2.06701 12.4262 2.28782 12.4262C2.50862 12.4262 2.72727 12.3827 2.93126 12.2982C3.13526 12.2137 3.32062 12.0899 3.47675 11.9338L4.352 11.0585L1.97413 8.67757Z" fill="#B7B7B7"/>
<path d="M2.28019 13.0387C1.98055 13.04 1.68364 12.9818 1.40675 12.8672C1.12986 12.7527 0.878532 12.5842 0.667404 12.3716C0.24001 11.943 0 11.3625 0 10.7572C0 10.152 0.24001 9.57146 0.667404 9.14292L1.96804 7.84229L5.19668 11.0709L3.89298 12.3716C3.68185 12.5842 3.43052 12.7527 3.15364 12.8672C2.87675 12.9818 2.57983 13.04 2.28019 13.0387ZM1.97416 8.05957L0.780637 9.25309C0.450682 9.66472 0.284216 10.1836 0.313134 10.7104C0.342053 11.2371 0.564323 11.7347 0.937356 12.1077C1.31039 12.4808 1.80795 12.703 2.3347 12.7319C2.86146 12.7609 3.38036 12.5944 3.79199 12.2644L4.98551 11.0709L1.97416 8.05957ZM2.28019 12.5154C1.93266 12.5155 1.59289 12.4126 1.30388 12.2196C1.01487 12.0266 0.789602 11.7522 0.656587 11.4311C0.523571 11.11 0.488783 10.7567 0.556624 10.4159C0.624465 10.075 0.791886 9.76195 1.0377 9.51628L1.9558 8.59818L4.44384 11.0862L3.52574 12.0043C3.36259 12.1683 3.16845 12.2982 2.95462 12.3865C2.74078 12.4748 2.51152 12.5196 2.28019 12.5185V12.5154ZM1.97416 8.80016L1.15094 9.62339C0.926077 9.84767 0.772878 10.1337 0.710761 10.4451C0.648643 10.7566 0.680404 11.0795 0.802018 11.3728C0.923632 11.6662 1.12962 11.9169 1.39387 12.093C1.65812 12.2692 1.96873 12.363 2.28631 12.3624C2.70824 12.3658 3.11432 12.2018 3.41557 11.9064L4.23268 11.0709L1.97416 8.80016Z" fill="#B7B7B7"/>
<path d="M3.95424 11.9059C3.94456 11.9061 3.93495 11.9043 3.926 11.9006C3.91705 11.897 3.90895 11.8915 3.90222 11.8845L1.14793 9.13022C1.13688 9.11549 1.13152 9.09727 1.13282 9.0789C1.13413 9.06053 1.14202 9.04324 1.15504 9.03022C1.16806 9.0172 1.18534 9.00931 1.20371 9.00801C1.22208 9.0067 1.24031 9.01206 1.25504 9.02311L4.00933 11.7774C4.02266 11.7921 4.03005 11.8111 4.03005 11.831C4.03005 11.8508 4.02266 11.8699 4.00933 11.8845C4.00213 11.8917 3.99352 11.8973 3.98404 11.901C3.97455 11.9047 3.96441 11.9064 3.95424 11.9059Z" fill="#B7B7B7"/>
<path d="M3.95426 11.9825C3.93465 11.9827 3.91522 11.9787 3.89727 11.9708C3.87933 11.9628 3.86328 11.9512 3.85021 11.9366L1.09592 9.18228C1.08192 9.16824 1.07091 9.15151 1.06355 9.1331C1.05618 9.1147 1.05262 9.09499 1.05308 9.07517C1.05346 9.03536 1.06875 8.99715 1.09592 8.96806C1.12453 8.94002 1.16298 8.92432 1.20303 8.92432C1.24309 8.92432 1.28154 8.94002 1.31015 8.96806L4.06443 11.7223C4.07907 11.7361 4.09074 11.7527 4.09871 11.7711C4.10669 11.7895 4.1108 11.8094 4.1108 11.8295C4.1108 11.8495 4.10669 11.8694 4.09871 11.8878C4.09074 11.9062 4.07907 11.9228 4.06443 11.9366C4.05069 11.952 4.03365 11.9641 4.01458 11.9721C3.99551 11.98 3.97489 11.9836 3.95426 11.9825Z" fill="#B7B7B7"/>
<path d="M4.84467 11.2032C4.7921 11.2029 4.74081 11.187 4.69724 11.1576C4.65367 11.1282 4.61978 11.0866 4.59984 11.0379C4.57468 10.9734 4.576 10.9015 4.6035 10.8379C4.631 10.7743 4.68247 10.7241 4.74674 10.6982L12.6424 7.57059C12.6749 7.55422 12.7105 7.54477 12.7468 7.54285C12.7832 7.54093 12.8196 7.54657 12.8536 7.55943C12.8877 7.57229 12.9187 7.59208 12.9448 7.61755C12.9708 7.64302 12.9913 7.67361 13.0049 7.70739C13.0185 7.74118 13.0249 7.77742 13.0238 7.81382C13.0226 7.85022 13.014 7.88599 12.9983 7.91886C12.9827 7.95174 12.9603 7.98101 12.9328 8.00482C12.9052 8.02863 12.873 8.04646 12.8382 8.05718L4.9426 11.1848C4.91144 11.1972 4.87819 11.2034 4.84467 11.2032Z" fill="#B7B7B7"/>
<path d="M4.8447 11.2948C4.77834 11.2929 4.71398 11.2716 4.6596 11.2336C4.60521 11.1955 4.56316 11.1423 4.53867 11.0806C4.52125 11.0395 4.51227 10.9952 4.51227 10.9505C4.51227 10.9059 4.52125 10.8616 4.53867 10.8205C4.57534 10.7385 4.6422 10.6738 4.72535 10.6399L12.6179 7.50003C12.6591 7.48261 12.7033 7.47363 12.748 7.47363C12.7927 7.47363 12.8369 7.48261 12.878 7.50003C12.919 7.51764 12.956 7.54321 12.987 7.57526C13.018 7.60731 13.0424 7.64519 13.0586 7.68671C13.076 7.72786 13.085 7.77209 13.085 7.81678C13.085 7.86146 13.076 7.90569 13.0586 7.94684C13.0426 7.9879 13.0179 8.02502 12.9862 8.05566C12.9545 8.08629 12.9166 8.10972 12.875 8.12434L4.97018 11.255C4.93138 11.2764 4.88874 11.29 4.8447 11.2948ZM12.7434 7.62245C12.7212 7.61807 12.6983 7.61807 12.6761 7.62245L4.77737 10.7685C4.73223 10.7867 4.69599 10.8218 4.67638 10.8664C4.65814 10.9126 4.65814 10.964 4.67638 11.0102C4.696 11.055 4.73187 11.0906 4.77675 11.1099C4.82163 11.1292 4.87217 11.1308 4.91815 11.1143L12.8015 7.98662C12.8475 7.96851 12.8847 7.93346 12.9056 7.88869C12.9238 7.84248 12.9238 7.79107 12.9056 7.74486C12.897 7.72224 12.8839 7.70161 12.867 7.68425C12.8502 7.66688 12.83 7.65314 12.8076 7.64387C12.7875 7.63332 12.7658 7.62608 12.7434 7.62245Z" fill="#B7B7B7"/>
<path d="M2.13941 8.49408C2.10592 8.49389 2.07275 8.48767 2.04148 8.47572C1.97721 8.44983 1.92574 8.39964 1.89824 8.33605C1.87074 8.27245 1.86942 8.20058 1.89458 8.13602L5.02223 0.240399C5.05244 0.182891 5.10285 0.138587 5.16376 0.116013C5.22467 0.0934381 5.29178 0.0941876 5.35217 0.118116C5.41256 0.142045 5.46197 0.187464 5.49089 0.245631C5.51981 0.303799 5.52619 0.370606 5.50882 0.433198L2.39647 8.32882C2.37615 8.37969 2.34046 8.42296 2.29438 8.45258C2.2483 8.48221 2.19412 8.49671 2.13941 8.49408Z" fill="#B7B7B7"/>
<path d="M2.13939 8.57069C2.09642 8.57026 2.0539 8.56196 2.01392 8.54621C1.97267 8.53 1.93503 8.50581 1.90315 8.47502C1.87128 8.44424 1.84579 8.40746 1.82816 8.3668C1.81054 8.32614 1.80111 8.2824 1.80042 8.23809C1.79974 8.19378 1.80781 8.14977 1.82418 8.10858L4.95182 0.2099C4.96779 0.168589 4.99205 0.130985 5.0231 0.0994057C5.05415 0.0678263 5.09135 0.0429403 5.13238 0.0262809C5.17301 0.00893979 5.21674 0 5.26091 0C5.30509 0 5.34881 0.00893979 5.38945 0.0262809C5.47297 0.0596507 5.53986 0.124785 5.57542 0.207398C5.61099 0.290011 5.61235 0.383357 5.57919 0.466966L2.4546 8.35647C2.43023 8.42009 2.38695 8.47473 2.3306 8.51303C2.27425 8.55133 2.20752 8.57145 2.13939 8.57069ZM5.26398 0.151754C5.23983 0.146027 5.21467 0.146027 5.19053 0.151754C5.14596 0.17136 5.11082 0.207598 5.0926 0.252744L1.96801 8.16367C1.94977 8.20988 1.94977 8.26129 1.96801 8.3075C1.9896 8.35173 2.0266 8.38656 2.07206 8.40543C2.11756 8.4226 2.16797 8.42133 2.21255 8.4019C2.25713 8.38247 2.29237 8.3464 2.31077 8.30138L5.43841 0.40576C5.45652 0.359889 5.45574 0.308718 5.43624 0.26342C5.41675 0.218122 5.38012 0.182379 5.33436 0.163996C5.31195 0.155268 5.28802 0.151105 5.26398 0.151754Z" fill="#B7B7B7"/>
<path d="M12.7435 8.07512C12.709 8.07473 12.6749 8.06852 12.6425 8.05676L11.2194 7.46918L10.6747 6.14712L9.35264 5.60238L8.8232 4.28033L7.48584 3.73559L6.94111 2.41965L5.61905 1.87797L5.03453 0.451867C5.02157 0.420128 5.01501 0.386142 5.01523 0.351861C5.01545 0.31758 5.02245 0.283681 5.03582 0.252113C5.04918 0.220545 5.06866 0.19193 5.09312 0.167914C5.11758 0.143898 5.14655 0.124953 5.17836 0.112171C5.24251 0.0857091 5.31452 0.0856548 5.37871 0.112019C5.4429 0.138384 5.49409 0.189033 5.52112 0.252945L6.01995 1.47707L7.34507 2.01875L7.88675 3.33775L9.2088 3.88248L9.7413 5.20148L11.0634 5.74622L11.6081 7.06828L12.8322 7.57017C12.8668 7.58219 12.8986 7.60132 12.9254 7.62632C12.9522 7.65133 12.9735 7.68166 12.9879 7.71536C13.0023 7.74907 13.0095 7.78542 13.009 7.82208C13.0086 7.85873 13.0005 7.89489 12.9852 7.92822C12.9637 7.97367 12.9293 8.01181 12.8864 8.03792C12.8434 8.06403 12.7937 8.07696 12.7435 8.07512Z" fill="#B7B7B7"/>
<path d="M12.7434 8.15159C12.6994 8.15147 12.6559 8.14316 12.6149 8.12711L11.1612 7.51504L10.6165 6.18993L9.29445 5.66355L8.74971 4.33843L7.42766 3.79676L6.88292 2.47164L5.56086 1.92996L4.9488 0.476312C4.91526 0.392846 4.91526 0.299651 4.9488 0.216184C4.97654 0.158587 5.01999 0.109989 5.07412 0.0759787C5.12826 0.0419681 5.19089 0.0239258 5.25483 0.0239258C5.31876 0.0239258 5.3814 0.0419681 5.43553 0.0759787C5.48967 0.109989 5.53311 0.158587 5.56086 0.216184L6.06887 1.40971L7.39399 1.95445L7.93567 3.2765L9.26079 3.82124L9.80246 5.1433L11.1245 5.68803L11.6784 7.01009L12.872 7.49974C12.9545 7.53504 13.0203 7.60081 13.0556 7.68336C13.073 7.72451 13.082 7.76874 13.082 7.81343C13.082 7.85811 13.073 7.90234 13.0556 7.94349C13.0301 8.00524 12.9868 8.05799 12.9312 8.09505C12.8756 8.13211 12.8102 8.15179 12.7434 8.15159ZM11.2714 7.41099L12.6669 7.98633C12.7125 8.00382 12.763 8.00307 12.808 7.98427C12.8531 7.96546 12.8891 7.93003 12.9087 7.88534C12.9269 7.83913 12.9269 7.78772 12.9087 7.74151C12.8994 7.71916 12.8857 7.69895 12.8683 7.68211C12.8509 7.66527 12.8303 7.65216 12.8077 7.64358L11.5774 7.12638L11.0327 5.80433L9.71065 5.25959L9.15061 3.94977L7.82856 3.40504L7.293 2.07074L5.97094 1.52906L5.45681 0.277391C5.44775 0.254745 5.43426 0.234132 5.41715 0.216755C5.40003 0.199379 5.37962 0.185586 5.35711 0.176184C5.3346 0.166782 5.31045 0.161959 5.28606 0.161996C5.26166 0.162034 5.23752 0.16693 5.21504 0.1764C5.16969 0.195894 5.13355 0.232041 5.11405 0.277391C5.09568 0.322518 5.09568 0.373039 5.11405 0.418165L5.67715 1.80755L6.98697 2.35535L7.53171 3.67741L8.85376 4.22214L9.3985 5.5442L10.7328 6.092L11.2714 7.41099Z" fill="#B7B7B7"/>
<path d="M7.19809 10.1774H7.16443L6.31672 9.99074C6.28892 9.98484 6.26342 9.97101 6.24332 9.95091C6.22322 9.93081 6.20939 9.90531 6.20349 9.87751L6.03823 9.12467L5.2854 8.95941C5.25749 8.95302 5.23188 8.93907 5.21137 8.9191C5.19086 8.89913 5.17624 8.8739 5.1691 8.84618L5.00384 8.09028L4.25101 7.92809C4.2232 7.92219 4.1977 7.90835 4.17761 7.88826C4.15751 7.86816 4.14367 7.84266 4.13778 7.81485L3.97252 7.06201L3.21968 6.89676C3.19139 6.89012 3.16552 6.87572 3.14497 6.85517C3.12443 6.83463 3.11003 6.80875 3.10339 6.78047L2.91977 5.93276C2.91527 5.91365 2.91465 5.89384 2.91794 5.87449C2.92123 5.85515 2.92836 5.83665 2.93892 5.82011C2.94947 5.80356 2.96323 5.7893 2.97939 5.77816C2.99555 5.76702 3.01378 5.75924 3.033 5.75526C3.07153 5.74703 3.11175 5.7543 3.14496 5.77549C3.17818 5.79668 3.20172 5.83008 3.2105 5.86849L3.37576 6.62439L4.12859 6.78965C4.15696 6.79501 4.18312 6.80861 4.2038 6.82874C4.22448 6.84888 4.23877 6.87467 4.24489 6.90288L4.41014 7.65572L5.16298 7.82097C5.1912 7.82709 5.21698 7.84138 5.23712 7.86206C5.25726 7.88274 5.27086 7.9089 5.27622 7.93727L5.45677 8.68092L6.21267 8.84618C6.24016 8.85276 6.2653 8.86682 6.28528 8.8868C6.30527 8.90679 6.31933 8.93192 6.3259 8.95941L6.49116 9.71531L7.244 9.88057C7.26329 9.88458 7.28161 9.89235 7.2979 9.90344C7.31419 9.91453 7.32814 9.92873 7.33894 9.94521C7.34974 9.9617 7.35718 9.98015 7.36085 9.99951C7.36451 10.0189 7.36432 10.0388 7.36029 10.0581C7.35227 10.0942 7.33142 10.1262 7.30159 10.1482C7.27177 10.1701 7.235 10.1805 7.19809 10.1774Z" fill="#B7B7B7"/>
<path d="M7.1981 10.2541H7.14913L6.30143 10.0705C6.2594 10.0615 6.22088 10.0405 6.19048 10.0101C6.16008 9.97968 6.13909 9.94116 6.13005 9.89913L5.97397 9.19219L5.26704 9.03612C5.22501 9.02707 5.18649 9.00609 5.15609 8.97569C5.12569 8.94529 5.10471 8.90677 5.09566 8.86474L4.93958 8.15781L4.23571 8.00479C4.19335 7.99467 4.15463 7.97301 4.12384 7.94222C4.09305 7.91143 4.07139 7.87271 4.06127 7.83035L3.90826 7.12648L3.20132 6.9704C3.15889 6.96113 3.12008 6.9397 3.08965 6.90872C3.05921 6.87773 3.03846 6.83855 3.02994 6.79597L2.84326 5.95132C2.83664 5.92216 2.83593 5.89196 2.84119 5.86252C2.84644 5.83309 2.85756 5.805 2.87387 5.77994C2.8896 5.75504 2.91016 5.73354 2.93434 5.71672C2.95852 5.6999 2.98582 5.68809 3.01464 5.68201C3.04376 5.67483 3.07406 5.67385 3.10358 5.67912C3.1331 5.68439 3.16119 5.6958 3.18602 5.71261C3.21128 5.72792 3.23305 5.74836 3.24992 5.77261C3.26679 5.79686 3.27838 5.82438 3.28395 5.85339L3.44003 6.56032L4.14696 6.71334C4.18923 6.72296 4.22784 6.74451 4.25822 6.77544C4.2886 6.80636 4.30946 6.84535 4.31834 6.88777L4.47442 7.59165L5.17829 7.74773C5.22041 7.75728 5.25904 7.77837 5.28985 7.80864C5.32066 7.83891 5.34243 7.87716 5.35273 7.9191L5.50574 8.62604L6.21268 8.78211C6.2547 8.79116 6.29323 8.81214 6.32363 8.84254C6.35402 8.87294 6.37501 8.91146 6.38405 8.95349L6.54013 9.66042L7.24706 9.81344C7.3054 9.82661 7.35616 9.86231 7.38827 9.91276C7.42038 9.96322 7.43122 10.0243 7.41844 10.0827C7.40566 10.1316 7.37715 10.1748 7.33732 10.2058C7.29749 10.2368 7.24856 10.2538 7.1981 10.2541ZM3.06361 5.81972C3.04503 5.82386 3.02867 5.83477 3.0177 5.85033C3.01164 5.86819 3.01164 5.88755 3.0177 5.90541L3.20438 6.75312C3.20747 6.76655 3.21428 6.77883 3.22402 6.78857C3.23376 6.79831 3.24604 6.80511 3.25947 6.80821L4.06127 6.9857L4.23571 7.78445C4.23828 7.79843 4.24485 7.81137 4.25463 7.82169C4.26441 7.83201 4.27697 7.83927 4.2908 7.84259L5.0926 8.01703L5.2701 8.81884C5.27319 8.83226 5.28 8.84454 5.28974 8.85428C5.29948 8.86402 5.31176 8.87083 5.32518 8.87392L6.12699 9.05142L6.30448 9.85322C6.30758 9.86665 6.31438 9.87893 6.32412 9.88867C6.33386 9.89841 6.34615 9.90522 6.35957 9.90831L7.22258 10.098C7.23915 10.0977 7.25513 10.0918 7.26791 10.0812C7.28069 10.0707 7.28952 10.0561 7.29297 10.0399C7.29524 10.0305 7.29561 10.0207 7.29406 10.0111C7.29251 10.0015 7.28908 9.99228 7.28395 9.98403C7.27883 9.97577 7.27212 9.96862 7.26421 9.96298C7.2563 9.95733 7.24735 9.95331 7.23788 9.95115L6.43608 9.77672L6.25858 8.97491C6.25601 8.96093 6.24944 8.94799 6.23966 8.93767C6.22988 8.92735 6.21732 8.92009 6.2035 8.91677L5.40169 8.74233L5.22725 7.94052C5.22416 7.9271 5.21736 7.91482 5.20762 7.90508C5.19787 7.89534 5.18559 7.88853 5.17217 7.88544L4.37036 7.70794L4.19287 6.90614C4.18977 6.89271 4.18297 6.88043 4.17323 6.87069C4.16349 6.86095 4.1512 6.85414 4.13778 6.85105L3.31455 6.67967L3.14012 5.87787C3.13784 5.86836 3.13369 5.85941 3.12791 5.85152C3.12213 5.84364 3.11484 5.83699 3.10645 5.83197C3.09422 5.82265 3.07892 5.81828 3.06361 5.81972Z" fill="#B7B7B7"/>
<path d="M3.08509 9.22238C3.06646 9.22277 3.04794 9.21944 3.0306 9.21261C3.01327 9.20579 2.99746 9.19558 2.98409 9.1826C2.96993 9.1689 2.95867 9.15249 2.95098 9.13436C2.94329 9.11622 2.93933 9.09672 2.93933 9.07702C2.93933 9.05732 2.94329 9.03782 2.95098 9.01968C2.95867 9.00154 2.96993 8.98513 2.98409 8.97144L4.18374 7.6708C4.21136 7.64522 4.2476 7.63096 4.28525 7.63086C4.3229 7.63076 4.35921 7.64483 4.38697 7.67027C4.41472 7.69572 4.43189 7.73067 4.43506 7.76819C4.43823 7.8057 4.42717 7.84304 4.40408 7.87278L3.20444 9.17342C3.18958 9.19012 3.17111 9.20322 3.15042 9.2117C3.12974 9.22019 3.10739 9.22384 3.08509 9.22238Z" fill="#B7B7B7"/>
<path d="M3.08505 9.29881C3.02632 9.29963 2.96962 9.27729 2.92724 9.23663C2.88486 9.19596 2.86019 9.14024 2.85859 9.08152C2.85617 9.02196 2.87702 8.96379 2.91673 8.91932L4.11638 7.62175C4.15751 7.57974 4.21336 7.55537 4.27213 7.55379C4.3309 7.55222 4.38798 7.57355 4.4313 7.6133C4.47462 7.65304 4.50079 7.70808 4.50427 7.76676C4.50775 7.82545 4.48827 7.8832 4.44995 7.92778L3.25031 9.22842C3.22937 9.25125 3.2038 9.26935 3.17529 9.28149C3.14679 9.29363 3.11602 9.29953 3.08505 9.29881ZM4.2847 7.69826C4.27433 7.6984 4.26411 7.70064 4.25464 7.70484C4.24517 7.70905 4.23666 7.71514 4.22961 7.72274L3.02997 9.02338C3.01807 9.0381 3.01158 9.05647 3.0116 9.0754C3.01158 9.08506 3.01346 9.09462 3.01714 9.10355C3.02081 9.11247 3.02621 9.12059 3.03303 9.12743C3.04717 9.14055 3.06576 9.14784 3.08505 9.14784C3.10435 9.14784 3.12293 9.14055 3.13708 9.12743L4.33672 7.82679C4.34984 7.81264 4.35713 7.79406 4.35713 7.77477C4.35713 7.75547 4.34984 7.73689 4.33672 7.72274C4.32272 7.70883 4.30434 7.70018 4.2847 7.69826Z" fill="#B7B7B7"/>
<path d="M3.83479 10.288C3.80426 10.2879 3.77448 10.2785 3.74944 10.2611C3.72439 10.2436 3.70527 10.2189 3.69463 10.1903C3.68398 10.1617 3.68232 10.1305 3.68987 10.101C3.69741 10.0714 3.71381 10.0448 3.73686 10.0248L5.21805 8.69662C5.23175 8.68246 5.24815 8.6712 5.26629 8.66351C5.28443 8.65582 5.30393 8.65186 5.32363 8.65186C5.34333 8.65186 5.36283 8.65582 5.38097 8.66351C5.39911 8.6712 5.41551 8.68246 5.42921 8.69662C5.45706 8.7247 5.47268 8.76265 5.47268 8.8022C5.47268 8.84175 5.45706 8.87969 5.42921 8.90778L3.92659 10.2482C3.90119 10.2712 3.86893 10.2852 3.83479 10.288Z" fill="#B7B7B7"/>
<path d="M3.8348 10.3767C3.80291 10.3767 3.77139 10.3699 3.74236 10.3567C3.71333 10.3435 3.68746 10.3243 3.66649 10.3002C3.63062 10.2562 3.61261 10.2003 3.61601 10.1436C3.61941 10.087 3.64398 10.0336 3.68485 9.9942L5.16604 8.66296C5.1994 8.63339 5.24074 8.61432 5.28489 8.60814C5.32903 8.60196 5.37402 8.60895 5.41421 8.62823C5.45441 8.64751 5.48802 8.67822 5.51083 8.71652C5.53364 8.75482 5.54465 8.79899 5.54246 8.84352C5.5392 8.90311 5.51286 8.9591 5.46901 8.99959L3.98782 10.3063C3.9474 10.3481 3.89281 10.3732 3.8348 10.3767ZM5.316 8.74559C5.29803 8.74577 5.28069 8.75227 5.26703 8.76395L3.78584 10.0707C3.77272 10.0849 3.76543 10.1034 3.76543 10.1227C3.76543 10.142 3.77272 10.1606 3.78584 10.1748C3.79948 10.1877 3.81755 10.1949 3.83633 10.1949C3.85512 10.1949 3.87319 10.1877 3.88683 10.1748L5.36802 8.84658C5.37487 8.83975 5.3803 8.83165 5.38401 8.82272C5.38772 8.81379 5.38963 8.80422 5.38963 8.79455C5.38963 8.78489 5.38772 8.77531 5.38401 8.76639C5.3803 8.75746 5.37487 8.74935 5.36802 8.74253C5.36185 8.73469 5.35393 8.72839 5.3449 8.72414C5.33587 8.71989 5.32598 8.71781 5.316 8.71805V8.74559Z" fill="#B7B7B7"/>
<path d="M4.09795 7.0099C4.08506 7.01433 4.07106 7.01433 4.05816 7.0099C4.0495 7.00488 4.04195 6.99815 4.03599 6.99011C4.03002 6.98207 4.02576 6.9729 4.02347 6.96315C4.02117 6.95341 4.0209 6.9433 4.02265 6.93344C4.02441 6.92359 4.02816 6.9142 4.03368 6.90585L7.0787 2.19295C7.08989 2.1766 7.10699 2.16524 7.1264 2.16124C7.14581 2.15724 7.16601 2.16093 7.18275 2.17153C7.19117 2.1768 7.19843 2.18372 7.20409 2.19188C7.20976 2.20003 7.21371 2.20925 7.21571 2.21898C7.21772 2.2287 7.21773 2.23873 7.21574 2.24846C7.21376 2.25819 7.20982 2.26742 7.20417 2.27558L4.15915 6.98847C4.15142 6.99669 4.14182 7.00292 4.13116 7.00665C4.12051 7.01038 4.10912 7.01149 4.09795 7.0099Z" fill="#B7B7B7"/>
<path d="M4.09794 7.07706C4.07096 7.07668 4.04456 7.06917 4.02142 7.0553C3.99828 7.04143 3.97922 7.02169 3.96617 6.99807C3.95312 6.97446 3.94655 6.94782 3.94712 6.92084C3.94768 6.89387 3.95537 6.86752 3.96941 6.84448L7.02972 2.13159C7.05329 2.10241 7.08675 2.0829 7.12374 2.07677C7.16074 2.07063 7.1987 2.0783 7.23042 2.09831C7.26214 2.11833 7.2854 2.14929 7.2958 2.18533C7.30619 2.22136 7.30298 2.25996 7.28679 2.29379L4.23259 7.00974C4.21808 7.03183 4.19798 7.0497 4.17433 7.06152C4.15068 7.07335 4.12433 7.07871 4.09794 7.07706Z" fill="#B7B7B7"/>
<path d="M5.12933 8.03511C5.11479 8.03435 5.10076 8.02946 5.08891 8.02101C5.07705 8.01257 5.06784 8.00091 5.06238 7.98741C5.05692 7.97391 5.05542 7.95914 5.05806 7.94482C5.06071 7.9305 5.06738 7.91723 5.0773 7.90658L8.95472 4.02609C8.96937 4.01276 8.98847 4.00537 9.00828 4.00537C9.02809 4.00537 9.04718 4.01276 9.06183 4.02609C9.06915 4.03296 9.07499 4.04126 9.07897 4.05047C9.08296 4.05968 9.08502 4.06961 9.08502 4.07965C9.08502 4.08969 9.08296 4.09962 9.07897 4.10883C9.07499 4.11804 9.06915 4.12633 9.06183 4.1332L5.18441 8.01063C5.17737 8.01823 5.16885 8.02431 5.15938 8.02852C5.14991 8.03273 5.13969 8.03497 5.12933 8.03511Z" fill="#B7B7B7"/>
<path d="M5.12928 8.11172C5.08912 8.11021 5.05095 8.09385 5.02217 8.06581C4.99484 8.03684 4.97961 7.99853 4.97961 7.9587C4.97961 7.91888 4.99484 7.88056 5.02217 7.85159L8.90265 3.97111C8.91669 3.95711 8.93342 3.94609 8.95183 3.93873C8.97024 3.93137 8.98994 3.92781 9.00976 3.92826C9.02957 3.92784 9.04926 3.93144 9.06764 3.93883C9.08602 3.94622 9.10272 3.95725 9.11673 3.97125C9.13074 3.98526 9.14177 4.00196 9.14915 4.02034C9.15654 4.03872 9.16014 4.05841 9.15972 4.07822C9.16018 4.09804 9.15661 4.11775 9.14925 4.13615C9.14189 4.15456 9.13087 4.17129 9.11687 4.18533L5.23639 8.06581C5.2225 8.08022 5.20587 8.09171 5.18748 8.09959C5.16908 8.10748 5.14929 8.1116 5.12928 8.11172Z" fill="#B7B7B7"/>
<path d="M6.1637 9.06694C6.15146 9.06714 6.13937 9.06414 6.12863 9.05823C6.1179 9.05233 6.10889 9.04373 6.1025 9.03327C6.09685 9.02511 6.09291 9.01588 6.09093 9.00615C6.08894 8.99642 6.08895 8.98639 6.09096 8.97667C6.09296 8.96694 6.09691 8.95772 6.10258 8.94957C6.10824 8.94141 6.11551 8.93449 6.12392 8.92922L10.8338 5.88421C10.8502 5.87743 10.8685 5.87657 10.8854 5.8818C10.9024 5.88703 10.9171 5.898 10.9268 5.91285C10.9366 5.92769 10.9409 5.94547 10.939 5.96314C10.9371 5.98081 10.9291 5.99727 10.9164 6.00968L6.20349 9.07C6.19026 9.07345 6.17625 9.07237 6.1637 9.06694Z" fill="#B7B7B7"/>
<path d="M6.16376 9.15222C6.13885 9.15256 6.11427 9.14655 6.09232 9.13478C6.07037 9.123 6.05178 9.10583 6.03829 9.08489C6.01614 9.05116 6.00822 9.01004 6.01624 8.97049C6.02426 8.93094 6.04759 8.89617 6.08113 8.87373L10.794 5.81341C10.8105 5.80239 10.829 5.79482 10.8484 5.79113C10.8679 5.78745 10.8879 5.78774 10.9073 5.79199C10.9269 5.79599 10.9455 5.80404 10.9618 5.81563C10.9781 5.82723 10.9919 5.84211 11.0021 5.85932C11.013 5.87578 11.0205 5.89424 11.0243 5.91362C11.028 5.933 11.0279 5.95293 11.0239 5.97227C11.0199 5.9916 11.0122 6.00996 11.0011 6.02629C10.99 6.04262 10.9758 6.05659 10.9593 6.06742L6.24639 9.12774C6.22176 9.14365 6.19308 9.15214 6.16376 9.15222Z" fill="#B7B7B7"/>
</svg>
