<svg width="13" height="13" viewBox="0 0 13 13" fill="none" xmlns="http://www.w3.org/2000/svg">
<path d="M5.70317 2.88626C5.38014 2.88619 5.06713 2.77412 4.81747 2.56914C4.56781 2.36416 4.39695 2.07896 4.334 1.76212C4.27104 1.44529 4.31988 1.11643 4.47221 0.831575C4.62454 0.54672 4.87094 0.323495 5.1694 0.199934C5.46786 0.0763725 5.79993 0.0601201 6.10903 0.153945C6.41813 0.247771 6.68513 0.445869 6.86455 0.714487C7.04397 0.983105 7.12469 1.30562 7.09298 1.62709C7.06126 1.94856 6.91908 2.24908 6.69063 2.47746C6.56142 2.60775 6.40756 2.711 6.23802 2.78119C6.06848 2.85138 5.88666 2.8871 5.70317 2.88626ZM5.70317 0.375882C5.55697 0.375901 5.41224 0.404915 5.27733 0.46125C5.14242 0.517584 5.02003 0.600119 4.91723 0.704074C4.81322 0.807126 4.73066 0.929766 4.67431 1.06491C4.61796 1.20006 4.58895 1.34503 4.58895 1.49145C4.58895 1.63787 4.61796 1.78284 4.67431 1.91798C4.73066 2.05313 4.81322 2.17577 4.91723 2.27882C5.13064 2.47879 5.41215 2.59007 5.70461 2.59007C5.99707 2.59007 6.27857 2.47879 6.49198 2.27882C6.6468 2.12247 6.752 1.92387 6.79437 1.70795C6.83674 1.49203 6.81439 1.26841 6.73013 1.06514C6.64587 0.861879 6.50346 0.688027 6.32076 0.565403C6.13805 0.44278 5.9232 0.376848 5.70317 0.375882Z" fill="#B7B7B7"/>
<path d="M5.70312 2.95804C5.36423 2.95726 5.03609 2.83905 4.77456 2.62354C4.51304 2.40802 4.3343 2.10851 4.26877 1.77602C4.20325 1.44353 4.25499 1.09861 4.4152 0.799977C4.5754 0.501347 4.83416 0.267476 5.14741 0.138183C5.46066 0.00888992 5.80904 -0.00782975 6.13324 0.0908677C6.45743 0.189565 6.73741 0.397579 6.92547 0.679492C7.11354 0.961406 7.19807 1.29979 7.16469 1.63703C7.13131 1.97427 6.98208 2.28951 6.7424 2.52909C6.60622 2.66587 6.44422 2.77423 6.26581 2.84787C6.0874 2.92151 5.89613 2.95896 5.70312 2.95804ZM5.70312 0.168405C5.39744 0.168989 5.10141 0.275534 4.86547 0.469891C4.62953 0.664248 4.46827 0.934392 4.40917 1.23431C4.35006 1.53422 4.39677 1.84535 4.54132 2.11469C4.68588 2.38404 4.91935 2.59493 5.20195 2.71145C5.48455 2.82797 5.79881 2.8429 6.09119 2.75371C6.38357 2.66452 6.63599 2.47672 6.80544 2.22231C6.97489 1.96789 7.05089 1.66259 7.0205 1.35842C6.9901 1.05426 6.8552 0.770033 6.63876 0.554174C6.51619 0.431033 6.37033 0.333508 6.2097 0.267279C6.04907 0.20105 5.87686 0.16744 5.70312 0.168405ZM5.70312 2.66727C5.54745 2.66958 5.39288 2.64076 5.2485 2.58251C5.10413 2.52426 4.97284 2.43776 4.86235 2.32807C4.75186 2.21839 4.6644 2.08774 4.6051 1.94379C4.5458 1.79984 4.51585 1.64549 4.51702 1.48981C4.51578 1.29387 4.5631 1.10068 4.65475 0.927496C4.74641 0.754311 4.87953 0.606529 5.04224 0.497357C5.20495 0.388186 5.39217 0.321024 5.58717 0.301875C5.78218 0.282725 5.9789 0.312185 6.15973 0.38762C6.34057 0.463056 6.4999 0.582117 6.62349 0.734165C6.74708 0.886214 6.83108 1.06651 6.86798 1.25895C6.90488 1.45139 6.89351 1.64996 6.83493 1.83694C6.77634 2.02392 6.67235 2.19347 6.53224 2.33044C6.30674 2.54816 6.00504 2.66904 5.6916 2.66727H5.70312ZM5.70312 0.447657C5.56223 0.440234 5.4213 0.461574 5.28893 0.510378C5.15655 0.559182 5.0355 0.634428 4.93315 0.73153C4.8308 0.828631 4.74929 0.945555 4.69359 1.07518C4.63788 1.2048 4.60916 1.34441 4.60916 1.48549C4.60916 1.62658 4.63788 1.76618 4.69359 1.89581C4.74929 2.02543 4.8308 2.14235 4.93315 2.23946C5.0355 2.33656 5.15655 2.4118 5.28893 2.46061C5.4213 2.50941 5.56223 2.53075 5.70312 2.52333C5.97702 2.52767 6.24167 2.42429 6.44011 2.23544C6.53691 2.13866 6.6137 2.02377 6.66609 1.89731C6.71847 1.77086 6.74544 1.63532 6.74544 1.49845C6.74544 1.36157 6.71847 1.22603 6.66609 1.09958C6.6137 0.973126 6.53691 0.85823 6.44011 0.761454C6.34423 0.662868 6.22968 0.584351 6.10315 0.530477C5.97662 0.476603 5.84064 0.448449 5.70312 0.447657Z" fill="#B7B7B7"/>
<path d="M5.64537 2.75085C5.63424 2.75505 5.62196 2.75505 5.61083 2.75085C5.60525 2.74572 5.60079 2.73949 5.59774 2.73255C5.59469 2.72562 5.59311 2.71812 5.59311 2.71054C5.59311 2.70296 5.59469 2.69547 5.59774 2.68853C5.60079 2.68159 5.60525 2.67536 5.61083 2.67024C5.63617 2.63915 5.66308 2.60936 5.69144 2.58099C5.70165 2.57281 5.71434 2.56836 5.72742 2.56836C5.74051 2.56836 5.7532 2.57281 5.76341 2.58099L5.85265 2.63569C5.85915 2.63902 5.86491 2.64362 5.86959 2.64922C5.87428 2.65481 5.87781 2.66129 5.87995 2.66826C5.8821 2.67524 5.88283 2.68257 5.8821 2.68983C5.88136 2.69709 5.87919 2.70414 5.87569 2.71054C5.86839 2.72385 5.85612 2.73374 5.84157 2.73806C5.82701 2.74237 5.81133 2.74076 5.79796 2.73357L5.74038 2.69903L5.6972 2.74509C5.68984 2.75054 5.68117 2.75395 5.67207 2.75496C5.66296 2.75597 5.65375 2.75455 5.64537 2.75085Z" fill="#B7B7B7"/>
<path d="M5.6454 2.8224C5.61591 2.82295 5.58725 2.81271 5.56479 2.79361C5.55164 2.7831 5.54078 2.77002 5.53286 2.75517C5.52494 2.74032 5.52014 2.72402 5.51873 2.70725C5.51656 2.69094 5.51773 2.67435 5.52219 2.65851C5.52664 2.64267 5.53428 2.62791 5.54464 2.61512C5.57214 2.58051 5.60196 2.54781 5.63389 2.51724C5.65658 2.49852 5.68508 2.48828 5.71449 2.48828C5.74391 2.48828 5.77241 2.49852 5.7951 2.51724L5.87859 2.56906C5.90077 2.58084 5.91894 2.59895 5.93081 2.62108C5.94267 2.64322 5.94768 2.66838 5.94521 2.69337C5.94275 2.71836 5.93291 2.74206 5.91694 2.76144C5.90098 2.78083 5.87961 2.79503 5.85556 2.80225C5.8397 2.80931 5.82254 2.81296 5.80518 2.81296C5.78782 2.81296 5.77065 2.80931 5.75479 2.80225C5.7394 2.81391 5.72149 2.82181 5.70249 2.82531C5.6835 2.8288 5.66394 2.82781 5.6454 2.8224Z" fill="#B7B7B7"/>
<path d="M5.80959 2.4772C5.79735 2.48064 5.7844 2.48064 5.77216 2.4772C5.75489 2.45992 5.73762 2.44553 5.72322 2.42826L5.66852 2.4628C5.65584 2.47049 5.64068 2.47299 5.6262 2.46977C5.61171 2.46655 5.59903 2.45787 5.5908 2.44553C5.58648 2.43954 5.58342 2.43273 5.5818 2.42552C5.58018 2.41832 5.58004 2.41086 5.58139 2.40359C5.58273 2.39633 5.58553 2.38941 5.58962 2.38326C5.59371 2.37711 5.59901 2.37185 5.60519 2.3678C5.63845 2.34552 5.67306 2.32533 5.70882 2.30735C5.71852 2.30053 5.73009 2.29688 5.74194 2.29688C5.75379 2.29688 5.76535 2.30053 5.77504 2.30735L5.84701 2.3822C5.85215 2.38728 5.85622 2.39333 5.85901 2.40001C5.86179 2.40668 5.86322 2.41383 5.86322 2.42106C5.86322 2.42829 5.86179 2.43544 5.85901 2.44211C5.85622 2.44879 5.85215 2.45484 5.84701 2.45993C5.84229 2.46521 5.83653 2.46947 5.83009 2.47244C5.82366 2.47541 5.81668 2.47703 5.80959 2.4772Z" fill="#B7B7B7"/>
<path d="M5.8096 2.54909C5.77747 2.54895 5.7466 2.5366 5.72324 2.51455C5.7095 2.52399 5.69405 2.53063 5.67774 2.53409C5.66144 2.53755 5.64461 2.53775 5.62823 2.5347C5.61133 2.53171 5.59522 2.52532 5.58087 2.51592C5.56652 2.50651 5.55423 2.4943 5.54475 2.48C5.5355 2.4662 5.52918 2.45064 5.52621 2.4343C5.52324 2.41795 5.52367 2.40117 5.52747 2.385C5.52963 2.36857 5.53539 2.35282 5.54435 2.33889C5.55331 2.32495 5.56524 2.31317 5.57929 2.30439C5.61445 2.28023 5.65098 2.25812 5.68869 2.23817C5.71425 2.22562 5.74318 2.22164 5.77119 2.22682C5.79919 2.23201 5.82477 2.24609 5.84414 2.26696C5.86475 2.29045 5.88688 2.31257 5.91036 2.33318C5.93577 2.35621 5.95125 2.3882 5.95354 2.42242C5.954 2.45638 5.94167 2.48926 5.919 2.51455C5.90464 2.52832 5.8873 2.5386 5.86833 2.54459C5.84936 2.55058 5.82926 2.55212 5.8096 2.54909Z" fill="#B7B7B7"/>
<path d="M5.86708 2.2467C5.85811 2.24693 5.84921 2.24496 5.84118 2.24094C5.83314 2.23692 5.82622 2.23099 5.82102 2.22366C5.80751 2.20417 5.79502 2.18399 5.78359 2.16321L5.72314 2.18048C5.709 2.18514 5.69361 2.18415 5.6802 2.17771C5.66678 2.17127 5.65637 2.15988 5.65117 2.14593C5.64665 2.13143 5.64804 2.11572 5.65505 2.10224C5.66206 2.08876 5.67412 2.07859 5.6886 2.07396C5.72528 2.06167 5.7628 2.05205 5.80087 2.04517C5.81272 2.04204 5.8253 2.04322 5.83637 2.04849C5.84744 2.05376 5.85628 2.06279 5.86132 2.07396L5.91315 2.16033C5.91747 2.16632 5.92053 2.17313 5.92214 2.18034C5.92376 2.18754 5.9239 2.195 5.92256 2.20227C5.92121 2.20953 5.91841 2.21645 5.91432 2.2226C5.91023 2.22875 5.90493 2.23401 5.89875 2.23806C5.88908 2.24355 5.8782 2.24652 5.86708 2.2467Z" fill="#B7B7B7"/>
<path d="M5.86712 2.31907C5.84592 2.3194 5.82499 2.31427 5.80634 2.30419C5.78769 2.29411 5.77194 2.2794 5.7606 2.26149C5.72923 2.27429 5.69409 2.27429 5.66272 2.26149C5.64728 2.25402 5.63347 2.24356 5.62211 2.23071C5.61074 2.21786 5.60204 2.20288 5.59651 2.18664C5.58642 2.1538 5.58949 2.11833 5.60506 2.08771C5.62064 2.05709 5.64751 2.03373 5.68 2.02254L5.8009 1.99088C5.82801 1.9853 5.85619 1.98876 5.88114 2.00072C5.9061 2.01267 5.92645 2.03247 5.93909 2.05709C5.9537 2.08496 5.97004 2.11188 5.98803 2.1377C6.00127 2.15687 6.00898 2.17932 6.01028 2.20258C6.01159 2.22585 6.00645 2.24902 5.99544 2.26955C5.98443 2.29009 5.96797 2.30719 5.94787 2.31897C5.92777 2.33075 5.90481 2.33676 5.88151 2.33634L5.86712 2.31907Z" fill="#B7B7B7"/>
<path d="M5.97954 2.04844C5.96768 2.04859 5.95606 2.04508 5.94627 2.03838C5.93648 2.03168 5.92899 2.02212 5.92484 2.01101C5.9168 1.98936 5.91008 1.96725 5.9047 1.9448H5.84136C5.82628 1.94486 5.81171 1.93929 5.80053 1.92917C5.78934 1.91905 5.78233 1.90511 5.7809 1.8901C5.78051 1.88267 5.78164 1.87525 5.78421 1.86828C5.78678 1.86131 5.79075 1.85493 5.79587 1.84954C5.80099 1.84416 5.80715 1.83987 5.81399 1.83694C5.82082 1.83401 5.82817 1.83251 5.8356 1.83252H5.95076C5.96284 1.83335 5.97435 1.83798 5.98365 1.84573C5.99296 1.85348 5.99958 1.86397 6.00258 1.8757C6.01045 1.90881 6.02006 1.94148 6.03137 1.97358C6.03603 1.98772 6.03503 2.00311 6.02859 2.01653C6.02215 2.02995 6.01076 2.04035 5.99681 2.04556L5.97954 2.04844Z" fill="#B7B7B7"/>
<path d="M5.97947 2.11767C5.9524 2.11802 5.92591 2.10987 5.9037 2.09438C5.8815 2.07889 5.8647 2.05683 5.85568 2.03131C5.85693 2.02562 5.85693 2.01972 5.85568 2.01403C5.82179 2.01561 5.78863 2.00383 5.76333 1.98122C5.73802 1.95861 5.7226 1.92698 5.72037 1.89312C5.71879 1.8764 5.7208 1.85953 5.72626 1.84364C5.73172 1.82775 5.74051 1.81321 5.75205 1.801C5.76302 1.7879 5.77665 1.77728 5.79204 1.76984C5.80742 1.76239 5.82421 1.75829 5.84129 1.75781H5.96508C5.99275 1.75898 6.01927 1.76919 6.04059 1.78686C6.06191 1.80454 6.07684 1.82872 6.08311 1.8557C6.09099 1.88692 6.1006 1.91767 6.1119 1.94782C6.12471 1.97919 6.12471 2.01433 6.1119 2.0457C6.09509 2.07555 6.06873 2.09887 6.03705 2.11192L5.97947 2.11767Z" fill="#B7B7B7"/>
<path d="M6.13491 1.8782C6.12089 1.87822 6.1074 1.87286 6.09722 1.86321C6.08704 1.85357 6.08095 1.84039 6.08021 1.82638C6.07878 1.80338 6.07878 1.7803 6.08021 1.75729H6.01976C6.00525 1.75462 5.99239 1.74629 5.98402 1.73414C5.97566 1.722 5.97246 1.70702 5.97513 1.69252C5.97781 1.67801 5.98613 1.66516 5.99828 1.65679C6.01042 1.64842 6.0254 1.64522 6.03991 1.64789C6.07892 1.65347 6.11742 1.66214 6.15506 1.6738C6.16643 1.67757 6.17624 1.68496 6.183 1.69484C6.18976 1.70472 6.1931 1.71654 6.19249 1.7285C6.19249 1.76305 6.19249 1.79759 6.19249 1.82926C6.19329 1.83683 6.19257 1.84448 6.19039 1.85177C6.18821 1.85906 6.18461 1.86585 6.17979 1.87174C6.17497 1.87763 6.16903 1.8825 6.16231 1.88609C6.1556 1.88967 6.14824 1.89188 6.14066 1.8926L6.13491 1.8782Z" fill="#B7B7B7"/>
<path d="M6.13489 1.95014C6.10294 1.94955 6.07233 1.93717 6.04894 1.91539C6.02556 1.8936 6.01106 1.86393 6.00822 1.8321C6.00688 1.82642 6.00688 1.82051 6.00822 1.81483C5.99179 1.81164 5.97616 1.80514 5.96231 1.79574C5.94845 1.78634 5.93665 1.77422 5.92761 1.76013C5.91794 1.74596 5.91118 1.73001 5.90772 1.71321C5.90426 1.69641 5.90417 1.67908 5.90746 1.66225C5.91432 1.62996 5.93276 1.60129 5.95929 1.58164C5.97346 1.57196 5.9894 1.5652 6.0062 1.56174C6.02301 1.55828 6.04033 1.5582 6.05717 1.56148L6.17808 1.59028C6.20487 1.59853 6.22818 1.61545 6.24433 1.63837C6.26048 1.6613 6.26856 1.68893 6.26732 1.71694C6.26732 1.74861 6.26732 1.78028 6.26732 1.80907C6.26991 1.82605 6.26867 1.84339 6.26369 1.85983C6.25871 1.87627 6.25012 1.89139 6.23854 1.90407C6.22803 1.91722 6.21495 1.92808 6.2001 1.936C6.18525 1.94392 6.16894 1.94873 6.15217 1.95014H6.13489Z" fill="#B7B7B7"/>
<path d="M6.34206 1.76026C6.33484 1.75921 6.3279 1.75672 6.32165 1.75295C6.31541 1.74918 6.30997 1.7442 6.30568 1.7383C6.30139 1.73239 6.29832 1.72569 6.29666 1.71859C6.295 1.71148 6.29477 1.70411 6.296 1.69692C6.296 1.67389 6.296 1.65086 6.3104 1.62783L6.2557 1.59904C6.24211 1.59276 6.2315 1.58142 6.22613 1.56745C6.22075 1.55348 6.22103 1.53796 6.22691 1.52419C6.22998 1.51745 6.23439 1.51141 6.23987 1.50642C6.24535 1.50144 6.25178 1.49762 6.25878 1.4952C6.26578 1.49278 6.2732 1.4918 6.28059 1.49233C6.28798 1.49286 6.29517 1.49488 6.30175 1.49828C6.3375 1.51414 6.37213 1.53242 6.4054 1.55298C6.41592 1.55937 6.42412 1.56898 6.42879 1.58038C6.43345 1.59178 6.43433 1.60437 6.43131 1.61631C6.42123 1.64833 6.41354 1.68104 6.40828 1.71419C6.40548 1.72901 6.39697 1.74214 6.38458 1.75076C6.3722 1.75937 6.35693 1.76278 6.34206 1.76026Z" fill="#B7B7B7"/>
<path d="M6.34206 1.82676H6.31904C6.30232 1.82428 6.28629 1.8184 6.27193 1.80949C6.25757 1.80057 6.24519 1.78882 6.23555 1.77494C6.2261 1.76121 6.21946 1.74575 6.216 1.72944C6.21254 1.71314 6.21234 1.69632 6.21539 1.67993V1.66266C6.20005 1.65579 6.18626 1.64587 6.17487 1.63349C6.16349 1.62112 6.15474 1.60655 6.14917 1.59069C6.14268 1.57519 6.13934 1.55855 6.13934 1.54175C6.13934 1.52494 6.14268 1.50831 6.14917 1.49281C6.15605 1.47746 6.16598 1.46368 6.17835 1.45229C6.19073 1.44091 6.20528 1.43216 6.22115 1.42659C6.25252 1.41379 6.28766 1.41379 6.31904 1.42659C6.357 1.4439 6.39357 1.46412 6.42843 1.48705C6.45226 1.50163 6.47075 1.52352 6.48112 1.54946C6.4915 1.5754 6.49321 1.604 6.48601 1.63099C6.47625 1.66096 6.4695 1.69182 6.46585 1.72312C6.45953 1.75162 6.44397 1.77724 6.42158 1.79598C6.39919 1.81473 6.37124 1.82555 6.34206 1.82676Z" fill="#B7B7B7"/>
<path d="M6.55232 1.68279H6.52929C6.5157 1.6765 6.5051 1.66517 6.49972 1.6512C6.49435 1.63722 6.49462 1.62171 6.5005 1.60793L6.53217 1.5446L6.4861 1.50429C6.48052 1.49917 6.47606 1.49294 6.47301 1.486C6.46996 1.47906 6.46838 1.47157 6.46838 1.46399C6.46838 1.45641 6.46996 1.44891 6.47301 1.44198C6.47606 1.43504 6.48052 1.42881 6.4861 1.42369C6.49687 1.41314 6.51134 1.40723 6.52641 1.40723C6.54148 1.40723 6.55595 1.41314 6.56671 1.42369L6.65308 1.50142C6.66014 1.51155 6.66393 1.52361 6.66393 1.53596C6.66393 1.54832 6.66014 1.56037 6.65308 1.57051C6.63517 1.59935 6.61883 1.62915 6.60414 1.65975C6.59822 1.66774 6.59034 1.67406 6.58126 1.67809C6.57218 1.68213 6.56221 1.68375 6.55232 1.68279Z" fill="#B7B7B7"/>
<path d="M6.55234 1.76046C6.53421 1.76314 6.51578 1.76314 6.49764 1.76046C6.48245 1.75337 6.46881 1.74332 6.45753 1.73091C6.44624 1.7185 6.43753 1.70398 6.43191 1.68817C6.42628 1.67237 6.42386 1.65561 6.42476 1.63886C6.42567 1.62211 6.42988 1.60571 6.43718 1.59061C6.43593 1.58492 6.43593 1.57903 6.43718 1.57334C6.42403 1.56283 6.41317 1.54975 6.40525 1.5349C6.39733 1.52005 6.39253 1.50374 6.39112 1.48697C6.38928 1.47001 6.39088 1.45286 6.39582 1.43653C6.40077 1.42021 6.40896 1.40505 6.41991 1.39197C6.44218 1.36622 6.4737 1.35027 6.50764 1.34757C6.54158 1.34488 6.57522 1.35566 6.60128 1.37757L6.69339 1.46106C6.71349 1.48176 6.72611 1.50858 6.72924 1.53726C6.73237 1.56595 6.72585 1.59485 6.71068 1.6194C6.69364 1.64527 6.67824 1.67219 6.66461 1.70001C6.65292 1.71911 6.63636 1.73477 6.61663 1.74539C6.59691 1.75602 6.57473 1.76122 6.55234 1.76046Z" fill="#B7B7B7"/>
<path d="M6.79434 1.67141C6.7823 1.67607 6.76895 1.67607 6.75691 1.67141C6.75177 1.66632 6.74769 1.66027 6.74491 1.6536C6.74213 1.64693 6.74069 1.63977 6.74069 1.63254C6.74069 1.62531 6.74213 1.61816 6.74491 1.61149C6.74769 1.60482 6.75177 1.59876 6.75691 1.59368L6.80296 1.54186L6.76842 1.49004C6.76407 1.48418 6.76093 1.47752 6.75916 1.47044C6.75739 1.46336 6.75702 1.45601 6.75809 1.44879C6.76025 1.43421 6.76811 1.42109 6.77995 1.41231C6.79178 1.40353 6.80661 1.39981 6.82119 1.40197C6.83576 1.40413 6.84888 1.41199 6.85766 1.42382C6.88334 1.4549 6.90556 1.48868 6.92389 1.52458C6.93303 1.53376 6.93816 1.54618 6.93816 1.55913C6.93816 1.57208 6.93303 1.5845 6.92389 1.59368L6.85192 1.66853C6.84342 1.67403 6.83361 1.67719 6.82351 1.67769C6.8134 1.6782 6.80334 1.67603 6.79434 1.67141Z" fill="#B7B7B7"/>
<path d="M6.79414 1.74338C6.76339 1.74331 6.73372 1.73206 6.71066 1.71172C6.69856 1.69992 6.68894 1.68581 6.68237 1.67024C6.6758 1.65466 6.67242 1.63793 6.67242 1.62103C6.67242 1.60413 6.6758 1.5874 6.68237 1.57183C6.68894 1.55625 6.69856 1.54215 6.71066 1.53035C6.6904 1.50306 6.68114 1.46914 6.68474 1.43534C6.68722 1.41863 6.6931 1.4026 6.70201 1.38824C6.71093 1.37388 6.72268 1.3615 6.73656 1.35186C6.74994 1.34173 6.7652 1.33436 6.78145 1.33017C6.7977 1.32599 6.81461 1.32508 6.83122 1.32749C6.84782 1.3299 6.86379 1.33558 6.87818 1.34422C6.89257 1.35285 6.9051 1.36425 6.91505 1.37777C6.941 1.4119 6.96503 1.44747 6.98702 1.48429C7.00207 1.51049 7.00771 1.54105 7.00299 1.5709C6.99828 1.60075 6.98351 1.62809 6.96112 1.64838C6.93701 1.66725 6.91482 1.68847 6.89489 1.71172C6.88127 1.72378 6.86525 1.73283 6.84789 1.73828C6.83053 1.74374 6.81222 1.74548 6.79414 1.74338Z" fill="#B7B7B7"/>
<path d="M4.4364 1.5718C4.42811 1.57214 4.41987 1.57049 4.41235 1.56699C4.40484 1.56348 4.39828 1.55822 4.39322 1.55165C4.3877 1.54679 4.38328 1.54081 4.38026 1.53411C4.37723 1.52741 4.37567 1.52014 4.37567 1.51279C4.37567 1.50544 4.37723 1.49817 4.38026 1.49147C4.38328 1.48477 4.3877 1.47879 4.39322 1.47392L4.43928 1.43074L4.40473 1.37316C4.39909 1.35998 4.39859 1.34516 4.4033 1.33162C4.40801 1.31808 4.41761 1.30678 4.43021 1.29994C4.44281 1.2931 4.45751 1.29121 4.47143 1.29464C4.48536 1.29806 4.4975 1.30656 4.50549 1.31846C4.52097 1.34981 4.53928 1.37968 4.56019 1.40771C4.56836 1.41792 4.57282 1.43061 4.57282 1.44369C4.57282 1.45678 4.56836 1.46947 4.56019 1.47968C4.53249 1.50873 4.50266 1.53568 4.47094 1.56029C4.46134 1.56843 4.44897 1.57255 4.4364 1.5718Z" fill="#B7B7B7"/>
<path d="M4.43647 1.64377C4.41741 1.64346 4.39861 1.63921 4.38127 1.63128C4.36393 1.62335 4.34842 1.61192 4.33571 1.59771C4.32527 1.58441 4.3176 1.56915 4.31315 1.55283C4.3087 1.53651 4.30756 1.51947 4.3098 1.50271C4.31327 1.469 4.32981 1.438 4.35587 1.41634C4.3406 1.38611 4.33777 1.35111 4.34799 1.31882C4.35822 1.28654 4.38068 1.25954 4.41057 1.24361C4.42558 1.23719 4.44173 1.23389 4.45806 1.23389C4.47439 1.23389 4.49055 1.23719 4.50556 1.24361C4.5219 1.24799 4.5372 1.25559 4.55055 1.26597C4.5639 1.27636 4.57504 1.28931 4.5833 1.30407C4.5979 1.33287 4.61424 1.36075 4.63224 1.38755C4.64924 1.41233 4.65711 1.44225 4.65448 1.47218C4.65186 1.50212 4.6389 1.53021 4.61784 1.55165L4.52284 1.63802C4.49546 1.64934 4.46512 1.65136 4.43647 1.64377Z" fill="#B7B7B7"/>
<path d="M4.73009 1.57999C4.71974 1.58295 4.70878 1.58295 4.69843 1.57999C4.69225 1.57594 4.68695 1.57068 4.68286 1.56453C4.67877 1.55838 4.67596 1.55146 4.67462 1.5442C4.67327 1.53694 4.67341 1.52947 4.67503 1.52227C4.67665 1.51506 4.67971 1.50825 4.68403 1.50226L4.7157 1.44756C4.69843 1.44756 4.68403 1.41589 4.66675 1.39862C4.6562 1.38786 4.6503 1.37339 4.6503 1.35832C4.6503 1.34324 4.6562 1.32877 4.66675 1.31801C4.67188 1.31243 4.67811 1.30797 4.68505 1.30492C4.69198 1.30187 4.69948 1.30029 4.70706 1.30029C4.71464 1.30029 4.72213 1.30187 4.72907 1.30492C4.73601 1.30797 4.74224 1.31243 4.74736 1.31801C4.76992 1.3434 4.79395 1.36743 4.81933 1.38998C4.82706 1.39929 4.83129 1.411 4.83129 1.42309C4.83129 1.43518 4.82706 1.4469 4.81933 1.4562C4.80135 1.49197 4.78116 1.52658 4.75888 1.55984C4.75149 1.56926 4.74147 1.57627 4.73009 1.57999Z" fill="#B7B7B7"/>
<path d="M4.7301 1.65186C4.70465 1.65236 4.67962 1.64535 4.65813 1.63171C4.64383 1.62223 4.63162 1.60993 4.62221 1.59558C4.61281 1.58123 4.60642 1.56512 4.60343 1.54822C4.60037 1.53184 4.60059 1.51502 4.60404 1.49871C4.6075 1.48241 4.61414 1.46695 4.62358 1.45322C4.61148 1.44142 4.60187 1.42732 4.5953 1.41174C4.58874 1.39617 4.58536 1.37944 4.58536 1.36254C4.58536 1.34563 4.58874 1.3289 4.5953 1.31333C4.60187 1.29775 4.61148 1.28365 4.62358 1.27185C4.6494 1.25008 4.68194 1.23788 4.71571 1.2373C4.74993 1.2396 4.78192 1.25508 4.80495 1.28049L4.87117 1.3467C4.89335 1.36519 4.90836 1.39085 4.91362 1.41924C4.91887 1.44763 4.91404 1.47696 4.89995 1.50216L4.83662 1.61156C4.82311 1.62595 4.80649 1.63706 4.78802 1.64404C4.76956 1.65103 4.74975 1.6537 4.7301 1.65186Z" fill="#B7B7B7"/>
<path d="M5.00076 1.51379H4.98349C4.97635 1.51154 4.96975 1.50785 4.9641 1.50295C4.95845 1.49805 4.95386 1.49204 4.95062 1.48529C4.94739 1.47855 4.94556 1.47121 4.94527 1.46373C4.94498 1.45626 4.94624 1.4488 4.94895 1.44182L4.96622 1.38137C4.94597 1.37059 4.9267 1.35807 4.90864 1.34394C4.8963 1.3357 4.88762 1.32302 4.8844 1.30854C4.88118 1.29406 4.88368 1.2789 4.89136 1.26621C4.89645 1.26107 4.9025 1.257 4.90917 1.25421C4.91584 1.25143 4.923 1.25 4.93023 1.25C4.93746 1.25 4.94461 1.25143 4.95128 1.25421C4.95795 1.257 4.96401 1.26107 4.9691 1.26621L5.05834 1.31803C5.06885 1.32385 5.07726 1.3328 5.08243 1.34364C5.08759 1.35448 5.08924 1.36666 5.08713 1.37849C5.08713 1.41591 5.06698 1.45334 5.05546 1.49076C5.04953 1.49946 5.04122 1.50626 5.03151 1.51034C5.02181 1.51443 5.01113 1.51563 5.00076 1.51379Z" fill="#B7B7B7"/>
<path d="M5.00069 1.58552H4.96327C4.94707 1.58061 4.93202 1.57251 4.919 1.5617C4.90599 1.55088 4.89527 1.53756 4.88749 1.52253C4.87971 1.50751 4.87502 1.49107 4.8737 1.4742C4.87237 1.45733 4.87444 1.44036 4.87979 1.4243H4.86539C4.83688 1.40549 4.81696 1.37619 4.80995 1.34276C4.80294 1.30933 4.80941 1.27449 4.82796 1.24581C4.848 1.21781 4.87778 1.19831 4.91145 1.19111C4.92783 1.18806 4.94465 1.18826 4.96096 1.19172C4.97726 1.19518 4.99272 1.20182 5.00645 1.21126L5.08707 1.26021C5.11224 1.27298 5.13243 1.29379 5.14443 1.31935C5.15642 1.34491 5.15954 1.37374 5.15327 1.40127C5.15327 1.4387 5.13313 1.479 5.12161 1.51931C5.11 1.54084 5.0924 1.55855 5.07094 1.5703C5.04949 1.58205 5.02509 1.58734 5.00069 1.58552Z" fill="#B7B7B7"/>
<path d="M5.24251 1.38129C5.23506 1.38094 5.22776 1.37907 5.22106 1.37579C5.21436 1.37252 5.2084 1.36791 5.20355 1.36225C5.1987 1.35659 5.19505 1.34999 5.19284 1.34287C5.19063 1.33575 5.18989 1.32825 5.19069 1.32083V1.2575L5.12447 1.23734C5.11095 1.23159 5.09999 1.22112 5.09363 1.20787C5.08728 1.19463 5.08595 1.17952 5.08993 1.16537C5.09513 1.15143 5.10553 1.14004 5.11895 1.1336C5.13237 1.12716 5.14776 1.12616 5.1619 1.13083L5.25978 1.15962C5.27173 1.16218 5.28248 1.16868 5.29031 1.17808C5.29814 1.18747 5.3026 1.19921 5.30297 1.21143C5.30585 1.24976 5.30585 1.28826 5.30297 1.32659C5.30153 1.34161 5.29453 1.35554 5.28334 1.36566C5.27216 1.37578 5.25759 1.38136 5.24251 1.38129Z" fill="#B7B7B7"/>
<path d="M5.24261 1.45304C5.20875 1.45082 5.17712 1.4354 5.15451 1.41009C5.1319 1.38479 5.12012 1.35163 5.1217 1.31773H5.10443C5.07302 1.30541 5.04735 1.28179 5.03246 1.25152C5.01966 1.22015 5.01966 1.18501 5.03246 1.15364C5.03752 1.13716 5.04605 1.12196 5.05747 1.10905C5.06889 1.09614 5.08293 1.08582 5.09867 1.07879C5.11398 1.0716 5.13069 1.06787 5.14761 1.06787C5.16453 1.06787 5.18123 1.0716 5.19655 1.07879L5.28579 1.1047C5.31277 1.11097 5.33695 1.1259 5.35463 1.14722C5.37231 1.16854 5.38251 1.19506 5.38368 1.22273C5.38657 1.26394 5.38657 1.30531 5.38368 1.34652C5.37741 1.37853 5.35955 1.40711 5.33352 1.42676C5.30748 1.44642 5.27511 1.45578 5.24261 1.45304Z" fill="#B7B7B7"/>
<path d="M5.44412 1.18484C5.43065 1.18512 5.41752 1.18065 5.407 1.17224C5.39648 1.16382 5.38924 1.15198 5.38654 1.13878C5.38311 1.11833 5.37831 1.09813 5.37215 1.07832H5.30306C5.29586 1.07761 5.28888 1.07547 5.28251 1.07203C5.27615 1.0686 5.27052 1.06394 5.26597 1.05831C5.26142 1.05269 5.25802 1.04622 5.25599 1.03928C5.25395 1.03234 5.25332 1.02506 5.25412 1.01787C5.25621 1.00337 5.26349 0.99013 5.27461 0.980599C5.28573 0.971069 5.29993 0.965898 5.31457 0.966048H5.41533C5.42739 0.964914 5.43946 0.968037 5.44945 0.974873C5.45944 0.98171 5.46672 0.99183 5.47003 1.00347C5.47003 1.0409 5.49019 1.07832 5.49882 1.11863C5.50064 1.1334 5.49695 1.14832 5.48845 1.16054C5.47995 1.17276 5.46724 1.18141 5.45276 1.18484H5.44412Z" fill="#B7B7B7"/>
<path d="M5.44407 1.26528C5.41411 1.26578 5.38494 1.25564 5.36175 1.23667C5.33856 1.21769 5.32284 1.19111 5.3174 1.16164H5.30013C5.26677 1.15801 5.23613 1.14157 5.21465 1.11579C5.19317 1.09002 5.18254 1.05692 5.18497 1.02346C5.18791 0.990116 5.20363 0.959202 5.22886 0.937198C5.25408 0.915194 5.28685 0.903808 5.32028 0.905425H5.41528C5.44232 0.905447 5.46864 0.914122 5.4904 0.930181C5.51215 0.946239 5.52821 0.968836 5.5362 0.994669C5.54883 1.03419 5.55844 1.07461 5.56498 1.11558C5.56861 1.13177 5.56896 1.14852 5.56599 1.16484C5.56302 1.18116 5.5568 1.19671 5.54771 1.21059C5.53822 1.22488 5.52593 1.2371 5.51158 1.24651C5.49723 1.25591 5.48112 1.2623 5.46422 1.26528H5.44407Z" fill="#B7B7B7"/>
<path d="M5.59096 0.963621C5.57992 0.963437 5.56916 0.960081 5.55997 0.953956C5.55079 0.947831 5.54355 0.939194 5.53914 0.929073C5.53067 0.910265 5.52106 0.891997 5.51034 0.874374H5.44125C5.42683 0.876099 5.4123 0.872312 5.40055 0.86377C5.38881 0.855227 5.38072 0.842563 5.37792 0.828313C5.37539 0.813442 5.3788 0.798175 5.38742 0.785793C5.39603 0.77341 5.40916 0.764901 5.42398 0.762098C5.45719 0.757165 5.48994 0.749461 5.52186 0.739066C5.5338 0.736043 5.5464 0.736928 5.5578 0.741592C5.5692 0.746256 5.5788 0.754452 5.5852 0.764977C5.60691 0.797573 5.62524 0.8323 5.6399 0.868617C5.64329 0.875199 5.64532 0.882401 5.64585 0.889788C5.64638 0.897176 5.6454 0.904593 5.64298 0.911592C5.64056 0.918591 5.63674 0.925026 5.63175 0.930505C5.62677 0.935984 5.62073 0.940395 5.61399 0.943468L5.59096 0.963621Z" fill="#B7B7B7"/>
<path d="M5.59092 1.03512C5.56637 1.03426 5.54249 1.02687 5.52174 1.01371C5.50099 1.00056 5.48413 0.982107 5.47288 0.960265H5.45561C5.43923 0.963484 5.42238 0.963357 5.40605 0.959894C5.38972 0.956431 5.37426 0.949703 5.3606 0.940113C5.3324 0.920271 5.31283 0.890408 5.3059 0.856625C5.30292 0.840059 5.30342 0.823051 5.30739 0.806692C5.31135 0.790333 5.3187 0.774982 5.32894 0.761622C5.33843 0.747326 5.35071 0.735106 5.36507 0.725704C5.37942 0.716301 5.39553 0.70991 5.41242 0.706922C5.44272 0.702957 5.4726 0.696212 5.50167 0.68677C5.52909 0.679815 5.558 0.68163 5.58434 0.691958C5.61067 0.702286 5.63311 0.720608 5.64849 0.744349C5.66864 0.778896 5.6888 0.81632 5.70607 0.853746C5.71887 0.885118 5.71887 0.920257 5.70607 0.951629C5.69375 0.983036 5.67013 1.0087 5.63985 1.0236C5.62456 1.03091 5.60787 1.03484 5.59092 1.03512Z" fill="#B7B7B7"/>
<path d="M5.67423 0.696018C5.66597 0.696134 5.65781 0.694382 5.65033 0.690892C5.64285 0.687402 5.63626 0.682265 5.63104 0.675866L5.59075 0.629803L5.52741 0.661471C5.51357 0.666648 5.49831 0.666577 5.48452 0.661273C5.47073 0.655969 5.45936 0.645799 5.45256 0.632682C5.44668 0.618912 5.4464 0.603393 5.45177 0.58942C5.45715 0.575446 5.46776 0.564116 5.48135 0.557831C5.51227 0.543753 5.5421 0.527394 5.57059 0.508891C5.58073 0.501832 5.59278 0.498047 5.60514 0.498047C5.61749 0.498047 5.62954 0.501832 5.63968 0.508891C5.66559 0.537679 5.69438 0.566467 5.71741 0.595256C5.72494 0.603237 5.7299 0.613299 5.73163 0.624132C5.73337 0.634965 5.73181 0.64607 5.72715 0.656004C5.72249 0.665938 5.71496 0.674242 5.70552 0.679837C5.69608 0.685433 5.68518 0.68806 5.67423 0.68738V0.696018Z" fill="#B7B7B7"/>
<path d="M5.67418 0.768091C5.65545 0.768323 5.63691 0.764295 5.61995 0.756316C5.603 0.748337 5.58807 0.736614 5.5763 0.722028H5.56191C5.53054 0.734828 5.4954 0.734828 5.46403 0.722028C5.44133 0.711759 5.42208 0.695162 5.40857 0.674228C5.39506 0.653293 5.38788 0.628909 5.38788 0.603995C5.38788 0.579081 5.39506 0.554695 5.40857 0.53376C5.42208 0.512826 5.44133 0.496229 5.46403 0.48596L5.54751 0.439899C5.57162 0.42496 5.60004 0.418541 5.62823 0.421673C5.65641 0.424805 5.68274 0.437305 5.70298 0.457172L5.78934 0.549296C5.81021 0.575995 5.82007 0.609683 5.81685 0.643423C5.81364 0.677163 5.79761 0.708386 5.77207 0.730664C5.75948 0.743681 5.7442 0.753779 5.72729 0.760246C5.71037 0.766712 5.69224 0.769391 5.67418 0.768091Z" fill="#B7B7B7"/>
<path d="M5.51586 0.423183C5.5033 0.425319 5.49039 0.423003 5.47935 0.416635C5.46831 0.410268 5.45985 0.400248 5.45542 0.388304C5.45098 0.37636 5.45086 0.363243 5.45506 0.351215C5.45926 0.339187 5.46753 0.329004 5.47844 0.322422C5.50385 0.298876 5.52788 0.273884 5.55041 0.247571C5.55991 0.239073 5.57221 0.234375 5.58495 0.234375C5.5977 0.234375 5.61 0.239073 5.6195 0.247571C5.65479 0.266939 5.68848 0.289081 5.72026 0.313786C5.72578 0.318649 5.7302 0.32463 5.73322 0.331331C5.73625 0.338032 5.73781 0.3453 5.73781 0.352652C5.73781 0.360004 5.73625 0.367271 5.73322 0.373972C5.7302 0.380673 5.72578 0.386652 5.72026 0.391515C5.71518 0.39665 5.70912 0.400727 5.70245 0.40351C5.69578 0.406292 5.68862 0.407724 5.68139 0.407724C5.67417 0.407724 5.66701 0.406292 5.66034 0.40351C5.65367 0.400727 5.64762 0.39665 5.64253 0.391515L5.59072 0.35697L5.54177 0.403031C5.53555 0.412378 5.52646 0.419451 5.51586 0.423183Z" fill="#B7B7B7"/>
<path d="M5.51586 0.494926C5.49741 0.495113 5.47913 0.491358 5.46225 0.483911C5.44537 0.476464 5.43028 0.465495 5.41798 0.451742C5.39704 0.425648 5.38583 0.393074 5.38631 0.359618C5.38873 0.326257 5.40425 0.295211 5.42949 0.273253L5.4957 0.204159C5.5152 0.181519 5.54209 0.166503 5.57159 0.161761C5.60109 0.15702 5.63131 0.16286 5.65692 0.17825C5.69417 0.199561 5.72977 0.223618 5.76344 0.250222C5.77732 0.259864 5.78908 0.272245 5.79799 0.286603C5.8069 0.300961 5.81278 0.316993 5.81526 0.333709C5.81824 0.350476 5.81745 0.367692 5.81297 0.384119C5.80849 0.400547 5.80042 0.415778 5.78935 0.428713C5.7794 0.442229 5.76687 0.453632 5.75248 0.462263C5.73809 0.470895 5.72213 0.47658 5.70552 0.478991C5.68892 0.481402 5.67199 0.480491 5.65574 0.476307C5.63949 0.472123 5.62424 0.464752 5.61086 0.454622C5.59898 0.467933 5.5843 0.478452 5.56788 0.48542C5.55145 0.492388 5.53369 0.495634 5.51586 0.494926Z" fill="#B7B7B7"/>
<path d="M1.51434 12.5104C1.30706 12.5104 1.02205 12.3319 0.630524 11.9634C0.0979318 11.3877 -0.0431378 11.0566 0.16702 10.8464C0.234983 10.7812 0.322407 10.74 0.415961 10.7291C0.509516 10.7182 0.604074 10.7382 0.685224 10.786L4.08806 7.38603C4.38529 7.0879 4.64973 6.75879 4.87687 6.40433L5.02945 6.16826C5.49701 5.44115 6.04032 4.76564 6.65026 4.15305L10.5166 0.292473C10.6394 0.18142 10.7915 0.107995 10.9548 0.0809436C11.1181 0.0538923 11.2858 0.0743556 11.4378 0.139893C11.6736 0.21598 11.8879 0.34702 12.0631 0.522209C12.2383 0.697398 12.3694 0.911719 12.4454 1.1475C12.511 1.29953 12.5314 1.46719 12.5044 1.63052C12.4773 1.79385 12.4039 1.94596 12.2929 2.06874L8.55031 5.81129C7.87002 6.49163 7.11142 7.08885 6.2904 7.59043L6.22707 7.62786C5.82731 7.87206 5.45729 8.16189 5.12445 8.49152L1.75904 11.8598C1.91738 12.1477 1.82525 12.3291 1.75904 12.4097C1.72818 12.4434 1.69024 12.47 1.64795 12.4874C1.60565 12.5048 1.56003 12.5127 1.51434 12.5104ZM0.742796 11.3416C0.800374 11.4165 0.878106 11.5057 0.978866 11.6151C1.07963 11.7245 1.13144 11.7533 1.1919 11.8022C1.19745 11.7485 1.22195 11.6985 1.261 11.6612L4.76747 8.15181C5.12829 7.79405 5.52918 7.47913 5.9622 7.2133L6.02554 7.17587C6.81345 6.69503 7.54118 6.12192 8.19334 5.4687L11.9359 1.72615C12.0222 1.64267 12.0309 1.49872 11.9704 1.30296C11.9168 1.14285 11.8267 0.99738 11.7073 0.877986C11.588 0.758592 11.4425 0.668535 11.2824 0.614906C11.0866 0.55445 10.9427 0.563087 10.8592 0.646574L6.99285 4.51291C6.40767 5.09887 5.88653 5.74546 5.43825 6.44176L5.28567 6.67783C5.03714 7.06219 4.74755 7.41839 4.422 7.74013L0.898258 11.261C0.858689 11.3068 0.803034 11.3357 0.742796 11.3416Z" fill="#B7B7B7"/>
<path d="M1.51438 12.5824C1.28983 12.5824 0.9933 12.4039 0.581621 12.0066C0.169941 11.6093 -0.195672 11.0998 0.118125 10.786C0.189509 10.7165 0.280398 10.6704 0.378655 10.6539C0.476911 10.6375 0.577856 10.6514 0.667992 10.6938L4.03627 7.32555C4.32941 7.0344 4.59093 6.71306 4.81646 6.36689L4.96904 6.13082C5.43842 5.40264 5.98471 4.72703 6.59848 4.1156L10.4648 0.24927C10.5957 0.126181 10.7599 0.0442083 10.937 0.0135048C11.114 -0.0171986 11.2962 0.00471718 11.4609 0.0765374C11.707 0.156321 11.9307 0.293467 12.1134 0.476666C12.2961 0.659865 12.4326 0.883868 12.5117 1.13021C12.5846 1.29451 12.6074 1.4767 12.5772 1.65391C12.547 1.83112 12.4651 1.99545 12.3419 2.1263L8.59931 5.86884C7.91473 6.55279 7.15126 7.15293 6.32499 7.65662L6.26165 7.69693C5.86538 7.93984 5.49999 8.22984 5.17344 8.56059L1.84257 11.8915C1.89924 11.9791 1.92543 12.0831 1.91711 12.1872C1.90878 12.2912 1.8664 12.3897 1.79651 12.4672C1.76008 12.505 1.71618 12.5347 1.6676 12.5546C1.61902 12.5744 1.56683 12.5839 1.51438 12.5824ZM0.449195 10.8032C0.363387 10.8029 0.280819 10.836 0.218888 10.8954C0.109491 11.0076 0.0375143 11.2293 0.682383 11.9145C1.19482 12.3953 1.50574 12.5507 1.68711 12.3665C1.79363 12.2628 1.79075 12.1016 1.68711 11.903L1.6612 11.8569L1.69863 11.8195L5.06692 8.4512C5.40188 8.11505 5.77592 7.82026 6.18104 7.57314L6.24438 7.53571C7.06083 7.03708 7.81552 6.44376 8.49277 5.76808L12.2353 2.02554C12.3422 1.91195 12.4123 1.76873 12.4365 1.61462C12.4606 1.46052 12.4377 1.30271 12.3706 1.16187C12.2977 0.937383 12.1725 0.733421 12.0053 0.566759C11.8381 0.400097 11.6338 0.275495 11.4091 0.203207C11.2679 0.137715 11.1105 0.115613 10.9567 0.139702C10.803 0.16379 10.6598 0.232984 10.5454 0.338514L6.68197 4.20485C6.07441 4.81102 5.5339 5.48086 5.06979 6.20279L4.91721 6.43886C4.68706 6.79696 4.41871 7.12902 4.11688 7.42919L0.682383 10.8666L0.63632 10.8464C0.577509 10.8195 0.51385 10.8048 0.449195 10.8032ZM1.24664 11.9548L1.14589 11.8713C1.08255 11.8224 1.01346 11.759 0.929971 11.6813C0.846484 11.6036 0.751479 11.4855 0.685265 11.3934L0.601775 11.2869H0.737083C0.778884 11.2834 0.818366 11.2662 0.849363 11.2379L4.38463 7.69981C4.70325 7.38058 4.98698 7.02833 5.23102 6.64902L5.3836 6.41295C5.8348 5.71373 6.35879 5.06428 6.94682 4.47546L10.8132 0.60913C10.8828 0.555372 10.9662 0.522279 11.0537 0.513625C11.1413 0.504972 11.2295 0.521107 11.3083 0.560189C11.4793 0.616243 11.6348 0.711586 11.7623 0.838573C11.8898 0.96556 11.9857 1.12066 12.0424 1.29142C12.0821 1.3706 12.0986 1.45938 12.0899 1.54752C12.0812 1.63565 12.0478 1.71953 11.9935 1.78947L8.25096 5.53201C7.59457 6.19221 6.86203 6.77206 6.06876 7.25934L6.00543 7.29676C5.57663 7.55901 5.18043 7.87115 4.82509 8.22664L1.31861 11.7331C1.29057 11.7596 1.27317 11.7955 1.26968 11.8339L1.24664 11.9548ZM0.87239 11.3819C0.921331 11.4395 0.976026 11.4999 1.03936 11.5661L1.16316 11.6784C1.17713 11.6531 1.19457 11.6298 1.21498 11.6093L4.71857 8.09421C5.08183 7.73114 5.48672 7.41225 5.92482 7.14418L5.98815 7.10388C6.77117 6.62791 7.49416 6.05958 8.14156 5.4111L11.8841 1.66856C11.9618 1.59083 11.9359 1.43537 11.8985 1.32021C11.8486 1.17076 11.7646 1.03496 11.6532 0.923539C11.5418 0.812121 11.406 0.728136 11.2565 0.678222C11.0867 0.623523 10.9686 0.629282 10.9082 0.692617L7.04183 4.55895C6.46028 5.14066 5.94206 5.78239 5.49587 6.4734L5.34329 6.70947C5.09515 7.09764 4.80556 7.45769 4.47962 7.78329L0.941481 11.3214C0.921832 11.3452 0.898507 11.3656 0.87239 11.3819Z" fill="#B7B7B7"/>
<path d="M4.19196 7.44161L3.99246 7.64111L4.91666 8.56531L5.11616 8.36581L4.19196 7.44161Z" fill="#B7B7B7"/>
<path d="M4.90272 8.6697L3.87784 7.64482L4.16573 7.35693L5.19349 8.38181L4.90272 8.6697ZM4.08224 7.64482L4.90272 8.46818L5.0006 8.3703L4.17724 7.54694L4.08224 7.64482Z" fill="#B7B7B7"/>
</svg>
