<svg width="14" height="14" viewBox="0 0 14 14" fill="none" xmlns="http://www.w3.org/2000/svg">
<path d="M6.59937 13.1292C5.08932 13.1291 3.62603 12.6054 2.45882 11.6473C1.29161 10.6893 0.492711 9.35612 0.198231 7.87506C-0.0962482 6.394 0.131916 4.85665 0.84385 3.52496C1.55578 2.19327 2.70744 1.14962 4.10259 0.571854C5.49774 -0.00591601 7.05006 -0.0820655 8.49506 0.35638C9.94005 0.794825 11.1883 1.72074 12.0272 2.97636C12.866 4.23197 13.2436 5.73961 13.0955 7.24238C12.9474 8.74515 12.2828 10.1501 11.2149 11.2178C10.6103 11.8258 9.89097 12.3079 9.09869 12.636C8.30641 12.9641 7.4569 13.1318 6.59937 13.1292ZM6.59937 0.592692C5.2084 0.593682 3.8608 1.07692 2.78617 1.96008C1.71154 2.84324 0.976363 4.07168 0.705897 5.43611C0.435432 6.80053 0.646411 8.21652 1.30289 9.44283C1.95936 10.6691 3.02072 11.6299 4.30614 12.1614C5.59155 12.693 7.0215 12.7623 8.35234 12.3578C9.68318 11.9532 10.8326 11.0998 11.6047 9.94279C12.3769 8.78581 12.724 7.3969 12.5869 6.0127C12.4498 4.6285 11.8371 3.33464 10.853 2.35157C10.2952 1.79206 9.63219 1.34856 8.90211 1.04668C8.17204 0.744789 7.38939 0.590492 6.59937 0.592692Z" fill="#B7B7B7"/>
<path d="M6.59932 13.2036C5.07199 13.203 3.59211 12.6729 2.41182 11.7035C1.23153 10.7342 0.423858 9.38557 0.126413 7.88748C-0.171032 6.3894 0.060157 4.83452 0.780586 3.48778C1.50101 2.14104 2.66611 1.08575 4.07737 0.501722C5.48862 -0.0823082 7.05872 -0.158947 8.52015 0.284862C9.98157 0.728672 11.2439 1.66547 12.0921 2.93565C12.9402 4.20582 13.3218 5.73079 13.1716 7.25072C13.0215 8.77065 12.349 10.1915 11.2687 11.2712C10.657 11.8863 9.92931 12.3738 9.12776 12.7055C8.32622 13.0373 7.46679 13.2065 6.59932 13.2036ZM6.59932 0.152558C5.10729 0.153219 3.66165 0.671188 2.5087 1.61821C1.35575 2.56524 0.566832 3.88273 0.276352 5.34621C-0.0141273 6.80969 0.211807 8.32861 0.915663 9.64419C1.61952 10.9598 2.75775 11.9906 4.13642 12.561C5.51509 13.1315 7.0489 13.2063 8.47653 12.7727C9.90416 12.339 11.1373 11.4238 11.9658 10.1829C12.7943 8.94208 13.1669 7.45234 13.0202 5.96754C12.8734 4.48275 12.2164 3.09476 11.161 2.04007C10.563 1.43983 9.85194 0.963988 9.06898 0.640023C8.28603 0.316058 7.44665 0.150381 6.59932 0.152558ZM6.59932 12.6891C5.19134 12.6911 3.8262 12.205 2.73639 11.3135C1.64658 10.422 0.899493 9.18033 0.622376 7.79989C0.345259 6.41945 0.555249 4.98563 1.21657 3.74262C1.8779 2.49962 2.94966 1.5243 4.24933 0.982764C5.54901 0.441232 6.99622 0.36698 8.34449 0.772654C9.69277 1.17833 10.8587 2.03884 11.6438 3.20764C12.4289 4.37643 12.7845 5.78123 12.6501 7.18279C12.5157 8.58434 11.8996 9.89598 10.9068 10.8943C10.3433 11.4641 9.67256 11.9166 8.93323 12.2257C8.1939 12.5347 7.40066 12.6943 6.59932 12.6951V12.6891ZM6.59932 0.667061C5.22586 0.665815 3.89448 1.14099 2.83217 2.01156C1.76987 2.88214 1.0424 4.09422 0.773803 5.44116C0.505201 6.78811 0.712094 8.18652 1.35921 9.39798C2.00632 10.6094 3.0536 11.559 4.32248 12.0846C5.59136 12.6103 7.00329 12.6796 8.31755 12.2807C9.63182 11.8818 10.767 11.0394 11.5297 9.89717C12.2923 8.7549 12.6352 7.38348 12.4998 6.01671C12.3644 4.64993 11.7591 3.37244 10.7871 2.40201C10.2378 1.85123 9.58503 1.41441 8.86635 1.11667C8.14767 0.818934 7.37723 0.666138 6.59932 0.667061Z" fill="#B7B7B7"/>
<path d="M6.07601 13.0771C6.03932 13.0766 6.00412 13.0626 5.9771 13.0378C5.95007 13.0129 5.93311 12.979 5.92944 12.9425C5.83797 12.0099 5.95191 11.0685 6.26324 10.1846C6.57456 9.30072 7.07573 8.49575 7.7315 7.8263C8.38727 7.15684 9.18171 6.63916 10.059 6.30964C10.9363 5.98013 11.8751 5.84678 12.8094 5.91897C12.8287 5.92048 12.8475 5.92579 12.8647 5.93458C12.8819 5.94338 12.8972 5.9555 12.9097 5.97023C12.9222 5.98497 12.9317 6.00203 12.9376 6.02044C12.9435 6.03885 12.9457 6.05825 12.944 6.07751C12.9429 6.09665 12.938 6.11537 12.9295 6.13256C12.921 6.14976 12.9092 6.16508 12.8947 6.17763C12.8802 6.19018 12.8633 6.19969 12.8451 6.20561C12.8268 6.21154 12.8076 6.21375 12.7885 6.21212C11.8967 6.14317 11.0007 6.27041 10.1634 6.58491C9.32613 6.8994 8.56789 7.3935 7.94204 8.03246C7.31619 8.67143 6.83792 9.43975 6.54086 10.2834C6.2438 11.127 6.13517 12.0255 6.22259 12.9156C6.22465 12.9347 6.22285 12.954 6.21731 12.9724C6.21176 12.9908 6.20258 13.0079 6.19031 13.0227C6.17803 13.0375 6.16292 13.0497 6.14586 13.0585C6.1288 13.0673 6.11013 13.0727 6.09098 13.0742L6.07601 13.0771Z" fill="#B7B7B7"/>
<path d="M6.07598 13.1518C6.02092 13.1514 5.96794 13.1307 5.92712 13.0938C5.8863 13.0568 5.8605 13.0061 5.85463 12.9514C5.76237 12.008 5.87773 11.0559 6.19261 10.1619C6.50748 9.26792 7.01424 8.45367 7.6773 7.77636C8.34036 7.09905 9.14365 6.57509 10.0308 6.24128C10.9179 5.90746 11.8673 5.77188 12.8124 5.84405C12.8413 5.84629 12.8694 5.85433 12.8951 5.86769C12.9208 5.88106 12.9435 5.89947 12.962 5.92182C12.9816 5.94358 12.9965 5.96916 13.0058 5.99696C13.015 6.02476 13.0184 6.05417 13.0158 6.08335C13.0098 6.14099 12.9819 6.19415 12.938 6.23195C12.8941 6.26976 12.8374 6.28937 12.7795 6.28676C11.8988 6.21878 11.014 6.3445 10.1872 6.65509C9.36031 6.96567 8.61151 7.45357 7.9934 8.08451C7.37529 8.71545 6.90287 9.47411 6.60934 10.3072C6.31581 11.1402 6.20829 12.0274 6.29435 12.9065C6.29765 12.9354 6.29514 12.9647 6.28695 12.9927C6.27877 13.0206 6.26507 13.0467 6.24668 13.0692C6.22828 13.0918 6.20556 13.1105 6.17984 13.1242C6.15412 13.1378 6.12593 13.1462 6.09692 13.1488L6.07598 13.1518ZM12.3128 5.97268C11.4278 5.973 10.5526 6.15858 9.74357 6.51748C8.93455 6.87638 8.2096 7.40066 7.61538 8.05658C7.02116 8.71251 6.57083 9.48555 6.29334 10.326C6.01585 11.1664 5.91735 12.0556 6.00419 12.9364C6.00569 12.9544 6.01392 12.9712 6.02722 12.9834C6.04053 12.9956 6.05793 13.0023 6.07598 13.0022V13.077V12.9992C6.08542 12.9985 6.09462 12.9959 6.10305 12.9915C6.11147 12.9872 6.11896 12.9813 6.12507 12.974C6.13119 12.9668 6.13581 12.9584 6.13868 12.9494C6.14155 12.9404 6.14261 12.9309 6.14179 12.9215C6.05357 12.021 6.16357 11.1122 6.46402 10.2588C6.76448 9.40545 7.24812 8.62819 7.88098 7.98164C8.51385 7.3351 9.28058 6.83494 10.1273 6.5163C10.9741 6.19766 11.8804 6.06826 12.7825 6.1372C12.7919 6.13802 12.8014 6.13696 12.8104 6.13409C12.8195 6.13122 12.8278 6.1266 12.8351 6.12048C12.8423 6.11436 12.8482 6.10688 12.8526 6.09845C12.8569 6.09003 12.8595 6.08083 12.8602 6.07139C12.8619 6.06163 12.8612 6.0516 12.8581 6.0422C12.8549 6.03281 12.8495 6.02433 12.8423 6.01755C12.8295 6.00436 12.8126 5.99592 12.7944 5.99361C12.6389 5.98165 12.4744 5.97567 12.3128 5.97567V5.97268Z" fill="#B7B7B7"/>
<path d="M0.886085 7.31032C0.724555 7.31032 0.563018 7.30434 0.401488 7.29238C0.382216 7.29087 0.363435 7.28556 0.346222 7.27676C0.32901 7.26797 0.313711 7.25585 0.301199 7.24112C0.288688 7.22638 0.27921 7.20931 0.27332 7.1909C0.267431 7.17249 0.265248 7.1531 0.266885 7.13384C0.268013 7.1147 0.272965 7.09598 0.281445 7.07878C0.289925 7.06159 0.301764 7.04626 0.316262 7.03372C0.33076 7.02117 0.347623 7.01165 0.365858 7.00573C0.384093 6.99981 0.403325 6.9976 0.422429 6.99923C1.31388 7.06639 2.20924 6.93764 3.04565 6.622C3.88205 6.30637 4.63925 5.8115 5.26408 5.17213C5.88891 4.53276 6.36624 3.76439 6.66255 2.92094C6.95887 2.0775 7.067 1.17942 6.97936 0.289746C6.9773 0.270642 6.97909 0.251319 6.98463 0.232922C6.99018 0.214525 6.99936 0.197428 7.01164 0.182643C7.02391 0.167859 7.03902 0.15569 7.05608 0.146854C7.07315 0.138019 7.09182 0.132698 7.11097 0.131208C7.13024 0.12914 7.14973 0.130914 7.1683 0.136425C7.18688 0.141936 7.20417 0.151076 7.2192 0.163316C7.23422 0.175555 7.24666 0.190652 7.25581 0.207733C7.26496 0.224813 7.27063 0.243538 7.2725 0.262824C7.36063 1.15441 7.26107 2.05457 6.98022 2.90535C6.69936 3.75612 6.24345 4.53865 5.64184 5.20254C5.04022 5.86643 4.30623 6.39697 3.48714 6.76C2.66805 7.12303 1.78202 7.31049 0.886085 7.31032Z" fill="#B7B7B7"/>
<path d="M0.886049 7.37925C0.721528 7.37925 0.557002 7.37925 0.395472 7.3613C0.366593 7.35906 0.338464 7.35102 0.312766 7.33766C0.287067 7.32429 0.264326 7.30588 0.245907 7.28353C0.226274 7.26178 0.211356 7.2362 0.202089 7.2084C0.192823 7.1806 0.189412 7.15118 0.192066 7.122C0.194279 7.09238 0.202595 7.06353 0.216494 7.03728C0.230394 7.01102 0.249572 6.98793 0.272828 6.96944C0.294371 6.95058 0.319556 6.93633 0.346825 6.92758C0.374094 6.91883 0.402867 6.91578 0.431366 6.91859C1.31172 6.98539 2.19602 6.85854 3.0221 6.54698C3.84819 6.23542 4.596 5.7467 5.21298 5.11518C5.82996 4.48366 6.30113 3.72467 6.59337 2.89155C6.8856 2.05844 6.99182 1.17142 6.90454 0.292866C6.90199 0.236383 6.92115 0.181064 6.95809 0.138259C6.99503 0.0954538 7.04695 0.0684072 7.1032 0.0626675C7.15945 0.0569278 7.21576 0.0729308 7.26059 0.107392C7.30541 0.141854 7.33535 0.192162 7.34426 0.247996C7.43317 1.14979 7.33236 2.06021 7.04833 2.9207C6.76429 3.7812 6.30331 4.57273 5.69504 5.2444C5.08676 5.91607 4.34466 6.453 3.51643 6.82067C2.68821 7.18834 1.79221 7.37861 0.886049 7.37925ZM0.410425 7.08012C0.396838 7.07556 0.382138 7.07556 0.368551 7.08012C0.360337 7.08584 0.353607 7.09344 0.348925 7.10228C0.344242 7.11113 0.341743 7.12097 0.341631 7.13097C0.340218 7.14049 0.340816 7.15021 0.343393 7.15948C0.345969 7.16876 0.350463 7.17739 0.356584 7.18482C0.37095 7.19741 0.388578 7.20571 0.40744 7.20875C0.565978 7.20875 0.724519 7.22669 0.886049 7.22669C1.7715 7.22637 2.64707 7.04071 3.45646 6.68166C4.26584 6.3226 4.99111 5.79811 5.5856 5.14191C6.1801 4.48571 6.63066 3.71234 6.9083 2.87154C7.18594 2.03075 7.28451 1.14114 7.19768 0.259962C7.19657 0.250504 7.1936 0.241361 7.18893 0.233065C7.18425 0.22477 7.17797 0.217487 7.17046 0.211641C7.16294 0.205795 7.15434 0.201503 7.14514 0.199014C7.13595 0.196525 7.12636 0.19589 7.11692 0.197145C7.09839 0.199401 7.08148 0.208781 7.06975 0.2233C7.05802 0.237818 7.05241 0.256332 7.0541 0.274918C7.14319 1.17554 7.03396 2.08475 6.7341 2.93865C6.43423 3.79254 5.95099 4.57041 5.31836 5.21758C4.68573 5.86476 3.91904 6.36553 3.07218 6.68472C2.22531 7.00391 1.31883 7.13377 0.416413 7.06516L0.410425 7.08012Z" fill="#B7B7B7"/>
<path d="M11.0356 11.1995C11.016 11.1994 10.9967 11.1954 10.9787 11.1877C10.9607 11.18 10.9445 11.1688 10.9309 11.1547L2.06467 2.27351C2.04898 2.26049 2.03618 2.24433 2.02709 2.22608C2.018 2.20783 2.01282 2.18788 2.01188 2.16751C2.01093 2.14714 2.01425 2.1268 2.02162 2.10779C2.02898 2.08878 2.04023 2.07151 2.05465 2.05709C2.06907 2.04267 2.08634 2.03142 2.10535 2.02406C2.12437 2.01669 2.14471 2.01337 2.16507 2.01432C2.18544 2.01526 2.20539 2.02044 2.22364 2.02953C2.2419 2.03862 2.25804 2.05142 2.27107 2.06711L11.1373 10.9333C11.1645 10.9608 11.1798 10.9979 11.1798 11.0365C11.1798 11.0752 11.1645 11.1123 11.1373 11.1397C11.1258 11.1566 11.1107 11.1707 11.0932 11.1811C11.0756 11.1914 11.0559 11.1977 11.0356 11.1995Z" fill="#B7B7B7"/>
<path d="M11.0356 11.2593C10.9761 11.2592 10.9191 11.2356 10.877 11.1935L2.01082 2.32428C1.9898 2.30423 1.97311 2.28008 1.96179 2.25333C1.95047 2.22657 1.94476 2.19778 1.94502 2.16873C1.94511 2.13973 1.95098 2.11104 1.96228 2.08434C1.97358 2.05763 1.99008 2.03344 2.01082 2.01318C2.05196 1.97639 2.1052 1.95605 2.16039 1.95605C2.21557 1.95605 2.26882 1.97639 2.30995 2.01318L11.1791 10.8794C11.2093 10.9107 11.2297 10.9501 11.2379 10.9929C11.2461 11.0356 11.2417 11.0798 11.2252 11.12C11.2087 11.1603 11.1809 11.1949 11.1451 11.2196C11.1093 11.2443 11.0671 11.2581 11.0236 11.2593H11.0356ZM2.16638 2.09694C2.14734 2.09694 2.12908 2.1045 2.11561 2.11797C2.10215 2.13143 2.09458 2.14969 2.09458 2.16873C2.09456 2.17817 2.0964 2.18752 2.09999 2.19624C2.10359 2.20497 2.10886 2.2129 2.11552 2.21958L10.9847 11.0858C10.9909 11.0928 10.9985 11.0984 11.007 11.1022C11.0155 11.1061 11.0247 11.1081 11.0341 11.1081C11.0434 11.1081 11.0526 11.1061 11.0612 11.1022C11.0697 11.0984 11.0773 11.0928 11.0834 11.0858C11.0903 11.0799 11.0958 11.0726 11.0994 11.0643C11.103 11.056 11.1047 11.047 11.1044 11.0379C11.105 11.0284 11.1034 11.0189 11.0998 11.0101C11.0961 11.0013 11.0906 10.9934 11.0834 10.9871L2.21722 2.11788C2.21054 2.11122 2.20261 2.10594 2.19388 2.10235C2.18516 2.09875 2.17581 2.09692 2.16638 2.09694Z" fill="#B7B7B7"/>
<path d="M2.16611 11.1995C2.14697 11.1995 2.12804 11.1955 2.11053 11.1878C2.09302 11.1801 2.0773 11.1688 2.0644 11.1546C2.05017 11.1415 2.03883 11.1255 2.03106 11.1078C2.0233 11.09 2.01929 11.0708 2.01929 11.0514C2.01929 11.0321 2.0233 11.0129 2.03106 10.9951C2.03883 10.9774 2.05017 10.9614 2.0644 10.9483L10.9396 2.06709C10.9527 2.05286 10.9687 2.04151 10.9865 2.03374C11.0042 2.02598 11.0234 2.02197 11.0428 2.02197C11.0622 2.02197 11.0813 2.02598 11.0991 2.03374C11.1169 2.04151 11.1328 2.05286 11.146 2.06709C11.1732 2.09454 11.1885 2.13163 11.1885 2.17029C11.1885 2.20894 11.1732 2.24604 11.146 2.27349L2.26482 11.1397C2.25327 11.1558 2.23857 11.1694 2.22161 11.1797C2.20464 11.19 2.18576 11.1967 2.16611 11.1995Z" fill="#B7B7B7"/>
<path d="M2.16614 11.2594C2.13715 11.2593 2.10846 11.2535 2.08175 11.2422C2.05504 11.2309 2.03085 11.2144 2.01059 11.1936C1.97317 11.1528 1.95242 11.0994 1.95242 11.0441C1.95242 10.9887 1.97317 10.9353 2.01059 10.8945L10.8768 2.0283C10.9182 1.99211 10.9714 1.97217 11.0264 1.97217C11.0814 1.97217 11.1345 1.99211 11.1759 2.0283C11.1963 2.0487 11.2123 2.07298 11.2231 2.0997C11.2339 2.12642 11.2392 2.15503 11.2387 2.18384C11.2396 2.2127 11.2344 2.24141 11.2236 2.26818C11.2128 2.29495 11.1966 2.31919 11.1759 2.33939L2.32169 11.1996C2.30113 11.2196 2.27676 11.2351 2.25003 11.2454C2.2233 11.2557 2.19477 11.2605 2.16614 11.2594ZM11.0353 2.0971C11.0259 2.09707 11.0166 2.09891 11.0078 2.1025C10.9991 2.1061 10.9912 2.11137 10.9845 2.11803L2.11529 10.9872C2.10863 10.9939 2.10335 11.0018 2.09976 11.0106C2.09617 11.0193 2.09432 11.0286 2.09435 11.0381C2.09507 11.0561 2.10255 11.0732 2.11529 11.0859C2.12196 11.0926 2.12989 11.0979 2.13861 11.1016C2.14734 11.1052 2.1567 11.1071 2.16614 11.1071C2.17559 11.1071 2.18494 11.1052 2.19367 11.1016C2.20239 11.0979 2.21032 11.0926 2.21699 11.0859L11.0832 2.22572C11.0903 2.21939 11.0959 2.21152 11.0995 2.20271C11.1032 2.1939 11.1047 2.18438 11.1041 2.17487C11.1041 2.15634 11.097 2.13852 11.0842 2.12513C11.0714 2.11175 11.0539 2.10385 11.0353 2.10308V2.0971Z" fill="#B7B7B7"/>
</svg>
