<svg width="13" height="13" viewBox="0 0 13 13" fill="none" xmlns="http://www.w3.org/2000/svg">
<path d="M6.49779 12.9257C5.01478 12.9236 3.57839 12.4074 2.43326 11.4651C1.28812 10.5227 0.505064 9.21258 0.217467 7.75773C-0.0701306 6.30288 0.155518 4.79332 0.855973 3.48616C1.55643 2.179 2.68837 1.15509 4.059 0.588823C5.42964 0.0225556 6.9542 -0.0510474 8.37301 0.380552C9.79182 0.812152 11.0171 1.72226 11.8403 2.95586C12.6634 4.18947 13.0334 5.67027 12.8873 7.14606C12.7412 8.62185 12.088 10.0013 11.0389 11.0496C10.4426 11.6457 9.73455 12.1182 8.9553 12.4402C8.17605 12.7621 7.34092 12.9271 6.49779 12.9257ZM6.49779 0.599385C5.13113 0.602507 3.80781 1.07925 2.75316 1.94843C1.69852 2.81761 0.97776 4.02549 0.71362 5.36638C0.44948 6.70727 0.658293 8.09826 1.3045 9.30249C1.95071 10.5067 2.99435 11.4497 4.25772 11.9709C5.52108 12.4921 6.92607 12.5593 8.2334 12.161C9.54073 11.7627 10.6696 10.9236 11.4277 9.78652C12.1859 8.64944 12.5265 7.28471 12.3915 5.92474C12.2565 4.56476 11.6542 3.29363 10.6873 2.32779C10.1371 1.77817 9.48379 1.34257 8.76485 1.04597C8.04592 0.749371 7.2755 0.597609 6.49779 0.599385Z" fill="#B7B7B7"/>
<path d="M6.49785 13C4.99389 12.9995 3.53664 12.4775 2.37444 11.5229C1.21225 10.5683 0.417029 9.24029 0.124312 7.76509C-0.168404 6.28989 0.0594928 4.75883 0.769166 3.43284C1.47884 2.10685 2.62637 1.06798 4.0162 0.49328C5.40602 -0.0814198 6.95213 -0.156384 8.39103 0.281161C9.82994 0.718706 11.0726 1.64168 11.9072 2.8928C12.7419 4.14391 13.1168 5.64574 12.9682 7.14234C12.8195 8.63894 12.1565 10.0377 11.0922 11.1002C10.4901 11.7051 9.77404 12.1844 8.9854 12.5106C8.19676 12.8367 7.35125 13.003 6.49785 13ZM6.49785 0.16841C5.03099 0.16916 3.60977 0.678485 2.47633 1.60961C1.3429 2.54073 0.567373 3.83604 0.281885 5.27484C-0.00360185 6.71365 0.218613 8.20693 0.910672 9.50027C1.60273 10.7936 2.72182 11.807 4.07726 12.3677C5.43271 12.9285 6.94065 13.0019 8.34416 12.5755C9.74768 12.1491 10.9599 11.2493 11.7744 10.0293C12.5888 8.80934 12.9551 7.34472 12.8108 5.88498C12.6664 4.42525 12.0204 3.06071 10.9828 2.02386C10.3946 1.43402 9.69549 0.966398 8.92575 0.647953C8.156 0.329507 7.33086 0.16653 6.49785 0.16841ZM6.49785 12.4948C5.11301 12.4942 3.77119 12.0135 2.70103 11.1346C1.63087 10.2556 0.898575 9.03282 0.628905 7.67449C0.359235 6.31616 0.568882 4.90635 1.22212 3.68526C1.87536 2.46417 2.93178 1.50735 4.21139 0.97783C5.49099 0.448308 6.9146 0.378842 8.23968 0.781269C9.56476 1.1837 10.7093 2.03312 11.4783 3.18481C12.2474 4.3365 12.5933 5.7192 12.4571 7.09733C12.321 8.47546 11.7112 9.76376 10.7317 10.7427C10.1766 11.2999 9.51667 11.7419 8.79005 12.0431C8.06343 12.3442 7.28442 12.4988 6.49785 12.4977V12.4948ZM6.49785 0.676592C5.14825 0.679273 3.84132 1.14968 2.79959 2.00771C1.75787 2.86574 1.04577 4.05833 0.784558 5.38241C0.523347 6.70648 0.729181 8.08016 1.367 9.26953C2.00482 10.4589 3.03518 11.3904 4.28264 11.9054C5.5301 12.4204 6.91752 12.4871 8.20863 12.0941C9.49973 11.7011 10.6147 10.8728 11.3637 9.75006C12.1126 8.62736 12.4493 7.27975 12.3163 5.93673C12.1833 4.59371 11.5888 3.33831 10.6342 2.38432C10.0921 1.84031 9.44719 1.40946 8.7371 1.11681C8.02702 0.824149 7.26587 0.675518 6.49785 0.679546V0.676592Z" fill="#B7B7B7"/>
<path d="M6.21405 12.5647C6.18712 12.5636 6.161 12.5552 6.1385 12.5404C6.11601 12.5255 6.098 12.5048 6.08644 12.4805C6.07488 12.4561 6.07019 12.4291 6.0729 12.4022C6.0756 12.3754 6.08559 12.3499 6.10179 12.3283C6.2224 12.18 6.35163 12.0389 6.48883 11.9058C6.51285 11.8826 6.54405 11.8682 6.57732 11.8649C6.61059 11.8617 6.64398 11.8699 6.67201 11.8881C6.81786 11.9874 6.96874 12.0791 7.12405 12.1629C7.14272 12.1706 7.15956 12.1822 7.17348 12.1968C7.18741 12.2114 7.19811 12.2288 7.20491 12.2479C7.21172 12.2669 7.21447 12.2871 7.21298 12.3073C7.21148 12.3274 7.20579 12.3471 7.19626 12.3649C7.18673 12.3827 7.17357 12.3983 7.15763 12.4107C7.1417 12.4232 7.12333 12.4321 7.10373 12.437C7.08413 12.4419 7.06373 12.4427 7.04383 12.4392C7.02392 12.4358 7.00494 12.4282 6.98814 12.417C6.86109 12.349 6.73406 12.2751 6.60997 12.1954C6.50596 12.2965 6.40733 12.403 6.31451 12.5145C6.30196 12.5291 6.2866 12.5411 6.26935 12.5497C6.2521 12.5583 6.2333 12.5634 6.21405 12.5647Z" fill="#B7B7B7"/>
<path d="M6.21408 12.6388C6.16029 12.639 6.10835 12.6191 6.06845 12.5831C6.02855 12.547 6.00357 12.4973 5.99841 12.4438C5.99422 12.4155 5.996 12.3868 6.00364 12.3593C6.01127 12.3318 6.02459 12.3062 6.04272 12.2842C6.16611 12.1309 6.2983 11.9849 6.43863 11.8469C6.47446 11.8115 6.52156 11.7898 6.57175 11.7855C6.62194 11.7811 6.67205 11.7945 6.7134 11.8233C6.8573 11.9207 7.00622 12.0104 7.15954 12.0922C7.20989 12.1194 7.24794 12.1648 7.2659 12.2192C7.27481 12.247 7.27784 12.2763 7.27479 12.3053C7.27174 12.3343 7.26267 12.3623 7.24817 12.3876C7.22048 12.4388 7.17378 12.477 7.11817 12.494C7.09079 12.5021 7.06207 12.5048 7.03367 12.5017C7.00527 12.4987 6.97775 12.49 6.95272 12.4763C6.8434 12.4172 6.73113 12.3522 6.62181 12.2842C6.53836 12.3706 6.45947 12.4614 6.38545 12.556C6.36527 12.5822 6.33928 12.6033 6.30953 12.6176C6.27979 12.632 6.24711 12.6392 6.21408 12.6388ZM6.59227 11.9326C6.5829 11.9322 6.57356 11.9339 6.56489 11.9375C6.55622 11.941 6.54843 11.9464 6.54204 11.9533C6.40567 12.0863 6.27741 12.2274 6.15796 12.3758C6.14686 12.3912 6.14162 12.4101 6.14318 12.429C6.14465 12.4431 6.15036 12.4565 6.15953 12.4674C6.16871 12.4782 6.18094 12.4861 6.19464 12.4899C6.20834 12.4937 6.22288 12.4934 6.23635 12.4888C6.24983 12.4843 6.26163 12.4758 6.27022 12.4644C6.36226 12.3495 6.46091 12.24 6.56567 12.1365L6.60704 12.0951L6.65726 12.1276C6.78135 12.2074 6.90545 12.2813 7.0325 12.3463C7.04091 12.3498 7.04994 12.3517 7.05908 12.3517C7.06822 12.3517 7.07727 12.3498 7.08568 12.3463C7.09457 12.3434 7.1028 12.3387 7.10989 12.3327C7.11699 12.3266 7.12283 12.3191 7.12704 12.3108C7.13079 12.3024 7.13272 12.2934 7.13272 12.2842C7.13272 12.275 7.13079 12.266 7.12704 12.2576C7.12415 12.2487 7.11953 12.2405 7.11345 12.2334C7.10736 12.2263 7.09994 12.2205 7.09159 12.2163C6.93796 12.1335 6.79613 12.039 6.63363 11.9385C6.62087 11.9321 6.60634 11.93 6.59227 11.9326Z" fill="#B7B7B7"/>
<path d="M7.02366 11.2185C6.98795 11.2188 6.95332 11.2063 6.92618 11.183C6.81981 11.0855 6.7164 10.9851 6.63071 10.8876C6.50958 10.9555 6.38844 11.0294 6.27026 11.1092C6.25458 11.1208 6.23672 11.1292 6.21772 11.1338C6.19872 11.1384 6.17899 11.139 6.15973 11.1358C6.14046 11.1325 6.12205 11.1254 6.10561 11.1149C6.08917 11.1043 6.07504 11.0905 6.06406 11.0744C6.05308 11.0582 6.04549 11.04 6.04174 11.0208C6.038 11.0016 6.03817 10.9819 6.04225 10.9628C6.04633 10.9437 6.05424 10.9256 6.0655 10.9096C6.07676 10.8936 6.09114 10.8801 6.10776 10.8699C6.26731 10.7635 6.42981 10.665 6.59526 10.5744C6.62392 10.5602 6.65641 10.5557 6.68784 10.5616C6.71928 10.5674 6.74795 10.5833 6.76958 10.6069C6.8842 10.7363 7.00654 10.8586 7.13594 10.9733C7.16282 11.0004 7.17792 11.037 7.17792 11.0752C7.17792 11.1134 7.16282 11.15 7.13594 11.1771C7.12162 11.1921 7.10406 11.2037 7.0846 11.2108C7.06514 11.218 7.04429 11.2206 7.02366 11.2185Z" fill="#B7B7B7"/>
<path d="M7.02364 11.2925C6.96907 11.2931 6.91628 11.2731 6.87591 11.2364C6.78136 11.1497 6.68979 11.061 6.60115 10.9704C6.49774 11.0295 6.39729 11.0945 6.30569 11.1595C6.25819 11.192 6.1999 11.2047 6.14319 11.195C6.11513 11.1897 6.08841 11.1788 6.06457 11.1631C6.04074 11.1474 6.02026 11.1271 6.00433 11.1034C5.97481 11.0561 5.96419 10.9994 5.9746 10.9447C5.985 10.8899 6.01566 10.8411 6.06046 10.8079C6.22048 10.7006 6.38617 10.602 6.55682 10.5125C6.60002 10.4905 6.64929 10.4836 6.69689 10.4927C6.74448 10.5017 6.78771 10.5264 6.81978 10.5627C6.93218 10.6894 7.05153 10.8097 7.17728 10.9232C7.21736 10.9609 7.24154 11.0125 7.24483 11.0674C7.24813 11.1223 7.2303 11.1764 7.19501 11.2186C7.17393 11.2431 7.14755 11.2626 7.11786 11.2753C7.08817 11.2881 7.05594 11.294 7.02364 11.2925ZM6.63069 10.7873L6.6691 10.8286C6.7666 10.932 6.87002 11.0325 6.96456 11.1241C6.97115 11.1307 6.97897 11.1359 6.98759 11.1395C6.99621 11.1431 7.00545 11.1449 7.01478 11.1449C7.02412 11.1449 7.03336 11.1431 7.04198 11.1395C7.0506 11.1359 7.05842 11.1307 7.065 11.1241C7.07153 11.1177 7.07672 11.1102 7.08026 11.1018C7.0838 11.0934 7.08562 11.0844 7.08562 11.0753C7.08562 11.0662 7.0838 11.0572 7.08026 11.0489C7.07672 11.0405 7.07153 11.0329 7.065 11.0266C6.93796 10.9114 6.81092 10.7843 6.69274 10.6543C6.68087 10.6452 6.66633 10.6403 6.65137 10.6403C6.63641 10.6403 6.62188 10.6452 6.61001 10.6543C6.44405 10.7436 6.28326 10.8423 6.12842 10.9498C6.11311 10.961 6.10273 10.9777 6.09943 10.9964C6.09613 11.0151 6.10016 11.0344 6.11069 11.0502C6.12221 11.0642 6.13764 11.0745 6.15501 11.0798C6.16337 11.0835 6.17243 11.0854 6.1816 11.0854C6.19077 11.0854 6.19983 11.0835 6.20819 11.0798C6.32637 11 6.45046 10.9232 6.57455 10.8552L6.63069 10.7873Z" fill="#B7B7B7"/>
<path d="M7.30149 10.0957C7.27755 10.0955 7.25402 10.0894 7.23291 10.0781C7.21181 10.0668 7.19378 10.0505 7.18037 10.0307C7.10355 9.91543 7.02673 9.79134 6.95582 9.6643C6.81991 9.6968 6.684 9.7352 6.55105 9.77952C6.51459 9.79015 6.47547 9.78661 6.44151 9.76963C6.40754 9.75265 6.38124 9.72347 6.36787 9.68793C6.36191 9.6697 6.35964 9.65047 6.36118 9.63135C6.36272 9.61223 6.36803 9.59361 6.37683 9.57657C6.38563 9.55953 6.39773 9.5444 6.41242 9.53207C6.42711 9.51974 6.4441 9.51046 6.46242 9.50475C6.63966 9.44517 6.82019 9.39585 7.0031 9.35702C7.03365 9.35129 7.06522 9.35535 7.09334 9.36861C7.12145 9.38187 7.14467 9.40367 7.15968 9.43089C7.23856 9.58269 7.32637 9.72969 7.42264 9.87111C7.43315 9.88701 7.44042 9.90482 7.44403 9.92354C7.44764 9.94225 7.44751 9.96149 7.44367 9.98016C7.43982 9.99882 7.43234 10.0165 7.42163 10.0323C7.41092 10.0481 7.39721 10.0616 7.38127 10.072C7.3573 10.0869 7.32973 10.0951 7.30149 10.0957Z" fill="#B7B7B7"/>
<path d="M7.30139 10.1697C7.26552 10.1702 7.23012 10.1615 7.19856 10.1445C7.16701 10.1274 7.14036 10.1025 7.12116 10.0722C7.05025 9.9688 6.9823 9.85948 6.92026 9.75017C6.80503 9.77676 6.68684 9.81221 6.57457 9.84767C6.54857 9.85941 6.52037 9.86549 6.49185 9.86549C6.46332 9.86549 6.43512 9.85941 6.40912 9.84767C6.38324 9.835 6.36021 9.8172 6.34142 9.79536C6.32263 9.77352 6.30847 9.7481 6.2998 9.72062C6.28824 9.69457 6.28226 9.66639 6.28226 9.63789C6.28226 9.6094 6.28824 9.58121 6.2998 9.55517C6.31247 9.52929 6.33027 9.50626 6.35211 9.48747C6.37395 9.46868 6.39937 9.45452 6.42684 9.44585C6.60709 9.38626 6.79057 9.33694 6.97639 9.29812C7.02265 9.28834 7.07085 9.29403 7.11355 9.31432C7.15626 9.33461 7.19111 9.36836 7.21275 9.4104C7.29077 9.55862 7.37657 9.70261 7.4698 9.84176C7.50198 9.88939 7.51467 9.94755 7.50525 10.0043C7.49825 10.0541 7.47425 10.1 7.4373 10.1343C7.39786 10.1623 7.3495 10.1749 7.30139 10.1697ZM7.00593 9.5788L7.03253 9.62903C7.10344 9.75312 7.1773 9.87426 7.25412 9.98949C7.26438 10.0051 7.28038 10.016 7.29863 10.0198C7.31688 10.0237 7.33592 10.0202 7.35163 10.0102C7.36002 10.0057 7.36733 9.99947 7.37305 9.99188C7.37877 9.98429 7.38275 9.97554 7.38472 9.96625C7.38669 9.95695 7.38661 9.94733 7.38446 9.93808C7.38232 9.92882 7.37817 9.92015 7.37231 9.91267C7.27612 9.76859 7.18736 9.61968 7.10639 9.46653C7.09948 9.45281 7.08812 9.44183 7.07417 9.43539C7.06022 9.42895 7.0445 9.42743 7.02957 9.43108C6.84935 9.46949 6.67208 9.51676 6.4948 9.57289C6.4863 9.57582 6.47849 9.58049 6.47187 9.58659C6.46526 9.59269 6.45999 9.6001 6.45639 9.60835C6.449 9.62633 6.449 9.6465 6.45639 9.66449C6.45896 9.67318 6.4635 9.68116 6.46965 9.68782C6.47579 9.69448 6.48339 9.69964 6.49185 9.70289C6.50025 9.70647 6.50931 9.70831 6.51844 9.70831C6.52758 9.70831 6.53662 9.70647 6.54503 9.70289C6.68094 9.65858 6.8198 9.62017 6.95867 9.58767L7.00593 9.5788Z" fill="#B7B7B7"/>
<path d="M7.84815 9.10049C7.81845 9.10094 7.78935 9.09207 7.76497 9.0751C7.74058 9.05814 7.72214 9.03395 7.71224 9.00594C7.66496 8.87003 7.62065 8.73412 7.58519 8.59526C7.44544 8.58789 7.30541 8.58789 7.16565 8.59526C7.12647 8.59761 7.08796 8.5843 7.05859 8.55826C7.02923 8.53222 7.01141 8.49557 7.00905 8.4564C7.0067 8.41722 7.02002 8.37871 7.04606 8.34934C7.0721 8.31997 7.10875 8.30216 7.14793 8.2998C7.33406 8.2998 7.52314 8.2998 7.70632 8.2998C7.73781 8.30109 7.76798 8.31282 7.79205 8.33315C7.81613 8.35348 7.83274 8.38125 7.83928 8.41208C7.88064 8.57753 7.92791 8.74003 7.98405 8.89958C7.99055 8.91741 7.99341 8.93636 7.99245 8.95531C7.99149 8.97426 7.98674 8.99283 7.97848 9.00991C7.97021 9.02699 7.95859 9.04224 7.94432 9.05475C7.93006 9.06727 7.91343 9.07679 7.89542 9.08276C7.88094 9.09163 7.8649 9.09765 7.84815 9.10049Z" fill="#B7B7B7"/>
<path d="M7.84814 9.17397C7.80313 9.17335 7.75933 9.15921 7.72245 9.1334C7.68557 9.10758 7.65731 9.07128 7.64132 9.0292C7.59996 8.91101 7.56155 8.78988 7.52905 8.66579C7.40791 8.66579 7.28974 8.66579 7.1686 8.66579C7.11127 8.66826 7.0552 8.6484 7.01222 8.61037C6.96924 8.57235 6.94268 8.51913 6.93814 8.46192C6.9349 8.40361 6.95481 8.34639 6.99354 8.30268C7.03227 8.25897 7.08669 8.23232 7.14496 8.22852C7.33405 8.22852 7.52313 8.22852 7.70927 8.22852C7.7567 8.23141 7.80199 8.24927 7.83862 8.27953C7.87525 8.30979 7.90134 8.35089 7.91313 8.39692C7.95141 8.55997 7.99877 8.72075 8.05496 8.87851C8.07312 8.93301 8.0694 8.99243 8.0446 9.04424C8.01979 9.09605 7.97584 9.13621 7.92201 9.15624C7.89863 9.16647 7.87362 9.17248 7.84814 9.17397ZM7.4611 8.51806H7.64428V8.57124C7.68269 8.7101 7.72405 8.84601 7.76836 8.97601C7.7756 8.9933 7.7889 9.00735 7.80576 9.01551C7.82263 9.02367 7.84191 9.02539 7.85995 9.02033C7.87767 9.01366 7.89216 9.00043 7.9004 8.98339C7.90865 8.96634 7.91004 8.94678 7.90428 8.92874C7.84532 8.76633 7.79599 8.60059 7.75655 8.43238C7.75205 8.41816 7.7435 8.40556 7.73196 8.39612C7.72041 8.38667 7.70637 8.38079 7.69154 8.3792C7.50836 8.3792 7.32518 8.3792 7.142 8.3792C7.12316 8.38149 7.10556 8.38978 7.09178 8.40283C7.07986 8.41796 7.07359 8.43676 7.07405 8.45601C7.07623 8.47403 7.08496 8.49061 7.09858 8.5026C7.1122 8.51459 7.12977 8.52115 7.14792 8.52101C7.26019 8.52101 7.36064 8.51806 7.4611 8.51806Z" fill="#B7B7B7"/>
<path d="M8.61904 8.27601C8.58339 8.27614 8.549 8.26283 8.52272 8.23874C8.49644 8.21465 8.4802 8.18154 8.47723 8.14601C8.46289 8.00268 8.45599 7.8587 8.45654 7.71465C8.32063 7.67722 8.18472 7.64473 8.04881 7.61715C8.01126 7.60998 7.97807 7.58825 7.95648 7.5567C7.9349 7.52515 7.92666 7.48634 7.93358 7.44874C7.93711 7.42985 7.94437 7.41184 7.95493 7.39578C7.9655 7.37972 7.97916 7.36593 7.99511 7.3552C8.01106 7.34448 8.02898 7.33703 8.04784 7.33331C8.0667 7.32959 8.08612 7.32965 8.10495 7.33351C8.28636 7.36975 8.46583 7.41512 8.64268 7.46942C8.67281 7.4789 8.6991 7.49778 8.71771 7.52331C8.73633 7.54883 8.74627 7.57965 8.74608 7.61124C8.74313 7.78083 8.74905 7.95045 8.76381 8.11942C8.76584 8.13829 8.76407 8.15738 8.7586 8.17555C8.75312 8.19372 8.74405 8.21061 8.73193 8.22521C8.7198 8.23981 8.70487 8.25183 8.68801 8.26056C8.67116 8.26928 8.65273 8.27454 8.63381 8.27601H8.61904Z" fill="#B7B7B7"/>
<path d="M8.6191 8.36173C8.56464 8.36262 8.51192 8.34259 8.47179 8.30576C8.43166 8.26893 8.4072 8.21811 8.40343 8.16378C8.40343 8.03673 8.3857 7.90969 8.38274 7.78264C8.26752 7.7531 8.14934 7.72651 8.03411 7.70287C7.9778 7.69124 7.92809 7.65846 7.89524 7.61128C7.87914 7.58722 7.86798 7.56021 7.8624 7.53181C7.85682 7.50341 7.85694 7.47418 7.86274 7.44583C7.8679 7.41771 7.87867 7.39093 7.89441 7.36707C7.91014 7.34321 7.93052 7.32277 7.95433 7.30696C7.97839 7.29086 8.0054 7.2797 8.0338 7.27412C8.06221 7.26854 8.09143 7.26866 8.11978 7.27446C8.30297 7.30992 8.4891 7.35719 8.66637 7.41037C8.71129 7.42484 8.75043 7.45328 8.77806 7.49155C8.8057 7.52981 8.8204 7.5759 8.82001 7.6231C8.81701 7.79072 8.82292 7.95838 8.83774 8.12537C8.84266 8.18293 8.8246 8.24009 8.78751 8.28438C8.75042 8.32867 8.69732 8.35648 8.63979 8.36173H8.6191ZM8.07546 7.41628C8.06278 7.41373 8.04974 7.41373 8.03707 7.41628C8.02185 7.42797 8.01135 7.44475 8.00751 7.46355C8.00187 7.48083 8.00187 7.49946 8.00751 7.51673C8.0188 7.53238 8.03578 7.54298 8.05479 7.54628C8.1907 7.57287 8.32956 7.60537 8.46842 7.64378L8.5216 7.65855V7.71469C8.5216 7.85355 8.5216 8.01014 8.53932 8.14014C8.54207 8.15712 8.55067 8.17261 8.56362 8.18394C8.57656 8.19527 8.59304 8.20172 8.61023 8.20219V8.27605V8.20219C8.61955 8.20144 8.62865 8.19886 8.63697 8.19459C8.6453 8.19032 8.65268 8.18445 8.65872 8.17731C8.66476 8.17017 8.66934 8.1619 8.67217 8.15299C8.67501 8.14407 8.67605 8.13469 8.67524 8.12537C8.66038 7.95344 8.65446 7.78086 8.65751 7.60832C8.65754 7.59311 8.65267 7.57828 8.64363 7.56605C8.63458 7.55381 8.62185 7.54481 8.60729 7.54037C8.43249 7.4867 8.25495 7.44231 8.07546 7.40741V7.41628Z" fill="#B7B7B7"/>
<path d="M9.57638 7.66724H9.5498C9.51207 7.66004 9.47863 7.63843 9.45657 7.60699C9.43451 7.57555 9.42555 7.53676 9.43161 7.49883C9.45525 7.35997 9.48479 7.20338 9.5232 7.07633C9.40108 7.00936 9.27699 6.94436 9.15093 6.88133C9.12024 6.86271 9.09757 6.83336 9.0873 6.79897C9.07704 6.76457 9.07992 6.7276 9.09538 6.69521C9.11084 6.66282 9.13779 6.63732 9.17098 6.62367C9.20417 6.61002 9.24124 6.60919 9.27501 6.62133C9.44279 6.70073 9.60649 6.78849 9.76547 6.88429C9.7928 6.90107 9.81393 6.92629 9.82565 6.95614C9.83738 6.98599 9.83906 7.01884 9.83047 7.04974C9.7826 7.21366 9.7451 7.38043 9.71819 7.54906C9.712 7.58218 9.69445 7.61211 9.66857 7.63368C9.64268 7.65526 9.61008 7.66712 9.57638 7.66724Z" fill="#B7B7B7"/>
<path d="M9.57644 7.74088H9.53803C9.48099 7.73099 9.4301 7.69918 9.39622 7.65224C9.37954 7.62901 9.3678 7.6026 9.3617 7.57466C9.3556 7.54671 9.35528 7.51782 9.36076 7.48975C9.38145 7.36565 9.40508 7.24156 9.43758 7.11452C9.33418 7.05838 9.22781 7.00225 9.11849 6.95202C9.06751 6.9253 9.02771 6.88131 9.00622 6.82793C8.98554 6.77369 8.98554 6.71375 9.00622 6.65952C9.03205 6.60787 9.07633 6.5678 9.1303 6.54725C9.18453 6.52657 9.24448 6.52657 9.29871 6.54725C9.47008 6.62997 9.63553 6.71861 9.79507 6.81611C9.83642 6.84093 9.86842 6.87873 9.88605 6.92362C9.90368 6.9685 9.90597 7.01796 9.89258 7.06429C9.84676 7.22574 9.80928 7.38944 9.7803 7.55474C9.77345 7.60471 9.74929 7.65069 9.71205 7.6847C9.6748 7.71871 9.62682 7.73859 9.57644 7.74088ZM9.21008 6.6802H9.18644C9.17755 6.68309 9.16932 6.68771 9.16222 6.6938C9.15512 6.69988 9.1493 6.70731 9.14509 6.71565C9.14151 6.72406 9.13966 6.73311 9.13966 6.74224C9.13966 6.75138 9.14151 6.76043 9.14509 6.76884C9.14798 6.77773 9.15258 6.78596 9.15867 6.79306C9.16475 6.80016 9.1722 6.80598 9.18054 6.8102C9.30894 6.86969 9.43417 6.93576 9.55576 7.00815L9.606 7.03475L9.59121 7.08793C9.55575 7.22679 9.52621 7.38338 9.50258 7.50747C9.49907 7.51538 9.49727 7.52394 9.49727 7.53259C9.49727 7.54123 9.49907 7.54979 9.50258 7.5577C9.5076 7.56597 9.51451 7.57295 9.52272 7.57808C9.53093 7.58321 9.54022 7.58635 9.54986 7.58724C9.56645 7.58739 9.5825 7.58146 9.59501 7.57057C9.60753 7.55969 9.61564 7.5446 9.61781 7.52815C9.64735 7.3627 9.68577 7.19134 9.73304 7.02293C9.73713 7.00791 9.73615 6.99196 9.73028 6.97754C9.72441 6.96312 9.71395 6.95104 9.70052 6.94315C9.54391 6.84676 9.38217 6.75898 9.21599 6.6802H9.21008Z" fill="#B7B7B7"/>
<path d="M10.6696 7.31577C10.6491 7.31999 10.628 7.31999 10.6076 7.31577C10.5732 7.29916 10.5468 7.26968 10.5341 7.23372C10.5214 7.19776 10.5234 7.15823 10.5396 7.12372C10.5995 6.99212 10.6666 6.8639 10.7405 6.73963C10.6401 6.64213 10.5337 6.54759 10.4244 6.44418C10.4096 6.43215 10.3974 6.41734 10.3884 6.40058C10.3794 6.38383 10.3737 6.36546 10.3718 6.34653C10.3699 6.3276 10.3717 6.30848 10.3772 6.29025C10.3827 6.27203 10.3917 6.25506 10.4037 6.24031C10.4157 6.22557 10.4305 6.21334 10.4473 6.20432C10.4641 6.1953 10.4824 6.18967 10.5013 6.18775C10.5203 6.18583 10.5394 6.18766 10.5576 6.19313C10.5759 6.1986 10.5928 6.2076 10.6076 6.21963C10.7553 6.34077 10.903 6.47077 11.0271 6.60372C11.049 6.62732 11.0625 6.65739 11.0657 6.68938C11.0689 6.72138 11.0616 6.75354 11.0448 6.781C10.9556 6.92748 10.8737 7.07835 10.7996 7.23304C10.7882 7.25789 10.7699 7.27892 10.7468 7.2936C10.7238 7.30828 10.697 7.31597 10.6696 7.31577Z" fill="#B7B7B7"/>
<path d="M10.6696 7.38946C10.6382 7.38962 10.6071 7.38359 10.578 7.37173C10.5252 7.34616 10.4845 7.30091 10.4646 7.24569C10.4448 7.19047 10.4473 7.12966 10.4717 7.07628C10.5249 6.96401 10.5839 6.84878 10.646 6.73651C10.5603 6.65378 10.4687 6.57401 10.3771 6.49719C10.3547 6.47936 10.3362 6.45698 10.3229 6.43153C10.3097 6.40607 10.302 6.37811 10.3003 6.34946C10.2948 6.29216 10.3117 6.23494 10.3476 6.18992C10.3841 6.14871 10.4348 6.12277 10.4895 6.1173C10.5443 6.11182 10.5991 6.1272 10.643 6.16037C10.7908 6.28151 10.9385 6.41446 11.0656 6.54742C11.0999 6.58242 11.1215 6.62797 11.1269 6.67673C11.1322 6.7255 11.121 6.77465 11.0951 6.81628C11.0061 6.95983 10.9261 7.10884 10.8558 7.26241C10.8392 7.2985 10.8131 7.32939 10.7803 7.35177C10.7475 7.37415 10.7093 7.38718 10.6696 7.38946ZM10.516 6.26083C10.5057 6.26094 10.4956 6.26339 10.4863 6.268C10.4771 6.2726 10.4691 6.27924 10.4628 6.28742C10.4513 6.30163 10.4451 6.31937 10.4451 6.33764C10.4472 6.35717 10.4567 6.37514 10.4717 6.38787C10.5831 6.48074 10.6896 6.57936 10.7908 6.68332L10.8321 6.72173L10.8026 6.77196C10.7317 6.89605 10.6637 7.0231 10.6046 7.15014C10.5974 7.16746 10.5971 7.18686 10.6037 7.20442C10.6103 7.22198 10.6233 7.23637 10.6401 7.24469C10.6486 7.24863 10.6578 7.25085 10.6672 7.2512C10.6766 7.25155 10.686 7.25003 10.6948 7.24673C10.7036 7.24344 10.7116 7.23842 10.7185 7.23198C10.7253 7.22555 10.7308 7.21781 10.7346 7.20923C10.8086 7.05199 10.8915 6.89909 10.9828 6.75128C10.992 6.73832 10.9969 6.72283 10.9969 6.70696C10.9969 6.69109 10.992 6.67561 10.9828 6.66264C10.8513 6.53073 10.7132 6.4055 10.5692 6.28742C10.5634 6.27868 10.5555 6.27162 10.5462 6.26694C10.5368 6.26227 10.5264 6.26016 10.516 6.26083Z" fill="#B7B7B7"/>
<path d="M11.8693 7.26523C11.8518 7.26537 11.8344 7.26205 11.8182 7.25546C11.802 7.24886 11.7872 7.23913 11.7747 7.22682C11.7479 7.1997 11.7328 7.16307 11.7328 7.12489C11.7328 7.0867 11.7479 7.05007 11.7747 7.02295C11.8722 6.91659 11.9756 6.81318 12.0702 6.7275C11.9963 6.60636 11.9136 6.48818 11.8279 6.37295C11.8165 6.35763 11.8082 6.3402 11.8034 6.32166C11.7987 6.30312 11.7977 6.28383 11.8005 6.2649C11.8032 6.24597 11.8097 6.22777 11.8194 6.21133C11.8292 6.19489 11.8421 6.18054 11.8575 6.16909C11.8728 6.15765 11.8902 6.14933 11.9088 6.14462C11.9273 6.13991 11.9466 6.1389 11.9655 6.14164C11.9844 6.14439 12.0026 6.15083 12.0191 6.16061C12.0355 6.17039 12.0499 6.18331 12.0613 6.19864C12.1762 6.35339 12.2827 6.51415 12.3804 6.68023C12.3977 6.70939 12.4042 6.7437 12.3988 6.77717C12.3934 6.81065 12.3765 6.84117 12.3509 6.86341C12.2188 6.97823 12.0945 7.1016 11.9786 7.23273C11.9477 7.25718 11.9085 7.26882 11.8693 7.26523Z" fill="#B7B7B7"/>
<path d="M11.8692 7.33873C11.8157 7.3381 11.7643 7.31816 11.7244 7.2826C11.685 7.24454 11.6612 7.19305 11.6579 7.13833C11.6547 7.0836 11.6721 7.02965 11.7067 6.98714C11.7924 6.88964 11.884 6.79805 11.9755 6.71237C11.9116 6.61046 11.8426 6.51185 11.7687 6.41692C11.7515 6.39383 11.7389 6.36757 11.7318 6.33964C11.7247 6.3117 11.7231 6.28264 11.7272 6.2541C11.7314 6.22557 11.7411 6.19813 11.7558 6.17334C11.7705 6.14855 11.79 6.12691 11.813 6.10965C11.8361 6.09238 11.8624 6.07983 11.8903 6.07271C11.9183 6.0656 11.9473 6.06405 11.9759 6.06817C12.0044 6.07228 12.0318 6.08198 12.0566 6.0967C12.0814 6.11142 12.103 6.13088 12.1203 6.15396C12.2385 6.31646 12.3478 6.47896 12.4453 6.64442C12.4716 6.68808 12.4815 6.73962 12.4734 6.78991C12.4653 6.8402 12.4396 6.886 12.401 6.91919C12.2724 7.03257 12.1501 7.1529 12.0346 7.27964C12.0124 7.29997 11.9863 7.31566 11.9579 7.32581C11.9295 7.33595 11.8993 7.34034 11.8692 7.33873ZM11.946 6.20124C11.9315 6.19721 11.9162 6.19721 11.9017 6.20124C11.8874 6.21332 11.8781 6.23018 11.8753 6.24868C11.8726 6.26717 11.8767 6.28602 11.8869 6.30169C11.9757 6.4169 12.0576 6.53726 12.1321 6.66214L12.1646 6.71237L12.1203 6.75373C12.0169 6.85123 11.9135 6.95169 11.8249 7.04919C11.8122 7.06285 11.8052 7.08079 11.8052 7.09942C11.8052 7.11805 11.8122 7.13599 11.8249 7.14964C11.838 7.16211 11.8555 7.16906 11.8736 7.16906C11.8918 7.16906 11.9092 7.16211 11.9224 7.14964C12.042 7.01725 12.1692 6.89195 12.3035 6.77442C12.3141 6.76209 12.3199 6.74636 12.3199 6.7301C12.3199 6.71384 12.3141 6.69811 12.3035 6.68578C12.209 6.52624 12.1026 6.36669 11.9874 6.2101C11.9722 6.20128 11.9544 6.19813 11.9371 6.20124H11.946Z" fill="#B7B7B7"/>
<path d="M0.272669 6.77488C0.250404 6.77522 0.228372 6.77032 0.208354 6.76057C0.188335 6.75082 0.170888 6.73649 0.157437 6.71874C0.134368 6.6888 0.123933 6.65101 0.12835 6.61347C0.132767 6.57593 0.15169 6.54161 0.181079 6.51783C0.293351 6.42624 0.399714 6.33169 0.503123 6.22238C0.42335 6.09829 0.346529 5.97124 0.278575 5.8442C0.260552 5.81011 0.256811 5.77026 0.26817 5.73341C0.279528 5.69657 0.305061 5.66574 0.339148 5.64772C0.373234 5.6297 0.413078 5.62595 0.449925 5.63731C0.486772 5.64867 0.517605 5.6742 0.535627 5.70829C0.617256 5.86419 0.708015 6.01513 0.80744 6.16033C0.826029 6.18805 0.834693 6.22124 0.83201 6.2545C0.829328 6.28776 0.815461 6.31914 0.792671 6.34351C0.657316 6.48163 0.513225 6.61091 0.361301 6.73056C0.33774 6.7551 0.306436 6.77075 0.272669 6.77488Z" fill="#B7B7B7"/>
<path d="M0.272718 6.84844C0.239693 6.8489 0.207012 6.84166 0.177269 6.8273C0.147525 6.81294 0.121539 6.79186 0.101358 6.76571C0.0651878 6.72084 0.0481972 6.6635 0.0540847 6.60616C0.057196 6.57723 0.0661237 6.54923 0.0803409 6.52384C0.094558 6.49846 0.11377 6.47621 0.136811 6.45844C0.228402 6.38457 0.319988 6.3048 0.408624 6.22207C0.337715 6.11276 0.272714 6.00344 0.213623 5.89117C0.186638 5.83919 0.18133 5.77864 0.198854 5.72276C0.207333 5.69562 0.221094 5.67042 0.239348 5.64861C0.257602 5.62681 0.279985 5.60883 0.305213 5.59571C0.356175 5.56843 0.415876 5.56243 0.471244 5.57905C0.526612 5.59566 0.573141 5.63352 0.600668 5.68435C0.682419 5.83766 0.772164 5.98658 0.869532 6.13048C0.897223 6.17222 0.909963 6.2221 0.90567 6.272C0.901378 6.32189 0.880311 6.36887 0.8459 6.40526C0.707935 6.54559 0.561929 6.67778 0.408624 6.80117C0.369734 6.83141 0.32198 6.84802 0.272718 6.84844ZM0.405676 5.71685H0.373171C0.356882 5.72563 0.344672 5.74044 0.339152 5.75811C0.333631 5.77577 0.335236 5.7949 0.343624 5.81139C0.411578 5.93844 0.485442 6.06253 0.565215 6.18662L0.597719 6.23685L0.553403 6.27821C0.450233 6.38223 0.341753 6.48085 0.228402 6.57366C0.214085 6.58566 0.204633 6.60247 0.201812 6.62094C0.200417 6.63034 0.201007 6.63994 0.203552 6.6491C0.206097 6.65826 0.210535 6.66678 0.216581 6.67412C0.222678 6.68154 0.230347 6.68752 0.239032 6.69163C0.247717 6.69573 0.257206 6.69786 0.266812 6.69786C0.276418 6.69786 0.285898 6.69573 0.294583 6.69163C0.303268 6.68752 0.310937 6.68154 0.317034 6.67412C0.465363 6.55459 0.606443 6.42633 0.739531 6.29003C0.749601 6.27745 0.755094 6.26182 0.755094 6.24571C0.755094 6.2296 0.749601 6.21397 0.739531 6.20139C0.638806 6.05384 0.546104 5.90096 0.461813 5.74344C0.454823 5.73534 0.446215 5.7288 0.436548 5.72422C0.426882 5.71964 0.416368 5.71713 0.405676 5.71685Z" fill="#B7B7B7"/>
<path d="M1.7116 6.81336C1.68337 6.81282 1.65581 6.80465 1.63183 6.78972C1.60013 6.76815 1.57827 6.73488 1.57107 6.69721C1.56387 6.65954 1.57191 6.62056 1.59342 6.58881C1.67319 6.47063 1.74706 6.34949 1.81501 6.22836C1.70865 6.1279 1.60524 6.02449 1.51956 5.91813C1.49726 5.88942 1.48659 5.85337 1.48965 5.81715C1.49271 5.78093 1.50928 5.74719 1.53608 5.72262C1.56287 5.69806 1.59793 5.68448 1.63428 5.68457C1.67063 5.68466 1.70562 5.69843 1.73229 5.72313C1.84751 5.85018 1.9716 5.97427 2.09865 6.08949C2.12262 6.11084 2.13883 6.13954 2.14471 6.1711C2.15059 6.20265 2.14582 6.23527 2.13115 6.26381C2.0424 6.43201 1.94374 6.5948 1.8357 6.75131C1.82206 6.77142 1.80348 6.78768 1.78175 6.79854C1.76002 6.80941 1.73587 6.81451 1.7116 6.81336Z" fill="#B7B7B7"/>
<path d="M1.71167 6.88427C1.66823 6.8847 1.62579 6.87125 1.59054 6.84586C1.56684 6.82993 1.54654 6.80945 1.53082 6.78562C1.5151 6.76178 1.50426 6.73506 1.49895 6.707C1.49304 6.67913 1.49288 6.65034 1.49847 6.6224C1.50406 6.59447 1.51528 6.56796 1.53145 6.5445C1.59941 6.447 1.66145 6.34359 1.72054 6.24905C1.62895 6.15745 1.53736 6.06586 1.45463 5.97427C1.43523 5.95293 1.42022 5.92798 1.41047 5.90084C1.40071 5.8737 1.39639 5.84491 1.39776 5.8161C1.39913 5.78729 1.40617 5.75904 1.41846 5.73295C1.43076 5.70686 1.44806 5.68345 1.4694 5.66405C1.49074 5.64465 1.51569 5.62964 1.54283 5.61988C1.56997 5.61013 1.59877 5.60581 1.62758 5.60718C1.65638 5.60855 1.68464 5.61559 1.71073 5.62788C1.73682 5.64017 1.76023 5.65748 1.77963 5.67882C1.88895 5.79995 2.01304 5.92109 2.14009 6.03632C2.17617 6.06924 2.20036 6.11315 2.20891 6.16124C2.21746 6.20933 2.20989 6.25889 2.18736 6.30223C2.09767 6.47181 1.99905 6.63651 1.89191 6.79563C1.87097 6.82356 1.84373 6.84614 1.81241 6.86155C1.78109 6.87695 1.74657 6.88473 1.71167 6.88427ZM1.61713 5.74677C1.59978 5.74695 1.58305 5.75322 1.56986 5.7645C1.56325 5.77109 1.558 5.77892 1.55443 5.78754C1.55085 5.79615 1.549 5.8054 1.549 5.81473C1.549 5.82406 1.55085 5.8333 1.55443 5.84192C1.558 5.85054 1.56325 5.85837 1.56986 5.86495C1.66441 5.96836 1.76486 6.07177 1.86532 6.16041L1.90667 6.19882L1.88008 6.24905C1.80918 6.37609 1.73235 6.49723 1.65554 6.61541C1.65179 6.62377 1.64985 6.63283 1.64985 6.642C1.64985 6.65117 1.65179 6.66023 1.65554 6.66859C1.65953 6.68652 1.67007 6.70232 1.68508 6.71291C1.70064 6.72256 1.71923 6.7261 1.73724 6.72282C1.75526 6.71955 1.77142 6.7097 1.78258 6.69518C1.89019 6.54145 1.98884 6.38164 2.07803 6.21655C2.08543 6.20265 2.088 6.18669 2.08533 6.17117C2.08265 6.15566 2.07489 6.14148 2.06326 6.13086C1.9313 6.01071 1.8072 5.88662 1.69099 5.75859C1.68056 5.75071 1.66823 5.74574 1.65526 5.74418C1.64228 5.74262 1.62912 5.74454 1.61713 5.74973V5.74677Z" fill="#B7B7B7"/>
<path d="M3.04987 6.48161H3.00555C2.9875 6.47561 2.97082 6.4661 2.95644 6.45364C2.94207 6.44118 2.9303 6.42601 2.92179 6.409C2.91329 6.39199 2.90823 6.37347 2.90688 6.3545C2.90554 6.33553 2.90794 6.31647 2.91396 6.29843C2.95828 6.16548 2.99668 6.02957 3.02918 5.89366C2.90214 5.82275 2.77805 5.74889 2.65986 5.66912C2.62816 5.64754 2.60631 5.61427 2.59911 5.57661C2.59191 5.53894 2.59995 5.49995 2.62146 5.46821C2.63191 5.45227 2.64541 5.43856 2.66117 5.42785C2.67694 5.41714 2.69466 5.40965 2.71332 5.40581C2.73199 5.40196 2.75123 5.40184 2.76995 5.40545C2.78866 5.40906 2.80647 5.41633 2.82237 5.42684C2.96318 5.52246 3.10916 5.61025 3.25964 5.6898C3.28772 5.704 3.31041 5.72697 3.32427 5.75523C3.33814 5.78348 3.34241 5.81549 3.33646 5.84639C3.29662 6.02906 3.24731 6.20953 3.18873 6.38707C3.17829 6.41531 3.1593 6.4396 3.13441 6.45654C3.10952 6.47349 3.07997 6.48225 3.04987 6.48161Z" fill="#B7B7B7"/>
<path d="M3.04987 6.55587C3.02742 6.56011 3.00438 6.56011 2.98192 6.55587C2.95483 6.54716 2.92983 6.53296 2.90847 6.51415C2.88712 6.49534 2.86988 6.47233 2.85783 6.44655C2.84455 6.42132 2.83641 6.3937 2.83387 6.3653C2.83133 6.3369 2.83446 6.30828 2.84306 6.2811C2.88147 6.16882 2.91397 6.05064 2.94351 5.93542C2.83124 5.87337 2.72192 5.80542 2.61851 5.73451C2.59481 5.71858 2.57451 5.6981 2.55878 5.67426C2.54306 5.65042 2.53223 5.6237 2.52692 5.59564C2.52102 5.56777 2.52085 5.53899 2.52644 5.51105C2.53203 5.48311 2.54325 5.4566 2.55942 5.43314C2.59169 5.38728 2.64035 5.35558 2.69534 5.34458C2.75033 5.33358 2.80744 5.34413 2.85487 5.37405C2.99078 5.46564 3.15033 5.55132 3.28624 5.6311C3.32851 5.65326 3.36236 5.68866 3.38264 5.73187C3.40291 5.77508 3.40848 5.82374 3.3985 5.87042C3.35931 6.05518 3.30999 6.23765 3.25078 6.41701C3.23491 6.45751 3.20731 6.49237 3.17152 6.5171C3.13573 6.54184 3.09337 6.55534 3.04987 6.55587ZM2.75442 5.47155C2.74259 5.47136 2.73092 5.47426 2.72056 5.47996C2.7102 5.48566 2.7015 5.49396 2.69533 5.50405C2.69158 5.51242 2.68964 5.52148 2.68964 5.53064C2.68964 5.53981 2.69158 5.54887 2.69533 5.55723C2.69933 5.57517 2.70985 5.59097 2.72487 5.60155C2.83911 5.67837 2.96025 5.75223 3.08828 5.82314L3.13556 5.84973V5.90292C3.10306 6.04178 3.06464 6.18064 3.02032 6.31655C3.01675 6.32496 3.0149 6.334 3.0149 6.34314C3.0149 6.35228 3.01675 6.36132 3.02032 6.36973C3.02454 6.37808 3.03037 6.38551 3.03746 6.39159C3.04456 6.39768 3.0528 6.4023 3.06169 6.40519C3.07933 6.41084 3.09847 6.40936 3.11503 6.40108C3.1316 6.3928 3.14426 6.37837 3.15032 6.36087C3.20855 6.18546 3.25689 6.00692 3.2951 5.8261C3.29777 5.8112 3.2958 5.79585 3.28946 5.78211C3.28312 5.76837 3.27271 5.75691 3.25964 5.74928C3.10562 5.66986 2.95664 5.58106 2.81351 5.48337C2.80416 5.47464 2.79245 5.46887 2.77983 5.46677C2.76722 5.46467 2.75427 5.46633 2.7426 5.47155H2.75442Z" fill="#B7B7B7"/>
<path d="M4.23469 5.83212C4.21567 5.831 4.19706 5.82612 4.17992 5.81778C4.16278 5.80944 4.14746 5.7978 4.13484 5.78353C4.12221 5.76926 4.11252 5.75263 4.10634 5.7346C4.10015 5.71658 4.09759 5.69751 4.09879 5.67849C4.09879 5.53667 4.09879 5.38304 4.09879 5.25894C3.95992 5.22349 3.82106 5.17917 3.6881 5.1319C3.66893 5.12656 3.65106 5.11733 3.63562 5.10478C3.62017 5.09223 3.60749 5.07663 3.59834 5.05896C3.5892 5.04128 3.5838 5.02191 3.58247 5.00205C3.58115 4.9822 3.58393 4.96228 3.59065 4.94355C3.59737 4.92482 3.60788 4.90767 3.62152 4.89318C3.63517 4.87869 3.65165 4.86717 3.66994 4.85934C3.68824 4.85151 3.70795 4.84753 3.72785 4.84766C3.74775 4.84779 3.76741 4.85202 3.78561 4.86008C3.9455 4.91671 4.10822 4.96503 4.27311 5.00485C4.30338 5.01196 4.33049 5.02883 4.35024 5.05285C4.36999 5.07687 4.3813 5.10673 4.38242 5.13781C4.39278 5.3238 4.39278 5.51022 4.38242 5.69622C4.38014 5.73357 4.36347 5.76859 4.33593 5.79393C4.30839 5.81927 4.27211 5.83296 4.23469 5.83212Z" fill="#B7B7B7"/>
<path d="M4.23468 5.90597C4.17719 5.90217 4.12352 5.87583 4.08535 5.83268C4.04717 5.78952 4.02757 5.73304 4.03081 5.67552C4.03081 5.55143 4.03081 5.43325 4.03081 5.31507C3.90672 5.28257 3.78559 5.24416 3.67036 5.20279C3.61551 5.1836 3.57053 5.14339 3.54532 5.09103C3.52011 5.03867 3.51673 4.97844 3.53593 4.92359C3.55513 4.86874 3.59533 4.82376 3.64769 4.79855C3.70005 4.77334 3.76028 4.76996 3.81513 4.78916C3.97172 4.84529 4.13127 4.89257 4.29672 4.93393C4.34265 4.94438 4.38381 4.96977 4.41376 5.00613C4.4437 5.04249 4.46073 5.08776 4.46217 5.13484C4.4725 5.3228 4.4725 5.51119 4.46217 5.69916C4.45911 5.75664 4.43351 5.81059 4.39092 5.84931C4.34833 5.88803 4.29219 5.90839 4.23468 5.90597ZM3.73536 4.92507C3.72091 4.92501 3.70681 4.92956 3.69512 4.93806C3.68343 4.94656 3.67476 4.95857 3.67036 4.97234C3.66443 4.99001 3.66539 5.00927 3.67306 5.02625C3.68074 5.04324 3.69455 5.0567 3.71173 5.06393C3.84173 5.10825 3.97763 5.14961 4.1165 5.18802L4.17264 5.20279V5.25598C4.17264 5.39484 4.17264 5.53666 4.17264 5.68438C4.17181 5.70271 4.17811 5.72065 4.19024 5.73442C4.20236 5.7482 4.21935 5.75674 4.23764 5.75825C4.2468 5.75865 4.25595 5.75718 4.26454 5.75395C4.27313 5.75071 4.28098 5.74577 4.2876 5.73942C4.29423 5.73307 4.29951 5.72544 4.3031 5.717C4.3067 5.70855 4.30855 5.69947 4.30854 5.69029C4.31887 5.50726 4.31887 5.32378 4.30854 5.14075C4.30776 5.12566 4.30218 5.11122 4.29261 5.09953C4.28304 5.08783 4.26999 5.0795 4.25536 5.07575C4.08726 5.0359 3.92153 4.98658 3.75899 4.92802L3.73536 4.92507Z" fill="#B7B7B7"/>
<path d="M5.21569 4.91331C5.18199 4.9132 5.14939 4.90133 5.1235 4.87976C5.09761 4.85819 5.08006 4.82826 5.07387 4.79513C5.04728 4.65922 5.01478 4.52036 4.97637 4.38741C4.8316 4.38741 4.68092 4.38741 4.54796 4.36968C4.50957 4.36521 4.47436 4.34616 4.44961 4.31647C4.42486 4.28677 4.41247 4.2487 4.415 4.21013C4.41875 4.17222 4.43729 4.13731 4.46661 4.11297C4.49592 4.08864 4.53364 4.07684 4.57159 4.08013C4.74155 4.09494 4.91216 4.10086 5.08273 4.09786C5.114 4.09896 5.14421 4.1094 5.16949 4.12783C5.19477 4.14626 5.21395 4.17184 5.22455 4.20127C5.27823 4.37807 5.3226 4.55756 5.3575 4.739C5.3614 4.75762 5.36158 4.77683 5.35804 4.79553C5.35451 4.81422 5.34732 4.83203 5.33689 4.84795C5.32646 4.86387 5.313 4.87757 5.29727 4.88828C5.28155 4.89899 5.26386 4.90649 5.24523 4.91036L5.21569 4.91331Z" fill="#B7B7B7"/>
<path d="M5.21567 4.98727C5.1652 4.98682 5.11643 4.96891 5.07766 4.9366C5.03889 4.90429 5.01249 4.85956 5.00294 4.80999C4.9793 4.69477 4.95271 4.57659 4.92021 4.46136C4.79317 4.46136 4.66612 4.46136 4.53907 4.44068C4.51059 4.4383 4.48286 4.43029 4.4575 4.4171C4.43214 4.40391 4.40965 4.38581 4.39135 4.36386C4.35547 4.31871 4.33757 4.26187 4.34112 4.20431C4.34417 4.17495 4.35307 4.1465 4.36727 4.12062C4.38148 4.09475 4.40071 4.07197 4.42384 4.05363C4.46781 4.01793 4.52405 4.00095 4.58043 4.00636C4.74742 4.02127 4.91509 4.02719 5.08271 4.02409C5.12948 4.02542 5.17478 4.04079 5.21271 4.06818C5.25064 4.09558 5.27946 4.13374 5.29544 4.17772C5.34862 4.355 5.39293 4.54113 5.43134 4.72727C5.43692 4.75522 5.4369 4.78399 5.43129 4.81193C5.42568 4.83987 5.41457 4.86642 5.39864 4.89004C5.38271 4.91367 5.36225 4.9339 5.33845 4.94958C5.31465 4.96525 5.28798 4.97605 5.25998 4.98136L5.21567 4.98727ZM4.5568 4.15409C4.5418 4.15451 4.52731 4.15968 4.51543 4.16886C4.50625 4.17528 4.49859 4.18363 4.49297 4.19333C4.48736 4.20303 4.48393 4.21383 4.48294 4.225C4.48292 4.24327 4.48917 4.26101 4.50066 4.27522C4.51266 4.28954 4.52947 4.29899 4.54794 4.30181C4.6868 4.30181 4.82862 4.31954 4.97043 4.31954H5.02657L5.04135 4.37272C5.07976 4.51159 5.11521 4.65045 5.1418 4.78636C5.14465 4.79982 5.15135 4.81216 5.16109 4.82188C5.17083 4.8316 5.18318 4.83828 5.19665 4.8411C5.21012 4.84392 5.22411 4.84275 5.23693 4.83776C5.24975 4.83276 5.26084 4.82414 5.26885 4.81295C5.2726 4.80459 5.27454 4.79552 5.27454 4.78636C5.27454 4.77719 5.2726 4.76813 5.26885 4.75977C5.23395 4.58027 5.18956 4.40275 5.13589 4.22795C5.13019 4.21362 5.12046 4.20125 5.10787 4.19233C5.09529 4.18342 5.08039 4.17835 5.06498 4.17772C4.89244 4.18077 4.71986 4.17486 4.54794 4.16L4.5568 4.15409Z" fill="#B7B7B7"/>
<path d="M5.94243 3.77578C5.91467 3.77619 5.88738 3.76861 5.86381 3.75395C5.84023 3.73928 5.82137 3.71814 5.80947 3.69306C5.75038 3.567 5.68538 3.44291 5.61447 3.32078C5.47533 3.35866 5.33431 3.38923 5.19197 3.41238C5.1544 3.41837 5.11597 3.40934 5.08501 3.38722C5.05405 3.3651 5.03303 3.33168 5.02652 3.29419C5.02313 3.27537 5.0235 3.25605 5.02761 3.23737C5.03173 3.21869 5.03951 3.201 5.0505 3.18534C5.06148 3.16968 5.07547 3.15636 5.09164 3.14613C5.10781 3.13591 5.12584 3.12899 5.1447 3.12578C5.31327 3.09856 5.48002 3.06106 5.64402 3.01351C5.67447 3.00461 5.70703 3.00617 5.73649 3.01796C5.76595 3.02974 5.79061 3.05106 5.80652 3.07851C5.90442 3.23681 5.99319 3.40056 6.07243 3.56897C6.08869 3.60347 6.09067 3.643 6.07795 3.67896C6.06522 3.71492 6.03882 3.74441 6.00447 3.76101C5.985 3.77006 5.9639 3.77509 5.94243 3.77578Z" fill="#B7B7B7"/>
<path d="M5.94252 3.84982C5.90124 3.84962 5.86084 3.8379 5.82587 3.81598C5.79089 3.79405 5.76273 3.7628 5.74456 3.72573C5.69434 3.61641 5.6382 3.51004 5.57911 3.40664C5.45502 3.43914 5.32798 3.46277 5.20389 3.48641C5.14512 3.49581 5.08502 3.48148 5.03681 3.44658C4.9886 3.41167 4.95625 3.35904 4.94684 3.30027C4.93744 3.2415 4.95176 3.1814 4.98667 3.1332C5.02158 3.08499 5.07421 3.05263 5.13298 3.04323C5.29828 3.01425 5.46198 2.97677 5.62343 2.93095C5.66977 2.91807 5.71906 2.92061 5.76383 2.9382C5.8086 2.95579 5.84644 2.98747 5.87162 3.02845C5.969 3.18907 6.05776 3.35476 6.13752 3.52482C6.14916 3.55137 6.15516 3.58004 6.15516 3.60902C6.15516 3.63801 6.14916 3.66668 6.13752 3.69323C6.12787 3.72027 6.11299 3.74515 6.09373 3.76644C6.07447 3.78773 6.05119 3.80502 6.02525 3.81732C6.00065 3.83457 5.97229 3.84571 5.94252 3.84982ZM5.64707 3.23527L5.67366 3.2855C5.74457 3.40664 5.81253 3.53368 5.87162 3.66073C5.87993 3.67753 5.89433 3.69055 5.91188 3.69713C5.92944 3.70372 5.94884 3.70337 5.96615 3.69618C5.9745 3.69196 5.98193 3.68614 5.98802 3.67904C5.9941 3.67194 5.99873 3.66371 6.00162 3.65482C6.00519 3.64641 6.00703 3.63736 6.00703 3.62823C6.00703 3.61909 6.00519 3.61004 6.00162 3.60163C5.92383 3.43551 5.83703 3.27376 5.74162 3.11709C5.73412 3.10329 5.72208 3.09251 5.70753 3.08659C5.69299 3.08066 5.67684 3.07996 5.66184 3.08459C5.49343 3.13186 5.32206 3.17027 5.15366 3.19982C5.14436 3.2012 5.13546 3.2045 5.12751 3.2095C5.11955 3.2145 5.11273 3.2211 5.10745 3.22887C5.10218 3.23665 5.09857 3.24543 5.09686 3.25467C5.09515 3.26391 5.09537 3.2734 5.09752 3.28254C5.10111 3.30033 5.11139 3.31607 5.12623 3.32651C5.14107 3.33695 5.15934 3.34131 5.1773 3.33868C5.31518 3.31504 5.45404 3.2855 5.59389 3.25004L5.64707 3.23527Z" fill="#B7B7B7"/>
<path d="M6.35902 2.47298C6.33792 2.47321 6.31705 2.46852 6.29807 2.45929C6.2791 2.45006 6.26254 2.43654 6.2497 2.41979C6.15811 2.31048 6.06356 2.20411 5.95425 2.10366C5.8272 2.17752 5.6972 2.24548 5.57015 2.30457C5.53564 2.32083 5.49612 2.32281 5.46016 2.31008C5.4242 2.29736 5.39471 2.27096 5.37811 2.23661C5.36974 2.21942 5.36494 2.2007 5.364 2.1816C5.36305 2.1625 5.36598 2.14341 5.37261 2.12547C5.37923 2.10753 5.38941 2.09111 5.40254 2.07721C5.41567 2.06331 5.43148 2.0522 5.44901 2.04457C5.60424 1.9715 5.75517 1.88963 5.90106 1.79934C5.92851 1.78196 5.96109 1.77453 5.99336 1.7783C6.02563 1.78206 6.05562 1.79679 6.07833 1.82002C6.21291 1.9518 6.34015 2.09087 6.45947 2.23661C6.4834 2.26631 6.49493 2.30411 6.49162 2.34211C6.48832 2.38011 6.47044 2.41536 6.44174 2.44048C6.41765 2.45865 6.38904 2.46989 6.35902 2.47298Z" fill="#B7B7B7"/>
<path d="M6.35904 2.54697C6.32682 2.5469 6.29502 2.53971 6.2659 2.52592C6.23679 2.51213 6.21108 2.49208 6.19062 2.4672C6.11676 2.3756 6.03403 2.28401 5.95131 2.19833C5.83903 2.26038 5.72676 2.31947 5.61154 2.37265C5.55834 2.39342 5.49928 2.39342 5.44608 2.37265C5.41911 2.36277 5.39435 2.34766 5.37321 2.32821C5.35208 2.30875 5.33499 2.28532 5.32292 2.25925C5.31084 2.23318 5.30403 2.20499 5.30286 2.17629C5.30168 2.14759 5.30618 2.11893 5.31608 2.09197C5.32495 2.06452 5.33954 2.03926 5.35889 2.01787C5.37825 1.99648 5.40193 1.97944 5.42836 1.96788C5.58131 1.89628 5.73024 1.81639 5.87449 1.72856C5.91567 1.70284 5.96432 1.69176 6.01257 1.69712C6.06083 1.70248 6.10587 1.72397 6.14039 1.75811C6.27701 1.89178 6.40622 2.03283 6.52745 2.18061C6.55374 2.21258 6.5704 2.25136 6.57552 2.29243C6.58064 2.33351 6.57399 2.37519 6.55635 2.41264C6.53871 2.45009 6.51081 2.48176 6.47588 2.50397C6.44095 2.52618 6.40043 2.53802 6.35904 2.5381V2.54697ZM5.9779 2.0122L6.01927 2.05356C6.11972 2.15401 6.21426 2.26333 6.31472 2.37265C6.32838 2.38532 6.34631 2.39236 6.36494 2.39236C6.38357 2.39236 6.40151 2.38532 6.41517 2.37265C6.42764 2.35948 6.43459 2.34203 6.43459 2.3239C6.43459 2.30576 6.42764 2.28832 6.41517 2.27515C6.29691 2.13034 6.17065 1.99225 6.03699 1.86151C6.02466 1.85217 6.00961 1.84711 5.99414 1.84711C5.97868 1.84711 5.96363 1.85217 5.95131 1.86151C5.80279 1.95341 5.64888 2.03629 5.4904 2.1097C5.48205 2.11391 5.47463 2.11974 5.46854 2.12684C5.46246 2.13394 5.45784 2.14217 5.45495 2.15106C5.44909 2.1683 5.44909 2.187 5.45495 2.20424C5.464 2.22135 5.47858 2.23489 5.49631 2.24265C5.51355 2.2485 5.53224 2.2485 5.54949 2.24265C5.67653 2.18356 5.80358 2.1156 5.92768 2.0447L5.9779 2.0122Z" fill="#B7B7B7"/>
<path d="M5.57313 1.12882C5.55241 1.12859 5.53196 1.124 5.51313 1.11534C5.49429 1.10669 5.47749 1.09417 5.46382 1.0786C5.43693 1.05148 5.42184 1.01485 5.42184 0.976665C5.42184 0.938483 5.43693 0.901847 5.46382 0.874733C5.59326 0.758068 5.7156 0.633756 5.83018 0.502461C5.85242 0.476863 5.88293 0.459884 5.91641 0.454484C5.94989 0.449085 5.9842 0.455607 6.01336 0.472915C6.17965 0.570319 6.34042 0.676845 6.49495 0.792006C6.51071 0.803114 6.52403 0.817318 6.53412 0.83375C6.5442 0.850183 6.55083 0.868499 6.55359 0.887579C6.55636 0.906659 6.5552 0.926104 6.5502 0.944723C6.5452 0.963342 6.53645 0.980745 6.5245 0.995869C6.50158 1.02617 6.46768 1.04625 6.43009 1.05177C6.39251 1.0573 6.35426 1.04783 6.32359 1.02541C6.20836 0.939732 6.09018 0.857005 5.96904 0.783142C5.86955 0.886696 5.76503 0.985299 5.65586 1.0786C5.63471 1.10415 5.60557 1.12185 5.57313 1.12882Z" fill="#B7B7B7"/>
<path d="M5.57307 1.20257C5.52873 1.20287 5.48534 1.18967 5.44867 1.16474C5.412 1.1398 5.38378 1.1043 5.36775 1.06295C5.35173 1.0216 5.34865 0.976361 5.35894 0.933225C5.36922 0.890089 5.39238 0.851101 5.42534 0.821434C5.55452 0.706507 5.67593 0.58313 5.78875 0.452116C5.82194 0.413469 5.86774 0.387817 5.91803 0.379705C5.96833 0.371594 6.01987 0.381546 6.06352 0.407799C6.22898 0.508253 6.39443 0.617571 6.55102 0.732798C6.57411 0.74987 6.59361 0.771321 6.6084 0.795928C6.6232 0.820535 6.633 0.847815 6.63726 0.87621C6.64151 0.904606 6.64012 0.933562 6.63318 0.961423C6.62624 0.989285 6.61389 1.01551 6.59682 1.03859C6.57975 1.06168 6.55829 1.08118 6.53368 1.09597C6.50908 1.11077 6.4818 1.12057 6.45341 1.12482C6.42501 1.12907 6.39605 1.12769 6.36819 1.12075C6.34033 1.11382 6.31411 1.10146 6.29102 1.08439C6.19352 1.01052 6.09307 0.942569 5.99557 0.87757C5.90693 0.972115 5.81534 1.06371 5.7208 1.14643C5.68013 1.18267 5.62754 1.20265 5.57307 1.20257ZM5.96011 0.52598C5.94004 0.52688 5.92105 0.535322 5.90693 0.549617C5.7904 0.683833 5.6661 0.811096 5.53466 0.930751C5.52805 0.937339 5.5228 0.945167 5.51922 0.953786C5.51564 0.962406 5.5138 0.971647 5.5138 0.980979C5.5138 0.990312 5.51564 0.999553 5.51922 1.00817C5.5228 1.01679 5.52805 1.02462 5.53466 1.03121C5.54832 1.04387 5.56626 1.05091 5.58489 1.05091C5.60352 1.05091 5.62145 1.04387 5.63511 1.03121C5.73847 0.937714 5.83708 0.839106 5.93057 0.735752L5.96011 0.679616L6.01329 0.712116C6.13443 0.78598 6.25557 0.868706 6.37375 0.957342C6.39095 0.963425 6.40972 0.963425 6.42693 0.957342C6.43579 0.956356 6.44435 0.95347 6.45199 0.948881C6.45964 0.944293 6.46621 0.938109 6.47125 0.930751C6.47715 0.923325 6.48148 0.914792 6.48402 0.905657C6.48656 0.896523 6.48724 0.886972 6.48602 0.87757C6.48218 0.858772 6.47169 0.841989 6.45647 0.830297C6.30579 0.718024 6.14329 0.611661 5.98375 0.514161C5.97528 0.516809 5.96731 0.520799 5.96011 0.52598Z" fill="#B7B7B7"/>
</svg>
