<svg width="12" height="13" viewBox="0 0 12 13" fill="none" xmlns="http://www.w3.org/2000/svg">
<path d="M3.93162 12.3497C3.61413 12.3259 3.31865 12.1785 3.1087 11.9392C2.89875 11.6998 2.79111 11.3877 2.80891 11.0698C2.97591 7.83572 2.97591 4.5952 2.80891 1.36114C2.78667 1.20042 2.79902 1.03682 2.84511 0.881258C2.8912 0.725698 2.96997 0.581772 3.07617 0.45911C3.18236 0.336448 3.31352 0.237875 3.46088 0.169986C3.60824 0.102098 3.76839 0.0664594 3.93063 0.0654517C4.09287 0.064444 4.25346 0.0980915 4.40165 0.164145C4.54984 0.230198 4.68221 0.327134 4.78992 0.448467C4.89763 0.569801 4.97819 0.712736 5.02621 0.867711C5.07423 1.02269 5.0886 1.18613 5.06837 1.3471C4.81435 4.57646 4.81435 7.82078 5.06837 11.0501C5.07942 11.2102 5.05875 11.3708 5.00754 11.5229C4.95634 11.6749 4.87561 11.8153 4.76998 11.9361C4.66436 12.0568 4.53593 12.1555 4.39206 12.2265C4.24819 12.2975 4.09171 12.3393 3.93162 12.3497ZM3.93162 0.561204C3.74058 0.582442 3.56554 0.677915 3.44425 0.827033C3.32296 0.976151 3.26514 1.16697 3.28325 1.35833C3.45166 4.60078 3.45166 7.84979 3.28325 11.0922C3.26308 11.1887 3.26467 11.2883 3.2879 11.3841C3.31112 11.4798 3.3554 11.5691 3.41751 11.6456C3.47962 11.722 3.558 11.7836 3.64693 11.826C3.73587 11.8683 3.83312 11.8903 3.93162 11.8903C4.03011 11.8903 4.12737 11.8683 4.21631 11.826C4.30524 11.7836 4.38362 11.722 4.44573 11.6456C4.50784 11.5691 4.55211 11.4798 4.57534 11.3841C4.59856 11.2883 4.60015 11.1887 4.57998 11.0922C4.32738 7.85065 4.32738 4.59431 4.57998 1.35272C4.59048 1.25738 4.58201 1.1609 4.55506 1.06884C4.5281 0.976791 4.4832 0.89098 4.42293 0.81636C4.36266 0.741741 4.28822 0.67979 4.20389 0.634071C4.11957 0.588352 4.02704 0.559771 3.93162 0.549978V0.561204Z" fill="#B7B7B7"/>
<path d="M3.93166 12.42C3.5938 12.399 3.27792 12.2453 3.05289 11.9924C2.82787 11.7395 2.71193 11.408 2.73036 11.0699C2.89736 7.83681 2.89736 4.59722 2.73036 1.3641C2.72877 1.00928 2.85649 0.666037 3.08963 0.398562C3.19327 0.27573 3.32208 0.176584 3.46735 0.107824C3.61262 0.0390639 3.77096 0.00229322 3.93166 0C4.26901 0.020987 4.58445 0.174284 4.8094 0.426563C5.03434 0.678843 5.15062 1.00971 5.13296 1.34726C4.88176 4.57485 4.88176 7.81709 5.13296 11.0447C5.13869 11.4008 5.01502 11.7468 4.78492 12.0186C4.68031 12.1434 4.54981 12.2439 4.40247 12.3132C4.25513 12.3825 4.09448 12.419 3.93166 12.42ZM3.93166 0.140339C3.79093 0.142423 3.65226 0.174554 3.52495 0.234578C3.39764 0.294602 3.28463 0.381135 3.19348 0.488381C2.98743 0.73097 2.87669 1.04024 2.88192 1.35848C3.04892 4.59348 3.04892 7.83494 2.88192 11.0699C2.86481 11.3683 2.96502 11.6616 3.16115 11.8871C3.35728 12.1126 3.6338 12.2524 3.93166 12.2769C4.07422 12.2751 4.21473 12.2426 4.34358 12.1816C4.47243 12.1205 4.58659 12.0324 4.67826 11.9232C4.88447 11.6785 4.99513 11.3674 4.98981 11.0475C4.73861 7.81614 4.73861 4.57018 4.98981 1.33884C5.00529 1.04035 4.90316 0.747685 4.70534 0.523629C4.50752 0.299572 4.22976 0.161969 3.93166 0.140339ZM3.93166 11.9288C3.72616 11.9088 3.53642 11.8099 3.4024 11.6529C3.26838 11.4958 3.20052 11.2929 3.21312 11.0868C3.38153 7.8462 3.38153 4.59906 3.21312 1.35848C3.19579 1.1484 3.26122 0.939849 3.39545 0.777308C3.52967 0.614766 3.72209 0.51109 3.93166 0.488381C4.13744 0.50767 4.3276 0.606405 4.46176 0.763624C4.59592 0.920843 4.66351 1.12416 4.65019 1.33042C4.39758 4.57014 4.39758 7.8246 4.65019 11.0643C4.66829 11.2749 4.60322 11.4841 4.46892 11.6473C4.33462 11.8105 4.14176 11.9145 3.93166 11.9372V11.9288ZM3.93166 0.61188C3.76096 0.637652 3.60696 0.728776 3.50221 0.866001C3.39746 1.00322 3.35016 1.1758 3.3703 1.34726C3.53871 4.59158 3.53871 7.84246 3.3703 11.0868C3.35243 11.1736 3.35426 11.2633 3.37568 11.3493C3.39709 11.4353 3.43754 11.5154 3.49404 11.5837C3.55053 11.652 3.62164 11.7068 3.70211 11.7439C3.78258 11.7811 3.87036 11.7997 3.95899 11.7984C4.04761 11.7971 4.13482 11.7759 4.21417 11.7365C4.29353 11.697 4.36301 11.6402 4.41749 11.5703C4.47197 11.5004 4.51007 11.4191 4.52897 11.3325C4.54787 11.2459 4.5471 11.1562 4.5267 11.0699C4.27268 7.82653 4.27268 4.56821 4.5267 1.3248C4.53777 1.15324 4.482 0.984051 4.37107 0.852711C4.26013 0.72137 4.10266 0.638078 3.93166 0.6203V0.61188Z" fill="#B7B7B7"/>
<path d="M4.68758 2.08604L3.11426 3.36328L3.20094 3.47006L4.77426 2.19282L4.68758 2.08604Z" fill="#B7B7B7"/>
<path d="M4.69649 1.99281L3.01373 3.35791L3.18879 3.57371L4.87155 2.2086L4.69649 1.99281Z" fill="#B7B7B7"/>
<path d="M4.63926 3.07536L3.06549 4.35205L3.23878 4.56566L4.81255 3.28898L4.63926 3.07536Z" fill="#B7B7B7"/>
<path d="M3.2296 4.66442L2.96857 4.34163L4.65263 2.97754L4.91367 3.30032L3.2296 4.66442ZM3.16504 4.36128L3.25205 4.46513L4.71438 3.27787L4.63018 3.17402L3.16504 4.36128Z" fill="#B7B7B7"/>
<path d="M1.19219 12.3495C0.874429 12.3264 0.578513 12.1792 0.36842 11.9397C0.158328 11.7002 0.0509398 11.3876 0.0694751 11.0696C0.23788 7.83557 0.23788 4.59497 0.0694751 1.36094C0.0486137 1.04119 0.154874 0.726143 0.365133 0.484344C0.575393 0.242545 0.872637 0.0935652 1.19219 0.0698242C1.50943 0.0928889 1.80491 0.239692 2.01492 0.478584C2.22494 0.717476 2.33267 1.02933 2.3149 1.34691C2.06229 4.57632 2.06229 7.82053 2.3149 11.0499C2.32332 11.7741 1.81529 12.3495 1.19219 12.3495ZM1.19219 0.561011C1.00144 0.58294 0.826841 0.678602 0.705688 0.827551C0.584535 0.9765 0.526442 1.16693 0.54382 1.35814C0.712227 4.60059 0.712227 7.8496 0.54382 11.092C0.528788 11.2816 0.588024 11.4695 0.709011 11.6162C0.829999 11.7628 1.00326 11.8567 1.19219 11.8779C1.38344 11.8567 1.55874 11.7613 1.68048 11.6123C1.80222 11.4633 1.86069 11.2725 1.84336 11.0808C1.58794 7.83934 1.58794 4.58278 1.84336 1.34129C1.86062 1.15026 1.80198 0.96011 1.68012 0.811983C1.55825 0.663856 1.38297 0.569664 1.19219 0.549785V0.561011Z" fill="#B7B7B7"/>
<path d="M1.19202 12.42C0.856159 12.3962 0.543125 12.2413 0.320476 11.9887C0.0978277 11.7361 -0.0165803 11.4061 0.00194459 11.0699C0.170354 7.83685 0.170354 4.59719 0.00194459 1.3641C-0.00276076 1.01073 0.120905 0.667657 0.349986 0.398562C0.453633 0.27573 0.582445 0.176584 0.727712 0.107824C0.87298 0.0390639 1.03132 0.00229322 1.19202 0C1.52937 0.020987 1.8448 0.174284 2.06975 0.426563C2.2947 0.678843 2.41098 1.00971 2.39332 1.34726C2.14071 4.57479 2.14071 7.81714 2.39332 11.0447C2.39905 11.4008 2.27538 11.7468 2.04528 12.0186C1.94067 12.1434 1.81017 12.2439 1.66283 12.3132C1.51549 12.3825 1.35484 12.419 1.19202 12.42ZM1.19202 0.140339C1.05027 0.141254 0.9104 0.172835 0.78201 0.232912C0.653619 0.292989 0.53975 0.380141 0.448223 0.488381C0.241389 0.730697 0.129668 1.03993 0.133864 1.35848C0.30227 4.59345 0.30227 7.83498 0.133864 11.0699C0.116107 11.3698 0.217203 11.6647 0.415256 11.8906C0.613309 12.1165 0.892376 12.2552 1.19202 12.2769C1.33462 12.2753 1.47518 12.2429 1.60406 12.1818C1.73294 12.1208 1.84707 12.0325 1.93862 11.9232C2.14296 11.6787 2.25254 11.3689 2.24737 11.0503C1.99418 7.81528 1.99418 4.56543 2.24737 1.33042C2.26133 1.03362 2.15881 0.743101 1.96167 0.520793C1.76453 0.298486 1.48836 0.161966 1.19202 0.140339ZM1.19202 11.9288C0.986519 11.9088 0.796783 11.8099 0.66276 11.6529C0.528737 11.4958 0.460883 11.2929 0.473484 11.0868C0.641892 7.8462 0.641892 4.59906 0.473484 1.35848C0.456154 1.1484 0.521577 0.939849 0.655805 0.777308C0.790033 0.614766 0.982446 0.51109 1.19202 0.488381C1.3983 0.506984 1.58916 0.605426 1.72391 0.762721C1.85866 0.920015 1.92664 1.12372 1.91336 1.33042C1.65795 4.57003 1.65795 7.82471 1.91336 11.0643C1.93142 11.2753 1.86597 11.485 1.73108 11.6482C1.59619 11.8114 1.40263 11.9152 1.19202 11.9372V11.9288ZM1.19202 0.61188C1.02017 0.634371 0.863783 0.722775 0.755896 0.85842C0.648009 0.994065 0.597064 1.16633 0.613823 1.33884C0.782232 4.58316 0.782232 7.83404 0.613823 11.0784C0.60092 11.2483 0.6537 11.4166 0.76128 11.5487C0.868859 11.6809 1.02304 11.7667 1.19202 11.7885C1.36438 11.7667 1.52146 11.6785 1.62993 11.5428C1.7384 11.4071 1.78973 11.2345 1.77302 11.0615C1.5176 7.81816 1.5176 4.55974 1.77302 1.31638C1.78283 1.14823 1.72821 0.982666 1.62028 0.853358C1.51235 0.724049 1.35921 0.640712 1.19202 0.6203V0.61188Z" fill="#B7B7B7"/>
<path d="M1.74578 8.50779L0.174194 9.78271L0.347484 9.99633L1.91907 8.72141L1.74578 8.50779Z" fill="#B7B7B7"/>
<path d="M0.338789 10.0907L0.0777588 9.7679L1.76183 8.40381L2.02286 8.72659L0.338789 10.0907ZM0.282654 9.79036L0.366857 9.89421L1.82919 8.70694L1.74499 8.60309L0.282654 9.79036Z" fill="#B7B7B7"/>
<path d="M1.78627 9.59883L0.214905 10.874L0.301567 10.9808L1.87293 9.70562L1.78627 9.59883Z" fill="#B7B7B7"/>
<path d="M1.79698 9.49985L0.116882 10.8638L0.292014 11.0795L1.97211 9.71558L1.79698 9.49985Z" fill="#B7B7B7"/>
<path d="M8.2004 12.1961C8.18234 12.1961 8.16445 12.1926 8.14777 12.1857C8.13108 12.1788 8.11592 12.1686 8.10315 12.1559C8.09038 12.1431 8.08025 12.1279 8.07334 12.1112C8.06642 12.0945 8.06287 12.0767 8.06287 12.0586V1.18233C8.06287 1.14511 8.07765 1.10941 8.10397 1.08309C8.13029 1.05678 8.16598 1.04199 8.20321 1.04199C8.24043 1.04199 8.27612 1.05678 8.30244 1.08309C8.32876 1.10941 8.34354 1.14511 8.34354 1.18233V12.0586C8.34356 12.0771 8.33983 12.0955 8.33257 12.1126C8.32531 12.1296 8.31467 12.145 8.3013 12.1579C8.28793 12.1707 8.27209 12.1807 8.25476 12.1873C8.23742 12.1939 8.21893 12.1969 8.2004 12.1961Z" fill="#B7B7B7"/>
<path d="M8.20038 12.277C8.14529 12.277 8.09246 12.2551 8.05351 12.2162C8.01456 12.1772 7.99268 12.1244 7.99268 12.0693V1.18182C7.99268 1.12674 8.01456 1.07391 8.05351 1.03496C8.09246 0.996007 8.14529 0.974121 8.20038 0.974121C8.25546 0.974121 8.30829 0.996007 8.34724 1.03496C8.3862 1.07391 8.40808 1.12674 8.40808 1.18182V12.0581C8.4096 12.0863 8.40536 12.1145 8.39561 12.141C8.38586 12.1675 8.3708 12.1918 8.35136 12.2123C8.33192 12.2328 8.3085 12.2491 8.28254 12.2602C8.25658 12.2713 8.22862 12.2771 8.20038 12.277ZM8.20038 1.12569C8.19153 1.12569 8.18277 1.12743 8.1746 1.13082C8.16643 1.1342 8.159 1.13917 8.15274 1.14542C8.14649 1.15168 8.14153 1.1591 8.13814 1.16727C8.13476 1.17544 8.13301 1.1842 8.13301 1.19305V12.0693C8.13301 12.0872 8.14011 12.1043 8.15274 12.117C8.16538 12.1296 8.18251 12.1367 8.20038 12.1367C8.21824 12.1367 8.23538 12.1296 8.24801 12.117C8.26064 12.1043 8.26774 12.0872 8.26774 12.0693V1.18182C8.26774 1.17298 8.266 1.16422 8.26261 1.15605C8.25923 1.14787 8.25427 1.14045 8.24801 1.13419C8.24176 1.12794 8.23433 1.12298 8.22616 1.11959C8.21798 1.11621 8.20922 1.11446 8.20038 1.11446V1.12569Z" fill="#B7B7B7"/>
<path d="M6.71576 2.03185C6.58139 2.02997 6.44911 1.99834 6.32842 1.93922C6.31115 1.93166 6.2957 1.92048 6.28311 1.90644C6.27052 1.8924 6.26109 1.87582 6.25545 1.85783C6.17405 1.61083 6.20493 1.50979 6.39017 1.41155C6.59795 1.29771 6.76629 1.1235 6.87294 0.911942C7.22379 0.350586 7.67848 0.156919 8.15844 0.381461C8.19222 0.398348 8.21831 0.427449 8.23142 0.46286C8.31282 0.709856 8.28194 0.8109 8.09669 0.909137C7.88828 1.02343 7.71982 1.19874 7.61393 1.41155C7.53112 1.58414 7.40471 1.73215 7.24719 1.84093C7.08967 1.94972 6.90649 2.01553 6.71576 2.03185ZM6.49964 1.71468C6.66524 1.78204 7.01328 1.85783 7.37816 1.2656C7.51088 1.01219 7.71608 0.80406 7.96758 0.667754L7.99846 0.650914V0.606004C7.83286 0.538641 7.48482 0.465667 7.11994 1.05509C6.98735 1.3086 6.78212 1.51676 6.53051 1.65293L6.49964 1.66978C6.49964 1.66978 6.49402 1.69503 6.49964 1.71468Z" fill="#B7B7B7"/>
<path d="M6.71564 2.10224C6.57076 2.1002 6.42806 2.06668 6.29743 2.004C6.24442 1.98323 6.20128 1.9431 6.17674 1.89173C6.08411 1.61105 6.12902 1.47913 6.34514 1.36125C6.54166 1.25246 6.70103 1.08722 6.80265 0.8869C7.17314 0.286249 7.66152 0.0897744 8.17516 0.325544C8.20098 0.337415 8.22404 0.354525 8.24288 0.375785C8.26172 0.397046 8.27594 0.421993 8.28463 0.449043C8.37725 0.729721 8.33515 0.864446 8.11903 0.979524C7.9221 1.08906 7.76268 1.25532 7.66152 1.45668C7.40611 1.87489 7.07771 2.10224 6.71564 2.10224ZM7.76818 0.359224C7.58938 0.378078 7.41831 0.44206 7.27102 0.545162C7.12373 0.648264 7.00506 0.787106 6.92615 0.948649C6.81433 1.17135 6.63706 1.3545 6.41812 1.47352C6.27217 1.55211 6.24129 1.60824 6.31708 1.83559C6.31932 1.84462 6.3235 1.85306 6.32931 1.86033C6.33513 1.86759 6.34244 1.87352 6.35076 1.87769C6.79423 2.08259 7.22086 1.90295 7.54644 1.37247C7.66073 1.1506 7.83859 0.967859 8.05728 0.847605C8.20323 0.771822 8.23411 0.712881 8.15832 0.485532C8.15184 0.46812 8.13872 0.453989 8.12183 0.446238C8.01171 0.391782 7.891 0.362081 7.76818 0.359224ZM6.71283 1.82998C6.62979 1.82954 6.54769 1.81236 6.47145 1.77946H6.44057V1.74577C6.44057 1.72051 6.44057 1.70648 6.44057 1.69525V1.64473L6.51355 1.60263C6.75322 1.47671 6.94899 1.28095 7.07491 1.04127C7.43137 0.479918 7.79625 0.479918 8.04044 0.564122L8.07412 0.578157V0.609027C8.07542 0.62678 8.07542 0.644604 8.07412 0.662357V0.710071L7.99834 0.752176C7.76109 0.881366 7.56617 1.07628 7.43698 1.31353C7.18718 1.70929 6.92895 1.82998 6.71283 1.82998ZM6.62021 1.67841C6.8672 1.72894 7.10297 1.58017 7.3191 1.22933C7.45172 0.988078 7.64527 0.785815 7.88045 0.642711C7.63346 0.592189 7.39769 0.743753 7.18156 1.09179C7.04894 1.33304 6.85539 1.53531 6.62021 1.67841Z" fill="#B7B7B7"/>
<path d="M8.20031 2.85991C8.13651 2.85918 8.07554 2.83351 8.03043 2.7884C7.98532 2.74329 7.95965 2.68232 7.95892 2.61853V0.836223C7.95527 0.802529 7.95876 0.768443 7.96916 0.736185C7.97955 0.703928 7.99663 0.674218 8.01927 0.648996C8.0419 0.623774 8.0696 0.603604 8.10055 0.589795C8.1315 0.575985 8.16501 0.568848 8.1989 0.568848C8.2328 0.568848 8.26631 0.575985 8.29726 0.589795C8.32821 0.603604 8.3559 0.623774 8.37854 0.648996C8.40118 0.674218 8.41825 0.703928 8.42865 0.736185C8.43904 0.768443 8.44253 0.802529 8.43888 0.836223V2.61853C8.43889 2.68206 8.41384 2.74304 8.36918 2.78823C8.32452 2.83342 8.26384 2.85917 8.20031 2.85991Z" fill="#B7B7B7"/>
<path d="M8.20022 2.93006C8.1176 2.93006 8.03835 2.89724 7.97992 2.83881C7.9215 2.78039 7.88867 2.70114 7.88867 2.61851V0.836208C7.88456 0.793 7.88952 0.749406 7.90323 0.708225C7.91695 0.667045 7.93911 0.629183 7.96831 0.597069C7.99751 0.564956 8.0331 0.539301 8.0728 0.521743C8.11249 0.504186 8.15542 0.495117 8.19882 0.495117C8.24223 0.495117 8.28515 0.504186 8.32485 0.521743C8.36454 0.539301 8.40013 0.564956 8.42933 0.597069C8.45853 0.629183 8.4807 0.667045 8.49441 0.708225C8.50813 0.749406 8.51308 0.793 8.50897 0.836208V2.61851C8.50897 2.70066 8.47654 2.77948 8.41871 2.83782C8.36089 2.89617 8.28237 2.92932 8.20022 2.93006ZM8.20022 0.664995C8.15482 0.664995 8.11127 0.683033 8.07916 0.715142C8.04705 0.747251 8.02901 0.7908 8.02901 0.836208V2.61851C8.0259 2.64264 8.02797 2.66716 8.03508 2.69043C8.04219 2.7137 8.05418 2.73519 8.07025 2.75346C8.08632 2.77173 8.1061 2.78636 8.12827 2.79639C8.15044 2.80642 8.17449 2.8116 8.19882 2.8116C8.22315 2.8116 8.2472 2.80642 8.26937 2.79639C8.29154 2.78636 8.31132 2.77173 8.32739 2.75346C8.34346 2.73519 8.35545 2.7137 8.36256 2.69043C8.36967 2.66716 8.37174 2.64264 8.36863 2.61851V0.836208C8.369 0.813858 8.36492 0.791657 8.35663 0.7709C8.34833 0.750143 8.33598 0.731241 8.32031 0.715305C8.30463 0.699368 8.28594 0.686713 8.26532 0.678074C8.24471 0.669436 8.22258 0.664992 8.20022 0.664995Z" fill="#B7B7B7"/>
<path d="M8.80671 10.8145C8.80671 10.9212 8.52603 11.0054 8.20044 11.0054C7.87485 11.0054 7.59137 10.9212 7.59137 10.8145C7.59137 10.7079 7.87205 10.6265 8.20044 10.6265C8.52883 10.6265 8.80671 10.7107 8.80671 10.8145Z" fill="#B7B7B7"/>
<path d="M8.20036 11.0759C7.86354 11.0759 7.52112 10.9945 7.52112 10.8149C7.52112 10.6352 7.94775 10.5566 8.20036 10.5566C8.45297 10.5566 8.87679 10.61 8.87679 10.8149C8.87679 11.0198 8.45297 11.0759 8.20036 11.0759ZM8.20036 10.697C7.85232 10.697 7.67549 10.784 7.66146 10.8177C7.82276 10.9164 8.01258 10.9579 8.20036 10.9356C8.38764 10.9587 8.57715 10.916 8.73645 10.8149C8.71681 10.7784 8.53998 10.697 8.20036 10.697Z" fill="#B7B7B7"/>
<path d="M10.6677 12.1952C10.6497 12.1952 10.6318 12.1916 10.6151 12.1847C10.5984 12.1778 10.5833 12.1676 10.5705 12.1549C10.5577 12.1421 10.5476 12.1269 10.5407 12.1103C10.5338 12.0936 10.5302 12.0757 10.5302 12.0576V1.18135C10.5302 1.14413 10.545 1.10844 10.5713 1.08212C10.5976 1.0558 10.6333 1.04102 10.6706 1.04102C10.7078 1.04102 10.7435 1.0558 10.7698 1.08212C10.7961 1.10844 10.8109 1.14413 10.8109 1.18135V12.0576C10.8109 12.0762 10.8072 12.0945 10.7999 12.1116C10.7927 12.1286 10.782 12.1441 10.7686 12.1569C10.7553 12.1698 10.7394 12.1798 10.7221 12.1863C10.7048 12.1929 10.6863 12.1959 10.6677 12.1952Z" fill="#B7B7B7"/>
<path d="M10.6677 12.2767C10.6126 12.2767 10.5597 12.2548 10.5208 12.2159C10.4818 12.1769 10.46 12.1241 10.46 12.069V1.18151C10.4566 1.1524 10.4594 1.1229 10.4682 1.09495C10.477 1.06699 10.4916 1.04122 10.5111 1.01933C10.5306 0.997433 10.5545 0.979908 10.5812 0.967909C10.608 0.95591 10.6369 0.949707 10.6663 0.949707C10.6956 0.949707 10.7245 0.95591 10.7513 0.967909C10.778 0.979908 10.8019 0.997433 10.8214 1.01933C10.8409 1.04122 10.8555 1.06699 10.8643 1.09495C10.8732 1.1229 10.876 1.1524 10.8726 1.18151V12.0578C10.8741 12.0858 10.8699 12.1137 10.8603 12.1401C10.8508 12.1664 10.8359 12.1905 10.8168 12.211C10.7977 12.2314 10.7746 12.2478 10.749 12.2591C10.7233 12.2704 10.6957 12.2764 10.6677 12.2767ZM10.6677 1.12538C10.6587 1.12498 10.6498 1.12645 10.6414 1.12969C10.6331 1.13294 10.6255 1.13789 10.6191 1.14422C10.6128 1.15056 10.6079 1.15815 10.6046 1.1665C10.6014 1.17485 10.5999 1.18379 10.6003 1.19274V12.069C10.5983 12.0788 10.5984 12.0889 10.6008 12.0987C10.6032 12.1084 10.6077 12.1175 10.614 12.1252C10.6203 12.133 10.6283 12.1392 10.6373 12.1435C10.6464 12.1478 10.6563 12.1501 10.6663 12.1501C10.6763 12.1501 10.6861 12.1478 10.6952 12.1435C10.7042 12.1392 10.7122 12.133 10.7185 12.1252C10.7248 12.1175 10.7293 12.1084 10.7317 12.0987C10.7341 12.0889 10.7343 12.0788 10.7322 12.069V1.18151C10.7326 1.1728 10.7312 1.1641 10.7281 1.15595C10.7251 1.14779 10.7204 1.14033 10.7143 1.13404C10.7083 1.12774 10.7011 1.12274 10.693 1.11932C10.685 1.1159 10.6764 1.11414 10.6677 1.11415V1.12538Z" fill="#B7B7B7"/>
<path d="M9.18866 2.03185C9.05429 2.02997 8.92201 1.99834 8.80132 1.93922C8.78373 1.93217 8.76799 1.92115 8.75534 1.90704C8.74268 1.89292 8.73345 1.87609 8.72835 1.85783C8.64695 1.61083 8.67783 1.50979 8.86307 1.41155C9.07085 1.29771 9.23919 1.1235 9.34584 0.911942C9.69388 0.350586 10.1514 0.156919 10.6313 0.381461C10.648 0.389488 10.6628 0.400859 10.6749 0.414862C10.687 0.428866 10.696 0.445204 10.7015 0.46286C10.7829 0.709856 10.7548 0.8109 10.5696 0.909137C10.3601 1.02297 10.1907 1.19833 10.084 1.41155C10.0021 1.58427 9.87634 1.73247 9.71922 1.84133C9.56209 1.95018 9.37914 2.01588 9.18866 2.03185ZM8.98377 1.71468C9.14656 1.78204 9.49741 1.85783 9.86229 1.2656C9.99426 1.01259 10.1984 0.804503 10.4489 0.667754L10.4798 0.650914C10.4813 0.635982 10.4813 0.620936 10.4798 0.606004C10.3142 0.538641 9.96333 0.465667 9.59845 1.05509C9.46004 1.31294 9.24536 1.52174 8.98377 1.65293L8.95289 1.66978C8.96114 1.68605 8.97152 1.70115 8.98377 1.71468Z" fill="#B7B7B7"/>
<path d="M9.1886 2.10174C9.04372 2.09971 8.90102 2.06618 8.77038 2.0035C8.71954 1.97772 8.68041 1.93358 8.66092 1.88001C8.5683 1.59933 8.6104 1.46461 8.82933 1.34953C9.02585 1.24074 9.18522 1.0755 9.28683 0.875181C9.65733 0.27453 10.1289 0.0780556 10.6593 0.313825C10.7107 0.338891 10.7501 0.383299 10.7688 0.437324C10.8614 0.718002 10.8193 0.852727 10.6004 0.967805C10.4036 1.07665 10.245 1.24318 10.1457 1.44496C10.0568 1.62804 9.92187 1.78486 9.75407 1.90001C9.58626 2.01516 9.39139 2.08468 9.1886 2.10174ZM10.2468 0.36154C10.0675 0.377469 9.89543 0.439982 9.74773 0.542878C9.60003 0.645775 9.48179 0.785481 9.40472 0.948156C9.29203 1.17023 9.11498 1.35315 8.89669 1.47302C8.75074 1.55161 8.71986 1.60775 8.79565 1.8351C8.79789 1.84413 8.80207 1.85257 8.80788 1.85983C8.81369 1.8671 8.82101 1.87302 8.82933 1.8772C9.2728 2.08209 9.69662 1.90246 10.025 1.37198C10.1384 1.1495 10.3165 0.96653 10.5358 0.847111C10.6818 0.771328 10.7127 0.712388 10.6369 0.485039C10.6304 0.467626 10.6173 0.453495 10.6004 0.445744C10.4901 0.39226 10.3694 0.363521 10.2468 0.36154ZM9.18579 1.82948C9.10275 1.82905 9.02065 1.81186 8.94441 1.77896H8.91353V1.74528V1.69195V1.64424L8.95283 1.62178L8.98651 1.60214C9.22494 1.47454 9.42026 1.27921 9.54786 1.04078C9.90432 0.479424 10.2692 0.479425 10.5134 0.563628L10.5443 0.577663V0.608534V0.661863V0.709578L10.4741 0.748873C10.2349 0.881829 10.0398 1.08183 9.91274 1.32426C9.66013 1.70879 9.40191 1.82948 9.18579 1.82948ZM9.09036 1.67792C9.34016 1.72844 9.57593 1.57968 9.79205 1.22883C9.92467 0.987584 10.1182 0.785322 10.3534 0.642218C10.1036 0.591696 9.87064 0.743259 9.65452 1.0913C9.52123 1.33298 9.32665 1.5353 9.09036 1.67792Z" fill="#B7B7B7"/>
<path d="M10.6674 2.85991C10.6357 2.85991 10.6043 2.85367 10.575 2.84154C10.5457 2.82941 10.5191 2.81162 10.4967 2.78921C10.4743 2.76679 10.4565 2.74019 10.4444 2.7109C10.4323 2.68162 10.426 2.65022 10.426 2.61853V0.836223C10.4224 0.802529 10.4259 0.768443 10.4363 0.736185C10.4467 0.703928 10.4637 0.674218 10.4864 0.648996C10.509 0.623774 10.5367 0.603604 10.5677 0.589795C10.5986 0.575985 10.6321 0.568848 10.666 0.568848C10.6999 0.568848 10.7334 0.575985 10.7644 0.589795C10.7953 0.603604 10.823 0.623774 10.8456 0.648996C10.8683 0.674218 10.8854 0.703928 10.8958 0.736185C10.9061 0.768443 10.9096 0.802529 10.906 0.836223V2.61853C10.906 2.68206 10.8809 2.74304 10.8363 2.78823C10.7916 2.83342 10.7309 2.85917 10.6674 2.85991Z" fill="#B7B7B7"/>
<path d="M10.6674 2.93006C10.5848 2.93006 10.5055 2.89724 10.4471 2.83881C10.3887 2.78039 10.3558 2.70114 10.3558 2.61851V0.836208C10.3517 0.793 10.3567 0.749406 10.3704 0.708225C10.3841 0.667045 10.4063 0.629183 10.4355 0.597069C10.4647 0.564956 10.5003 0.539301 10.54 0.521743C10.5797 0.504186 10.6226 0.495117 10.666 0.495117C10.7094 0.495117 10.7523 0.504186 10.792 0.521743C10.8317 0.539301 10.8673 0.564956 10.8965 0.597069C10.9257 0.629183 10.9479 0.667045 10.9616 0.708225C10.9753 0.749406 10.9802 0.793 10.9761 0.836208V2.61851C10.9761 2.70066 10.9437 2.77948 10.8859 2.83782C10.8281 2.89617 10.7495 2.92932 10.6674 2.93006ZM10.6674 0.664995C10.622 0.664995 10.5784 0.683033 10.5463 0.715142C10.5142 0.747251 10.4962 0.7908 10.4962 0.836208V2.61851C10.4931 2.64264 10.4951 2.66716 10.5022 2.69043C10.5094 2.7137 10.5213 2.73519 10.5374 2.75346C10.5535 2.77173 10.5733 2.78636 10.5954 2.79639C10.6176 2.80642 10.6417 2.8116 10.666 2.8116C10.6903 2.8116 10.7144 2.80642 10.7365 2.79639C10.7587 2.78636 10.7785 2.77173 10.7946 2.75346C10.8106 2.73519 10.8226 2.7137 10.8297 2.69043C10.8368 2.66716 10.8389 2.64264 10.8358 2.61851V0.836208C10.8362 0.813858 10.8321 0.791657 10.8238 0.7709C10.8155 0.750143 10.8031 0.731241 10.7875 0.715305C10.7718 0.699368 10.7531 0.686713 10.7325 0.678074C10.7119 0.669436 10.6897 0.664992 10.6674 0.664995Z" fill="#B7B7B7"/>
<path d="M11.2796 10.8145C11.2796 10.9212 10.9989 11.0054 10.6733 11.0054C10.3478 11.0054 10.0643 10.9212 10.0643 10.8145C10.0643 10.7079 10.3449 10.6265 10.6733 10.6265C11.0017 10.6265 11.2796 10.7107 11.2796 10.8145Z" fill="#B7B7B7"/>
<path d="M10.6676 11.0759C10.328 11.0759 9.98834 10.9945 9.98834 10.8149C9.98834 10.6352 10.415 10.5566 10.6676 10.5566C10.9202 10.5566 11.344 10.61 11.344 10.8149C11.344 11.0198 11.01 11.0759 10.6676 11.0759ZM10.6676 10.697C10.3195 10.697 10.1427 10.784 10.1287 10.8177C10.1146 10.8514 10.3195 10.9356 10.6676 10.9356C10.8548 10.958 11.0441 10.9154 11.2037 10.8149C11.0432 10.7168 10.8544 10.6753 10.6676 10.697Z" fill="#B7B7B7"/>
</svg>
