<svg width="14" height="10" viewBox="0 0 14 10" fill="none" xmlns="http://www.w3.org/2000/svg">
<path d="M13.8126 6.27739C13.7782 5.48557 13.6405 4.60768 13.4339 3.78143C13.2274 2.98961 12.9692 2.24944 12.6593 1.68139C11.4544 -0.435865 10.1462 -0.108809 8.57974 0.304314C8.08055 0.424808 7.54693 0.562516 6.9961 0.614156H6.82397C6.27314 0.562516 5.73952 0.424808 5.24033 0.304314C3.6739 -0.091596 2.36567 -0.435865 1.16073 1.6986C0.850889 2.26665 0.575473 3.00683 0.386125 3.79865C0.179563 4.62489 0.0418551 5.50278 0.00742818 6.2946C-0.0269988 7.17249 0.0590686 7.80939 0.248417 8.25694C0.437765 8.67006 0.713181 8.92826 1.07466 9.03154C1.40172 9.11761 1.78042 9.08318 2.17633 8.91105C2.84765 8.63563 3.62226 8.05037 4.37965 7.34462C4.91327 6.82822 5.91165 6.57002 6.91003 6.57002C7.90842 6.57002 8.9068 6.82822 9.44042 7.34462C10.1978 8.05037 10.9724 8.63563 11.6437 8.91105C12.0396 9.06597 12.4183 9.11761 12.7454 9.03154C13.0897 8.92826 13.3823 8.68727 13.5716 8.23972C13.761 7.80939 13.8471 7.17249 13.8126 6.27739ZM12.9864 7.99873C12.8831 8.23972 12.7454 8.37743 12.5733 8.42907C12.3839 8.48071 12.1429 8.44628 11.8675 8.343C11.265 8.10202 10.5593 7.5684 9.87075 6.91429C9.21664 6.26017 8.06334 5.93312 6.91003 5.93312C5.75673 5.93312 4.60343 6.26017 3.9321 6.87986C3.22635 7.53397 2.5206 8.0848 1.93534 8.30858C1.65992 8.41186 1.41893 8.4635 1.22959 8.39464C1.05745 8.343 0.919743 8.2053 0.816462 7.96431C0.678754 7.63725 0.6099 7.10363 0.644327 6.31181C0.678754 5.57164 0.799248 4.72817 1.00581 3.93636C1.19516 3.19618 1.43615 2.50764 1.72878 1.99123C2.67552 0.2871 3.77718 0.562516 5.0854 0.906785C5.61902 1.04449 6.16985 1.1822 6.77233 1.23384C6.78954 1.23384 6.78954 1.23384 6.80675 1.23384H6.9961C7.01331 1.23384 7.01331 1.23384 7.03053 1.23384C7.65021 1.1822 8.20105 1.04449 8.73466 0.906785C10.0429 0.579729 11.1445 0.2871 12.0913 1.99123C12.3839 2.50764 12.6249 3.17896 12.8143 3.93636C13.0036 4.72817 13.1413 5.55442 13.1757 6.31181C13.2102 7.10363 13.1413 7.63725 12.9864 7.99873Z" fill="#B7B7B7"/>
<path d="M5.32634 2.92076C5.15421 2.76584 4.94764 2.64535 4.70666 2.62813C4.68944 2.40436 4.58616 2.18058 4.43124 2.02566L4.41403 2.00845C4.22468 1.8191 3.98369 1.71582 3.70827 1.71582C3.43286 1.71582 3.17466 1.83631 3.00252 2.00845C2.8476 2.16337 2.72711 2.38715 2.70989 2.62813C2.4689 2.64535 2.26234 2.74863 2.09021 2.90355L2.07299 2.92076C1.88365 3.11011 1.78036 3.3511 1.78036 3.62652C1.78036 3.90193 1.90086 4.16014 2.07299 4.33227C2.24513 4.5044 2.45169 4.60769 2.70989 4.6249C2.72711 4.86589 2.83039 5.08966 3.00252 5.24458C3.19187 5.43393 3.43286 5.53721 3.70827 5.53721C3.98369 5.53721 4.24189 5.41672 4.41403 5.24458C4.56895 5.07245 4.68944 4.86589 4.70666 4.6249C4.94764 4.60769 5.17142 4.5044 5.32634 4.33227C5.51569 4.14292 5.61897 3.90193 5.61897 3.62652C5.61897 3.3511 5.49848 3.0929 5.32634 2.92076ZM4.896 3.88472C4.82715 3.95357 4.74108 3.988 4.6378 3.988H4.39681C4.22468 3.988 4.06976 4.12571 4.06976 4.31506V4.53883C4.06976 4.64211 4.03533 4.72818 3.96648 4.79703C3.89762 4.86589 3.81156 4.90031 3.70827 4.90031C3.60499 4.90031 3.51893 4.86589 3.45007 4.79703C3.38122 4.72818 3.34679 4.64211 3.34679 4.53883V4.29784C3.34679 4.12571 3.20908 3.97079 3.01974 3.97079H2.77875C2.67547 3.97079 2.5894 3.93636 2.52054 3.86751C2.4689 3.81587 2.41726 3.7298 2.41726 3.62652C2.41726 3.52324 2.45169 3.43717 2.52054 3.36831C2.52054 3.36831 2.52054 3.36831 2.53776 3.3511C2.60661 3.29946 2.69268 3.26503 2.77875 3.26503H3.01974C3.19187 3.26503 3.34679 3.12733 3.34679 2.93798V2.69699C3.34679 2.59371 3.38122 2.50764 3.45007 2.43879C3.51893 2.36993 3.60499 2.33551 3.70827 2.33551C3.81156 2.33551 3.89762 2.36993 3.96648 2.43879C3.96648 2.43879 3.96648 2.43879 3.98369 2.456C4.03533 2.52485 4.06976 2.61092 4.06976 2.69699V2.93798C4.06976 3.11011 4.20747 3.26503 4.39681 3.26503H4.6378C4.74108 3.26503 4.82715 3.29946 4.896 3.36831C4.96486 3.43717 4.99928 3.52324 4.99928 3.62652C4.99928 3.7298 4.96486 3.81587 4.896 3.88472Z" fill="#B7B7B7"/>
<path d="M9.90521 3.0067C10.2379 3.0067 10.5077 2.73696 10.5077 2.40423C10.5077 2.07149 10.2379 1.80176 9.90521 1.80176C9.57248 1.80176 9.30274 2.07149 9.30274 2.40423C9.30274 2.73696 9.57248 3.0067 9.90521 3.0067Z" fill="#B7B7B7"/>
<path d="M9.90522 5.45104C10.238 5.45104 10.5077 5.1813 10.5077 4.84857C10.5077 4.51583 10.238 4.24609 9.90522 4.24609C9.57249 4.24609 9.30275 4.51583 9.30275 4.84857C9.30275 5.1813 9.57249 5.45104 9.90522 5.45104Z" fill="#B7B7B7"/>
<path d="M8.683 4.22887C9.01573 4.22887 9.28547 3.95913 9.28547 3.6264C9.28547 3.29366 9.01573 3.02393 8.683 3.02393C8.35026 3.02393 8.08053 3.29366 8.08053 3.6264C8.08053 3.95913 8.35026 4.22887 8.683 4.22887Z" fill="#B7B7B7"/>
<path d="M11.1274 4.22887C11.4601 4.22887 11.7298 3.95913 11.7298 3.6264C11.7298 3.29366 11.4601 3.02393 11.1274 3.02393C10.7946 3.02393 10.5249 3.29366 10.5249 3.6264C10.5249 3.95913 10.7946 4.22887 11.1274 4.22887Z" fill="#B7B7B7"/>
</svg>
