<svg width="13" height="12" viewBox="0 0 13 12" fill="none" xmlns="http://www.w3.org/2000/svg">
<path fill-rule="evenodd" clip-rule="evenodd" d="M5.56866 2.6769L4.05283 5.30487L5.78747 7.08947L5.8953 7.19884L5.8509 7.33701L5.28326 9.06404L5.43865 9.12449L6.78006 7.16431L5.61623 5.87191L5.49255 5.73663L5.5877 5.58119L6.45026 4.17078L6.64688 3.8484L6.91642 4.11897L7.64581 4.85008L8.82867 4.8875L7.83608 4.59966L7.72192 4.568L7.66802 4.47014L7.07183 3.40801L5.56866 2.68265V2.6769ZM3.30761 5.84313L3.32663 6.00431L3.9355 5.96978L3.81182 5.84313H3.30761ZM5.21033 7.28232L5.24838 7.32262L5.21348 7.27369L5.21033 7.28232ZM5.94288 9.38067H5.97458V9.35764V9.38067H5.94288ZM6.29488 8.86255L7.37625 7.2852L7.46505 7.14992L8.63206 6.48501L8.69866 6.64044L6.5232 9.19357L6.29488 8.86255ZM7.12573 6.72679L6.17437 5.68194L6.74836 4.74071L7.28747 5.28184L7.36992 5.36244H7.49358L8.31176 5.38834L8.19125 5.43727L8.28639 5.66467L8.41642 5.98129L7.11621 6.72391L7.12573 6.72679ZM9.6849 4.93643L9.87516 5.31638L8.9238 5.71359L9.04431 6.00143L9.2885 6.59439L9.34558 6.72967L9.55171 7.22475C9.7784 7.17043 10.0117 7.14239 10.2462 7.14128C10.8285 7.14121 11.3949 7.31348 11.8595 7.63198C12.3242 7.95048 12.6618 8.39783 12.821 8.90618C12.9803 9.41454 12.9526 9.95616 12.742 10.4489C12.5315 10.9417 12.1497 11.3587 11.6545 11.6367C11.1593 11.9147 10.5778 12.0386 9.99801 11.9895C9.41826 11.9404 8.87195 11.7211 8.44195 11.3647C8.01194 11.0084 7.72169 10.5345 7.61521 10.0149C7.50874 9.49528 7.59184 8.95833 7.85193 8.48548L6.72298 9.81243L6.46929 10.1003L5.31497 10.0168C5.21218 10.496 4.95504 10.9368 4.57609 11.2833C4.20151 11.6238 3.72404 11.8559 3.20411 11.9501C2.68418 12.0443 2.14515 11.9963 1.65524 11.8124C1.16534 11.6284 0.746559 11.3167 0.451913 10.9166C0.157266 10.5165 0 10.0461 0 9.56488C0 9.08365 0.157266 8.61325 0.451913 8.21318C0.746559 7.81311 1.16534 7.50136 1.65524 7.3174C2.14515 7.13343 2.68418 7.0855 3.20411 7.17968C3.72404 7.27386 4.20151 7.50592 4.57609 7.84648C4.64974 7.9124 4.71858 7.98259 4.78221 8.05661L4.98517 7.94147L3.89745 6.35548L3.13635 6.39865H2.93023L2.90803 6.20868L2.85411 5.69632V5.61861L2.90486 5.55817L2.94926 5.50636L3.01267 5.42864H3.43762L3.36786 5.35668L3.45982 5.19549L5.20398 2.17606L5.34034 1.94291L5.59403 2.06668L7.43333 2.95035L7.51261 2.99064L7.55384 3.06548L8.13735 4.10458L9.53267 4.51907L9.79271 4.59679L9.71978 4.83569L9.69758 4.91628L9.6849 4.93643ZM7.28112 1.49843e-07C7.08789 -8.30101e-05 6.89654 0.0344486 6.71805 0.101624C6.53955 0.168799 6.37744 0.267293 6.24097 0.391457C6.10459 0.51525 5.99639 0.662218 5.92257 0.823962C5.84876 0.985706 5.81078 1.15906 5.81078 1.33413C5.81078 1.5092 5.84876 1.68256 5.92257 1.8443C5.99639 2.00605 6.10459 2.15301 6.24097 2.27681C6.37736 2.4006 6.53927 2.49879 6.71747 2.56579C6.89566 2.63278 7.08665 2.66727 7.27953 2.66727C7.47241 2.66727 7.6634 2.63278 7.8416 2.56579C8.01979 2.49879 8.18172 2.4006 8.31811 2.27681C8.45493 2.15324 8.5635 2.00634 8.63759 1.84457C8.71168 1.68279 8.74981 1.50932 8.74981 1.33413C8.74981 1.15893 8.71168 0.985472 8.63759 0.823698C8.5635 0.661924 8.45493 0.515027 8.31811 0.391457C8.18212 0.267508 8.02053 0.169131 7.84258 0.101958C7.66464 0.0347843 7.47384 0.000138493 7.28112 1.49843e-07ZM7.91536 0.75989C7.83269 0.683302 7.73401 0.622459 7.6251 0.580922C7.5162 0.539385 7.39925 0.517992 7.28112 0.517992C7.16299 0.517992 7.04604 0.539385 6.93713 0.580922C6.82823 0.622459 6.72955 0.683302 6.64688 0.75989C6.47867 0.912569 6.38416 1.11965 6.38416 1.33557C6.38416 1.55149 6.47867 1.75857 6.64688 1.91125C6.81509 2.06393 7.04323 2.1497 7.28112 2.1497C7.519 2.1497 7.74715 2.06393 7.91536 1.91125C7.99935 1.83601 8.06605 1.74638 8.11157 1.64755C8.15709 1.54873 8.18051 1.44268 8.18051 1.33557C8.18051 1.22846 8.15709 1.12241 8.11157 1.02359C8.06605 0.924767 7.99935 0.83513 7.91536 0.75989ZM10.2938 8.99784L9.86566 7.96738C9.99375 7.94182 10.1246 7.92927 10.2557 7.92996C10.6743 7.92788 11.0807 8.05775 11.4056 8.29738C11.7304 8.53701 11.9536 8.87155 12.037 9.24389C12.1203 9.61623 12.0587 10.0033 11.8627 10.339C11.6666 10.6747 11.3483 10.9383 10.962 11.0846C10.5757 11.231 10.1454 11.2512 9.74455 11.1417C9.34371 11.0321 8.99718 10.7997 8.7641 10.4841C8.53102 10.1685 8.42585 9.78928 8.46655 9.41112C8.50724 9.03297 8.69127 8.67936 8.98723 8.41065C9.09439 8.31361 9.21482 8.22944 9.34558 8.16022L9.77051 9.18781C9.67573 9.28438 9.61954 9.40711 9.611 9.53621C9.60246 9.66531 9.64206 9.79326 9.72342 9.89943C9.80478 10.0056 9.92315 10.0838 10.0595 10.1215C10.1958 10.1591 10.3421 10.154 10.4748 10.107C10.6076 10.0599 10.719 9.97367 10.7911 9.86214C10.8632 9.7506 10.8919 9.62027 10.8724 9.49215C10.853 9.36403 10.7865 9.24558 10.6839 9.15591C10.5812 9.06623 10.4482 9.01055 10.3064 8.99784H10.2938ZM2.68287 8.99784C2.57267 8.99854 2.46457 9.0253 2.36923 9.07546C2.27389 9.12563 2.19461 9.19748 2.13917 9.28393C2.08374 9.37038 2.05406 9.46844 2.0531 9.56846C2.05213 9.66849 2.0799 9.76702 2.13366 9.85434C2.18741 9.94165 2.26531 10.0147 2.35967 10.0664C2.45403 10.1181 2.56161 10.1466 2.67178 10.149C2.78195 10.1515 2.89091 10.1278 2.98795 10.0804C3.08499 10.033 3.16674 9.96344 3.22515 9.87862L4.44288 9.96498C4.36517 10.2583 4.19942 10.5263 3.96403 10.7393C3.62397 11.0472 3.16323 11.2202 2.68287 11.2202C2.20251 11.2202 1.74176 11.0472 1.40171 10.7393C1.14891 10.5101 0.976456 10.2182 0.906051 9.90024C0.835646 9.58231 0.870432 9.25257 1.00604 8.95255C1.14165 8.65252 1.37201 8.39561 1.66814 8.21416C1.96426 8.03271 2.31291 7.93483 2.67019 7.93284C3.14605 7.93612 3.6015 8.10871 3.93867 8.41352L4.01795 8.49125L2.98414 9.08131C2.88885 9.02765 2.77915 8.99877 2.66702 8.99784H2.68287ZM8.47984 7.74862L8.93332 7.219L9.01578 7.4176C8.82318 7.50807 8.64324 7.6192 8.47984 7.74862ZM4.35727 8.93164C4.42159 9.06566 4.46533 9.20706 4.48729 9.35188L3.65326 9.33461L4.35727 8.93164Z" fill="#B7B7B7"/>
</svg>
