<svg width="30" height="30" viewBox="0 0 30 30" fill="none" xmlns="http://www.w3.org/2000/svg">
<path d="M24.3844 6.7959H20.1671C19.8677 6.7959 19.625 7.03862 19.625 7.33804V19.2388C19.625 19.5382 19.8677 19.7809 20.1671 19.7809H24.3844C24.6838 19.7809 24.9265 19.5382 24.9265 19.2388V7.33804C24.9265 7.03862 24.6838 6.7959 24.3844 6.7959Z" fill="#FE3C3C"/>
<path d="M6.65557 12.9918C6.23928 12.9918 5.84003 13.1572 5.54567 13.4515C5.25131 13.7459 5.08594 14.1451 5.08594 14.5614C5.08594 14.7675 5.12654 14.9716 5.20542 15.1621C5.2843 15.3525 5.39992 15.5255 5.54568 15.6713C5.69143 15.817 5.86447 15.9326 6.0549 16.0115C6.24534 16.0904 6.44945 16.1309 6.65557 16.1309H6.82506C5.92796 16.1309 5.20083 16.8089 5.20083 17.645C5.20083 18.4811 5.92796 19.1591 6.82506 19.1591H11.7445C11.5395 19.7058 10.5476 23.3205 10.7924 24.5899C10.9353 25.3312 11.4533 26.5102 12.686 26.5906C12.9101 26.6053 13.1288 26.5082 13.3095 26.3875C13.4462 26.2962 13.5574 26.1716 13.6327 26.0255C13.7079 25.8793 13.7448 25.7164 13.7397 25.5521C13.7219 24.9741 13.7161 23.9768 13.8651 23.59C14.0588 23.0874 14.8953 22.3442 15.2585 21.9465C15.7791 21.3763 16.8929 20.2836 17.295 19.6241C17.5775 19.1603 18.0238 17.9122 18.2541 17.2417C18.3524 16.9563 18.4026 16.6565 18.4027 16.3545V10.0522C18.4027 8.59052 17.2179 7.40576 15.7564 7.40576H7.46744C6.75823 7.40576 6.16973 7.97308 6.16501 8.68241C6.16386 8.85195 6.19625 9.02003 6.26033 9.177C6.32441 9.33396 6.41891 9.47669 6.53838 9.59699C6.65785 9.71728 6.79993 9.81275 6.95645 9.8779C7.11297 9.94306 7.28084 9.97661 7.45037 9.97662H6.9948C6.18885 9.97662 5.51306 10.6039 5.47383 11.4088C5.46363 11.6129 5.495 11.8169 5.56605 12.0084C5.6371 12.2 5.74634 12.3751 5.88713 12.5231C6.02793 12.6712 6.19734 12.7891 6.38509 12.8696C6.57284 12.9502 6.775 12.9917 6.9793 12.9918" fill="#FE3C3C"/>
<path d="M15 30C12.9753 30 11.0109 29.6033 9.16101 28.8209C5.56504 27.2974 2.70261 24.435 1.17908 20.839C0.396706 18.9892 0 17.0247 0 15.0001C0 12.9754 0.396706 11.0109 1.17908 9.1611C2.70261 5.56514 5.56504 2.70272 9.16101 1.1792C11.0109 0.396827 12.9753 0 15 0C17.0247 0 18.9891 0.396827 20.839 1.1792C24.435 2.70272 27.2974 5.56514 28.8209 9.1611C29.6033 11.0109 30 12.9754 30 15.0001C30 17.0247 29.6033 18.9892 28.8209 20.839C27.2974 24.435 24.435 27.2974 20.839 28.8209C18.9891 29.6033 17.0247 30 15 30ZM15 1.69843C7.66541 1.69843 1.69844 7.66551 1.69844 15.0001C1.69844 22.3346 7.66541 28.3016 15 28.3016C22.3346 28.3016 28.3016 22.3346 28.3016 15.0001C28.3016 7.66551 22.3346 1.69843 15 1.69843Z" fill="#FE3C3C"/>
</svg>
