<svg width="13" height="13" viewBox="0 0 13 13" fill="none" xmlns="http://www.w3.org/2000/svg">
<path d="M9.46063 11.9813C8.26889 11.9813 6.93658 11.2326 6.93658 10.2303C6.93658 9.22802 8.26889 8.48242 9.46063 8.48242C10.6524 8.48242 11.6852 9.26775 11.6852 10.2303C11.6852 11.1929 10.689 11.9813 9.46063 11.9813ZM9.46063 9.00496C8.45224 9.00496 7.46217 9.61611 7.46217 10.2273C7.46217 10.8384 8.45224 11.4496 9.46063 11.4496C10.3987 11.4496 11.1627 10.8995 11.1627 10.2273C11.1627 9.55499 10.3987 9.00801 9.46063 9.00801V9.00496Z" fill="#B7B7B7"/>
<path d="M9.46068 12.0241C8.23838 12.0241 6.89996 11.2571 6.89996 10.2334C6.89996 9.20974 8.2506 8.4458 9.46068 8.4458C10.6708 8.4458 11.725 9.24946 11.725 10.2334C11.725 11.2174 10.7074 12.0241 9.46068 12.0241ZM9.46068 8.52219C8.28727 8.52219 6.97636 9.25557 6.97636 10.2334C6.97636 11.2112 8.28727 11.9477 9.46068 11.9477C10.6341 11.9477 11.6486 11.1776 11.6486 10.2334C11.6486 9.28919 10.6677 8.52219 9.46068 8.52219ZM9.46068 11.4985C8.43395 11.4985 7.4225 10.8721 7.4225 10.2334C7.4225 9.59476 8.43395 8.97139 9.46068 8.97139C10.4202 8.97139 11.1994 9.5367 11.1994 10.2334C11.1994 10.9301 10.4263 11.4985 9.46068 11.4985ZM9.46068 9.0539C8.47062 9.0539 7.4989 9.64059 7.4989 10.2395C7.4989 10.8384 8.47062 11.4282 9.46068 11.4282C10.3774 11.4282 11.123 10.8965 11.123 10.2395C11.123 9.58254 10.3774 9.04778 9.46068 9.04778V9.0539Z" fill="#B7B7B7"/>
<path d="M3.09238 11.9813C1.87008 11.9813 0.867798 11.1959 0.867798 10.2303C0.867798 9.26469 1.86397 8.48242 3.09238 8.48242C4.32079 8.48242 5.61642 9.23108 5.61642 10.2303C5.61642 11.2295 4.28412 11.9813 3.09238 11.9813ZM3.09238 9.00496C2.15426 9.00496 1.39033 9.55499 1.39033 10.2273C1.39033 10.8995 2.15426 11.4496 3.09238 11.4496C4.10077 11.4496 5.09083 10.8384 5.09083 10.2273C5.09083 9.61611 4.10077 9.00801 3.09238 9.00801V9.00496Z" fill="#B7B7B7"/>
<path d="M3.09228 12.0241C1.84554 12.0241 0.827972 11.2204 0.827972 10.2334C0.827972 9.24641 1.84554 8.4458 3.09228 8.4458C4.33902 8.4458 5.65299 9.21279 5.65299 10.2334C5.65299 11.254 4.31457 12.0241 3.09228 12.0241ZM3.09228 8.52219C1.88526 8.52219 0.904366 9.29224 0.904366 10.2334C0.904366 11.1746 1.88526 11.9477 3.09228 11.9477C4.2993 11.9477 5.5766 11.2143 5.5766 10.2334C5.5766 9.25252 4.26568 8.52219 3.09228 8.52219ZM3.09228 11.4985C2.13278 11.4985 1.35356 10.9332 1.35356 10.2334C1.35356 9.53365 2.13278 8.97139 3.09228 8.97139C4.11901 8.97139 5.13046 9.58254 5.13046 10.2334C5.13046 10.8843 4.11901 11.4985 3.09228 11.4985ZM3.09228 9.0539C2.17556 9.0539 1.42995 9.58559 1.42995 10.2395C1.42995 10.8934 2.17556 11.4282 3.09228 11.4282C4.08234 11.4282 5.05407 10.8415 5.05407 10.2395C5.05407 9.63754 4.08234 9.04778 3.09228 9.04778V9.0539Z" fill="#B7B7B7"/>
<path d="M5.35369 10.3526C5.3081 10.3526 5.26329 10.3408 5.22365 10.3183C5.184 10.2958 5.15089 10.2634 5.12757 10.2242C5.11007 10.1946 5.09863 10.1618 5.09393 10.1277C5.08922 10.0936 5.09135 10.0589 5.10016 10.0257C5.10897 9.9924 5.12431 9.96123 5.14528 9.93394C5.16624 9.90666 5.19242 9.8838 5.22229 9.86672C5.54521 9.6855 5.90929 9.59033 6.27958 9.59033C6.64987 9.59033 7.01395 9.6855 7.33687 9.86672C7.3905 9.90564 7.42744 9.9634 7.4403 10.0284C7.45316 10.0934 7.44098 10.1609 7.40621 10.2173C7.37143 10.2737 7.31663 10.3149 7.25277 10.3326C7.18892 10.3503 7.12072 10.3433 7.06185 10.3129C6.82008 10.1807 6.54899 10.1115 6.27347 10.1115C5.99795 10.1115 5.72685 10.1807 5.48508 10.3129C5.4459 10.3382 5.40036 10.352 5.35369 10.3526Z" fill="#B7B7B7"/>
<path d="M5.3538 10.392C5.30129 10.3915 5.2498 10.3774 5.20431 10.3512C5.15881 10.325 5.12084 10.2874 5.09406 10.2423C5.05506 10.1737 5.04412 10.0926 5.06351 10.0162C5.08383 9.93951 5.13313 9.87377 5.20102 9.8328C5.53062 9.65007 5.90129 9.5542 6.27816 9.5542C6.65503 9.5542 7.02571 9.65007 7.35532 9.8328C7.39925 9.84677 7.43945 9.87049 7.47291 9.90219C7.50638 9.9339 7.53224 9.97276 7.54855 10.0159C7.56487 10.059 7.57122 10.1052 7.56713 10.1511C7.56303 10.1971 7.5486 10.2415 7.52492 10.281C7.50124 10.3206 7.46891 10.3542 7.43037 10.3795C7.39183 10.4048 7.34807 10.421 7.30236 10.427C7.25665 10.433 7.21018 10.4285 7.16643 10.414C7.12269 10.3995 7.0828 10.3753 7.04975 10.3431C6.8149 10.2169 6.55243 10.1508 6.28581 10.1508C6.01919 10.1508 5.75672 10.2169 5.52187 10.3431C5.47182 10.3755 5.41339 10.3924 5.3538 10.392ZM6.31942 9.62196C5.94248 9.62465 5.57201 9.72016 5.24074 9.90003C5.21538 9.91444 5.19312 9.93374 5.17529 9.95682C5.15745 9.97991 5.14439 10.0063 5.13685 10.0345C5.12933 10.0632 5.12762 10.0931 5.13182 10.1225C5.13602 10.1519 5.14603 10.1801 5.16129 10.2056C5.19233 10.2555 5.24135 10.2916 5.29821 10.3063C5.35508 10.3211 5.41545 10.3135 5.46686 10.2851C5.71476 10.1497 5.99268 10.0788 6.27511 10.0788C6.55755 10.0788 6.83546 10.1497 7.08335 10.2851C7.13366 10.3156 7.19401 10.3251 7.25125 10.3113C7.30849 10.2976 7.35798 10.2618 7.38893 10.2117C7.4187 10.1612 7.4277 10.1011 7.41401 10.0441C7.40033 9.9871 7.36505 9.93763 7.31559 9.90614C7.01638 9.72071 6.67143 9.6223 6.31942 9.62196Z" fill="#B7B7B7"/>
<path d="M12.2597 9.53733L11.343 9.37843C11.3323 9.3758 11.3212 9.37581 11.3105 9.37847C11.2999 9.38114 11.29 9.38636 11.2819 9.39371C11.274 9.40121 11.2678 9.41023 11.2636 9.42021C11.2594 9.4302 11.2573 9.44094 11.2574 9.45177V10.2524C11.2576 10.2742 11.2664 10.2951 11.2819 10.3104C11.2955 10.3221 11.3128 10.3286 11.3308 10.3288L12.2475 10.1699C12.2645 10.1664 12.2798 10.1572 12.2909 10.1439C12.302 10.1306 12.3083 10.1139 12.3086 10.0965V9.61372C12.3097 9.59744 12.3055 9.58124 12.2967 9.56749C12.2879 9.55374 12.2749 9.54317 12.2597 9.53733Z" fill="#B7B7B7"/>
<path d="M11.3216 10.3712C11.2916 10.3712 11.2629 10.3593 11.2417 10.3381C11.2205 10.3169 11.2086 10.2882 11.2086 10.2582V9.45756C11.2086 9.44083 11.2121 9.42429 11.219 9.40902C11.2258 9.39375 11.2358 9.38011 11.2483 9.36895C11.2614 9.35841 11.2767 9.35077 11.293 9.34655C11.3094 9.34234 11.3264 9.34164 11.343 9.3445L12.2597 9.50645C12.2859 9.51076 12.3098 9.52414 12.3271 9.54425C12.3444 9.56436 12.3541 9.58993 12.3545 9.61647V10.0993C12.3541 10.1258 12.3444 10.1514 12.3271 10.1715C12.3098 10.1916 12.2859 10.205 12.2597 10.2093L11.343 10.3712H11.3216ZM11.3216 9.42089H11.2972C11.2939 9.42977 11.2939 9.43952 11.2972 9.44839V10.249C11.2939 10.2579 11.2939 10.2676 11.2972 10.2765C11.3051 10.2791 11.3137 10.2791 11.3216 10.2765L12.2383 10.1146C12.2463 10.1127 12.2534 10.1086 12.2589 10.1025C12.2644 10.0965 12.2679 10.089 12.2689 10.0809V9.59813C12.2679 9.59008 12.2644 9.58254 12.2589 9.57653C12.2534 9.57052 12.2463 9.56632 12.2383 9.56451L11.3216 9.40256V9.42089Z" fill="#B7B7B7"/>
<path d="M1.25907 9.39891C1.25106 9.39133 1.24122 9.38594 1.23052 9.38327C1.21981 9.38059 1.2086 9.38072 1.19796 9.38364L0.281233 9.54253C0.264231 9.546 0.248921 9.55516 0.237814 9.56849C0.226706 9.58182 0.220467 9.59853 0.220123 9.61588V10.0987C0.220467 10.116 0.226706 10.1327 0.237814 10.1461C0.248921 10.1594 0.264231 10.1685 0.281233 10.172L1.19796 10.3309C1.21501 10.3308 1.2314 10.3243 1.2438 10.3126C1.25232 10.3055 1.25919 10.2966 1.26394 10.2866C1.26869 10.2766 1.27121 10.2656 1.2713 10.2545V9.45392C1.27317 9.44441 1.27304 9.4346 1.27094 9.42514C1.26883 9.41567 1.2648 9.40674 1.25907 9.39891Z" fill="#B7B7B7"/>
<path d="M1.20997 10.3708H1.18857L0.271851 10.2089C0.245661 10.2046 0.221822 10.1912 0.204503 10.1711C0.187185 10.151 0.17749 10.1254 0.177124 10.0989V9.61606C0.17749 9.58952 0.187185 9.56395 0.204503 9.54384C0.221822 9.52373 0.245661 9.51035 0.271851 9.50605L1.18857 9.34409C1.20471 9.34167 1.22118 9.34259 1.23695 9.3468C1.25272 9.351 1.26746 9.35841 1.28025 9.36854C1.2936 9.37913 1.30438 9.39261 1.31179 9.40795C1.3192 9.4233 1.32304 9.44011 1.32303 9.45715V10.2578C1.32304 10.2748 1.3192 10.2916 1.31179 10.307C1.30438 10.3223 1.2936 10.3358 1.28025 10.3464C1.26014 10.362 1.23544 10.3706 1.20997 10.3708ZM1.20997 9.42048L0.293244 9.58244C0.285114 9.58379 0.277675 9.58785 0.272131 9.59395C0.266587 9.60004 0.263259 9.60783 0.262684 9.61606V10.0989C0.263259 10.1071 0.266587 10.1149 0.272131 10.121C0.277675 10.1271 0.285114 10.1311 0.293244 10.1325L1.20997 10.2944C1.21481 10.2964 1.22001 10.2975 1.22525 10.2975C1.2305 10.2975 1.23568 10.2964 1.24053 10.2944C1.24246 10.2901 1.24346 10.2854 1.24346 10.2807C1.24346 10.2759 1.24246 10.2713 1.24053 10.2669V9.46632C1.24246 9.46199 1.24346 9.45731 1.24346 9.45257C1.24346 9.44783 1.24246 9.44314 1.24053 9.43882C1.23766 9.43321 1.23328 9.42851 1.22788 9.42527C1.22248 9.42203 1.21627 9.42037 1.20997 9.42048Z" fill="#B7B7B7"/>
<path d="M12.5652 7.62379H0.342278C0.277902 7.62415 0.215689 7.60059 0.167698 7.55768C0.119706 7.51477 0.0893539 7.45558 0.0825384 7.39156C-0.0156967 6.49525 0.0760704 5.58828 0.351846 4.72981C0.627622 3.87133 1.08122 3.08062 1.68307 2.4092C2.28493 1.73778 3.02152 1.20074 3.84484 0.833076C4.66816 0.465414 5.55972 0.275391 6.4614 0.275391C7.36308 0.275391 8.25464 0.465414 9.07796 0.833076C9.90128 1.20074 10.6379 1.73778 11.2397 2.4092C11.8416 3.08062 12.2952 3.87133 12.571 4.72981C12.8467 5.58828 12.9385 6.49525 12.8403 7.39156C12.8326 7.458 12.7999 7.519 12.7488 7.56215C12.6977 7.6053 12.632 7.62735 12.5652 7.62379ZM0.577567 7.0921H12.3361C12.3361 6.9607 12.3513 6.8293 12.3513 6.6979C12.3163 5.15822 11.68 3.6934 10.5787 2.61686C9.47736 1.54033 7.99843 0.937577 6.45835 0.937577C4.91826 0.937577 3.43933 1.54033 2.338 2.61686C1.23667 3.6934 0.600414 5.15822 0.565351 6.6979C0.565351 6.83847 0.5684 6.96987 0.577567 7.0921Z" fill="#B7B7B7"/>
<path d="M12.5652 7.66353H0.342243C0.26717 7.66407 0.194526 7.63696 0.138166 7.58736C0.0818067 7.53776 0.045676 7.46915 0.0366689 7.39462C-0.0597172 6.4943 0.0344317 5.58377 0.312989 4.72221C0.591547 3.86065 1.04828 3.06736 1.6535 2.39389C2.25873 1.72041 2.99891 1.18182 3.82592 0.813131C4.65293 0.444444 5.54826 0.253906 6.45373 0.253906C7.3592 0.253906 8.25453 0.444444 9.08154 0.813131C9.90855 1.18182 10.6487 1.72041 11.2539 2.39389C11.8592 3.06736 12.3159 3.86065 12.5945 4.72221C12.873 5.58377 12.9672 6.4943 12.8708 7.39462C12.8618 7.46915 12.8256 7.53776 12.7693 7.58736C12.7129 7.63696 12.6403 7.66407 12.5652 7.66353ZM6.45373 0.32975C5.55802 0.329583 4.67234 0.518192 3.85442 0.883276C3.03649 1.24836 2.3047 1.78172 1.70673 2.4486C1.10877 3.11547 0.65806 3.90088 0.383993 4.75363C0.109925 5.60637 0.0186501 6.5073 0.116121 7.39768C0.121456 7.45306 0.147291 7.50445 0.188561 7.54176C0.22983 7.57907 0.283549 7.59962 0.339184 7.59936H12.5652C12.6207 7.59894 12.674 7.57816 12.7151 7.54098C12.7563 7.50379 12.7823 7.4528 12.7883 7.39768C12.8097 7.17156 12.8219 6.94238 12.8219 6.71931C12.8235 5.0279 12.1538 3.40499 10.9598 2.20698C9.76579 1.00897 8.14513 0.333797 6.45373 0.32975ZM12.3696 7.141H0.543923V7.09211C0.543923 6.96071 0.543923 6.82626 0.543923 6.69486C0.543923 5.12181 1.16882 3.61319 2.28113 2.50088C3.39345 1.38856 4.90207 0.763669 6.47512 0.763669C8.04817 0.763669 9.55679 1.38856 10.6691 2.50088C11.7814 3.61319 12.4063 5.12181 12.4063 6.69486C12.4063 6.82321 12.4063 6.95765 12.4063 7.09211L12.3696 7.141ZM0.61115 7.06461H12.2994C12.2994 6.94238 12.2994 6.8232 12.2994 6.70708C12.2994 5.15429 11.6825 3.6651 10.5845 2.56711C9.48654 1.46913 7.99735 0.852279 6.44456 0.852279C4.89177 0.852279 3.40258 1.46913 2.30459 2.56711C1.2066 3.6651 0.589757 5.15429 0.589757 6.70708C0.60198 6.82625 0.608097 6.94543 0.614209 7.06461H0.61115Z" fill="#B7B7B7"/>
<path d="M7.88699 7.51431H4.92597C4.88809 7.51518 4.85134 7.50134 4.82342 7.47571C4.79551 7.45007 4.7786 7.41463 4.77625 7.3768L4.1651 0.941411C4.16208 0.912223 4.16808 0.882815 4.18228 0.857138C4.19649 0.831461 4.21821 0.810747 4.24454 0.797791C5.21321 0.284427 7.46529 0.281371 8.54397 0.797791C8.57197 0.809969 8.59536 0.830753 8.61075 0.857129C8.62614 0.883504 8.63271 0.914102 8.62953 0.94447L8.01838 7.37986C8.01513 7.41391 8.00032 7.44582 7.97642 7.47028C7.95251 7.49474 7.92095 7.51028 7.88699 7.51431ZM5.05432 7.20874H7.75254L8.32702 1.01475C7.33084 0.599165 5.38434 0.599165 4.47984 1.01475L5.05432 7.20874Z" fill="#B7B7B7"/>
<path d="M7.88694 7.55109H4.92592C4.8787 7.55131 4.83309 7.53389 4.79804 7.50223C4.763 7.47058 4.74104 7.42697 4.73647 7.37997L4.12532 0.947635C4.12185 0.910493 4.12961 0.873164 4.14759 0.840477C4.16557 0.807791 4.19293 0.781251 4.22615 0.764289C5.20399 0.244813 7.47441 0.241757 8.56225 0.764289C8.5971 0.781165 8.62584 0.808475 8.64445 0.842426C8.66307 0.876378 8.67065 0.915285 8.66615 0.953744L8.055 7.38608C8.05026 7.42872 8.03095 7.46843 8.00033 7.49849C7.96971 7.52856 7.92966 7.54713 7.88694 7.55109ZM6.35907 0.446489C5.64041 0.417693 4.92434 0.549217 4.26282 0.831516C4.24363 0.841816 4.22773 0.8573 4.21692 0.876212C4.20612 0.895124 4.20084 0.916695 4.20171 0.938459L4.81286 7.37386C4.81589 7.40168 4.82912 7.42738 4.85 7.44601C4.87089 7.46464 4.89794 7.47486 4.92592 7.4747H7.89304C7.9209 7.47554 7.94799 7.46547 7.96854 7.44664C7.98909 7.4278 8.00148 7.40169 8.00306 7.37386L8.6142 0.938459C8.61695 0.916017 8.61252 0.893282 8.60154 0.873517C8.59056 0.853752 8.57359 0.837979 8.55309 0.828457C7.85765 0.552597 7.11294 0.422586 6.36517 0.446489H6.35907ZM7.77998 7.25162H5.01454V7.21801L4.437 0.981244H4.46145C5.37817 0.562607 7.3369 0.562607 8.34224 0.981244H8.36669V1.0118L7.77998 7.25162ZM5.08482 7.17523H7.7097L8.28724 1.04541C7.29718 0.648166 5.42096 0.64511 4.51951 1.04541L5.08482 7.17523Z" fill="#B7B7B7"/>
<path d="M8.48583 7.43792C8.47617 7.43679 8.46683 7.43375 8.45835 7.42897C8.44988 7.4242 8.44244 7.41779 8.43647 7.41011C8.4305 7.40243 8.42611 7.39364 8.42357 7.38425C8.42103 7.37486 8.42038 7.36506 8.42166 7.35541L8.8953 3.47463C8.90034 3.45718 8.91143 3.4421 8.92658 3.43209C8.94173 3.42208 8.95995 3.41779 8.97797 3.42C8.996 3.42221 9.01265 3.43076 9.02494 3.44413C9.03723 3.4575 9.04435 3.47482 9.04503 3.49296L8.56834 7.37376C8.56721 7.38342 8.56416 7.39276 8.55939 7.40123C8.55461 7.4097 8.5482 7.41714 8.54052 7.42312C8.53284 7.42909 8.52405 7.43347 8.51466 7.43601C8.50527 7.43856 8.49547 7.43921 8.48583 7.43792Z" fill="#B7B7B7"/>
<path d="M8.48593 7.4774C8.45632 7.47444 8.42897 7.46022 8.40954 7.43767C8.39093 7.41324 8.3822 7.38269 8.3851 7.35211L8.86179 3.47438C8.86313 3.45935 8.86763 3.44477 8.875 3.4316C8.88238 3.41844 8.89245 3.40698 8.90457 3.39798C8.92792 3.37957 8.95746 3.37081 8.98708 3.37353C9.01615 3.37772 9.04245 3.39307 9.06041 3.41632C9.07855 3.43982 9.08726 3.46923 9.08485 3.49882L8.59288 7.37656C8.59 7.40335 8.57764 7.42824 8.55803 7.44673C8.53842 7.46522 8.51285 7.4761 8.48593 7.4774ZM8.95958 3.44688H8.93818C8.9339 3.45018 8.93033 3.45432 8.9277 3.45905C8.92507 3.46378 8.92344 3.46899 8.9229 3.47438L8.44926 7.35211C8.4457 7.36093 8.4457 7.3708 8.44926 7.37962C8.45195 7.38382 8.45554 7.38736 8.45976 7.39C8.46399 7.39265 8.46875 7.39432 8.4737 7.39489C8.48273 7.3943 8.49129 7.39065 8.49796 7.38454C8.50463 7.37843 8.50901 7.37022 8.51038 7.36128L8.98402 3.48049C8.98616 3.47677 8.98729 3.47256 8.98729 3.46827C8.98729 3.46398 8.98616 3.45976 8.98402 3.45604C8.97788 3.44828 8.96925 3.44287 8.95958 3.44076V3.44688Z" fill="#B7B7B7"/>
<path d="M4.31463 7.43729C4.29632 7.43752 4.27854 7.43117 4.26452 7.41939C4.25049 7.40761 4.24117 7.39119 4.23824 7.37312L3.7646 3.49232C3.76288 3.47253 3.76893 3.45284 3.78148 3.43743C3.79403 3.42203 3.81209 3.41213 3.83183 3.40982C3.84147 3.40854 3.85126 3.40918 3.86065 3.41172C3.87004 3.41427 3.87883 3.41866 3.88651 3.42463C3.89419 3.4306 3.9006 3.43804 3.90538 3.44652C3.91015 3.45499 3.9132 3.46433 3.91433 3.47399L4.38797 7.35478C4.38925 7.36442 4.38861 7.37422 4.38606 7.38361C4.38352 7.393 4.37913 7.40179 4.37316 7.40947C4.36719 7.41715 4.35974 7.42356 4.35127 7.42833C4.3428 7.43311 4.33346 7.43615 4.3238 7.43729H4.31463Z" fill="#B7B7B7"/>
<path d="M4.31481 7.47685C4.28682 7.47702 4.25977 7.4668 4.23889 7.44817C4.218 7.42954 4.20477 7.40383 4.20174 7.37601L3.7281 3.49522C3.72451 3.466 3.73216 3.43651 3.74949 3.41271C3.76947 3.39033 3.79636 3.37527 3.82588 3.36994C3.85414 3.36652 3.88262 3.37419 3.90534 3.39133C3.91855 3.40018 3.92955 3.41195 3.9375 3.42572C3.94545 3.43949 3.95012 3.4549 3.95117 3.47077L4.42481 7.34851C4.4277 7.36298 4.42728 7.37793 4.42358 7.39222C4.41987 7.40651 4.41299 7.41976 4.40342 7.43101C4.39443 7.44313 4.38297 7.45321 4.36981 7.46058C4.35664 7.46795 4.34206 7.47246 4.32703 7.47379L4.31481 7.47685ZM3.84117 3.44633C3.83579 3.44687 3.83057 3.4485 3.82584 3.45113C3.82111 3.45376 3.81696 3.45732 3.81366 3.4616C3.81151 3.46532 3.81039 3.46954 3.81039 3.47383C3.81039 3.47812 3.81151 3.48234 3.81366 3.48606L4.2873 7.36684C4.28868 7.37578 4.29306 7.38399 4.29973 7.3901C4.30639 7.39621 4.31495 7.39987 4.32397 7.40046C4.33364 7.39835 4.34228 7.39294 4.34841 7.38518C4.35198 7.37636 4.35198 7.3665 4.34841 7.35768L3.87172 3.47994C3.87499 3.47106 3.87499 3.46131 3.87172 3.45244L3.84117 3.44633Z" fill="#B7B7B7"/>
</svg>
