<svg width="14" height="14" viewBox="0 0 14 14" fill="none" xmlns="http://www.w3.org/2000/svg">
<path d="M10.2392 6.93441C10.2194 6.9391 10.1988 6.9391 10.179 6.93441C10.0286 6.87758 9.87483 6.81073 9.72441 6.74387L9.28653 6.56003C9.24612 6.54417 9.21366 6.51291 9.19629 6.47312C9.18724 6.45317 9.18256 6.43152 9.18256 6.40961C9.18256 6.38771 9.18724 6.36605 9.19629 6.3461L11.7701 0.195706C11.7857 0.157948 11.8152 0.127584 11.8525 0.110812C11.8898 0.09404 11.932 0.0921231 11.9706 0.105454L12.8297 0.392919C12.8511 0.399634 12.8709 0.410868 12.8876 0.42586C12.9043 0.440852 12.9176 0.459254 12.9266 0.479827C12.9358 0.500346 12.9405 0.522552 12.9405 0.545008C12.9405 0.567464 12.9358 0.589669 12.9266 0.610189L10.3863 6.84415C10.3723 6.87115 10.3512 6.89383 10.3253 6.90973C10.2993 6.92563 10.2696 6.93416 10.2392 6.93441ZM9.57066 6.30599L9.86481 6.43301L10.159 6.55669L12.569 0.633587L12.0208 0.449742L9.57066 6.30599Z" fill="#B7B7B7"/>
<path d="M10.2393 7.01802C10.2084 7.01762 10.1779 7.01197 10.149 7.0013L9.69775 6.81077V6.72387L9.66432 6.80074C9.52393 6.74058 9.38689 6.68041 9.2465 6.62693C9.21582 6.61503 9.18786 6.59706 9.16431 6.57408C9.14076 6.5511 9.1221 6.5236 9.10945 6.49322C9.08453 6.431 9.08453 6.36157 9.10945 6.29935L11.6866 0.152296C11.7105 0.0950054 11.755 0.048771 11.8113 0.0227659C11.8676 -0.00323917 11.9317 -0.00711429 11.9908 0.0119071L12.8498 0.299372C12.9142 0.321661 12.9671 0.368536 12.9969 0.429733C13.0101 0.460946 13.0168 0.494471 13.0168 0.52834C13.0168 0.562208 13.0101 0.595733 12.9969 0.626946L10.4599 6.86425C10.4422 6.90868 10.4119 6.94693 10.3726 6.97426C10.3334 7.0016 10.287 7.01682 10.2393 7.01802ZM11.9106 0.165667C11.8947 0.165831 11.8793 0.170681 11.8662 0.179604C11.8531 0.188526 11.843 0.201123 11.837 0.215806L9.26322 6.36286C9.25885 6.37271 9.25651 6.38334 9.25634 6.39412C9.25617 6.40489 9.25817 6.41559 9.26223 6.42557C9.26628 6.43555 9.27231 6.44462 9.27995 6.45222C9.28758 6.45983 9.29666 6.46581 9.30666 6.46983L9.73118 6.64699H9.75458C9.905 6.71384 10.0521 6.77735 10.1991 6.83417C10.2187 6.84194 10.2405 6.84174 10.2598 6.83362C10.2792 6.82549 10.2946 6.81009 10.3028 6.79072L12.8431 0.553411C12.8515 0.533066 12.8515 0.510245 12.8431 0.4899C12.8339 0.469791 12.8171 0.454165 12.7963 0.446447L11.9373 0.158983L11.9106 0.165667ZM10.1858 6.66704L10.1056 6.63361L9.8114 6.50994L9.51725 6.38292L9.44037 6.34949L11.954 0.332797L12.6626 0.570122L10.1858 6.66704ZM9.66098 6.26258L9.87826 6.35618L10.0922 6.44643L12.432 0.683772L12.0443 0.553411L9.66098 6.26258Z" fill="#B7B7B7"/>
<path d="M10.6104 6.64987C10.58 6.57938 10.5238 6.52317 10.4533 6.49277C10.2895 6.42926 10.1191 6.35572 9.95862 6.28552C9.738 6.18859 9.51405 6.095 9.2901 6.00809C9.22122 5.98223 9.14506 5.98376 9.07729 6.01236C9.00951 6.04097 8.95527 6.09447 8.92575 6.16185L8.47784 7.19806C8.19706 7.8365 7.85946 8.18079 6.92687 8.0404C5.80375 7.97354 4.95474 7.88664 4.33301 7.81978C3.90516 7.77633 3.60097 7.74624 3.3837 7.73956L2.93579 7.71282C1.74248 7.64262 0.880098 7.58914 0.405447 8.08385C0.26894 8.25002 0.171363 8.44466 0.119885 8.65346C0.0684073 8.86227 0.0643293 9.07994 0.10795 9.29053C0.191312 10.0164 0.42588 10.7166 0.796527 11.3462C1.19764 12.1017 2.18371 12.349 2.80209 12.4326V11.8543C2.24053 11.7674 1.56199 11.5435 1.31464 11.0755C1.30075 11.0473 1.28272 11.0214 1.26115 10.9986C0.961531 10.4517 0.768684 9.85272 0.692907 9.23371C0.662845 9.10473 0.660105 8.97089 0.684858 8.84078C0.709612 8.71068 0.76131 8.5872 0.836636 8.47828C1.12744 8.17744 1.9163 8.22424 2.91909 8.28441L3.37702 8.31115C3.57758 8.31115 3.87507 8.34792 4.28956 8.39137C4.91797 8.45488 5.77367 8.54513 6.88341 8.60864C8.22046 8.8092 8.71517 8.12396 9.01934 7.42535L9.35361 6.64987L9.74469 6.817L9.98202 6.92062L8.38425 10.5407C8.04999 11.3128 7.38146 11.7273 6.3018 11.8476V12.4292C7.28787 12.3323 8.38091 11.9746 8.9057 10.7579L10.6071 6.8638C10.622 6.83018 10.6299 6.79392 10.6305 6.75717C10.6311 6.72042 10.6242 6.68393 10.6104 6.64987Z" fill="#B7B7B7"/>
<path d="M6.21816 12.5263V11.7776H6.2917C7.34462 11.6606 7.98306 11.2595 8.29727 10.5207L9.84824 6.96755L9.68779 6.89736L9.37359 6.76365L9.06941 7.46226C8.75186 8.19095 8.2371 8.90626 6.84323 8.69568C5.74685 8.63217 4.89115 8.54192 4.26608 8.47841C3.83823 8.43496 3.54408 8.40487 3.34686 8.39819L2.88893 8.37145C1.94631 8.31462 1.13406 8.26783 0.883363 8.54192C0.818552 8.63915 0.774422 8.74867 0.753721 8.86368C0.73302 8.97868 0.736186 9.09672 0.763024 9.21044C0.835452 9.81523 1.02265 10.4006 1.31456 10.9352C1.3376 10.962 1.35777 10.9911 1.37473 11.0221C1.64214 11.5269 2.46107 11.6907 2.80202 11.7609H2.87221V12.5063H2.77528C2.19367 12.426 1.14743 12.172 0.72626 11.3765C0.35262 10.7365 0.114811 10.0265 0.0276563 9.29066C-0.0156061 9.06691 -0.0080344 8.83629 0.0498227 8.61585C0.10768 8.39542 0.214343 8.1908 0.361917 8.01713C0.859966 7.49568 1.74241 7.54582 2.95912 7.61936L3.40703 7.6461C3.6243 7.6461 3.94853 7.68621 4.35633 7.72967C4.98808 7.79318 5.83376 7.88009 6.94685 7.94694C7.83598 8.08064 8.14685 7.76978 8.41761 7.15474L8.86551 6.12522C8.90385 6.03822 8.97411 5.96926 9.06181 5.93257C9.14951 5.89587 9.24795 5.89423 9.33682 5.928C9.56078 6.01157 9.78473 6.1085 10.0053 6.20209C10.226 6.29569 10.3396 6.34917 10.5034 6.41268C10.5496 6.43083 10.5915 6.45831 10.6266 6.49339C10.6617 6.52847 10.6891 6.5704 10.7073 6.61658C10.7262 6.66213 10.736 6.71098 10.736 6.76031C10.736 6.80965 10.7262 6.85849 10.7073 6.90404L9.0059 10.8015C8.56467 11.821 7.68891 12.3792 6.33181 12.5129L6.21816 12.5263ZM6.38529 11.9246V12.3425C7.62206 12.1987 8.42429 11.6739 8.83209 10.738L10.5301 6.84053C10.5409 6.81574 10.5464 6.78901 10.5464 6.76199C10.5464 6.73496 10.5409 6.70822 10.5301 6.68343C10.52 6.65808 10.5047 6.63515 10.4851 6.61614C10.4655 6.59714 10.4421 6.58248 10.4165 6.57313L9.93181 6.36588C9.70117 6.26561 9.47721 6.17201 9.26328 6.0851C9.21441 6.06715 9.16052 6.06858 9.11266 6.08909C9.0648 6.1096 9.0266 6.14764 9.0059 6.19541L8.55799 7.22493C8.27052 7.89346 7.88947 8.26449 6.91677 8.11741C5.80702 8.05056 4.958 7.96365 4.33962 7.90014C3.92179 7.85669 3.6009 7.82326 3.38363 7.81658L2.93572 7.78984C1.76246 7.71964 0.930153 7.6695 0.468873 8.1241C0.342096 8.2829 0.251576 8.46751 0.203651 8.66498C0.155727 8.86245 0.151561 9.06802 0.191441 9.26727C0.275284 9.97436 0.502781 10.6569 0.859962 11.2728C1.23433 11.9748 2.1335 12.2255 2.6984 12.3124V11.9046C2.23712 11.821 1.49505 11.6138 1.22096 11.089C1.21145 11.0695 1.19775 11.0524 1.18085 11.0389V11.0188C0.87708 10.4609 0.680922 9.85086 0.602585 9.22047C0.569401 9.07947 0.567154 8.93296 0.596006 8.79101C0.624857 8.64906 0.684122 8.51505 0.769716 8.39819C1.08726 8.06393 1.89283 8.11741 2.91566 8.17757L3.3736 8.20432C3.57416 8.20432 3.87165 8.24109 4.28279 8.28454C4.92791 8.34805 5.78028 8.4383 6.88 8.50181C8.16691 8.69568 8.62819 8.07061 8.93571 7.36866L9.30673 6.51964L9.38027 6.54973L9.7747 6.71686L10.0889 6.85056L8.45437 10.5776C8.12011 11.3597 7.45159 11.7909 6.38529 11.9246Z" fill="#B7B7B7"/>
<path d="M3.50089 9.20383L1.66245 9.08683C1.64051 9.0853 1.61847 9.0881 1.59761 9.09508C1.57674 9.10206 1.55746 9.11308 1.54085 9.12752C1.52424 9.14195 1.51064 9.15951 1.50082 9.1792C1.491 9.19889 1.48516 9.22032 1.48362 9.24227C1.48209 9.26422 1.4849 9.28625 1.49188 9.30712C1.49886 9.32798 1.50987 9.34727 1.5243 9.36387C1.53874 9.38048 1.5563 9.39408 1.57599 9.4039C1.59568 9.41372 1.61711 9.41956 1.63905 9.4211L3.50089 9.54143V9.20383Z" fill="#B7B7B7"/>
<path d="M3.58425 9.60175L1.63551 9.47807C1.60291 9.47643 1.57099 9.46817 1.54168 9.45381C1.51238 9.43944 1.4863 9.41927 1.46503 9.39451C1.44318 9.37082 1.42654 9.34281 1.41618 9.3123C1.40582 9.28178 1.40197 9.24944 1.40487 9.21734C1.40651 9.18475 1.41476 9.15283 1.42913 9.12352C1.44349 9.09421 1.46367 9.06814 1.48843 9.04687C1.53751 9.00471 1.60099 8.98315 1.66559 8.98671L3.58425 9.10704V9.60175ZM1.64888 9.15384C1.63088 9.15428 1.61341 9.1601 1.59874 9.17055C1.58277 9.18529 1.57319 9.20568 1.572 9.22738C1.57038 9.23777 1.57136 9.2484 1.57486 9.25831C1.57836 9.26823 1.58427 9.27713 1.59205 9.2842C1.59845 9.29232 1.60656 9.29892 1.6158 9.30355C1.62505 9.30817 1.6352 9.3107 1.64554 9.31094L3.41712 9.42459V9.26414L1.65556 9.15384H1.64888Z" fill="#B7B7B7"/>
<path d="M7.11745 9.41838L5.69684 9.32812V9.66239L7.09739 9.7493C7.14172 9.7493 7.18423 9.73169 7.21557 9.70034C7.24691 9.669 7.26452 9.62649 7.26452 9.58217C7.26452 9.53784 7.24691 9.49533 7.21557 9.46398C7.18423 9.43264 7.14172 9.41504 7.09739 9.41504L7.11745 9.41838Z" fill="#B7B7B7"/>
<path d="M7.11744 9.82943L5.62329 9.7325V9.23779L7.13415 9.33473C7.16674 9.33637 7.19867 9.34462 7.22797 9.35899C7.25728 9.37335 7.28336 9.39353 7.30462 9.41829C7.33626 9.45409 7.35685 9.4983 7.36391 9.54555C7.37097 9.59281 7.36419 9.64109 7.3444 9.68458C7.3246 9.72806 7.29263 9.76489 7.25235 9.79059C7.21208 9.8163 7.16522 9.82979 7.11744 9.82943ZM5.78039 9.57539L7.11744 9.65896C7.13817 9.6599 7.15847 9.65276 7.17405 9.63904C7.18964 9.62533 7.19929 9.60611 7.201 9.58542C7.20186 9.57507 7.20052 9.56465 7.19706 9.55486C7.19361 9.54507 7.18811 9.53612 7.18095 9.5286C7.17455 9.52048 7.16645 9.51387 7.1572 9.50925C7.14795 9.50462 7.1378 9.5021 7.12746 9.50186L5.79042 9.41495L5.78039 9.57539Z" fill="#B7B7B7"/>
<path d="M2.68163 10.3705L1.66212 10.307C1.64061 10.3056 1.61904 10.3085 1.59864 10.3155C1.57825 10.3225 1.55944 10.3335 1.54329 10.3477C1.52715 10.362 1.51398 10.3794 1.50454 10.3988C1.49511 10.4181 1.48959 10.4392 1.48831 10.4607C1.48649 10.4819 1.48898 10.5032 1.49564 10.5234C1.50229 10.5436 1.51297 10.5622 1.52703 10.5782C1.5411 10.5941 1.55825 10.607 1.57745 10.6161C1.59665 10.6252 1.61749 10.6304 1.63872 10.6312L2.68163 10.6981V10.3705Z" fill="#B7B7B7"/>
<path d="M2.77197 10.7884L1.64216 10.7149C1.60957 10.7133 1.57764 10.705 1.54834 10.6906C1.51903 10.6763 1.49295 10.6561 1.47169 10.6313C1.44966 10.6078 1.43291 10.5798 1.42254 10.5492C1.41217 10.5187 1.40841 10.4863 1.41152 10.4542C1.41583 10.3891 1.44562 10.3284 1.49445 10.2852C1.54327 10.242 1.60717 10.2199 1.67225 10.2235L2.77197 10.2937V10.7884ZM1.65888 10.3907C1.64879 10.3902 1.63869 10.3918 1.62919 10.3952C1.61969 10.3987 1.61097 10.404 1.60351 10.4108C1.59606 10.4176 1.59003 10.4259 1.58576 10.435C1.5815 10.4442 1.57908 10.4541 1.57865 10.4642C1.57671 10.4746 1.57754 10.4853 1.58106 10.4953C1.58458 10.5053 1.59067 10.5142 1.59871 10.521C1.61229 10.5372 1.6313 10.5479 1.65219 10.5511L2.60484 10.6113V10.4508L1.66222 10.3907H1.65888Z" fill="#B7B7B7"/>
<path d="M7.11731 10.655L6.53235 10.5981V10.9324L7.09725 10.9892C7.14158 10.9892 7.18408 10.9716 7.21543 10.9403C7.24677 10.9089 7.26438 10.8664 7.26438 10.8221C7.26438 10.7778 7.24677 10.7353 7.21543 10.7039C7.18408 10.6726 7.14158 10.655 7.09725 10.655H7.11731Z" fill="#B7B7B7"/>
<path d="M7.11744 11.066L6.44891 10.9991V10.5044L7.11744 10.5712C7.18188 10.5764 7.24175 10.6065 7.28423 10.6553C7.32671 10.704 7.34843 10.7674 7.34473 10.832C7.34168 10.8919 7.31694 10.9487 7.27512 10.9917C7.2333 11.0348 7.17726 11.0612 7.11744 11.066ZM6.62607 10.8487L7.11744 10.8988C7.13814 10.8988 7.15806 10.8908 7.17301 10.8765C7.18796 10.8622 7.19679 10.8426 7.19765 10.8219C7.19859 10.8012 7.19146 10.7809 7.17774 10.7653C7.16403 10.7497 7.1448 10.7401 7.12412 10.7384L6.62607 10.6882V10.8487Z" fill="#B7B7B7"/>
<path d="M4.50675 13.4996C4.03803 13.4996 3.57983 13.3606 3.1901 13.1002C2.80037 12.8398 2.49661 12.4696 2.31724 12.0366C2.13786 11.6036 2.09094 11.127 2.18238 10.6673C2.27382 10.2076 2.49953 9.78533 2.83097 9.4539C3.16241 9.12246 3.58469 8.89675 4.04441 8.8053C4.50413 8.71386 4.98063 8.7608 5.41368 8.94017C5.84672 9.11954 6.21685 9.4233 6.47726 9.81303C6.73767 10.2028 6.87666 10.661 6.87666 11.1297C6.87666 11.7582 6.62698 12.361 6.18253 12.8055C5.73809 13.2499 5.13529 13.4996 4.50675 13.4996ZM4.50675 9.33135C4.15108 9.33135 3.80338 9.43682 3.50765 9.63443C3.21192 9.83203 2.98142 10.1129 2.84531 10.4415C2.7092 10.7701 2.67359 11.1317 2.74298 11.4805C2.81237 11.8294 2.98365 12.1498 3.23515 12.4013C3.48665 12.6528 3.80707 12.8241 4.15591 12.8934C4.50476 12.9628 4.86634 12.9272 5.19494 12.7911C5.52354 12.655 5.8044 12.4245 6.002 12.1288C6.1996 11.833 6.30508 11.4853 6.30508 11.1297C6.30419 10.653 6.11444 10.1961 5.77738 9.85904C5.44032 9.52198 4.98343 9.33224 4.50675 9.33135Z" fill="#B7B7B7"/>
<path d="M4.5067 13.5832C4.02145 13.5832 3.5471 13.4393 3.14363 13.1697C2.74015 12.9001 2.42568 12.517 2.23998 12.0686C2.05429 11.6203 2.0057 11.127 2.10037 10.6511C2.19503 10.1752 2.42871 9.738 2.77184 9.39488C3.11496 9.05175 3.55212 8.81808 4.02805 8.72341C4.50398 8.62875 4.99729 8.67733 5.44561 8.86303C5.89392 9.04873 6.2771 9.3632 6.54669 9.76667C6.81629 10.1701 6.96017 10.6445 6.96017 11.1297C6.95929 11.7802 6.70051 12.4037 6.24059 12.8636C5.78066 13.3236 5.15713 13.5823 4.5067 13.5832ZM4.5067 8.8434C4.05451 8.8434 3.61246 8.97749 3.23647 9.22872C2.86049 9.47995 2.56744 9.83702 2.39439 10.2548C2.22135 10.6726 2.17606 11.1323 2.26428 11.5758C2.3525 12.0193 2.57026 12.4267 2.89001 12.7464C3.20976 13.0662 3.61715 13.2839 4.06066 13.3722C4.50417 13.4604 4.96387 13.4151 5.38165 13.242C5.79942 13.069 6.1565 12.776 6.40773 12.4C6.65895 12.024 6.79304 11.5819 6.79304 11.1297C6.79304 10.5234 6.55216 9.94183 6.12339 9.51305C5.69462 9.08428 5.11308 8.8434 4.5067 8.8434ZM4.5067 13.0083C4.13436 13.0083 3.77038 12.8978 3.46083 12.6909C3.15128 12.484 2.91008 12.1899 2.76775 11.8458C2.62541 11.5017 2.58833 11.1232 2.66122 10.758C2.7341 10.3929 2.91366 10.0576 3.17719 9.79453C3.44071 9.53147 3.77634 9.3525 4.14161 9.28027C4.50688 9.20803 4.88537 9.24578 5.22919 9.38873C5.573 9.53167 5.86668 9.7734 6.07306 10.0833C6.27944 10.3932 6.38925 10.7574 6.38859 11.1297C6.38859 11.3767 6.33988 11.6213 6.24527 11.8494C6.15065 12.0775 6.01199 12.2848 5.8372 12.4593C5.6624 12.6337 5.45492 12.772 5.22661 12.8663C4.99831 12.9605 4.75368 13.0087 4.5067 13.0083ZM4.5067 9.41499C4.16755 9.41499 3.83603 9.51556 3.55404 9.70398C3.27205 9.8924 3.05226 10.1602 2.92247 10.4735C2.79269 10.7869 2.75873 11.1316 2.82489 11.4643C2.89105 11.7969 3.05437 12.1024 3.29418 12.3423C3.53399 12.5821 3.83953 12.7454 4.17217 12.8116C4.5048 12.8777 4.84958 12.8438 5.16291 12.714C5.47624 12.5842 5.74405 12.3644 5.93247 12.0824C6.12089 11.8004 6.22146 11.4689 6.22146 11.1297C6.22146 10.675 6.04079 10.2388 5.71921 9.91723C5.39763 9.59565 4.96148 9.41499 4.5067 9.41499Z" fill="#B7B7B7"/>
</svg>
