<svg width="13" height="13" viewBox="0 0 13 13" fill="none" xmlns="http://www.w3.org/2000/svg">
<path d="M6.38501 12.7277C5.13329 12.7277 3.9097 12.3565 2.86897 11.661C1.82824 10.9655 1.01714 9.97703 0.538256 8.82053C0.0593727 7.66404 -0.0657748 6.3915 0.178631 5.16388C0.423037 3.93625 1.02602 2.80867 1.91132 1.92377C2.79662 1.03887 3.92446 0.436393 5.1522 0.19254C6.37994 -0.0513138 7.65242 0.0744117 8.8087 0.553815C9.96498 1.03322 10.9531 1.84476 11.6481 2.8858C12.3431 3.92685 12.7138 5.15062 12.7132 6.40234C12.711 8.07973 12.0434 9.68773 10.8571 10.8736C9.67071 12.0594 8.0624 12.7262 6.38501 12.7277ZM6.38501 0.560923C5.22981 0.561486 4.10073 0.904558 3.14049 1.54676C2.18024 2.18897 1.43197 3.10147 0.99028 4.1689C0.548593 5.23633 0.433332 6.41075 0.659046 7.54369C0.884759 8.67663 1.44132 9.7172 2.25837 10.5339C3.07542 11.3505 4.11626 11.9066 5.24931 12.1317C6.38235 12.3569 7.55672 12.241 8.62393 11.7988C9.69115 11.3566 10.6033 10.6079 11.245 9.64736C11.8868 8.68681 12.2293 7.55754 12.2293 6.40234C12.2285 4.85284 11.6125 3.36706 10.5165 2.27166C9.42059 1.17627 7.93451 0.560923 6.38501 0.560923Z" fill="#B7B7B7"/>
<path d="M6.38513 12.7987C5.11994 12.7959 3.88399 12.4181 2.83343 11.7131C1.78287 11.0081 0.964858 10.0075 0.48277 8.83778C0.000683184 7.66804 -0.123839 6.38165 0.124918 5.14115C0.373675 3.90066 0.984552 2.76174 1.88037 1.86831C2.77618 0.974875 3.91674 0.36703 5.15789 0.121582C6.39904 -0.123866 7.6851 0.00409761 8.85355 0.489302C10.022 0.974507 11.0204 1.79518 11.7226 2.84761C12.4248 3.90005 12.7993 5.13701 12.7987 6.4022C12.7976 7.24333 12.6308 8.076 12.3079 8.85266C11.985 9.62933 11.5123 10.3348 10.9167 10.9288C10.3211 11.5227 9.61442 11.9936 8.83689 12.3144C8.05936 12.6353 7.22625 12.7998 6.38513 12.7987ZM6.38513 0.145169C5.14648 0.145169 3.93564 0.512471 2.90574 1.20063C1.87584 1.88879 1.07314 2.86689 0.59913 4.01125C0.125119 5.15562 0.00108825 6.41484 0.242737 7.62969C0.484386 8.84454 1.08086 9.96046 1.95671 10.8363C2.83257 11.7122 3.94849 12.3086 5.16334 12.5503C6.37819 12.7919 7.63741 12.6679 8.78178 12.1939C9.92614 11.7199 10.9042 10.9172 11.5924 9.88728C12.2806 8.85738 12.6479 7.64655 12.6479 6.4079C12.6479 4.74692 11.988 3.15397 10.8136 1.97948C9.63907 0.80499 8.0461 0.145169 6.38513 0.145169ZM6.38513 12.3119C5.21549 12.3125 4.07197 11.9661 3.09921 11.3167C2.12646 10.6672 1.36818 9.74382 0.920321 8.66332C0.472459 7.58282 0.355132 6.39376 0.58318 5.24657C0.811227 4.09937 1.37439 3.04559 2.20146 2.21853C3.02852 1.39147 4.0823 0.828291 5.22949 0.600243C6.37668 0.372195 7.56575 0.489524 8.64625 0.937387C9.72675 1.38525 10.6501 2.14352 11.2996 3.11628C11.9491 4.08903 12.2954 5.23256 12.2949 6.4022C12.2934 7.96936 11.6703 9.47195 10.5625 10.5804C9.45457 11.6888 7.95228 12.3125 6.38513 12.3148V12.3119ZM6.38513 0.640494C5.24376 0.639931 4.12787 0.977871 3.17858 1.61157C2.22929 2.24527 1.48927 3.14627 1.05209 4.20059C0.614919 5.25492 0.500236 6.41521 0.722561 7.53472C0.944885 8.65422 1.49423 9.68265 2.3011 10.4899C3.10797 11.2972 4.13612 11.847 5.25552 12.0699C6.37491 12.2928 7.53526 12.1787 8.5898 11.742C9.64434 11.3054 10.5457 10.5658 11.1799 9.61682C11.814 8.66784 12.1525 7.55211 12.1525 6.41074C12.151 4.8816 11.5429 3.41551 10.4616 2.33424C9.38038 1.25297 7.91427 0.644848 6.38513 0.64334V0.640494Z" fill="#B7B7B7"/>
<path d="M6.38501 12.7277C5.13329 12.7277 3.9097 12.3565 2.86897 11.661C1.82824 10.9655 1.01714 9.97703 0.538256 8.82053C0.0593727 7.66404 -0.0657748 6.3915 0.178631 5.16388C0.423037 3.93625 1.02602 2.80867 1.91132 1.92377C2.79662 1.03887 3.92446 0.436393 5.1522 0.19254C6.37994 -0.0513138 7.65242 0.0744117 8.8087 0.553815C9.96498 1.03322 10.9531 1.84476 11.6481 2.8858C12.3431 3.92685 12.7138 5.15062 12.7132 6.40234C12.711 8.07973 12.0434 9.68773 10.8571 10.8736C9.67071 12.0594 8.0624 12.7262 6.38501 12.7277ZM6.38501 0.560923C5.22981 0.561486 4.10073 0.904558 3.14049 1.54676C2.18024 2.18897 1.43197 3.10147 0.99028 4.1689C0.548593 5.23633 0.433332 6.41075 0.659046 7.54369C0.884759 8.67663 1.44132 9.7172 2.25837 10.5339C3.07542 11.3505 4.11626 11.9066 5.24931 12.1317C6.38235 12.3569 7.55672 12.241 8.62393 11.7988C9.69115 11.3566 10.6033 10.6079 11.245 9.64736C11.8868 8.68681 12.2293 7.55754 12.2293 6.40234C12.2285 4.85284 11.6125 3.36706 10.5165 2.27166C9.42059 1.17627 7.93451 0.560923 6.38501 0.560923Z" fill="#B7B7B7"/>
<path d="M6.38513 12.7987C5.11994 12.7959 3.88399 12.4181 2.83343 11.7131C1.78287 11.0081 0.964858 10.0075 0.48277 8.83778C0.000683184 7.66804 -0.123839 6.38165 0.124918 5.14115C0.373675 3.90066 0.984552 2.76174 1.88037 1.86831C2.77618 0.974875 3.91674 0.36703 5.15789 0.121582C6.39904 -0.123866 7.6851 0.00409761 8.85355 0.489302C10.022 0.974507 11.0204 1.79518 11.7226 2.84761C12.4248 3.90005 12.7993 5.13701 12.7987 6.4022C12.7976 7.24333 12.6308 8.076 12.3079 8.85266C11.985 9.62933 11.5123 10.3348 10.9167 10.9288C10.3211 11.5227 9.61442 11.9936 8.83689 12.3144C8.05936 12.6353 7.22625 12.7998 6.38513 12.7987ZM6.38513 0.145169C5.14648 0.145169 3.93564 0.512471 2.90574 1.20063C1.87584 1.88879 1.07314 2.86689 0.59913 4.01125C0.125119 5.15562 0.00108825 6.41484 0.242737 7.62969C0.484386 8.84454 1.08086 9.96046 1.95671 10.8363C2.83257 11.7122 3.94849 12.3086 5.16334 12.5503C6.37819 12.7919 7.63741 12.6679 8.78178 12.1939C9.92614 11.7199 10.9042 10.9172 11.5924 9.88728C12.2806 8.85738 12.6479 7.64655 12.6479 6.4079C12.6479 4.74692 11.988 3.15397 10.8136 1.97948C9.63907 0.80499 8.0461 0.145169 6.38513 0.145169ZM6.38513 12.3119C5.21549 12.3125 4.07197 11.9661 3.09921 11.3167C2.12646 10.6672 1.36818 9.74382 0.920321 8.66332C0.472459 7.58282 0.355132 6.39376 0.58318 5.24657C0.811227 4.09937 1.37439 3.04559 2.20146 2.21853C3.02852 1.39147 4.0823 0.828291 5.22949 0.600243C6.37668 0.372195 7.56575 0.489524 8.64625 0.937387C9.72675 1.38525 10.6501 2.14352 11.2996 3.11628C11.9491 4.08903 12.2954 5.23256 12.2949 6.4022C12.2934 7.96936 11.6703 9.47195 10.5625 10.5804C9.45457 11.6888 7.95228 12.3125 6.38513 12.3148V12.3119ZM6.38513 0.640494C5.24376 0.639931 4.12787 0.977871 3.17858 1.61157C2.22929 2.24527 1.48927 3.14627 1.05209 4.20059C0.614919 5.25492 0.500236 6.41521 0.722561 7.53472C0.944885 8.65422 1.49423 9.68265 2.3011 10.4899C3.10797 11.2972 4.13612 11.847 5.25552 12.0699C6.37491 12.2928 7.53526 12.1787 8.5898 11.742C9.64434 11.3054 10.5457 10.5658 11.1799 9.61682C11.814 8.66784 12.1525 7.55211 12.1525 6.41074C12.151 4.8816 11.5429 3.41551 10.4616 2.33424C9.38038 1.25297 7.91427 0.644848 6.38513 0.64334V0.640494Z" fill="#B7B7B7"/>
<path d="M7.73721 7.41291L6.92306 4.99322C6.91841 4.97942 6.90964 4.96739 6.89794 4.95873C6.88623 4.95008 6.87214 4.94523 6.85759 4.94482L4.29557 4.97044C4.2809 4.97042 4.26663 4.97511 4.25484 4.98382C4.24305 4.99254 4.23437 5.00481 4.2301 5.01884L3.46434 7.45561C3.46028 7.46951 3.46056 7.48431 3.46514 7.49804C3.46971 7.51177 3.47837 7.52378 3.48995 7.53247L5.57088 9.01275C5.58387 9.01671 5.59775 9.01671 5.61074 9.01275C5.62464 9.01712 5.63955 9.01712 5.65345 9.01275L7.7059 7.48977C7.7192 7.48255 7.72959 7.47095 7.7353 7.45693C7.74101 7.44292 7.74167 7.42736 7.73721 7.41291Z" fill="#B7B7B7"/>
<path d="M5.61936 9.09803C5.59073 9.09824 5.56278 9.08926 5.53964 9.07241L3.45871 7.59213C3.43448 7.57494 3.41625 7.5506 3.40655 7.52252C3.39685 7.49445 3.39617 7.46404 3.40462 7.43556L4.17038 4.99879C4.17855 4.96974 4.19611 4.94421 4.22032 4.92619C4.24452 4.90816 4.27399 4.89866 4.30417 4.89916L6.86619 4.87354C6.89579 4.87375 6.92459 4.88319 6.94857 4.90054C6.97255 4.91789 6.99053 4.94228 7 4.97032L7.81415 7.39001C7.82401 7.41855 7.82434 7.44952 7.8151 7.47827C7.80586 7.50701 7.78755 7.53198 7.76291 7.54943L5.71328 9.06956C5.68671 9.09061 5.65315 9.10078 5.61936 9.09803ZM6.85766 5.01587L4.29564 5.04149L3.54126 7.47541L5.62219 8.95569L7.67466 7.43556L6.85766 5.01587Z" fill="#B7B7B7"/>
<path d="M1.54842 10.0203L2.1804 8.00769C2.18445 7.9938 2.18416 7.97899 2.17958 7.96526C2.175 7.95153 2.16635 7.93952 2.15477 7.93083L0.349976 6.64697C0.396582 7.86723 0.814703 9.04416 1.54842 10.0203Z" fill="#B7B7B7"/>
<path d="M1.57417 10.1743L1.49163 10.0633C0.749169 9.07452 0.326097 7.88277 0.278931 6.64722V6.50488L2.20045 7.8713C2.22501 7.88819 2.24352 7.91251 2.25325 7.94068C2.26299 7.96886 2.26344 7.99941 2.25454 8.02787L1.57417 10.1743ZM0.435495 6.7924C0.505036 7.8993 0.883758 8.96449 1.52862 9.86683L2.11788 7.98801L0.435495 6.7924Z" fill="#B7B7B7"/>
<path d="M6.38472 12.4425C6.92737 12.4426 7.46751 12.3689 7.99026 12.2233C7.98421 12.2094 7.97434 12.1976 7.9618 12.1891L5.82678 10.7914C5.81458 10.7832 5.8002 10.7788 5.7855 10.7788C5.7708 10.7788 5.75642 10.7832 5.74422 10.7914L4.20416 12.0297C4.89888 12.3022 5.63847 12.4422 6.38472 12.4425Z" fill="#B7B7B7"/>
<path d="M6.38485 12.5137C5.62931 12.5139 4.88029 12.374 4.17583 12.1009L4.06195 12.0553L5.70165 10.7402C5.7254 10.7222 5.75439 10.7124 5.7842 10.7124C5.81401 10.7124 5.84301 10.7222 5.86676 10.7402L8.00178 12.1379C8.02744 12.1547 8.04653 12.1798 8.05587 12.2091L8.08433 12.2802L8.01031 12.3001C7.48065 12.4445 6.93383 12.5164 6.38485 12.5137ZM4.34377 12.0126C5.46457 12.4172 6.68033 12.4797 7.83667 12.192L5.78705 10.8512L4.34377 12.0126Z" fill="#B7B7B7"/>
<path d="M12.4175 6.72593L11.5037 6.15659C11.4922 6.14782 11.4782 6.14307 11.4638 6.14307C11.4494 6.14307 11.4354 6.14782 11.424 6.15659L9.46261 7.7906C9.45096 7.79984 9.44249 7.8125 9.4384 7.82679C9.43432 7.84109 9.43482 7.8563 9.43983 7.8703L10.3906 10.2416C10.3954 10.2551 10.4043 10.2667 10.416 10.2749C10.4278 10.2831 10.4418 10.2874 10.4561 10.2871L11.0397 10.2473C11.8655 9.25213 12.3487 8.01731 12.4175 6.72593Z" fill="#B7B7B7"/>
<path d="M10.4615 10.3559C10.4324 10.3573 10.4035 10.3496 10.379 10.3338C10.3545 10.3179 10.3356 10.2948 10.3249 10.2677L9.38266 7.89922C9.37167 7.87113 9.36987 7.84029 9.37755 7.81113C9.38522 7.78196 9.40197 7.75599 9.42536 7.73695L11.3753 6.10295C11.3991 6.08494 11.4281 6.0752 11.4579 6.0752C11.4877 6.0752 11.5167 6.08494 11.5405 6.10295L12.4884 6.70076V6.74061C12.4166 8.04431 11.9264 9.29014 11.0907 10.2933V10.3218L10.4758 10.3616L10.4615 10.3559ZM11.4664 6.21113L9.50791 7.84798L10.4559 10.2164L11.0081 10.1794C11.8045 9.21135 12.2721 8.01492 12.3432 6.76339L11.4664 6.21113Z" fill="#B7B7B7"/>
<path d="M1.1272 3.4162L3.42733 3.73788C3.44013 3.73792 3.45271 3.7345 3.46373 3.72798C3.47475 3.72147 3.4838 3.71211 3.48995 3.70087L4.54608 1.52885C4.55321 1.51546 4.55568 1.50008 4.5531 1.48513C4.55052 1.47018 4.54305 1.45652 4.53185 1.44629L3.93688 0.876953C2.75268 1.40083 1.76784 2.29088 1.1272 3.4162Z" fill="#B7B7B7"/>
<path d="M3.44437 3.80876H3.42444L1.01898 3.47285L1.07022 3.38176C1.72451 2.24836 2.7211 1.35143 3.91691 0.819731L3.95962 0.799805L4.59158 1.409C4.61245 1.43042 4.62634 1.45766 4.63142 1.48714C4.6365 1.51661 4.63255 1.54693 4.62006 1.57411L3.56108 3.74613C3.54834 3.76543 3.53101 3.78125 3.51064 3.79218C3.49027 3.80312 3.46749 3.80881 3.44437 3.80876ZM1.24671 3.35898L3.44437 3.66643L4.50048 1.49725L3.93114 0.956373C2.81209 1.46449 1.87533 2.3029 1.24671 3.35898Z" fill="#B7B7B7"/>
<path d="M10.7034 3.73462C10.7165 3.73438 10.7292 3.73054 10.7403 3.72351C10.7513 3.71647 10.7602 3.70653 10.766 3.69477L11.2158 2.77244C10.4121 1.7052 9.27816 0.933563 7.99045 0.577637L7.70578 0.734205C7.69289 0.741233 7.68261 0.752227 7.67645 0.765559C7.6703 0.77889 7.66861 0.79385 7.67162 0.808219L8.11571 3.32185C8.11869 3.33582 8.12565 3.34863 8.13576 3.35874C8.14586 3.36884 8.15867 3.3758 8.17264 3.37878L10.7034 3.73177V3.73462Z" fill="#B7B7B7"/>
<path d="M10.7034 3.80607H10.6864L8.15564 3.45308C8.12612 3.44831 8.09879 3.43454 8.07739 3.41365C8.05599 3.39276 8.04157 3.36577 8.03609 3.33637L7.592 0.822737C7.58712 0.793734 7.59134 0.763929 7.60408 0.737422C7.61682 0.710915 7.63747 0.689006 7.66317 0.674709L7.982 0.503906H8.01046C9.31205 0.866099 10.4584 1.64633 11.2728 2.72433L11.2984 2.76134L10.8315 3.72067C10.8206 3.74569 10.8027 3.76704 10.78 3.78219C10.7573 3.79733 10.7307 3.80562 10.7034 3.80607ZM7.99908 0.643395L7.73149 0.785729L8.17557 3.29936L10.7034 3.65235L11.1333 2.76988C10.3445 1.74234 9.24537 0.9966 7.99908 0.643395Z" fill="#B7B7B7"/>
<path d="M1.39215 9.60449V9.77814L4.81673 12.2121V12.0413L1.39215 9.60449Z" fill="#B7B7B7"/>
<path d="M4.8879 12.352L1.32098 9.81271V9.46826L4.8879 12.0047V12.352Z" fill="#B7B7B7"/>
<path d="M3.63809 7.4362L1.53723 8.14218L1.64541 8.25036L3.68363 7.56715C3.70071 7.56072 3.71466 7.54797 3.7226 7.53155C3.73055 7.51513 3.73189 7.49628 3.72634 7.4789C3.72383 7.46998 3.71945 7.46169 3.7135 7.45459C3.70755 7.44749 3.70018 7.44172 3.69183 7.43769C3.68349 7.43365 3.67437 7.43143 3.66511 7.43118C3.65585 7.43092 3.64665 7.43263 3.63809 7.4362Z" fill="#B7B7B7"/>
<path d="M1.62543 8.32967L1.40338 8.10762L3.61527 7.36464C3.63177 7.35699 3.64974 7.35303 3.66793 7.35303C3.68612 7.35303 3.70409 7.35699 3.72059 7.36464C3.75485 7.38176 3.78131 7.41128 3.79461 7.44719C3.80567 7.4827 3.80269 7.5211 3.78627 7.55446C3.76985 7.58783 3.74125 7.61363 3.70636 7.62653L1.62543 8.32967Z" fill="#B7B7B7"/>
<path d="M1.80495 2.82434L0.461304 7.10292H0.609337L2.01845 2.61084L1.80495 2.82434Z" fill="#B7B7B7"/>
<path d="M0.66043 7.17395H0.36438L1.75642 2.77296L2.17202 2.35449L0.66043 7.17395Z" fill="#B7B7B7"/>
<path d="M8.46324 1.53174H3.05452L2.91504 1.67123H8.60843C8.55719 1.62283 8.50879 1.57729 8.46324 1.53174Z" fill="#B7B7B7"/>
<path d="M8.77349 1.73943H2.72711L3.01463 1.46045H8.49167L8.77349 1.73943Z" fill="#B7B7B7"/>
<path d="M9.0981 2.16162L6.74388 5.12788C6.73148 5.1415 6.72461 5.15927 6.72461 5.17769C6.72461 5.19612 6.73148 5.21388 6.74388 5.22751C6.75878 5.23163 6.77453 5.23163 6.78943 5.22751C6.79977 5.22742 6.80996 5.22509 6.8193 5.22066C6.82864 5.21624 6.83691 5.20983 6.84352 5.20189L9.1835 2.24702L9.0981 2.16162Z" fill="#B7B7B7"/>
<path d="M6.8007 5.31262C6.77451 5.31209 6.74896 5.30436 6.72689 5.29025C6.70481 5.27615 6.68706 5.25623 6.67558 5.23268C6.6641 5.20913 6.65935 5.18287 6.66184 5.1568C6.66432 5.13072 6.67395 5.10583 6.68967 5.08488L9.09798 2.06738L9.3001 2.26665L6.91742 5.26991C6.90287 5.28594 6.88465 5.2982 6.86432 5.30564C6.84399 5.31308 6.82215 5.31547 6.8007 5.31262Z" fill="#B7B7B7"/>
<path d="M12.0613 8.61434C12.0628 8.60395 12.0628 8.59341 12.0613 8.58303L10.3078 3.36788L10.0942 3.15723L11.8934 8.51186L7.59201 7.40165C7.5739 7.39732 7.55481 7.40026 7.53884 7.40984C7.52288 7.41942 7.5113 7.43487 7.5066 7.45289C7.50298 7.47095 7.50624 7.4897 7.51572 7.5055C7.52519 7.52129 7.54022 7.53298 7.55785 7.53829L11.8279 8.63996L7.18494 12.0845V12.2581L12.0243 8.65704C12.0335 8.64847 12.0404 8.63769 12.0442 8.62573L12.0613 8.61434Z" fill="#B7B7B7"/>
<path d="M7.10516 12.3977V12.0475L11.6599 8.66567L7.53217 7.59815C7.49442 7.58872 7.46196 7.56467 7.44194 7.5313C7.42192 7.49794 7.41598 7.45799 7.42542 7.42024C7.43485 7.38249 7.45891 7.35003 7.49228 7.33001C7.52564 7.30999 7.56559 7.30405 7.60334 7.31349L11.7794 8.38954L9.92623 2.87549L10.376 3.33096L12.1296 8.5461C12.1338 8.56196 12.1338 8.57864 12.1296 8.5945V8.6372C12.1272 8.64832 12.1212 8.65833 12.1125 8.66567V8.68274L12.0726 8.70552L7.10516 12.3977Z" fill="#B7B7B7"/>
<path d="M2.57607 2.06641L2.47357 2.16889L4.25846 5.07536C4.26472 5.08565 4.27349 5.09418 4.28394 5.10015C4.2944 5.10613 4.3062 5.10935 4.31824 5.10952C4.3303 5.11325 4.3432 5.11325 4.35525 5.10952C4.36292 5.10485 4.36957 5.09872 4.37487 5.09147C4.38016 5.08422 4.38398 5.076 4.38609 5.06727C4.38821 5.05855 4.38859 5.04949 4.3872 5.04062C4.38582 5.03175 4.38269 5.02324 4.37801 5.01558L2.57607 2.06641Z" fill="#B7B7B7"/>
<path d="M4.30398 5.18086C4.27985 5.18079 4.25615 5.17446 4.2352 5.16248C4.21424 5.15051 4.19674 5.1333 4.18443 5.11254L2.38531 2.14344L2.59029 1.93848L4.42356 4.96736C4.44274 4.99919 4.4487 5.03725 4.44019 5.07342C4.43168 5.10959 4.40936 5.141 4.378 5.16093C4.3552 5.17319 4.32986 5.18001 4.30398 5.18086Z" fill="#B7B7B7"/>
<path d="M5.62227 8.83031C5.60389 8.83246 5.58707 8.84169 5.57538 8.85604C5.56369 8.87039 5.55805 8.88873 5.55966 8.90717L5.89271 12.1154H6.0322L5.69914 8.89863C5.69879 8.88903 5.6965 8.87959 5.6924 8.8709C5.6883 8.86221 5.68249 8.85444 5.6753 8.84805C5.66812 8.84167 5.65973 8.83681 5.65061 8.83376C5.6415 8.83071 5.63185 8.82953 5.62227 8.83031Z" fill="#B7B7B7"/>
<path d="M6.11189 12.1866H5.82722L5.48847 8.91576C5.4865 8.89743 5.48819 8.87888 5.49344 8.86121C5.49868 8.84353 5.50738 8.82706 5.51903 8.81277C5.53068 8.79847 5.54503 8.78663 5.56128 8.77792C5.57754 8.76921 5.59537 8.76381 5.61372 8.76204C5.65013 8.75959 5.68609 8.77123 5.71417 8.79454C5.74224 8.81785 5.76029 8.85105 5.76459 8.88729L6.11189 12.1866Z" fill="#B7B7B7"/>
<path d="M6.38501 12.7277C5.13329 12.7277 3.9097 12.3565 2.86897 11.661C1.82824 10.9655 1.01714 9.97703 0.538256 8.82053C0.0593727 7.66404 -0.0657748 6.3915 0.178631 5.16388C0.423037 3.93625 1.02602 2.80867 1.91132 1.92377C2.79662 1.03887 3.92446 0.436393 5.1522 0.19254C6.37994 -0.0513138 7.65242 0.0744117 8.8087 0.553815C9.96498 1.03322 10.9531 1.84476 11.6481 2.8858C12.3431 3.92685 12.7138 5.15062 12.7132 6.40234C12.711 8.07973 12.0434 9.68773 10.8571 10.8736C9.67071 12.0594 8.0624 12.7262 6.38501 12.7277ZM6.38501 0.560923C5.22981 0.561486 4.10073 0.904558 3.14049 1.54676C2.18024 2.18897 1.43197 3.10147 0.99028 4.1689C0.548593 5.23633 0.433332 6.41075 0.659046 7.54369C0.884759 8.67663 1.44132 9.7172 2.25837 10.5339C3.07542 11.3505 4.11626 11.9066 5.24931 12.1317C6.38235 12.3569 7.55672 12.241 8.62393 11.7988C9.69115 11.3566 10.6033 10.6079 11.245 9.64736C11.8868 8.68681 12.2293 7.55754 12.2293 6.40234C12.2285 4.85284 11.6125 3.36706 10.5165 2.27166C9.42059 1.17627 7.93451 0.560923 6.38501 0.560923Z" fill="#B7B7B7"/>
<path d="M6.38513 12.7987C5.11994 12.7959 3.88399 12.4181 2.83343 11.7131C1.78287 11.0081 0.964858 10.0075 0.48277 8.83778C0.000683184 7.66804 -0.123839 6.38165 0.124918 5.14115C0.373675 3.90066 0.984552 2.76174 1.88037 1.86831C2.77618 0.974875 3.91674 0.36703 5.15789 0.121582C6.39904 -0.123866 7.6851 0.00409761 8.85355 0.489302C10.022 0.974507 11.0204 1.79518 11.7226 2.84761C12.4248 3.90005 12.7993 5.13701 12.7987 6.4022C12.7976 7.24333 12.6308 8.076 12.3079 8.85266C11.985 9.62933 11.5123 10.3348 10.9167 10.9288C10.3211 11.5227 9.61442 11.9936 8.83689 12.3144C8.05936 12.6353 7.22625 12.7998 6.38513 12.7987ZM6.38513 0.145169C5.14648 0.145169 3.93564 0.512471 2.90574 1.20063C1.87584 1.88879 1.07314 2.86689 0.59913 4.01125C0.125119 5.15562 0.00108825 6.41484 0.242737 7.62969C0.484386 8.84454 1.08086 9.96046 1.95671 10.8363C2.83257 11.7122 3.94849 12.3086 5.16334 12.5503C6.37819 12.7919 7.63741 12.6679 8.78178 12.1939C9.92614 11.7199 10.9042 10.9172 11.5924 9.88728C12.2806 8.85738 12.6479 7.64655 12.6479 6.4079C12.6479 4.74692 11.988 3.15397 10.8136 1.97948C9.63907 0.80499 8.0461 0.145169 6.38513 0.145169ZM6.38513 12.3119C5.21549 12.3125 4.07197 11.9661 3.09921 11.3167C2.12646 10.6672 1.36818 9.74382 0.920321 8.66332C0.472459 7.58282 0.355132 6.39376 0.58318 5.24657C0.811227 4.09937 1.37439 3.04559 2.20146 2.21853C3.02852 1.39147 4.0823 0.828291 5.22949 0.600243C6.37668 0.372195 7.56575 0.489524 8.64625 0.937387C9.72675 1.38525 10.6501 2.14352 11.2996 3.11628C11.9491 4.08903 12.2954 5.23256 12.2949 6.4022C12.2934 7.96936 11.6703 9.47195 10.5625 10.5804C9.45457 11.6888 7.95228 12.3125 6.38513 12.3148V12.3119ZM6.38513 0.640494C5.24376 0.639931 4.12787 0.977871 3.17858 1.61157C2.22929 2.24527 1.48927 3.14627 1.05209 4.20059C0.614919 5.25492 0.500236 6.41521 0.722561 7.53472C0.944885 8.65422 1.49423 9.68265 2.3011 10.4899C3.10797 11.2972 4.13612 11.847 5.25552 12.0699C6.37491 12.2928 7.53526 12.1787 8.5898 11.742C9.64434 11.3054 10.5457 10.5658 11.1799 9.61682C11.814 8.66784 12.1525 7.55211 12.1525 6.41074C12.151 4.8816 11.5429 3.41551 10.4616 2.33424C9.38038 1.25297 7.91427 0.644848 6.38513 0.64334V0.640494Z" fill="#B7B7B7"/>
</svg>
