<svg width="14" height="14" viewBox="0 0 14 14" fill="none" xmlns="http://www.w3.org/2000/svg">
<path d="M6.53626 13.0018C5.46795 13.0058 4.41524 12.7455 3.47186 12.2442C2.52848 11.7429 1.72372 11.016 1.12923 10.1284C0.53474 9.24076 0.168974 8.2199 0.0645017 7.15671C-0.0399704 6.09351 0.120095 5.02098 0.530443 4.03462C0.940791 3.04826 1.58869 2.17868 2.41644 1.50331C3.24419 0.82794 4.22612 0.367746 5.27477 0.163702C6.32341 -0.0403418 7.40625 0.0180985 8.42684 0.33382C9.44744 0.649541 10.3741 1.21274 11.1244 1.97328C12.0223 2.88002 12.6325 4.03175 12.8783 5.28396C13.1241 6.53618 12.9947 7.8331 12.5062 9.01202C12.0177 10.1909 11.1919 11.1993 10.1325 11.9107C9.07302 12.6221 7.82708 13.0047 6.55098 13.0106L6.53626 13.0018ZM6.53626 0.580355C5.158 0.581068 3.82263 1.05964 2.75766 1.93452C1.69269 2.80941 0.964023 4.02648 0.695786 5.37838C0.42755 6.73028 0.636348 8.13336 1.28661 9.34857C1.93688 10.5638 2.98837 11.5159 4.26195 12.0428C5.53552 12.5697 6.95238 12.6387 8.27111 12.238C9.58985 11.8374 10.7289 10.9919 11.4941 9.84562C12.2594 8.69933 12.6035 7.32318 12.4679 5.95161C12.3323 4.58005 11.7253 3.29793 10.7504 2.32372C10.1976 1.76956 9.54073 1.33024 8.81749 1.03103C8.09425 0.731829 7.31895 0.578663 6.53626 0.580355Z" fill="#B7B7B7"/>
<path d="M6.53631 13.0752C5.02381 13.0749 3.55821 12.5502 2.38922 11.5904C1.22024 10.6307 0.420189 9.29533 0.125392 7.81184C-0.169405 6.32835 0.0592886 4.78855 0.772512 3.45477C1.48573 2.121 2.63935 1.07579 4.03682 0.497219C5.43428 -0.0813478 6.98912 -0.157471 8.43641 0.28182C9.88371 0.721111 11.1339 1.64864 11.974 2.90636C12.8141 4.16409 13.1921 5.67419 13.0436 7.17938C12.8952 8.68457 12.2294 10.0917 11.1598 11.1611C10.5537 11.7697 9.83311 12.2522 9.03955 12.5807C8.24599 12.9093 7.39519 13.0773 6.53631 13.0752ZM6.53631 0.150191C5.05864 0.151942 3.62729 0.665966 2.4861 1.60469C1.34492 2.54342 0.564517 3.84877 0.27783 5.29836C-0.00885719 6.74795 0.215918 8.2521 0.91386 9.55455C1.6118 10.857 2.73974 11.8772 4.10549 12.4413C5.47125 13.0054 6.99035 13.0785 8.40397 12.6482C9.8176 12.2179 11.0383 11.3108 11.8581 10.0814C12.6779 8.85196 13.0461 7.37636 12.9 5.90593C12.7538 4.43551 12.1024 3.06123 11.0567 2.01724C10.4636 1.4233 9.75883 0.952557 8.98302 0.632127C8.20722 0.311697 7.37568 0.147908 6.53631 0.150191ZM6.53631 12.5716C5.14031 12.5715 3.78757 12.0872 2.70857 11.2015C1.62956 10.3157 0.891062 9.08326 0.618887 7.71405C0.346713 6.34485 0.557698 4.92363 1.21591 3.69255C1.87413 2.46147 2.93884 1.4967 4.22863 0.962622C5.51843 0.428546 6.95351 0.358208 8.28935 0.763591C9.62519 1.16897 10.7791 2.025 11.5546 3.18581C12.33 4.34662 12.679 5.74039 12.542 7.12965C12.4051 8.51891 11.7906 9.8177 10.8034 10.8047C10.2445 11.3672 9.57961 11.8133 8.84716 12.1171C8.1147 12.4209 7.32926 12.5764 6.53631 12.5746V12.5716ZM6.53631 0.653763C5.17356 0.654836 3.85337 1.12843 2.80069 1.99384C1.748 2.85924 1.02799 4.06291 0.763345 5.3997C0.498699 6.7365 0.7058 8.12371 1.34935 9.32492C1.99291 10.5261 3.03308 11.467 4.29262 11.9872C5.55217 12.5074 6.95313 12.5748 8.25676 12.1778C9.5604 11.7808 10.686 10.944 11.4418 9.81005C12.1976 8.67611 12.5368 7.31516 12.4016 5.95915C12.2664 4.60313 11.6652 3.33595 10.7004 2.37357C10.1545 1.82571 9.50544 1.39161 8.79066 1.09639C8.07589 0.801182 7.30964 0.650733 6.53631 0.653763Z" fill="#B7B7B7"/>
<path d="M6.53626 13.0018C5.46795 13.0058 4.41524 12.7455 3.47186 12.2442C2.52848 11.7429 1.72372 11.016 1.12923 10.1284C0.53474 9.24076 0.168974 8.2199 0.0645017 7.15671C-0.0399704 6.09351 0.120095 5.02098 0.530443 4.03462C0.940791 3.04826 1.58869 2.17868 2.41644 1.50331C3.24419 0.82794 4.22612 0.367746 5.27477 0.163702C6.32341 -0.0403418 7.40625 0.0180985 8.42684 0.33382C9.44744 0.649541 10.3741 1.21274 11.1244 1.97328C12.0223 2.88002 12.6325 4.03175 12.8783 5.28396C13.1241 6.53618 12.9947 7.8331 12.5062 9.01202C12.0177 10.1909 11.1919 11.1993 10.1325 11.9107C9.07302 12.6221 7.82708 13.0047 6.55098 13.0106L6.53626 13.0018ZM6.53626 0.580355C5.158 0.581068 3.82263 1.05964 2.75766 1.93452C1.69269 2.80941 0.964023 4.02648 0.695786 5.37838C0.42755 6.73028 0.636348 8.13336 1.28661 9.34857C1.93688 10.5638 2.98837 11.5159 4.26195 12.0428C5.53552 12.5697 6.95238 12.6387 8.27111 12.238C9.58985 11.8374 10.7289 10.9919 11.4941 9.84562C12.2594 8.69933 12.6035 7.32318 12.4679 5.95161C12.3323 4.58005 11.7253 3.29793 10.7504 2.32372C10.1976 1.76956 9.54073 1.33024 8.81749 1.03103C8.09425 0.731829 7.31895 0.578663 6.53626 0.580355Z" fill="#B7B7B7"/>
<path d="M6.53631 13.0752C5.02381 13.0749 3.55821 12.5502 2.38922 11.5904C1.22024 10.6307 0.420189 9.29533 0.125392 7.81184C-0.169405 6.32835 0.0592886 4.78855 0.772512 3.45477C1.48573 2.121 2.63935 1.07579 4.03682 0.497219C5.43428 -0.0813478 6.98912 -0.157471 8.43641 0.28182C9.88371 0.721111 11.1339 1.64864 11.974 2.90636C12.8141 4.16409 13.1921 5.67419 13.0436 7.17938C12.8952 8.68457 12.2294 10.0917 11.1598 11.1611C10.5537 11.7697 9.83311 12.2522 9.03955 12.5807C8.24599 12.9093 7.39519 13.0773 6.53631 13.0752ZM6.53631 0.150191C5.05864 0.151942 3.62729 0.665966 2.4861 1.60469C1.34492 2.54342 0.564517 3.84877 0.27783 5.29836C-0.00885719 6.74795 0.215918 8.2521 0.91386 9.55455C1.6118 10.857 2.73974 11.8772 4.10549 12.4413C5.47125 13.0054 6.99035 13.0785 8.40397 12.6482C9.8176 12.2179 11.0383 11.3108 11.8581 10.0814C12.6779 8.85196 13.0461 7.37636 12.9 5.90593C12.7538 4.43551 12.1024 3.06123 11.0567 2.01724C10.4636 1.4233 9.75883 0.952557 8.98302 0.632127C8.20722 0.311697 7.37568 0.147908 6.53631 0.150191ZM6.53631 12.5716C5.14031 12.5715 3.78757 12.0872 2.70857 11.2015C1.62956 10.3157 0.891062 9.08326 0.618887 7.71405C0.346713 6.34485 0.557698 4.92363 1.21591 3.69255C1.87413 2.46147 2.93884 1.4967 4.22863 0.962622C5.51843 0.428546 6.95351 0.358208 8.28935 0.763591C9.62519 1.16897 10.7791 2.025 11.5546 3.18581C12.33 4.34662 12.679 5.74039 12.542 7.12965C12.4051 8.51891 11.7906 9.8177 10.8034 10.8047C10.2445 11.3672 9.57961 11.8133 8.84716 12.1171C8.1147 12.4209 7.32926 12.5764 6.53631 12.5746V12.5716ZM6.53631 0.653763C5.17356 0.654836 3.85337 1.12843 2.80069 1.99384C1.748 2.85924 1.02799 4.06291 0.763345 5.3997C0.498699 6.7365 0.7058 8.12371 1.34935 9.32492C1.99291 10.5261 3.03308 11.467 4.29262 11.9872C5.55217 12.5074 6.95313 12.5748 8.25676 12.1778C9.5604 11.7808 10.686 10.944 11.4418 9.81005C12.1976 8.67611 12.5368 7.31516 12.4016 5.95915C12.2664 4.60313 11.6652 3.33595 10.7004 2.37357C10.1545 1.82571 9.50544 1.39161 8.79066 1.09639C8.07589 0.801182 7.30964 0.650733 6.53631 0.653763Z" fill="#B7B7B7"/>
<path d="M6.74533 10.354C5.71773 10.3624 4.72297 9.99236 3.95065 9.31446L3.82107 9.19372C3.41347 8.78616 3.10159 8.29306 2.90805 7.75011C2.7145 7.20717 2.64414 6.62798 2.70203 6.05449C2.80215 5.012 3.30867 3.73688 4.43066 3.28042C6.43023 2.46469 7.37553 1.47227 7.16939 0.412119C7.16496 0.389491 7.16613 0.366121 7.1728 0.344049C7.17948 0.321978 7.19145 0.301874 7.20767 0.28549C7.22363 0.268427 7.24349 0.255493 7.26555 0.247798C7.28761 0.240104 7.31119 0.237879 7.3343 0.241316C8.70809 0.44558 9.97761 1.09286 10.9498 2.08474C11.922 3.07662 12.5437 4.35884 12.7205 5.73644C12.7237 5.75909 12.7213 5.78218 12.7136 5.80373C12.7059 5.82527 12.6931 5.84462 12.6763 5.86013C12.6595 5.87563 12.6392 5.88691 12.6172 5.89305C12.5952 5.8992 12.5721 5.90002 12.5497 5.89546C11.2804 5.62159 10.3116 6.48444 9.82567 8.30731C9.69889 8.76591 9.45228 9.18248 9.11122 9.51423C8.77015 9.84598 8.34692 10.0809 7.88499 10.195C7.51487 10.3032 7.13093 10.3567 6.74533 10.354ZM7.48154 0.559363C7.54633 1.39276 7.03981 2.52653 4.53668 3.54546C3.53248 3.95774 3.06424 5.12391 2.98472 6.08099C2.93237 6.61239 2.99816 7.14879 3.17737 7.65178C3.35658 8.15478 3.64477 8.61194 4.02132 8.99052L4.14206 9.10243C4.63461 9.53186 5.22638 9.83185 5.86392 9.97529C6.50145 10.1187 7.16468 10.1011 7.7937 9.92405C8.2094 9.82495 8.59105 9.61652 8.89912 9.32036C9.2072 9.02419 9.4305 8.65105 9.5459 8.23958C10.0465 6.36075 11.0831 5.40662 12.4083 5.5892C12.2041 4.34831 11.621 3.201 10.7389 2.30468C9.85682 1.40836 8.719 0.806931 7.48154 0.582921V0.559363Z" fill="#B7B7B7"/>
<path d="M6.74542 10.428C5.69942 10.4375 4.68661 10.0611 3.90067 9.37081L3.76816 9.24418C3.35336 8.82867 3.03595 8.32626 2.83887 7.7732C2.64178 7.22015 2.56994 6.63024 2.6285 6.04605C2.72862 4.9859 3.24987 3.69015 4.39542 3.21309C6.3567 2.41208 7.28727 1.44616 7.08996 0.42724C7.08263 0.392739 7.08391 0.356963 7.09367 0.323068C7.10342 0.289173 7.12136 0.258199 7.14592 0.232879C7.17045 0.208618 7.20014 0.190196 7.23277 0.17898C7.2654 0.167764 7.30013 0.164042 7.33439 0.168091C8.72333 0.376417 10.0066 1.03145 10.9901 2.03407C11.9736 3.0367 12.6038 4.33237 12.7853 5.72506C12.7902 5.75961 12.7866 5.79483 12.7748 5.82766C12.763 5.8605 12.7433 5.88997 12.7176 5.91353C12.6916 5.93694 12.6605 5.95393 12.6267 5.96314C12.593 5.97234 12.5575 5.97351 12.5233 5.96654C11.3011 5.7015 10.3647 6.55551 9.88759 8.32243C9.75724 8.79543 9.50288 9.22501 9.15081 9.56672C8.79875 9.90844 8.36176 10.1499 7.88508 10.266C7.51491 10.3743 7.1311 10.4289 6.74542 10.428ZM7.31378 0.315335C7.30325 0.314618 7.29271 0.31637 7.28299 0.320449C7.27326 0.324529 7.26462 0.330823 7.25775 0.338831C7.25089 0.34684 7.24599 0.35634 7.24344 0.366576C7.2409 0.376813 7.24079 0.387502 7.2431 0.397792C7.45808 1.49623 6.4951 2.5181 4.4602 3.34266C3.36765 3.78734 2.87292 5.03596 2.77279 6.05488C2.71742 6.6178 2.78746 7.186 2.9779 7.71861C3.16833 8.25123 3.47443 8.73503 3.87417 9.13522C3.9154 9.17645 3.95663 9.21767 4.0008 9.25596C4.75892 9.9221 5.73627 10.2849 6.74542 10.2749C7.12111 10.2772 7.49513 10.2246 7.85564 10.1188C8.30705 10.0091 8.72103 9.78096 9.0549 9.45795C9.38878 9.13494 9.63047 8.72874 9.75507 8.2812C10.2527 6.40827 11.2481 5.53364 12.5645 5.81635C12.5754 5.81936 12.587 5.8193 12.5979 5.81619C12.6088 5.81307 12.6186 5.80701 12.6263 5.79868C12.635 5.79171 12.6417 5.78263 12.6458 5.77231C12.6499 5.762 12.6513 5.7508 12.6499 5.73978C12.4734 4.3784 11.8578 3.11169 10.8964 2.13173C9.93504 1.15177 8.68038 0.512007 7.32262 0.309445L7.31378 0.315335ZM6.74247 10.1424C5.76844 10.1497 4.82549 9.79981 4.09209 9.15878C4.05086 9.12049 4.00964 9.08221 3.97136 9.04098C3.58606 8.65543 3.2911 8.18919 3.10778 7.67588C2.92445 7.16256 2.8573 6.61495 2.91119 6.07255C3.00543 5.09486 3.47366 3.90219 4.51026 3.47812C7.01339 2.45625 7.45513 1.32837 7.40507 0.565649V0.468468L7.4993 0.486138C8.75236 0.714878 9.90385 1.32604 10.7955 2.23565C11.6872 3.14526 12.2753 4.30867 12.4791 5.56604L12.4967 5.66322H12.3966C11.1186 5.49241 10.1026 6.44066 9.61667 8.26354C9.49795 8.68727 9.26836 9.07167 8.95155 9.37709C8.63475 9.6825 8.2422 9.89788 7.81441 10.001C7.46578 10.0996 7.10473 10.1472 6.74247 10.1424ZM7.56115 0.648105C7.58177 1.45794 7.05463 2.60055 4.56916 3.61359C3.59441 4.01115 3.14973 5.15375 3.06139 6.08728C3.00908 6.60802 3.07308 7.13387 3.24878 7.62685C3.42448 8.11984 3.7075 8.56764 4.07737 8.93791C4.11565 8.97619 4.15392 9.01448 4.19515 9.04982C4.67896 9.46853 5.25899 9.76084 5.88337 9.90061C6.50774 10.0404 7.15702 10.0233 7.77318 9.85082C8.1759 9.75186 8.54538 9.54835 8.84425 9.26085C9.14312 8.97335 9.36081 8.61206 9.47532 8.21347C9.97006 6.35821 11.0037 5.37462 12.3201 5.49241C12.1061 4.29997 11.5375 3.19976 10.6885 2.33553C9.83951 1.4713 8.74961 0.883212 7.56115 0.648105Z" fill="#B7B7B7"/>
</svg>
