<svg width="12" height="13" viewBox="0 0 12 13" fill="none" xmlns="http://www.w3.org/2000/svg">
<path d="M3.09288 6.6022C2.61376 6.6022 2.44564 6.43128 2.3896 6.28559C2.38094 6.26845 2.37596 6.24969 2.37499 6.23052C2.37402 6.21134 2.37709 6.19218 2.38399 6.17426C2.3909 6.15635 2.40147 6.14008 2.41505 6.1265C2.42863 6.11293 2.4449 6.10236 2.46282 6.09547C2.48074 6.08857 2.49991 6.08552 2.51909 6.08649C2.53826 6.08747 2.55702 6.09246 2.57415 6.10113C2.59127 6.1098 2.60639 6.12197 2.61852 6.13685C2.63066 6.15174 2.63953 6.16899 2.64458 6.18752C2.6726 6.25757 2.8211 6.33602 3.14612 6.32761C3.55549 6.29857 3.95755 6.20397 4.33692 6.04742C5.27556 5.68318 5.73787 5.20686 5.67623 5.00792C5.6695 4.99121 5.66619 4.97331 5.66651 4.9553C5.66683 4.93728 5.67076 4.91952 5.67808 4.90305C5.68539 4.88659 5.69595 4.87176 5.70911 4.85945C5.72227 4.84714 5.73777 4.8376 5.75468 4.8314C5.77122 4.8246 5.78895 4.82116 5.80683 4.82129C5.82472 4.82142 5.84238 4.82512 5.85882 4.83216C5.87526 4.83921 5.89013 4.84946 5.90256 4.86232C5.91499 4.87518 5.92472 4.89039 5.9312 4.90705C6.11052 5.37217 5.31479 5.96057 4.43499 6.308C4.02653 6.4766 3.59284 6.57603 3.15172 6.6022H3.09288Z" fill="#B7B7B7"/>
<path d="M3.09292 6.67207C2.57176 6.67207 2.38683 6.47594 2.32519 6.31343C2.31343 6.28744 2.30717 6.2593 2.30678 6.23078C2.30639 6.20226 2.31189 6.17396 2.32293 6.14767C2.33398 6.12137 2.35033 6.09763 2.37097 6.07794C2.39161 6.05825 2.41609 6.04303 2.44287 6.03324C2.46886 6.02148 2.497 6.01521 2.52552 6.01482C2.55404 6.01443 2.58233 6.01993 2.60863 6.03097C2.63493 6.04202 2.65866 6.05837 2.67835 6.07901C2.69804 6.09965 2.71327 6.12413 2.72306 6.15091C2.72306 6.17333 2.83234 6.25739 3.15456 6.24618C3.55646 6.21558 3.95088 6.12099 4.32294 5.96599C5.27839 5.59334 5.66505 5.12542 5.62022 5.01615C5.60061 4.96472 5.60061 4.90787 5.62022 4.85644C5.6358 4.81832 5.66237 4.78571 5.69655 4.76276C5.73074 4.7398 5.77098 4.72754 5.81215 4.72754C5.85333 4.72754 5.89357 4.7398 5.92775 4.76276C5.96193 4.78571 5.9885 4.81832 6.00408 4.85644C6.09934 5.1002 5.97327 5.386 5.63424 5.67739C5.28469 5.96108 4.89092 6.18541 4.46865 6.34144C4.05298 6.51243 3.61169 6.61281 3.16296 6.63844L3.09292 6.67207ZM2.51852 6.17053H2.50452C2.48823 6.17738 2.47513 6.19015 2.46785 6.20625C2.46058 6.22236 2.45966 6.24063 2.46529 6.25738C2.53814 6.44511 2.7791 6.53757 3.16016 6.53757C3.59304 6.51449 4.0191 6.41981 4.42101 6.25738C4.82648 6.10602 5.20492 5.89031 5.54177 5.61855C5.74351 5.44483 5.96485 5.18706 5.87239 4.9545C5.86962 4.94597 5.8651 4.93812 5.85911 4.93143C5.85313 4.92475 5.84581 4.91939 5.83763 4.9157C5.82946 4.91201 5.8206 4.91006 5.81163 4.90999C5.80266 4.90992 5.79377 4.91172 5.78553 4.91528C5.7695 4.92279 5.75661 4.93567 5.74911 4.9517C5.74356 4.96806 5.74356 4.98578 5.74911 5.00214C5.84437 5.2515 5.31482 5.76425 4.37058 6.12289C3.98324 6.28199 3.57247 6.37664 3.15456 6.40308C2.84635 6.40308 2.63621 6.34424 2.59418 6.21816C2.59127 6.20972 2.58648 6.20206 2.58017 6.19575C2.57385 6.18944 2.56619 6.18465 2.55775 6.18174L2.51852 6.17053Z" fill="#B7B7B7"/>
<path d="M3.51903 7.79625C2.98107 7.79625 2.78774 7.59171 2.71769 7.41799L2.31982 6.3897C2.24977 6.20757 2.25818 5.91057 2.70088 5.52952C3.05219 5.24318 3.44902 5.01777 3.87488 4.86266C4.29409 4.68969 4.73909 4.58744 5.19176 4.56006C5.77175 4.56006 5.9819 4.75899 6.05195 4.94112L6.44981 5.96661C6.52266 6.14873 6.51426 6.44574 6.07156 6.82959C5.35434 7.38966 4.48794 7.72588 3.58067 7.79625H3.51903ZM5.259 5.03918C4.84189 5.05848 4.43176 5.15342 4.04859 5.31937C3.11556 5.68082 2.74851 6.12071 2.76813 6.22719L3.16599 7.25268C3.22483 7.34234 3.79082 7.41799 4.72385 7.05655C5.65688 6.6951 6.02112 6.2552 6.00431 6.14873L5.60645 5.12324C5.58683 5.07561 5.46074 5.03918 5.259 5.03918Z" fill="#B7B7B7"/>
<path d="M3.51878 7.86603C2.93879 7.86603 2.72864 7.63628 2.65299 7.44295L2.25512 6.41465C2.17667 6.21291 2.17947 5.88509 2.65299 5.47601C3.01122 5.1849 3.41559 4.95572 3.8494 4.79796C4.27581 4.62214 4.72834 4.518 5.1887 4.48975C5.80792 4.48975 6.02928 4.7139 6.11614 4.91564L6.51681 5.94113C6.59526 6.14567 6.58966 6.47349 6.11614 6.88257C5.38982 7.44991 4.51308 7.79184 3.59443 7.86603H3.51878ZM5.24475 4.62984H5.19151C4.74777 4.65866 4.3116 4.75895 3.89984 4.92684C3.48189 5.08103 3.09195 5.3025 2.74545 5.58249C2.42043 5.86268 2.29435 6.14286 2.38401 6.36421L2.78468 7.40652C2.86874 7.62507 3.12371 7.73995 3.51878 7.73995H3.57761C4.46878 7.6677 5.31967 7.33767 6.02648 6.7901C6.3515 6.50991 6.47478 6.22972 6.38512 6.00557L5.98725 4.98008C5.9256 4.81196 5.74909 4.62984 5.24475 4.62984ZM3.51037 7.38971C3.29182 7.38971 3.14893 7.34768 3.1069 7.28043L2.70063 6.24373C2.66701 6.0476 3.12091 5.59369 4.02312 5.24346C4.41454 5.07572 4.83326 4.98077 5.25875 4.96327C5.38203 4.96327 5.60058 4.96327 5.66222 5.06974L6.0685 6.10924C6.10213 6.30257 5.64822 6.75648 4.74881 7.10671C4.35622 7.27428 3.93678 7.37012 3.51037 7.38971ZM3.23018 7.20478C3.30303 7.25802 3.81578 7.32527 4.70118 6.98343C5.58658 6.6416 5.9172 6.24093 5.93681 6.14287L5.54455 5.165C5.45603 5.12807 5.35999 5.1127 5.26436 5.12017C4.85563 5.14132 4.45409 5.23625 4.07916 5.40036C3.19376 5.74499 2.86313 6.14006 2.84352 6.24093L3.23018 7.20478Z" fill="#B7B7B7"/>
<path d="M5.22023 5.26333C5.227 5.27913 5.23046 5.29615 5.23042 5.31333C5.23038 5.33052 5.22684 5.34752 5.22001 5.36328C5.21318 5.37905 5.20319 5.39326 5.19068 5.40504C5.17817 5.41682 5.16338 5.42593 5.14723 5.4318C5.13137 5.43788 5.11448 5.44078 5.09751 5.44034C5.08053 5.43989 5.0638 5.4361 5.04829 5.42919C5.03277 5.42228 5.01878 5.41239 5.00709 5.40007C4.9954 5.38775 4.98625 5.37325 4.98017 5.35739C4.97408 5.34154 4.97119 5.32464 4.97163 5.30766C4.97208 5.29069 4.97586 5.27397 4.98277 5.25845C4.98968 5.24294 4.99958 5.22894 5.0119 5.21725C5.02422 5.20556 5.03872 5.19641 5.05458 5.19033C5.07022 5.18402 5.08697 5.1809 5.10385 5.18117C5.12072 5.18143 5.13737 5.18508 5.15281 5.19188C5.16825 5.19869 5.18217 5.20851 5.19375 5.22078C5.20533 5.23306 5.21433 5.24752 5.22023 5.26333Z" fill="#B7B7B7"/>
<path d="M5.09969 5.51059C5.05969 5.51055 5.02063 5.49848 4.98758 5.47595C4.95453 5.45341 4.92903 5.42146 4.91438 5.38424C4.89512 5.33434 4.89642 5.27884 4.91799 5.2299C4.93957 5.18096 4.97967 5.14256 5.0295 5.12312C5.05343 5.11276 5.07923 5.10742 5.1053 5.10742C5.13138 5.10742 5.15718 5.11276 5.18111 5.12312C5.20566 5.13273 5.22788 5.14747 5.24628 5.16635C5.26468 5.18524 5.27883 5.20783 5.28781 5.23262C5.30736 5.28224 5.30736 5.33743 5.28781 5.38705C5.26518 5.43487 5.22494 5.4721 5.1755 5.49093C5.1522 5.50355 5.12618 5.5103 5.09969 5.51059ZM5.09969 5.24947H5.08003C5.06485 5.25516 5.05251 5.26659 5.04568 5.2813C5.03885 5.29601 5.03808 5.31281 5.04353 5.32808C5.04651 5.33541 5.05108 5.34198 5.05691 5.34732C5.06274 5.35266 5.06967 5.35664 5.07722 5.35897C5.08421 5.36243 5.0919 5.36423 5.09969 5.36423C5.10748 5.36423 5.11517 5.36243 5.12215 5.35897C5.13726 5.35244 5.14932 5.34039 5.15584 5.32528C5.16148 5.31083 5.16148 5.2948 5.15584 5.28035C5.14959 5.26599 5.13873 5.25413 5.12496 5.24666L5.09969 5.24947Z" fill="#B7B7B7"/>
<path d="M1.61641 12.2642H1.59119C1.29568 12.2399 1.01413 12.128 0.782544 11.9429C0.550957 11.7577 0.379855 11.5076 0.291118 11.2247C0.229477 10.9922 0.198655 10.7988 0.167834 10.6307C0.151023 10.527 0.137016 10.4346 0.117402 10.3505C0.0686489 10.2148 0.0541373 10.0691 0.0751532 9.92636C0.0961692 9.78365 0.152062 9.64832 0.237882 9.53238C0.431212 9.31103 0.767443 9.23258 1.2914 9.28581L5.67075 9.51837C7.13054 9.47634 7.99913 8.33037 8.22888 7.98013C8.5567 7.48419 9.2824 4.85882 9.86799 2.74899C10.1286 1.80475 10.3779 0.91095 10.5685 0.27492C10.5834 0.225605 10.6139 0.182392 10.6552 0.151629C10.6966 0.120867 10.7467 0.104175 10.7982 0.104004H11.6752C11.7129 0.104112 11.75 0.113039 11.7835 0.130069C11.8171 0.147099 11.8462 0.171758 11.8685 0.20207C11.8908 0.232803 11.9057 0.26826 11.912 0.305681C11.9183 0.343102 11.9159 0.381476 11.905 0.417815C11.4455 1.88321 10.6665 4.9821 10.151 7.03309C9.93244 7.91008 9.75872 8.60215 9.67747 8.89075C9.53124 9.4257 9.30752 9.93639 9.01342 10.4066C8.11961 11.8075 6.11906 11.9728 6.0322 11.9784L1.63323 12.2586L1.61641 12.2642ZM1.0084 9.74252C0.728213 9.74252 0.627345 9.80696 0.596524 9.84059C0.529278 9.91904 0.551694 10.0984 0.596524 10.2329C0.641354 10.3673 0.635754 10.429 0.652565 10.5411C0.680584 10.7008 0.711403 10.8829 0.764639 11.1014C0.829441 11.2859 0.945634 11.448 1.09953 11.5687C1.25342 11.6893 1.4386 11.7634 1.63323 11.7823L6.01258 11.5021C6.01258 11.5021 7.85623 11.3452 8.62395 10.1432C8.88903 9.71354 9.09185 9.24846 9.22636 8.76186C9.30481 8.48167 9.47853 7.7896 9.69708 6.91821C10.179 4.99611 10.8907 2.15499 11.3614 0.58593H10.9888C10.8066 1.19955 10.5797 2.0177 10.3415 2.87788C9.56259 5.67977 8.98259 7.72516 8.64076 8.2407C8.37738 8.64418 7.38551 9.94986 5.67356 9.99749L1.26617 9.76213C1.1597 9.75373 1.07845 9.75093 1.0084 9.75093V9.74252Z" fill="#B7B7B7"/>
<path d="M1.61632 12.3341H1.5827C1.27301 12.3073 0.978246 12.1892 0.73581 11.9946C0.493373 11.8001 0.314189 11.5379 0.22098 11.2414C0.16214 11.006 0.12852 10.8127 0.100501 10.6418V10.6053C0.0836894 10.5185 0.0724781 10.44 0.0528648 10.3672C0.00162268 10.2206 -0.0126572 10.0636 0.0112913 9.91009C0.0352398 9.75662 0.0966744 9.61143 0.190155 9.48739C0.400297 9.24642 0.750534 9.15956 1.31091 9.2072L5.68747 9.43975C7.11083 9.39773 7.95701 8.27697 8.18396 7.93234C8.50618 7.44481 9.22907 4.83344 9.81186 2.73202C10.05 1.86904 10.3162 0.902383 10.5151 0.246739C10.5344 0.182875 10.5736 0.126883 10.6271 0.0870271C10.6806 0.0471711 10.7454 0.0255642 10.8121 0.0253915H11.6891C11.7377 0.0252773 11.7856 0.0366379 11.8289 0.058549C11.8723 0.0804601 11.9098 0.112301 11.9385 0.151476C11.9677 0.191237 11.9873 0.237277 11.9955 0.285925C12.0038 0.334573 12.0006 0.384481 11.9861 0.431665C11.5238 1.89986 10.7477 4.99595 10.2321 7.04414V7.11138C10.0192 7.95195 9.85109 8.6216 9.77264 8.90179C9.62416 9.4444 9.39764 9.96256 9.10018 10.44C8.18677 11.869 6.15259 12.0371 6.06573 12.0427L1.61632 12.3341ZM1.00271 9.33889C0.873674 9.32441 0.74303 9.33849 0.620041 9.38013C0.497053 9.42178 0.384727 9.48996 0.291028 9.57985C0.212412 9.68691 0.161543 9.81179 0.142964 9.94331C0.124384 10.0748 0.138672 10.2089 0.184554 10.3336C0.204167 10.412 0.215379 10.4933 0.23219 10.5829V10.6194C0.260209 10.7847 0.29383 10.9752 0.35267 11.2049C0.437463 11.4742 0.600551 11.7121 0.821128 11.8883C1.04171 12.0644 1.30976 12.1709 1.5911 12.194H1.61072V12.2641V12.194L6.0153 11.9138C6.09655 11.9138 8.06348 11.7485 8.94047 10.3728C9.22946 9.90798 9.45026 9.40411 9.59612 8.87658C9.67457 8.59639 9.83988 7.93234 10.0528 7.08897L10.0696 7.02172C10.5852 4.97074 11.3613 1.87184 11.8236 0.400844C11.8315 0.375404 11.8333 0.348475 11.8289 0.322206C11.8246 0.295936 11.8141 0.271053 11.7984 0.249542C11.7823 0.228244 11.7616 0.210875 11.7378 0.198742C11.714 0.186609 11.6878 0.180028 11.6611 0.179494H10.7981C10.7617 0.179664 10.7264 0.19144 10.6971 0.213109C10.6679 0.234779 10.6464 0.265211 10.6356 0.299976C10.4395 0.955619 10.1705 1.92227 9.93514 2.77405C9.34675 4.89228 8.62106 7.51766 8.28764 8.0248C8.05228 8.38064 7.16687 9.54903 5.67066 9.59386L1.2885 9.36691C1.18483 9.34449 1.10358 9.33889 1.00271 9.33889ZM1.62753 11.8606C1.41664 11.8417 1.21567 11.7624 1.0487 11.6322C0.881723 11.502 0.755829 11.3264 0.686096 11.1265C0.630058 10.9079 0.59923 10.7202 0.574013 10.5661C0.5544 10.4568 0.537591 10.356 0.515176 10.2635C0.464742 10.0422 0.473152 9.89086 0.546001 9.80961C0.61885 9.72835 0.714116 9.68632 1.01112 9.68632C1.08677 9.68632 1.17082 9.68632 1.26048 9.68632L5.66786 9.92168C7.349 9.87405 8.31285 8.59078 8.57343 8.19852C8.90965 7.68857 9.48404 5.66 10.2546 2.8525C10.4815 2.03435 10.7141 1.18818 10.9018 0.55775L10.9158 0.510118H11.437L11.4089 0.599779C10.9382 2.17164 10.2209 5.03518 9.74462 6.92926V6.9825C9.53167 7.82306 9.36356 8.49832 9.28511 8.77571C9.14808 9.26898 8.94246 9.74056 8.67429 10.1767C7.88976 11.4039 6.02651 11.5776 6.0097 11.5776L1.62753 11.8606ZM1.01112 9.82642C0.730927 9.82642 0.660877 9.88806 0.64967 9.90207C0.638462 9.91608 0.607641 10.0394 0.64967 10.2327C0.672085 10.328 0.688894 10.4316 0.708507 10.5437C0.72812 10.6558 0.764543 10.8799 0.820581 11.0901C0.880509 11.2614 0.988436 11.412 1.1315 11.5238C1.27457 11.6355 1.44675 11.7038 1.62753 11.7205L5.99288 11.4403C6.0097 11.4403 7.8057 11.2806 8.55101 10.115C8.81192 9.69023 9.01188 9.2309 9.14502 8.75049C9.22067 8.4703 9.38877 7.80905 9.60172 6.96288L9.61573 6.90684C10.0808 5.04919 10.7813 2.2557 11.2548 0.664223H11.0279C10.843 1.28344 10.616 2.1072 10.3947 2.90574C9.61293 5.72444 9.03294 7.76142 8.6855 8.28818C8.41932 8.69445 7.40784 10.0254 5.66225 10.0758L1.24927 9.84043C1.16241 9.82362 1.08116 9.82081 1.01112 9.82081V9.82642Z" fill="#B7B7B7"/>
<path d="M9.69134 7.6867L8.78073 7.59423C8.76233 7.59258 8.74444 7.58731 8.72808 7.57874C8.71172 7.57017 8.6972 7.55846 8.68536 7.54428C8.67352 7.5301 8.6646 7.51373 8.65909 7.4961C8.65357 7.47847 8.65159 7.45993 8.65325 7.44153C8.6549 7.42313 8.66016 7.40524 8.66873 7.38888C8.6773 7.37251 8.68901 7.358 8.70319 7.34616C8.71737 7.33432 8.73374 7.32539 8.75137 7.31988C8.769 7.31437 8.78755 7.31239 8.80594 7.31404L9.71936 7.40651C9.75535 7.41073 9.7882 7.429 9.81077 7.45734C9.83334 7.48568 9.84379 7.52179 9.83984 7.55781C9.83918 7.57624 9.83473 7.59433 9.82677 7.61097C9.81881 7.62761 9.80753 7.64243 9.7936 7.65451C9.77967 7.6666 9.76341 7.6757 9.74582 7.68123C9.72823 7.68677 9.70968 7.68863 9.69134 7.6867Z" fill="#B7B7B7"/>
<path d="M9.69148 7.76497H9.67187L8.75845 7.67531C8.70373 7.66916 8.65352 7.64205 8.61836 7.59966C8.58485 7.5567 8.56883 7.50264 8.57353 7.44836C8.57987 7.39437 8.60662 7.34485 8.64829 7.30995C8.68997 7.27504 8.74341 7.2574 8.79768 7.26063L9.7111 7.35309C9.76568 7.35875 9.81579 7.38582 9.85046 7.42836C9.88512 7.4709 9.90151 7.52545 9.89602 7.58005C9.89053 7.63059 9.86666 7.67735 9.82895 7.71144C9.79124 7.74553 9.74232 7.76458 9.69148 7.76497ZM8.78087 7.40633C8.76414 7.40688 8.74817 7.4134 8.73584 7.42471C8.7235 7.43601 8.71562 7.45136 8.71362 7.46797C8.71046 7.47552 8.70883 7.48361 8.70883 7.49179C8.70883 7.49996 8.71046 7.50806 8.71362 7.5156C8.725 7.52918 8.74094 7.53815 8.75845 7.54082L9.67747 7.63328C9.69389 7.63266 9.70951 7.62604 9.72138 7.61468C9.73326 7.60332 9.74056 7.58801 9.74191 7.57164C9.74301 7.56316 9.74233 7.55455 9.73992 7.54635C9.73751 7.53815 9.73342 7.53054 9.72791 7.52401C9.71653 7.51043 9.70059 7.50147 9.68308 7.49879L8.77246 7.40633H8.78087Z" fill="#B7B7B7"/>
<path d="M10.2042 5.72444H10.1902L9.27955 5.63478C9.26149 5.63303 9.24395 5.62772 9.22795 5.61915C9.21195 5.61058 9.19782 5.59892 9.18635 5.58485C9.17489 5.57078 9.16632 5.55458 9.16116 5.53718C9.156 5.51978 9.15433 5.50152 9.15627 5.48348C9.16116 5.44758 9.17951 5.41487 9.2076 5.39198C9.23569 5.3691 9.27142 5.35773 9.30757 5.36019L10.2182 5.45266C10.2553 5.45266 10.291 5.46742 10.3173 5.49369C10.3435 5.51996 10.3583 5.5556 10.3583 5.59275C10.3583 5.62991 10.3435 5.66554 10.3173 5.69182C10.291 5.71809 10.2553 5.73285 10.2182 5.73285L10.2042 5.72444Z" fill="#B7B7B7"/>
<path d="M10.2042 5.78052H10.1846L9.27113 5.68806C9.24457 5.6856 9.21876 5.67789 9.19519 5.66539C9.17163 5.65288 9.15077 5.63583 9.13384 5.61521C9.11601 5.59401 9.1026 5.56945 9.09442 5.54298C9.08624 5.51651 9.08345 5.48867 9.0862 5.46111C9.09256 5.40682 9.11982 5.35715 9.16219 5.32262C9.20456 5.2881 9.25871 5.27144 9.31316 5.27618L10.2266 5.36865C10.2533 5.37161 10.2792 5.37981 10.3028 5.3928C10.3263 5.40578 10.3471 5.42328 10.3639 5.4443C10.3818 5.4649 10.3952 5.48897 10.4034 5.51499C10.4116 5.54102 10.4144 5.56846 10.4115 5.5956C10.4054 5.64637 10.3809 5.69317 10.3428 5.72721C10.3046 5.76126 10.2553 5.78021 10.2042 5.78052ZM9.29635 5.41348C9.27971 5.41381 9.26369 5.41983 9.25094 5.43053C9.2382 5.44124 9.2295 5.45598 9.2263 5.47232C9.22498 5.48124 9.22555 5.49033 9.22796 5.49902C9.23037 5.50771 9.23458 5.51579 9.24031 5.52275C9.25238 5.53694 9.26942 5.54596 9.28794 5.54797L10.2042 5.64043C10.2211 5.64049 10.2374 5.63418 10.2498 5.62275C10.2623 5.61133 10.27 5.59563 10.2714 5.57879C10.2727 5.57031 10.2721 5.56165 10.2697 5.55342C10.2673 5.54519 10.2631 5.53759 10.2574 5.53116C10.2453 5.51697 10.2283 5.50795 10.2098 5.50594L9.29915 5.41348H9.29635Z" fill="#B7B7B7"/>
<path d="M2.15971 12.1323C2.1294 12.132 2.10004 12.1217 2.07621 12.1029C2.05239 12.0841 2.03545 12.058 2.02802 12.0286L1.38359 9.605C1.3779 9.58436 1.37722 9.56266 1.38161 9.5417C1.38599 9.52075 1.39532 9.50114 1.40881 9.48451C1.42249 9.46895 1.43929 9.45642 1.45811 9.44773C1.47693 9.43905 1.49736 9.4344 1.51808 9.43408L6.46343 9.56857C6.49192 9.56867 6.51962 9.57801 6.54235 9.59519C6.56508 9.61237 6.58163 9.63645 6.58951 9.66384L7.1667 11.4767C7.17379 11.4961 7.17596 11.5171 7.17303 11.5376C7.1701 11.5581 7.16215 11.5776 7.14989 11.5943C7.13844 11.6112 7.12353 11.6254 7.10613 11.6361C7.08873 11.6467 7.06926 11.6535 7.04902 11.656L2.16532 12.1295L2.15971 12.1323ZM1.70301 9.71427L2.26339 11.8465L6.8641 11.3982L6.36816 9.84036L1.70301 9.71427Z" fill="#B7B7B7"/>
<path d="M2.15976 12.2021C2.11392 12.2016 2.06954 12.1859 2.03355 12.1576C1.99755 12.1292 1.97198 12.0896 1.96083 12.0452L1.322 9.62434C1.31491 9.59296 1.31475 9.56041 1.32152 9.52896C1.3283 9.4975 1.34185 9.4679 1.36123 9.44222C1.3813 9.41918 1.40575 9.40038 1.43318 9.38691C1.4606 9.37344 1.49043 9.36557 1.52093 9.36377L6.47469 9.49826C6.51739 9.4992 6.55872 9.51349 6.59289 9.53912C6.62706 9.56475 6.65235 9.60042 6.66522 9.64115L7.24241 11.4568C7.2538 11.4868 7.25806 11.5191 7.25486 11.551C7.25167 11.5829 7.2411 11.6137 7.22399 11.6409C7.20687 11.668 7.18368 11.6909 7.15625 11.7075C7.12881 11.7242 7.09788 11.7343 7.06588 11.737L2.15976 12.2021ZM1.52654 9.50386C1.50559 9.50585 1.48588 9.51472 1.4705 9.52908C1.46583 9.53818 1.4634 9.54827 1.4634 9.5585C1.4634 9.56873 1.46583 9.57881 1.4705 9.58792L2.10653 12.0116C2.11063 12.0257 2.11906 12.0381 2.13062 12.0472C2.14219 12.0562 2.1563 12.0614 2.17097 12.062V12.132V12.0592L7.05467 11.5857C7.06472 11.5842 7.07436 11.5807 7.08303 11.5754C7.09169 11.5701 7.09921 11.5631 7.10512 11.5548C7.11003 11.5463 7.11262 11.5367 7.11262 11.5268C7.11262 11.517 7.11003 11.5073 7.10512 11.4988L6.53072 9.68599C6.52581 9.67262 6.5171 9.66098 6.50564 9.65251C6.49419 9.64405 6.48051 9.63912 6.46628 9.63835L1.52654 9.50386ZM2.2102 11.9219L1.6106 9.64676L6.41865 9.77565L6.95661 11.4568L2.2102 11.9219ZM1.79272 9.78405L2.31667 11.7706L6.76888 11.3279L6.31498 9.89893L1.79272 9.78405Z" fill="#B7B7B7"/>
<path d="M2.92799 11.8888C2.91307 11.8892 2.89849 11.8844 2.88673 11.8752C2.87498 11.866 2.86678 11.853 2.86354 11.8384L2.23872 9.5969C2.23618 9.58825 2.2354 9.57918 2.23644 9.57023C2.23747 9.56128 2.24029 9.55262 2.24473 9.54478C2.24917 9.53694 2.25515 9.53007 2.2623 9.52458C2.26945 9.5191 2.27763 9.5151 2.28636 9.51284C2.3038 9.50847 2.32226 9.51098 2.33791 9.51985C2.35356 9.52871 2.36519 9.54326 2.37041 9.56047L2.99523 11.802C2.9996 11.8194 2.9971 11.8379 2.98823 11.8535C2.97936 11.8692 2.96481 11.8808 2.9476 11.886L2.92799 11.8888Z" fill="#B7B7B7"/>
<path d="M2.92776 11.9644C2.8977 11.9648 2.86838 11.955 2.84451 11.9367C2.82064 11.9184 2.80359 11.8927 2.79607 11.8636L2.17125 9.62205C2.16439 9.60563 2.16086 9.58801 2.16086 9.57021C2.16086 9.55242 2.16439 9.53479 2.17125 9.51837C2.18943 9.48586 2.21959 9.46173 2.2553 9.45113C2.27296 9.44606 2.29147 9.44459 2.30971 9.4468C2.32795 9.44901 2.34557 9.45487 2.36151 9.46401C2.37745 9.47316 2.39138 9.48541 2.4025 9.50004C2.41362 9.51467 2.42168 9.53139 2.42622 9.54919L3.05105 11.7767C3.0605 11.8124 3.05549 11.8503 3.03713 11.8823C3.01877 11.9143 2.98854 11.9378 2.95298 11.9476L2.92776 11.9644Z" fill="#B7B7B7"/>
<path d="M3.62522 11.8888C3.61007 11.8888 3.59532 11.8839 3.5832 11.8748C3.57107 11.8657 3.56223 11.853 3.55798 11.8384L2.93596 9.5969C2.93342 9.58825 2.93264 9.57918 2.93367 9.57023C2.9347 9.56128 2.93753 9.55262 2.94197 9.54478C2.94642 9.53694 2.95239 9.53007 2.95954 9.52458C2.96669 9.5191 2.97486 9.5151 2.98359 9.51284C3.00104 9.50847 3.0195 9.51098 3.03515 9.51985C3.0508 9.52871 3.06243 9.54326 3.06765 9.56047L3.68967 11.802C3.69221 11.8106 3.69299 11.8197 3.69195 11.8287C3.69092 11.8376 3.6881 11.8463 3.68366 11.8541C3.67922 11.8619 3.67324 11.8688 3.66609 11.8743C3.65894 11.8798 3.65076 11.8838 3.64204 11.886L3.62522 11.8888Z" fill="#B7B7B7"/>
<path d="M3.62524 11.9648C3.59493 11.9648 3.56544 11.9549 3.54119 11.9367C3.51694 11.9185 3.49924 11.893 3.49075 11.8639L2.86593 9.62237C2.85761 9.58727 2.8626 9.55033 2.87994 9.5187C2.89812 9.48618 2.92829 9.46206 2.964 9.45145C2.99966 9.442 3.03761 9.447 3.06961 9.46536C3.10161 9.48372 3.12508 9.51396 3.13491 9.54952L3.75693 11.777C3.76395 11.7934 3.76756 11.811 3.76756 11.8289C3.76756 11.8467 3.76395 11.8643 3.75693 11.8807C3.73875 11.9132 3.70859 11.9373 3.67288 11.9479L3.62524 11.9648Z" fill="#B7B7B7"/>
<path d="M4.34243 11.8888C4.32763 11.8887 4.3133 11.8837 4.30165 11.8746C4.29 11.8654 4.28168 11.8527 4.27798 11.8384L3.65316 9.5969C3.64879 9.57945 3.6513 9.56099 3.66017 9.54534C3.66903 9.5297 3.68358 9.51806 3.70079 9.51284C3.71824 9.50847 3.7367 9.51098 3.75235 9.51985C3.768 9.52871 3.77963 9.54326 3.78485 9.56047L4.40967 11.802C4.41221 11.8106 4.41299 11.8197 4.41196 11.8287C4.41093 11.8376 4.4081 11.8463 4.40366 11.8541C4.39921 11.8619 4.39324 11.8688 4.38609 11.8743C4.37894 11.8798 4.37076 11.8838 4.36204 11.886L4.34243 11.8888Z" fill="#B7B7B7"/>
<path d="M4.34242 11.9645C4.31247 11.9643 4.28339 11.9544 4.25962 11.9362C4.23584 11.918 4.21867 11.8925 4.21073 11.8636L3.5859 9.62208C3.58119 9.60474 3.58001 9.58663 3.58242 9.56883C3.58483 9.55102 3.59077 9.53388 3.59992 9.51841C3.60854 9.50202 3.62046 9.48758 3.63492 9.47601C3.64939 9.46444 3.66608 9.45598 3.68397 9.45117C3.71926 9.4416 3.75688 9.44621 3.78882 9.46401C3.82075 9.48181 3.84446 9.51139 3.85489 9.54643L4.47691 11.7879C4.49092 11.8221 4.49092 11.8603 4.47691 11.8944C4.45776 11.9255 4.42784 11.9484 4.39285 11.9589L4.34242 11.9645Z" fill="#B7B7B7"/>
<path d="M5.05183 11.8888C5.03704 11.8887 5.0227 11.8837 5.01105 11.8746C4.9994 11.8654 4.99108 11.8527 4.98738 11.8384L4.36257 9.5969C4.36002 9.58825 4.35924 9.57918 4.36027 9.57023C4.36131 9.56128 4.36413 9.55262 4.36858 9.54478C4.37302 9.53694 4.37899 9.53007 4.38614 9.52458C4.39329 9.5191 4.40147 9.5151 4.41019 9.51284C4.42764 9.50847 4.44611 9.51098 4.46175 9.51985C4.4774 9.52871 4.48904 9.54326 4.49426 9.56047L5.11907 11.802C5.12344 11.8194 5.12094 11.8379 5.11207 11.8535C5.1032 11.8692 5.08866 11.8808 5.07145 11.886L5.05183 11.8888Z" fill="#B7B7B7"/>
<path d="M5.05169 11.9644C5.02175 11.9643 4.99267 11.9543 4.9689 11.9361C4.94512 11.9179 4.92795 11.8924 4.92 11.8636L4.29519 9.62205C4.28833 9.60563 4.28479 9.58801 4.28479 9.57021C4.28479 9.55242 4.28833 9.53479 4.29519 9.51837C4.31337 9.48586 4.34353 9.46173 4.37924 9.45113C4.3969 9.44606 4.41541 9.44459 4.43365 9.4468C4.45189 9.44901 4.4695 9.45487 4.48544 9.46401C4.50138 9.47316 4.51532 9.48541 4.52643 9.50004C4.53755 9.51467 4.54562 9.53139 4.55015 9.54919L5.17498 11.7767C5.18433 11.8127 5.17931 11.8509 5.16097 11.8832C5.14291 11.9141 5.11391 11.9371 5.07971 11.9476L5.05169 11.9644Z" fill="#B7B7B7"/>
<path d="M5.76014 11.8888C5.74499 11.8888 5.73024 11.8839 5.71812 11.8748C5.70599 11.8657 5.69714 11.853 5.6929 11.8384L5.07088 9.5969C5.06834 9.58825 5.06756 9.57918 5.06859 9.57023C5.06962 9.56128 5.07245 9.55262 5.07689 9.54478C5.08133 9.53694 5.0873 9.53007 5.09445 9.52458C5.1016 9.5191 5.10978 9.5151 5.11851 9.51284C5.13595 9.50847 5.15442 9.51098 5.17007 9.51985C5.18572 9.52871 5.19735 9.54326 5.20257 9.56047L5.82739 11.802C5.83094 11.8198 5.82775 11.8382 5.81842 11.8538C5.8091 11.8693 5.79431 11.8808 5.77695 11.886L5.76014 11.8888Z" fill="#B7B7B7"/>
<path d="M5.76034 11.9645C5.73003 11.9645 5.70053 11.9546 5.67628 11.9364C5.65203 11.9183 5.63434 11.8927 5.62585 11.8636L5.00383 9.62208C4.99682 9.6057 4.99319 9.58807 4.99319 9.57025C4.99319 9.55243 4.99682 9.53479 5.00383 9.51841C5.02201 9.48589 5.05217 9.46177 5.08789 9.45117C5.12317 9.4416 5.1608 9.44621 5.19273 9.46401C5.22467 9.48181 5.24837 9.51139 5.2588 9.54643L5.88362 11.7879C5.89307 11.8236 5.88808 11.8616 5.86972 11.8936C5.85136 11.9256 5.82111 11.949 5.78555 11.9589L5.76034 11.9645Z" fill="#B7B7B7"/>
<path d="M6.46925 11.8889C6.4541 11.8889 6.43935 11.884 6.42722 11.8749C6.4151 11.8658 6.40625 11.8531 6.40201 11.8385L5.77718 9.59699C5.77281 9.57955 5.77533 9.56109 5.78419 9.54544C5.79306 9.52979 5.80761 9.51815 5.82482 9.51294C5.84264 9.50846 5.86148 9.51088 5.87759 9.51972C5.89369 9.52855 5.90587 9.54314 5.91168 9.56057L6.5337 11.8021C6.53624 11.8107 6.53701 11.8198 6.53598 11.8288C6.53495 11.8377 6.53213 11.8464 6.52769 11.8542C6.52324 11.862 6.51727 11.8689 6.51012 11.8744C6.50297 11.8799 6.49479 11.8839 6.48606 11.8861L6.46925 11.8889Z" fill="#B7B7B7"/>
<path d="M6.46922 11.9644C6.43891 11.9644 6.40941 11.9546 6.38516 11.9364C6.36092 11.9182 6.34322 11.8927 6.33473 11.8636L5.70991 9.62205C5.70046 9.58638 5.70545 9.54843 5.72381 9.51643C5.74217 9.48443 5.77242 9.46097 5.80798 9.45113C5.82564 9.44606 5.84414 9.44459 5.86238 9.4468C5.88063 9.44901 5.89824 9.45487 5.91418 9.46401C5.93011 9.47316 5.94405 9.48541 5.95517 9.50004C5.96628 9.51467 5.97435 9.53139 5.97889 9.54919L6.60091 11.7767C6.61492 11.8108 6.61492 11.8491 6.60091 11.8832C6.58176 11.9143 6.55184 11.9372 6.51685 11.9476L6.46922 11.9644Z" fill="#B7B7B7"/>
</svg>
