<svg width="34" height="35" viewBox="0 0 34 35" fill="none" xmlns="http://www.w3.org/2000/svg">
<path d="M16.8903 34.1782C12.9828 34.1784 9.19611 32.8076 6.17546 30.2996C3.1548 27.7915 1.0871 24.3012 0.324658 20.4236C-0.437782 16.5459 0.152217 12.5206 1.99413 9.03376C3.83604 5.54687 6.81589 2.81406 10.426 1.30098C14.036 -0.212112 18.0529 -0.411858 21.7922 0.735773C25.5315 1.8834 28.7618 4.3074 30.9328 7.59474C33.1037 10.8821 34.081 14.8294 33.698 18.764C33.315 22.6987 31.5955 26.3772 28.8325 29.1729C27.2679 30.7648 25.4068 32.0268 23.357 32.886C21.3071 33.7451 19.1091 34.1844 16.8903 34.1782ZM16.8903 2.45093C8.91298 2.45093 2.42241 9.01815 2.42241 17.0897C2.42241 25.1613 8.91298 31.7291 16.8903 31.7291C24.8677 31.7291 31.3589 25.1619 31.3589 17.0897C31.3589 9.01754 24.8683 2.45093 16.8903 2.45093Z" fill="#00D54B"/>
<path d="M16.4336 12.8204C16.6952 12.8229 16.9545 12.772 17.1961 12.6706C17.4376 12.5691 17.6564 12.4193 17.8393 12.2301C18.0267 12.0477 18.1751 11.8283 18.2756 11.5856C18.376 11.3429 18.4263 11.082 18.4233 10.8189C18.4233 10.2352 18.2286 9.7537 17.8393 9.3745C17.4638 9.00391 16.9582 8.79933 16.4336 8.8057C16.1734 8.8012 15.915 8.85139 15.675 8.95309C15.4349 9.05479 15.2183 9.20579 15.0388 9.39654C14.8506 9.58071 14.7018 9.80192 14.6013 10.0465C14.5009 10.2912 14.451 10.554 14.4549 10.8189C14.4505 11.0822 14.5001 11.3435 14.6006 11.5864C14.7011 11.8293 14.8503 12.0485 15.0388 12.2301C15.2191 12.4197 15.4359 12.5699 15.6758 12.6714C15.9157 12.7729 16.1736 12.8236 16.4336 12.8204Z" fill="#00D54B"/>
<path d="M20.6749 22.4269H19.366C19.366 22.4269 18.7282 22.4367 18.7064 21.8379C18.6459 21.0499 18.5927 20.4021 18.5854 20.2159L18.5097 18.2904C18.5025 18.1736 18.4989 18.0203 18.4989 17.8305C18.4989 17.4081 18.4952 17.0764 18.488 16.8356C18.4807 16.7478 18.4771 16.6493 18.4771 16.5399L18.5097 15.7194V13.7944C16.6355 14.6924 14.974 15.2612 13.5253 15.5008L13.233 16.868C13.4896 16.919 13.7504 16.9446 14.0118 16.9446C14.3449 16.9476 14.6753 16.8853 14.9849 16.7609L15.0278 19.5063C15.0278 20.1798 15.046 21.0309 15.0635 21.8844C15.0769 22.4385 14.5292 22.4287 14.5292 22.4287H13.1066V25.3743H15.0575H15.0714H20.6749V22.4269Z" fill="#00D54B"/>
</svg>
