<svg width="30" height="30" viewBox="0 0 30 30" fill="none" xmlns="http://www.w3.org/2000/svg">
<path d="M9.70183 10.0686H5.74209C5.4509 10.0686 5.21484 10.3047 5.21484 10.5958V22.5264C5.21484 22.8176 5.4509 23.0536 5.74209 23.0536H9.70183C9.99302 23.0536 10.2291 22.8176 10.2291 22.5264V10.5958C10.2291 10.3047 9.99302 10.0686 9.70183 10.0686Z" fill="#00D54B"/>
<path d="M23.1978 16.8576C23.6141 16.8576 24.0133 16.6922 24.3076 16.3978C24.602 16.1035 24.7673 15.7043 24.7673 15.288C24.7673 14.8717 24.602 14.4725 24.3076 14.1781C24.0133 13.8838 23.6141 13.7184 23.1978 13.7183H23.0283C23.9254 13.7183 24.6527 13.0404 24.6527 12.205C24.6527 11.3696 23.9254 10.6909 23.0283 10.6909H18.1092C18.3142 10.1442 19.3061 6.52951 19.0614 5.26013C18.9185 4.51871 18.4004 3.33964 17.1678 3.25926C16.9436 3.24473 16.725 3.34182 16.5442 3.46253C16.4075 3.55382 16.2963 3.67841 16.2211 3.82455C16.1458 3.9707 16.109 4.13359 16.1141 4.29789C16.1319 4.87598 16.1383 5.87333 15.9888 6.26002C15.7951 6.76269 14.9586 7.5058 14.5953 7.90363C14.0747 8.47385 12.9609 9.56648 12.5587 10.2259C12.2762 10.6899 11.83 11.9379 11.5996 12.6084C11.5014 12.8939 11.4513 13.1936 11.4512 13.4955V19.7974C11.4512 21.2589 12.6359 22.4438 14.0975 22.4438H22.3858C23.0951 22.4438 23.6835 21.8763 23.6883 21.1671C23.6894 20.9976 23.6571 20.8295 23.593 20.6725C23.5289 20.5155 23.4344 20.3728 23.3149 20.2525C23.1955 20.1322 23.0534 20.0367 22.8968 19.9716C22.7403 19.9064 22.5724 19.8729 22.4029 19.8729H22.8585C23.6645 19.8729 24.3403 19.2457 24.3794 18.4406C24.3896 18.2365 24.3582 18.0325 24.2872 17.8409C24.2161 17.6494 24.1069 17.4743 23.966 17.3262C23.8252 17.1782 23.6558 17.0603 23.468 16.9798C23.2802 16.8992 23.078 16.8577 22.8737 16.8577" fill="#00D54B"/>
<path d="M15 30C12.9754 30 11.0109 29.6033 9.16106 28.8209C5.56511 27.2974 2.70271 24.435 1.17919 20.839C0.396825 18.9892 0 17.0247 0 15.0001C0 12.9754 0.396825 11.0109 1.17919 9.1611C2.70271 5.56514 5.56511 2.70272 9.16106 1.1792C11.0109 0.396827 12.9754 0 15 0C17.0246 0 18.9891 0.396827 20.8389 1.1792C24.4349 2.70272 27.2973 5.56514 28.8208 9.1611C29.6032 11.0109 30 12.9754 30 15.0001C30 17.0247 29.6032 18.9892 28.8208 20.839C27.2973 24.435 24.4349 27.2974 20.8389 28.8209C18.9891 29.6033 17.0246 30 15 30ZM15 1.69843C7.66547 1.69843 1.69842 7.66551 1.69842 15.0001C1.69842 22.3346 7.66547 28.3016 15 28.3016C22.3345 28.3016 28.3016 22.3346 28.3016 15.0001C28.3016 7.66551 22.3345 1.69843 15 1.69843Z" fill="#00D54B"/>
</svg>
