<svg width="14" height="13" viewBox="0 0 14 13" fill="none" xmlns="http://www.w3.org/2000/svg">
<path d="M3.29154 12.8635C2.14726 12.8635 1.25013 12.6315 0.890066 12.2532C0.12721 11.4903 -0.119954 9.97376 0.234011 8.20088C0.642795 6.22771 1.62313 4.41843 3.05288 2.99844C4.48263 1.57846 6.29858 0.610556 8.27451 0.215307C10.0321 -0.123401 11.5762 0.117662 12.3024 0.843901C13.703 2.2445 13.2941 6.94675 10.142 10.0989C8.11584 12.1372 5.31159 12.8635 3.29154 12.8635ZM9.78192 0.599786C9.30964 0.602163 8.83864 0.649162 8.37521 0.740152C6.4981 1.11257 4.77357 2.03324 3.4197 3.38574C2.06561 4.73265 1.13624 6.44709 0.746648 8.31684C0.441506 9.89748 0.62765 11.2706 1.25929 11.8992C2.00384 12.6438 6.71219 12.8146 9.77277 9.74185C11.1243 8.38294 12.041 6.6526 12.4061 4.77108C12.7113 3.20265 12.519 1.8112 11.9332 1.22533C11.5243 0.825592 10.7401 0.599786 9.78192 0.599786Z" fill="#B7B7B7"/>
<path d="M3.29153 12.9395C2.14114 12.9395 1.22266 12.7106 0.83513 12.3292C0.0539655 11.548 -0.1993 10.0071 0.160768 8.20674C0.572 6.21528 1.56089 4.38913 3.00392 2.95642C4.44695 1.5237 6.28015 0.547922 8.2745 0.150981C10.0535 -0.190779 11.6311 0.0563864 12.3695 0.803985C13.7915 2.22595 13.3887 6.98312 10.2091 10.1627C8.14939 12.2102 5.28716 12.9395 3.29153 12.9395ZM9.78191 0.150981C9.28092 0.153596 8.7813 0.203659 8.28976 0.3005C6.32808 0.694309 4.5256 1.65648 3.10675 3.06719C1.6879 4.4779 0.715372 6.27483 0.310285 8.2342C-0.040629 9.98267 0.197387 11.4718 0.944986 12.2194C1.2959 12.5703 2.19607 12.79 3.29153 12.79C5.25665 12.79 8.07616 12.0729 10.0901 10.0437C13.2087 6.92819 13.6267 2.29003 12.2414 0.910785C11.7531 0.416454 10.8652 0.150981 9.78191 0.150981ZM3.29153 12.4208C2.2571 12.4208 1.47593 12.2224 1.20435 11.9539C0.557448 11.3039 0.353005 9.90638 0.673405 8.29218C1.06631 6.4074 2.00429 4.67957 3.37083 3.32334C4.73736 1.96711 6.47224 1.04224 8.35994 0.66362C8.82843 0.571997 9.30455 0.524997 9.78191 0.523254C10.7858 0.523254 11.567 0.752111 11.985 1.17321C12.5953 1.78349 12.7815 3.19325 12.4794 4.78609C12.1128 6.68168 11.1896 8.425 9.82768 9.79348C7.83815 11.783 5.15595 12.4208 3.29153 12.4208ZM9.78191 0.675825C9.31464 0.677475 8.84864 0.724484 8.39046 0.816191C6.53094 1.18853 4.822 2.09959 3.47642 3.43595C2.13083 4.77231 1.20804 6.47493 0.822922 8.33185C0.517779 9.88502 0.70087 11.2338 1.31421 11.8471C2.04655 12.5764 6.68776 12.7167 9.72087 9.68668C11.06 8.33908 11.9682 6.6237 12.3298 4.75863C12.635 3.21461 12.4458 1.84757 11.8782 1.28001C11.4938 0.895528 10.7309 0.675825 9.78191 0.675825Z" fill="#B7B7B7"/>
<path d="M2.15034 12.4207C1.96051 12.4324 1.77027 12.4057 1.59097 12.3423C1.41167 12.2789 1.247 12.1799 1.10676 12.0515C0.551404 11.4961 0.624633 10.4006 1.3112 8.96342C2.15778 7.32609 3.26576 5.8378 4.59148 4.55717C5.87166 3.23224 7.35881 2.12435 8.99469 1.27689C10.4319 0.590318 11.5304 0.517085 12.0858 1.07244C13.2087 2.19842 11.6799 5.48785 8.60106 8.56674C6.20569 10.9621 3.69742 12.4207 2.15034 12.4207ZM11.0422 1.00226C10.3716 1.04469 9.71807 1.23097 9.12591 1.54847C7.51959 2.38 6.05923 3.46728 4.80203 4.76772C3.50189 6.0259 2.41375 7.48603 1.57973 9.09158C0.969445 10.3854 0.865701 11.3893 1.31731 11.8379C2.29072 12.8113 5.52828 11.2276 8.39051 8.35314C11.2527 5.4787 12.8456 2.25029 11.8752 1.27994C11.6452 1.08088 11.3457 0.981034 11.0422 1.00226Z" fill="#B7B7B7"/>
<path d="M2.15035 12.4969C1.9504 12.5089 1.7501 12.4805 1.56137 12.4134C1.37264 12.3463 1.19935 12.2419 1.05183 12.1064C0.472062 11.5266 0.539201 10.3976 1.24103 8.92983C2.09263 7.2862 3.20564 5.79188 4.53656 4.50526C5.82295 3.17277 7.31855 2.05957 8.96418 1.20972C10.4319 0.504845 11.5609 0.437715 12.1407 1.01749C13.2942 2.17397 11.7623 5.51223 8.65598 8.62163C6.30029 10.9773 3.74624 12.4969 2.15035 12.4969ZM11.0422 0.779474C10.3379 0.821661 9.65096 1.01525 9.02826 1.34704C7.40018 2.19045 5.92022 3.29321 4.64641 4.61206C3.32489 5.88468 2.22181 7.36611 1.38139 8.99696C0.707027 10.4006 0.630741 11.4686 1.16169 11.9996C1.29498 12.1203 1.45119 12.2131 1.62102 12.2723C1.79086 12.3315 1.97086 12.356 2.15035 12.3444C3.70962 12.3444 6.22095 10.84 8.55834 8.51483C11.6098 5.46341 13.1355 2.21975 12.0431 1.12734C11.9085 1.00464 11.7504 0.910543 11.5783 0.850749C11.4063 0.790955 11.2239 0.766706 11.0422 0.779474ZM2.13509 12.1948C1.97663 12.2048 1.81778 12.1829 1.6679 12.1305C1.51802 12.0781 1.38014 11.9962 1.26238 11.8897C0.786359 11.4137 0.877904 10.364 1.5126 9.05188C2.34754 7.43827 3.44005 5.97163 4.74711 4.70971C6.01005 3.40166 7.47768 2.30815 9.09234 1.47215C9.69578 1.15189 10.3604 0.963627 11.0422 0.91984C11.203 0.909564 11.3643 0.931238 11.5167 0.983611C11.6691 1.03598 11.8096 1.11802 11.9302 1.22498C12.4245 1.71931 12.3207 2.75069 11.625 4.13909C10.7926 5.72301 9.71424 7.16491 8.43018 8.41109C6.13856 10.7149 3.58452 12.1948 2.13509 12.1948ZM11.0422 1.07851C10.3828 1.12257 9.74012 1.3056 9.15642 1.61556C7.55886 2.44439 6.10674 3.52755 4.85696 4.82261C3.56081 6.07259 2.47754 7.5259 1.64992 9.12512C1.03963 10.3884 0.941987 11.3588 1.37224 11.789C2.31513 12.7288 5.50387 11.133 8.33559 8.30123C9.60697 7.06963 10.675 5.6442 11.4999 4.07806C12.1438 2.77511 12.2597 1.77729 11.8203 1.33178C11.7137 1.24035 11.5901 1.1709 11.4565 1.12743C11.323 1.08396 11.1822 1.06734 11.0422 1.07851Z" fill="#B7B7B7"/>
<path fill-rule="evenodd" clip-rule="evenodd" d="M9.74134 10.0471L2.63495 3.5587L2.92661 3.23926L10.033 9.7277L9.74134 10.0471Z" fill="#B7B7B7"/>
</svg>
