<svg width="14" height="14" viewBox="0 0 14 14" fill="none" xmlns="http://www.w3.org/2000/svg">
<path d="M1.78174 13.1269C1.74693 13.1272 1.71241 13.1206 1.6802 13.1074C1.64799 13.0942 1.61874 13.0747 1.59417 13.05L0.155093 11.6048C0.130572 11.5801 0.111159 11.5508 0.0979677 11.5187C0.0847764 11.4865 0.0780665 11.452 0.0782191 11.4172C0.0781339 11.3829 0.0848907 11.3489 0.0980897 11.3172C0.111289 11.2856 0.130665 11.2568 0.155093 11.2327L1.49884 9.89204C2.07386 9.32318 2.29833 8.33612 2.08616 7.31831L1.95086 6.67872C1.58802 4.65848 2.04004 3.05644 3.32844 1.75881C4.41438 0.677174 5.88541 0.0710645 7.41811 0.0737393C8.17323 0.0733151 8.92097 0.222346 9.61823 0.512243C10.3155 0.802139 10.9485 1.22717 11.4807 1.76283C12.0129 2.29849 12.4339 2.9342 12.7193 3.6333C13.0047 4.33241 13.1489 5.08109 13.1437 5.83619C13.1402 7.36646 12.5297 8.83285 11.4463 9.91357C10.1548 11.1989 8.54969 11.6417 6.54176 11.2696L5.88679 11.1435C5.09038 10.9744 3.9957 11.0359 3.30998 11.7186L1.96624 13.0562C1.94183 13.0798 1.91291 13.0982 1.8812 13.1103C1.8495 13.1225 1.81567 13.1281 1.78174 13.1269ZM0.714735 11.4203L1.78174 12.4904L2.94099 11.3403C3.63593 10.6454 4.80748 10.3717 5.99749 10.6239L6.63708 10.7592C8.45745 11.0974 9.90882 10.7008 11.0681 9.54765C12.0592 8.56608 12.62 7.23109 12.6271 5.83619C12.6311 5.15091 12.4996 4.4716 12.2401 3.83736C11.9805 3.20311 11.5981 2.62647 11.1148 2.14061C10.6316 1.65475 10.0569 1.26928 9.42408 1.00639C8.79123 0.743491 8.11262 0.608363 7.42734 0.60878C6.73704 0.608165 6.05339 0.743638 5.41549 1.00745C4.77759 1.27126 4.19795 1.65824 3.70973 2.14625C2.55047 3.29936 2.14766 4.74766 2.47975 6.57725L2.61198 7.21069C2.86105 8.40069 2.58122 9.57225 1.88321 10.2672L0.714735 11.4203Z" fill="#B7B7B7"/>
<path d="M1.78174 13.2038C1.73674 13.2044 1.69207 13.196 1.65036 13.1791C1.60865 13.1622 1.57072 13.1372 1.53881 13.1054L0.0997424 11.6571C0.068132 11.6257 0.0430454 11.5883 0.025928 11.5472C0.00881055 11.506 0 11.4619 0 11.4173C0 11.3727 0.00881055 11.3286 0.025928 11.2874C0.0430454 11.2463 0.068132 11.2089 0.0997424 11.1774L1.44349 9.83985C1.99698 9.28636 2.21223 8.32697 2.00621 7.33377L1.87398 6.69418C1.50499 4.64934 1.96316 3.02269 3.27308 1.71892C3.81625 1.17373 4.46177 0.741222 5.17257 0.446241C5.88338 0.15126 6.64546 -0.000383603 7.41504 2.08829e-05C8.1814 -0.00203621 8.94057 0.147904 9.64861 0.441165C10.3566 0.734425 10.9995 1.16518 11.54 1.70852C12.0805 2.25185 12.5078 2.89697 12.7973 3.60655C13.0869 4.31612 13.2328 5.07607 13.2267 5.84242C13.2239 6.61226 13.0689 7.37394 12.7708 8.08371C12.4726 8.79347 12.0371 9.43731 11.4893 9.97822C10.1825 11.282 8.55277 11.7309 6.51715 11.3558L5.86834 11.2174C5.09038 11.0514 4.02337 11.1098 3.36226 11.7709L2.01851 13.1085C1.95506 13.17 1.87008 13.2042 1.78174 13.2038ZM7.42733 0.153768C6.67641 0.152703 5.93267 0.299922 5.23877 0.586978C4.54488 0.874034 3.91449 1.29528 3.38378 1.82654C2.11383 3.09342 1.66796 4.67394 2.02773 6.66343L2.15996 7.30302C2.37828 8.34542 2.14458 9.36016 1.54497 9.94747L0.201212 11.2851C0.166796 11.3206 0.147037 11.3678 0.145865 11.4173C0.145443 11.442 0.150146 11.4665 0.159673 11.4892C0.1692 11.512 0.183342 11.5325 0.201212 11.5495L1.64029 12.9947C1.67581 13.0289 1.7232 13.048 1.77251 13.048C1.82182 13.048 1.86921 13.0289 1.90473 12.9947L3.24848 11.6571C3.95265 10.9561 5.07808 10.8915 5.89294 11.0637L6.54175 11.202C8.52202 11.568 10.1056 11.1313 11.3756 9.86445C11.9085 9.33785 12.3322 8.71123 12.6225 8.0205C12.9127 7.32978 13.0637 6.58855 13.0668 5.83934C13.0729 5.09411 12.9312 4.35506 12.65 3.66491C12.3687 2.97477 11.9534 2.34721 11.4282 1.81852C10.9029 1.28983 10.2781 0.870495 9.58978 0.584751C8.90148 0.299008 8.16337 0.152524 7.41811 0.153768H7.42733ZM1.78174 12.6011L0.604033 11.4173L1.81864 10.2211C2.4982 9.54465 2.7688 8.40077 2.52587 7.23844L2.39365 6.60193C2.05848 4.75696 2.47053 3.27176 3.64515 2.10021C4.64576 1.09921 6.00276 0.536276 7.41811 0.535062C8.11491 0.533009 8.80519 0.669147 9.44903 0.935599C10.0929 1.20205 10.6775 1.59353 11.1691 2.08738C11.6606 2.58123 12.0494 3.16766 12.3128 3.81273C12.5763 4.4578 12.7092 5.14872 12.7039 5.84549C12.7001 7.25671 12.1374 8.60894 11.1388 9.60615C9.96109 10.7808 8.48819 11.1836 6.64015 10.8361L5.99749 10.6978C4.83208 10.4518 3.6882 10.7162 3.00864 11.3927L1.78174 12.6011ZM0.822352 11.4204L1.78174 12.3736L2.88564 11.2758C3.6021 10.5625 4.79826 10.2826 6.01286 10.5379L6.65245 10.6762C8.44822 11.0083 9.87499 10.6178 11.0127 9.48315C11.4971 9.00498 11.8822 8.43585 12.1461 7.80843C12.4099 7.18102 12.5473 6.50767 12.5502 5.82704C12.5526 5.15289 12.4219 4.4849 12.1655 3.86141C11.9091 3.23792 11.5321 2.6712 11.0561 2.19379C10.5801 1.71637 10.0145 1.33767 9.39181 1.0794C8.76908 0.821138 8.10149 0.6884 7.42733 0.688809C6.74419 0.690229 6.06809 0.826809 5.43797 1.09068C4.80784 1.35455 4.23616 1.7405 3.75585 2.22628C2.61505 3.35786 2.21838 4.78771 2.54432 6.58963L2.67654 7.20462C2.92869 8.4346 2.64272 9.61845 1.92626 10.3288L0.822352 11.4204Z" fill="#B7B7B7"/>
<path d="M6.35099 10.9866C6.311 10.9862 6.2726 10.9709 6.24337 10.9436L2.31051 7.00766C2.28653 6.97876 2.2742 6.94196 2.27593 6.90445C2.27767 6.86694 2.29335 6.83142 2.3199 6.80487C2.34645 6.77832 2.38197 6.76264 2.41948 6.7609C2.45699 6.75917 2.49379 6.7715 2.52269 6.79548L6.45554 10.7283C6.48371 10.7571 6.49949 10.7957 6.49949 10.836C6.49949 10.8762 6.48371 10.9148 6.45554 10.9436C6.4276 10.971 6.39011 10.9864 6.35099 10.9866Z" fill="#B7B7B7"/>
<path d="M6.35103 11.0634C6.28988 11.0634 6.23126 11.0391 6.18806 10.9958L2.2552 7.06295C2.21607 7.02132 2.19428 6.96633 2.19428 6.9092C2.19428 6.85206 2.21607 6.79708 2.2552 6.75545C2.29779 6.71825 2.35241 6.69775 2.40895 6.69775C2.46549 6.69775 2.52012 6.71825 2.5627 6.75545L6.5263 10.676C6.56544 10.7176 6.58722 10.7726 6.58722 10.8298C6.58722 10.8869 6.56544 10.9419 6.5263 10.9835C6.50471 11.0088 6.47783 11.0291 6.44754 11.0429C6.41726 11.0568 6.38431 11.0638 6.35103 11.0634ZM2.4151 6.83847C2.40581 6.83811 2.39655 6.83986 2.38803 6.84358C2.37951 6.84731 2.37194 6.85292 2.3659 6.86C2.35863 6.86663 2.35282 6.8747 2.34884 6.8837C2.34487 6.8927 2.34281 6.90243 2.34281 6.91227C2.34281 6.92211 2.34487 6.93184 2.34884 6.94085C2.35282 6.94985 2.35863 6.95792 2.3659 6.96455L6.29875 10.8974C6.31262 10.9113 6.33142 10.9191 6.35103 10.9191C6.37063 10.9191 6.38944 10.9113 6.40331 10.8974C6.41717 10.8835 6.42495 10.8647 6.42495 10.8451C6.42495 10.8255 6.41717 10.8067 6.40331 10.7929L2.46738 6.83847C2.45914 6.83483 2.45024 6.83295 2.44124 6.83295C2.43223 6.83295 2.42333 6.83483 2.4151 6.83847Z" fill="#B7B7B7"/>
<path d="M8.7833 9.3541C8.49395 9.3535 8.21126 9.26714 7.97097 9.10594C7.73067 8.94474 7.54355 8.71593 7.43324 8.44843C7.32293 8.18092 7.29438 7.88672 7.3512 7.603C7.40802 7.31928 7.54767 7.05876 7.75249 6.85437C7.95731 6.64998 8.21812 6.51089 8.50196 6.45466C8.7858 6.39843 9.07994 6.4276 9.34721 6.53847C9.61448 6.64934 9.8429 6.83694 10.0036 7.07758C10.1643 7.31821 10.2501 7.60107 10.2501 7.89043C10.2501 8.0829 10.2121 8.27348 10.1383 8.45127C10.0646 8.62905 9.95651 8.79054 9.82026 8.92649C9.68402 9.06245 9.52231 9.1702 9.34437 9.24357C9.16643 9.31695 8.97577 9.35451 8.7833 9.3541ZM8.7833 6.7281C8.55355 6.72871 8.32913 6.79739 8.13839 6.92548C7.94765 7.05357 7.79915 7.23531 7.71164 7.44775C7.62414 7.66019 7.60156 7.8938 7.64676 8.11907C7.69195 8.34433 7.80289 8.55116 7.96557 8.7134C8.12825 8.87565 8.33536 8.98604 8.56075 9.03064C8.78613 9.07525 9.01968 9.05205 9.23189 8.96399C9.4441 8.87592 9.62545 8.72694 9.75303 8.53586C9.88061 8.34479 9.94871 8.12019 9.94871 7.89043C9.94871 7.73753 9.91854 7.58614 9.85994 7.44492C9.80133 7.30369 9.71544 7.17542 9.60718 7.06745C9.49892 6.95948 9.37043 6.87392 9.22905 6.81569C9.08767 6.75746 8.9362 6.7277 8.7833 6.7281Z" fill="#B7B7B7"/>
<path d="M8.78332 9.4309C8.47924 9.4309 8.18198 9.34073 7.92915 9.17179C7.67631 9.00285 7.47925 8.76273 7.36288 8.48179C7.24651 8.20086 7.21607 7.89173 7.27539 7.59348C7.33472 7.29524 7.48114 7.02129 7.69616 6.80627C7.91118 6.59125 8.18514 6.44482 8.48338 6.3855C8.78162 6.32618 9.09075 6.35662 9.37169 6.47299C9.65262 6.58936 9.89274 6.78642 10.0617 7.03925C10.2306 7.29209 10.3208 7.58935 10.3208 7.89343C10.3208 8.30119 10.1588 8.69225 9.87048 8.98059C9.58215 9.26892 9.19108 9.4309 8.78332 9.4309ZM8.78332 6.50356C8.50917 6.50416 8.24135 6.58601 8.0137 6.73877C7.78604 6.89152 7.60877 7.10832 7.50428 7.36178C7.39979 7.61524 7.37276 7.89398 7.42662 8.16279C7.48048 8.4316 7.6128 8.67841 7.80687 8.87205C8.00093 9.06569 8.24805 9.19747 8.51698 9.25073C8.7859 9.30399 9.06458 9.27635 9.31781 9.17129C9.57103 9.06624 9.78744 8.88849 9.93969 8.6605C10.0919 8.43251 10.1732 8.16451 10.1732 7.89035C10.1724 7.52227 10.0256 7.16954 9.76503 6.90955C9.50446 6.64956 9.15141 6.50355 8.78332 6.50356ZM8.78332 9.12956C8.54005 9.12956 8.30225 9.05742 8.09998 8.92227C7.89771 8.78712 7.74007 8.59502 7.64697 8.37027C7.55388 8.14552 7.52952 7.89822 7.57698 7.65962C7.62444 7.42103 7.74158 7.20187 7.91359 7.02985C8.08561 6.85784 8.30477 6.74069 8.54336 6.69323C8.78196 6.64578 9.02926 6.67013 9.25401 6.76323C9.47876 6.85632 9.67086 7.01397 9.80601 7.21624C9.94116 7.41851 10.0133 7.65631 10.0133 7.89958C10.0133 8.22579 9.88371 8.53864 9.65305 8.76931C9.42238 8.99997 9.10953 9.12956 8.78332 9.12956ZM8.78332 6.8049C8.56877 6.80551 8.35921 6.86968 8.18112 6.98932C8.00302 7.10897 7.86437 7.2787 7.78269 7.4771C7.701 7.67549 7.67995 7.89364 7.72217 8.10399C7.7644 8.31435 7.86803 8.50747 8.01995 8.65897C8.17188 8.81046 8.36529 8.91354 8.57576 8.95517C8.78623 8.99681 9.00433 8.97513 9.20249 8.89289C9.40065 8.81064 9.57 8.67152 9.68913 8.49308C9.80827 8.31465 9.87185 8.10491 9.87185 7.89035C9.87104 7.60219 9.756 7.32611 9.55194 7.12263C9.34789 6.91916 9.07149 6.8049 8.78332 6.8049Z" fill="#B7B7B7"/>
<path d="M1.8309 13.0103C1.82118 13.0105 1.81152 13.0087 1.80252 13.005C1.79353 13.0013 1.78539 12.9957 1.77863 12.9887L0.262683 11.4728C0.255329 11.4659 0.249466 11.4576 0.245459 11.4483C0.241452 11.439 0.239388 11.4291 0.239388 11.419C0.239388 11.4089 0.241452 11.3989 0.245459 11.3897C0.249466 11.3804 0.255329 11.3721 0.262683 11.3652L3.79272 8.29023C3.80643 8.27725 3.82458 8.27002 3.84345 8.27002C3.86233 8.27002 3.88049 8.27725 3.89419 8.29023L4.98887 9.35723C5.0012 9.37126 5.00799 9.3893 5.00799 9.40797C5.00799 9.42664 5.0012 9.44468 4.98887 9.45871L1.88933 12.9887C1.88225 12.9964 1.87369 13.0025 1.86418 13.0067C1.85466 13.011 1.84439 13.0132 1.83398 13.0133L1.8309 13.0103ZM0.425655 11.4236L1.82783 12.8258L4.81975 9.41258L3.84192 8.43168L0.425655 11.4236Z" fill="#B7B7B7"/>
<path d="M1.83706 13.0872C1.79707 13.0868 1.75866 13.0714 1.72944 13.0441L0.216564 11.5282C0.201707 11.5139 0.18995 11.4966 0.182016 11.4776C0.174082 11.4586 0.170142 11.4381 0.170441 11.4175C0.172818 11.3752 0.191567 11.3355 0.222715 11.3068L3.74968 8.23183C3.77843 8.20611 3.81565 8.19189 3.85422 8.19189C3.8928 8.19189 3.93002 8.20611 3.95877 8.23183L5.03193 9.29883C5.05809 9.32676 5.07264 9.36358 5.07264 9.40184C5.07264 9.44011 5.05809 9.47693 5.03193 9.50486L1.95698 13.0318C1.94363 13.0483 1.92674 13.0615 1.90758 13.0706C1.88842 13.0796 1.86747 13.0842 1.84629 13.0841L1.83706 13.0872ZM0.539434 11.4298L1.82476 12.7151L4.71521 9.41568L3.83578 8.53932L0.539434 11.4298Z" fill="#B7B7B7"/>
</svg>
