<svg width="13" height="14" viewBox="0 0 13 14" fill="none" xmlns="http://www.w3.org/2000/svg">
<path d="M3.52859 3.54834C3.27796 3.54891 3.0328 3.47511 2.82413 3.33628C2.61546 3.19745 2.45266 2.99983 2.35636 2.76844C2.26005 2.53705 2.23457 2.28229 2.28312 2.0364C2.33166 1.79052 2.45207 1.56456 2.62909 1.38713C2.80611 1.20971 3.03178 1.08879 3.27756 1.03969C3.52334 0.99058 3.77816 1.01549 4.00977 1.11128C4.24138 1.20706 4.43937 1.3694 4.57867 1.57775C4.71798 1.78611 4.79233 2.03111 4.79233 2.28174C4.79233 2.61717 4.65927 2.9389 4.42236 3.17635C4.18544 3.4138 3.86402 3.54758 3.52859 3.54834ZM3.52859 1.29947C3.3335 1.29891 3.14264 1.35627 2.9802 1.4643C2.81775 1.57233 2.69105 1.72616 2.61613 1.90629C2.54122 2.08641 2.52147 2.28473 2.55939 2.47609C2.59731 2.66746 2.69118 2.84325 2.82912 2.9812C2.96707 3.11915 3.14287 3.21303 3.33423 3.25095C3.5256 3.28887 3.72392 3.26912 3.90405 3.1942C4.08417 3.11929 4.238 2.99257 4.34603 2.83013C4.45406 2.66768 4.51144 2.47682 4.51087 2.28174C4.51011 2.02146 4.40637 1.77206 4.22232 1.58801C4.03828 1.40396 3.78887 1.30023 3.52859 1.29947Z" fill="#B7B7B7"/>
<path d="M3.52856 3.62017C3.26373 3.62074 3.00468 3.54273 2.7842 3.39601C2.56373 3.24929 2.39174 3.04046 2.29 2.79594C2.18825 2.55143 2.16134 2.28223 2.21265 2.02242C2.26397 1.7626 2.39121 1.52386 2.57828 1.33639C2.76534 1.14892 3.00382 1.02116 3.26353 0.969288C3.52323 0.917412 3.79248 0.943749 4.03721 1.04497C4.28194 1.14618 4.49114 1.31773 4.63834 1.53789C4.78553 1.75805 4.8641 2.01693 4.8641 2.28177C4.86411 2.63624 4.72349 2.97623 4.47311 3.22715C4.22274 3.47807 3.88303 3.61941 3.52856 3.62017ZM3.52856 1.08984C3.29201 1.08927 3.06062 1.15893 2.8637 1.29C2.66678 1.42107 2.51319 1.60764 2.4224 1.82608C2.33161 2.04452 2.30771 2.28499 2.35372 2.51702C2.39973 2.74906 2.51358 2.96222 2.68085 3.12949C2.84811 3.29676 3.06127 3.41061 3.29331 3.45662C3.52535 3.50263 3.76582 3.47872 3.98426 3.38794C4.20269 3.29715 4.38927 3.14356 4.52034 2.94664C4.65141 2.74972 4.72107 2.51832 4.7205 2.28177C4.71974 1.96588 4.59391 1.66315 4.37055 1.43978C4.14718 1.21641 3.84445 1.09059 3.52856 1.08984ZM3.52856 3.33871C3.3194 3.33927 3.11478 3.27777 2.94059 3.16198C2.7664 3.04618 2.63047 2.88131 2.55004 2.68823C2.4696 2.49515 2.44826 2.28255 2.48872 2.07733C2.52917 1.87212 2.62961 1.68352 2.77731 1.53542C2.92501 1.38731 3.11334 1.28636 3.31845 1.24535C3.52355 1.20433 3.73621 1.2251 3.92951 1.30501C4.12281 1.38492 4.28804 1.52039 4.40431 1.69426C4.52058 1.86814 4.58264 2.0726 4.58264 2.28177C4.58264 2.56159 4.47167 2.82999 4.27408 3.02812C4.07649 3.22625 3.80838 3.33794 3.52856 3.33871ZM3.52856 1.3713C3.34768 1.37074 3.17071 1.42389 3.02007 1.52403C2.86943 1.62417 2.75192 1.76678 2.68244 1.93379C2.61296 2.1008 2.59463 2.28468 2.62978 2.46211C2.66493 2.63955 2.75198 2.80255 2.87988 2.93046C3.00779 3.05836 3.17079 3.14541 3.34823 3.18056C3.52567 3.21571 3.70954 3.19738 3.87655 3.12789C4.04356 3.05841 4.18616 2.9409 4.2863 2.79026C4.38644 2.63963 4.4396 2.46265 4.43904 2.28177C4.43828 2.04053 4.34211 1.80939 4.17153 1.63881C4.00095 1.46823 3.7698 1.37206 3.52856 1.3713Z" fill="#B7B7B7"/>
<path d="M3.49966 3.03695C3.39877 3.03677 3.29971 3.01002 3.21244 2.9594C3.09508 2.894 2.99582 2.80043 2.92362 2.68712C2.85142 2.5738 2.80855 2.44431 2.79886 2.3103V2.27583C2.80119 2.16479 2.82816 2.05565 2.87783 1.95631C2.9275 1.85697 2.99863 1.7699 3.08607 1.70141C3.16764 1.62493 3.26811 1.57157 3.37716 1.54684C3.4862 1.5221 3.59986 1.52688 3.70644 1.56068C3.94195 1.6612 4.24929 1.74162 4.36992 1.56068C4.37661 1.55176 4.38528 1.54452 4.39525 1.53954C4.40522 1.53455 4.4162 1.53196 4.42735 1.53196C4.43825 1.53162 4.4491 1.53377 4.45906 1.53825C4.46901 1.54272 4.47781 1.54941 4.48479 1.5578C4.63723 1.76514 4.71972 2.01562 4.72031 2.27296C4.72148 2.53733 4.63344 2.79435 4.47043 3.00248C4.46303 3.01131 4.45381 3.01844 4.4434 3.0234C4.433 3.02836 4.42164 3.03102 4.41011 3.0312C4.39921 3.03044 4.38863 3.02719 4.37917 3.02172C4.36972 3.01624 4.36163 3.00868 4.35554 2.99961C4.20332 2.7641 3.91612 2.88185 3.75815 2.97376C3.67913 3.0174 3.5899 3.03921 3.49966 3.03695ZM3.51976 1.6612C3.39009 1.66809 3.26657 1.71871 3.16936 1.80481C3.09914 1.86155 3.04258 1.93333 3.0038 2.01485C2.96503 2.09637 2.94505 2.18556 2.94534 2.27583V2.30456C2.95484 2.41426 2.99059 2.52006 3.04957 2.61304C3.10856 2.70601 3.18905 2.78343 3.28425 2.83877C3.34459 2.87328 3.41291 2.89143 3.48242 2.89143C3.55194 2.89143 3.62025 2.87328 3.6806 2.83877C3.96781 2.66357 4.24067 2.66357 4.40438 2.83877C4.5123 2.66979 4.56964 2.47347 4.56964 2.27296C4.56964 2.07246 4.5123 1.87614 4.40438 1.70716C4.28375 1.81055 4.05971 1.86225 3.63751 1.68705C3.59402 1.6684 3.54695 1.65957 3.49966 1.6612H3.51976Z" fill="#B7B7B7"/>
<path d="M3.49976 3.12009C3.3888 3.11897 3.28 3.0893 3.18384 3.03393C3.0559 2.96216 2.94774 2.8598 2.86905 2.73599C2.79036 2.61219 2.74359 2.47082 2.73291 2.32452V2.28718C2.73269 2.16559 2.75965 2.04549 2.81183 1.93567C2.86401 1.82584 2.94008 1.72907 3.03448 1.65244C3.1262 1.56733 3.23903 1.50833 3.36126 1.48156C3.48348 1.45479 3.61063 1.46123 3.72953 1.50022C3.90186 1.57489 4.2063 1.67542 4.30395 1.52607C4.31686 1.50753 4.33404 1.49238 4.35404 1.48188C4.37403 1.47138 4.39626 1.46585 4.41884 1.46575C4.44131 1.4654 4.46356 1.47013 4.48395 1.47958C4.50434 1.48903 4.52233 1.50295 4.53659 1.52032C4.70135 1.74274 4.78909 2.01281 4.7865 2.28959C4.78391 2.56636 4.69113 2.83474 4.52224 3.05403C4.50868 3.07004 4.49202 3.08312 4.47326 3.0925C4.4545 3.10188 4.43403 3.10736 4.41309 3.1086C4.38868 3.10853 4.36465 3.10247 4.34311 3.09095C4.32158 3.07943 4.30321 3.06281 4.2896 3.04255C4.17758 2.86735 3.95356 2.94489 3.78697 3.04255C3.69971 3.09317 3.60065 3.11991 3.49976 3.12009ZM4.38725 2.9334C4.39584 2.94323 4.40352 2.9538 4.41022 2.965L4.38725 2.9334ZM3.52562 1.74435C3.41277 1.75083 3.30544 1.79538 3.22118 1.87072C3.15929 1.92106 3.10938 1.98456 3.0751 2.05659C3.04082 2.12863 3.02303 2.2074 3.023 2.28718V2.31303C3.03152 2.41043 3.06338 2.50434 3.11587 2.58683C3.16836 2.66932 3.23994 2.73795 3.32457 2.78693C3.37404 2.81653 3.43062 2.83217 3.48828 2.83217C3.54594 2.83217 3.60252 2.81653 3.65199 2.78693C3.75694 2.70701 3.88284 2.65931 4.01439 2.64962C4.14594 2.63993 4.27747 2.66868 4.39299 2.73236C4.46821 2.58982 4.50765 2.43112 4.50788 2.26995C4.50901 2.1117 4.4705 1.95569 4.39586 1.81615C4.27078 1.86456 4.13642 1.88427 4.0027 1.87383C3.86898 1.86339 3.73932 1.82307 3.62326 1.75584C3.58518 1.7364 3.54228 1.72842 3.49976 1.73286L3.52562 1.74435ZM4.42745 1.60649C4.41858 1.61946 4.409 1.63192 4.39874 1.64382L4.4332 1.6151L4.42745 1.60649Z" fill="#B7B7B7"/>
<path d="M7.68146 8.71066C7.31771 8.72166 6.95548 8.65916 6.61644 8.5269C6.27741 8.39464 5.96854 8.19534 5.70832 7.94093C4.54511 6.79208 4.59107 4.23015 6.68485 2.13638C8.3794 0.438956 10.5565 0.249395 11.9782 1.67109C13.3999 3.09279 13.1816 5.25837 11.4755 6.96441C10.4416 8.00412 8.9854 8.71066 7.68146 8.71066ZM9.72066 1.20581C8.8303 1.20581 7.87964 1.63663 7.03236 2.4839C5.56184 3.95443 4.81797 6.35839 6.05585 7.59341C7.29373 8.82842 9.6661 8.07879 11.128 6.61688C12.6531 5.09179 12.8513 3.24214 11.6306 2.02149C11.3834 1.76424 11.0868 1.55943 10.7586 1.41929C10.4305 1.27914 10.0775 1.20654 9.72066 1.20581Z" fill="#B7B7B7"/>
<path d="M7.68131 8.78225C7.31053 8.79074 6.94178 8.72527 6.59659 8.58966C6.2514 8.45405 5.93668 8.25101 5.67083 7.99242C4.48464 6.80623 4.52197 4.20983 6.65021 2.08447C8.37349 0.361194 10.5908 0.168761 12.0441 1.61918C13.4974 3.0696 13.2647 5.27826 11.5414 7.01589C10.4357 8.10443 8.95653 8.78225 7.68131 8.78225ZM9.72626 0.794884C8.72389 0.794884 7.65834 1.26591 6.73639 2.18499C4.67134 4.25004 4.6225 6.75453 5.75699 7.89189C6.01189 8.13819 6.31341 8.33111 6.64385 8.45934C6.97429 8.58757 7.327 8.64853 7.68131 8.63864C8.92781 8.63864 10.361 7.97806 11.4151 6.91537C13.0924 5.23805 13.2992 3.10119 11.9177 1.72258C11.6331 1.42911 11.2925 1.19579 10.9161 1.03643C10.5396 0.877074 10.135 0.794935 9.72626 0.794884ZM7.68419 8.29111C7.37578 8.30204 7.0683 8.25127 6.77978 8.14178C6.49126 8.03229 6.2275 7.86628 6.00399 7.6535C5.41233 7.06185 5.21991 6.16287 5.4583 5.11742C5.71344 4.10293 6.24077 3.17737 6.98339 2.44061C7.81918 1.60482 8.79282 1.14241 9.72051 1.14241C10.0866 1.14285 10.4489 1.2168 10.7858 1.35988C11.1228 1.50295 11.4276 1.71224 11.6822 1.97533C11.9799 2.26244 12.207 2.61471 12.3455 3.00443C12.4841 3.39415 12.5303 3.8107 12.4806 4.22132C12.3387 5.16397 11.8798 6.03012 11.1796 6.67699C10.4467 7.41342 9.52737 7.93663 8.51997 8.19059C8.24619 8.25629 7.96573 8.29003 7.68419 8.29111ZM9.72051 1.28602C8.83015 1.28602 7.89384 1.73119 7.08391 2.544C6.35928 3.26078 5.84562 4.16293 5.59903 5.15189C5.37213 6.14564 5.5502 6.99579 6.10452 7.55011C6.65884 8.10443 7.50037 8.27963 8.4855 8.05273C9.46497 7.8039 10.3584 7.29363 11.0704 6.57646C11.7487 5.95321 12.1944 5.11746 12.3341 4.20696C12.3805 3.81752 12.3359 3.42264 12.2038 3.05336C12.0717 2.68408 11.8558 2.35046 11.573 2.07872C11.3338 1.82773 11.0465 1.62744 10.7282 1.48977C10.41 1.35211 10.0673 1.27989 9.72051 1.2774V1.28602Z" fill="#B7B7B7"/>
<path d="M3.65737 9.67542C3.61463 9.67457 3.57282 9.66277 3.53594 9.64115C3.49906 9.61952 3.46834 9.5888 3.44673 9.55191C3.42512 9.51503 3.41333 9.47321 3.41249 9.43047C3.41166 9.38773 3.42181 9.34548 3.44196 9.30778C4.09792 8.21461 4.60593 7.03923 4.9527 5.81242C4.96946 5.74957 5.0105 5.69596 5.06678 5.66337C5.12307 5.63079 5.18999 5.62189 5.25283 5.63865C5.31567 5.65541 5.36928 5.69645 5.40187 5.75273C5.43446 5.80902 5.44336 5.87594 5.4266 5.93879C5.06929 7.20562 4.54583 8.41959 3.8699 9.54904C3.84871 9.58693 3.8179 9.61855 3.78059 9.64074C3.74328 9.66292 3.70078 9.67489 3.65737 9.67542Z" fill="#B7B7B7"/>
<path d="M3.65734 9.7471C3.60178 9.74715 3.54723 9.73227 3.49938 9.70402C3.46269 9.68382 3.43051 9.65632 3.40482 9.62323C3.37914 9.59014 3.36049 9.55215 3.35003 9.51159C3.33876 9.47132 3.33576 9.42919 3.34119 9.38773C3.34662 9.34627 3.36038 9.30634 3.38163 9.27033C4.03235 8.18268 4.53737 7.01426 4.88375 5.79507C4.8927 5.75427 4.91044 5.71592 4.93574 5.68268C4.96104 5.64945 4.99329 5.62213 5.03023 5.60263C5.0661 5.58114 5.1059 5.56704 5.14731 5.56119C5.18872 5.55533 5.23089 5.55783 5.27132 5.56854C5.31174 5.57925 5.34961 5.59795 5.38268 5.62354C5.41576 5.64913 5.44339 5.68108 5.46392 5.71752C5.48533 5.75346 5.49917 5.7934 5.50461 5.83489C5.51004 5.87637 5.50694 5.91853 5.49551 5.95878C5.1386 7.23123 4.61313 8.45024 3.93307 9.58339C3.90567 9.6326 3.86572 9.67368 3.81729 9.70244C3.76886 9.73119 3.71367 9.74661 3.65734 9.7471ZM5.18819 5.70603C5.15784 5.70509 5.12788 5.71308 5.10203 5.72901C5.08203 5.74023 5.06456 5.75546 5.05072 5.77375C5.03688 5.79204 5.02697 5.81298 5.0216 5.83528C4.67017 7.06592 4.15837 8.24499 3.49938 9.34213C3.47646 9.38219 3.47027 9.42966 3.48215 9.47425C3.49543 9.51896 3.5252 9.55695 3.56543 9.58052C3.60555 9.6024 3.65263 9.60773 3.69663 9.59539C3.74063 9.58305 3.77806 9.55401 3.80095 9.51446C4.47564 8.3912 4.99724 7.18284 5.3519 5.92144C5.36378 5.87685 5.35759 5.82937 5.33467 5.78932C5.32314 5.76816 5.30715 5.74976 5.28781 5.73538C5.26847 5.721 5.24624 5.71099 5.22265 5.70603C5.21123 5.70434 5.19962 5.70434 5.18819 5.70603Z" fill="#B7B7B7"/>
<path d="M4.21745 10.2321C4.1635 10.2316 4.11122 10.2135 4.06856 10.1805C4.02591 10.1474 3.99525 10.1014 3.98125 10.0493C3.96725 9.99717 3.97068 9.94192 3.99103 9.89196C4.01138 9.84201 4.04753 9.80009 4.09395 9.77261C5.21095 9.09567 6.41489 8.57389 7.67261 8.22166C7.70373 8.21336 7.73618 8.21127 7.7681 8.21552C7.80002 8.21976 7.83079 8.23025 7.85866 8.24638C7.88653 8.26252 7.91096 8.28399 7.93053 8.30956C7.95011 8.33513 7.96445 8.36431 7.97274 8.39543C7.98104 8.42654 7.98312 8.45899 7.97888 8.49091C7.97464 8.52284 7.96416 8.55361 7.94803 8.58148C7.93189 8.60935 7.91042 8.63377 7.88485 8.65335C7.85928 8.67292 7.83009 8.68726 7.79897 8.69556C6.58277 9.03894 5.4186 9.54519 4.33807 10.2005C4.30137 10.2216 4.25975 10.2325 4.21745 10.2321Z" fill="#B7B7B7"/>
<path d="M4.21753 10.301C4.14759 10.3006 4.07975 10.2771 4.02444 10.2343C3.96914 10.1915 3.92944 10.1317 3.91148 10.0641C3.89352 9.99648 3.89829 9.92485 3.92505 9.86023C3.95181 9.79561 3.99908 9.74158 4.05957 9.70647C5.18126 9.02537 6.39119 8.50157 7.65545 8.14979C7.69523 8.13842 7.73692 8.13536 7.77793 8.1408C7.81894 8.14623 7.8584 8.16005 7.89384 8.18138C7.96693 8.22347 8.02057 8.29257 8.0432 8.37381C8.06346 8.45534 8.05218 8.54151 8.01161 8.61507C7.99056 8.65166 7.96245 8.68369 7.92892 8.70933C7.89539 8.73497 7.85713 8.75369 7.81631 8.76442C6.60487 9.10446 5.44537 9.60788 4.36976 10.2608C4.32305 10.2864 4.27079 10.3002 4.21753 10.301ZM7.73588 8.29052H7.68993C6.43884 8.64091 5.24155 9.16079 4.13137 9.83572C4.11157 9.84685 4.09415 9.86177 4.08012 9.87962C4.06608 9.89748 4.0557 9.91793 4.04956 9.9398C4.04343 9.96167 4.04167 9.98453 4.04437 10.0071C4.04707 10.0296 4.05418 10.0514 4.0653 10.0712C4.07643 10.091 4.09136 10.1085 4.10922 10.1225C4.12707 10.1365 4.14751 10.1469 4.16938 10.153C4.19125 10.1592 4.21412 10.1609 4.23668 10.1582C4.25923 10.1555 4.28102 10.1484 4.30082 10.1373C5.38683 9.4793 6.55681 8.97112 7.77897 8.62656C7.80126 8.62119 7.8222 8.61128 7.84048 8.59744C7.85877 8.5836 7.87401 8.56614 7.88524 8.54614C7.89721 8.52656 7.90493 8.50468 7.9079 8.48192C7.91087 8.45915 7.90902 8.43602 7.90247 8.41402C7.8971 8.39173 7.88719 8.37078 7.87335 8.3525C7.85951 8.33421 7.84204 8.31898 7.82204 8.30775C7.79513 8.29513 7.76557 8.28922 7.73588 8.29052Z" fill="#B7B7B7"/>
<path d="M3.38759 11.1026C3.3688 11.1025 3.35025 11.0986 3.33298 11.0913C3.31572 11.0839 3.3001 11.0731 3.28707 11.0595L2.56904 10.3444C2.54273 10.3175 2.52798 10.2815 2.52798 10.2439C2.52798 10.2063 2.54273 10.1702 2.56904 10.1433C2.5954 10.1172 2.631 10.1025 2.66812 10.1025C2.70524 10.1025 2.74086 10.1172 2.76722 10.1433L3.4996 10.8757C3.52574 10.9021 3.5404 10.9377 3.5404 10.9748C3.5404 11.0119 3.52574 11.0475 3.4996 11.0739C3.48433 11.0869 3.46631 11.0962 3.44691 11.1012C3.4275 11.1061 3.40721 11.1066 3.38759 11.1026Z" fill="#B7B7B7"/>
<path d="M3.38756 11.1628C3.33045 11.1628 3.27571 11.1401 3.23535 11.0996L2.5202 10.3816C2.48299 10.3431 2.46219 10.2916 2.46219 10.238C2.46219 10.1844 2.48299 10.133 2.5202 10.0944C2.55969 10.0591 2.61082 10.0396 2.6638 10.0396C2.71679 10.0396 2.76791 10.0591 2.80741 10.0944L3.52544 10.8124C3.56264 10.851 3.58343 10.9025 3.58343 10.956C3.58343 11.0096 3.56264 11.0611 3.52544 11.0996C3.48882 11.1369 3.43972 11.1594 3.38756 11.1628ZM2.66953 10.1633C2.6604 10.1628 2.65126 10.1643 2.6428 10.1678C2.63434 10.1712 2.62679 10.1766 2.62071 10.1834C2.61429 10.1898 2.60919 10.1975 2.60571 10.2058C2.60223 10.2142 2.60043 10.2232 2.60043 10.2323C2.60043 10.2413 2.60223 10.2503 2.60571 10.2587C2.60919 10.2671 2.61429 10.2747 2.62071 10.2811L3.33874 10.9991C3.35202 11.0114 3.36945 11.0183 3.38756 11.0183C3.40567 11.0183 3.42312 11.0114 3.4364 10.9991C3.44841 10.9856 3.45548 10.9684 3.45649 10.9503C3.45651 10.9412 3.45475 10.9323 3.4513 10.9239C3.44785 10.9155 3.4428 10.9079 3.4364 10.9015L2.71837 10.1834C2.70383 10.1743 2.68631 10.1712 2.66953 10.1748V10.1633Z" fill="#B7B7B7"/>
<path d="M1.02962 13.5578C0.964937 13.5577 0.902947 13.5318 0.857286 13.486L0.142131 12.7737C0.0963535 12.7275 0.0706787 12.665 0.0706787 12.6C0.0706787 12.5349 0.0963535 12.4724 0.142131 12.4262L3.21243 9.35878C3.23514 9.33577 3.26218 9.3175 3.29201 9.30503C3.32184 9.29255 3.35385 9.28613 3.38618 9.28613C3.41852 9.28613 3.45053 9.29255 3.48036 9.30503C3.51018 9.3175 3.53725 9.33577 3.55996 9.35878L4.27511 10.0711C4.32089 10.1173 4.34657 10.1798 4.34657 10.2448C4.34657 10.3099 4.32089 10.3723 4.27511 10.4186L1.20194 13.486C1.15628 13.5318 1.09431 13.5577 1.02962 13.5578ZM0.664859 12.5985L1.02962 12.9633L3.74951 10.2463L3.38475 9.87863L0.664859 12.5985Z" fill="#B7B7B7"/>
<path d="M1.02949 13.6297C0.987935 13.6298 0.94676 13.6218 0.908318 13.606C0.869876 13.5903 0.834915 13.5671 0.805452 13.5378L0.0931721 12.8226C0.0636467 12.7933 0.0402148 12.7583 0.0242265 12.7199C0.00823816 12.6815 0 12.6402 0 12.5986C0 12.557 0.00823816 12.5157 0.0242265 12.4773C0.0402148 12.4388 0.0636467 12.4039 0.0931721 12.3746L3.16059 9.30714C3.22062 9.24889 3.30096 9.21631 3.38461 9.21631C3.46825 9.21631 3.54862 9.24889 3.60864 9.30714L4.3238 10.0194C4.35344 10.0492 4.37684 10.0847 4.39262 10.1236C4.4084 10.1626 4.41625 10.2043 4.41571 10.2463C4.41482 10.33 4.38194 10.4102 4.3238 10.4703L1.25638 13.5378C1.22657 13.5674 1.19116 13.5908 1.1522 13.6066C1.11323 13.6224 1.07152 13.6302 1.02949 13.6297ZM3.38461 9.35884C3.33863 9.35828 3.29427 9.37581 3.26111 9.40767L0.193689 12.4751C0.161747 12.5083 0.143904 12.5525 0.143904 12.5986C0.143904 12.6446 0.161747 12.6889 0.193689 12.7221L0.905969 13.4344C0.939149 13.4663 0.983429 13.4842 1.02949 13.4842C1.07554 13.4842 1.11981 13.4663 1.15298 13.4344L4.22041 10.3698C4.25255 10.3366 4.27101 10.2925 4.2721 10.2463C4.2725 10.2233 4.2681 10.2004 4.2592 10.1792C4.2503 10.1579 4.2371 10.1387 4.22041 10.1228L3.4995 9.40767C3.46821 9.37828 3.42748 9.36097 3.38461 9.35884ZM1.02949 13.0667L0.564204 12.5986L3.38461 9.77817L3.85277 10.2463L1.02949 13.0667ZM0.765238 12.5986L1.02949 12.8628L3.64886 10.2463L3.38461 9.98209L0.765238 12.5986Z" fill="#B7B7B7"/>
<path d="M5.51019 7.23684C5.50065 7.23726 5.49113 7.23568 5.48223 7.23222C5.47333 7.22876 5.46525 7.22348 5.45849 7.21674C5.44618 7.20346 5.43933 7.18602 5.43933 7.16791C5.43933 7.1498 5.44618 7.13236 5.45849 7.11908L11.2544 1.31453C11.2606 1.30774 11.2682 1.30231 11.2766 1.2986C11.285 1.29489 11.2941 1.29297 11.3032 1.29297C11.3124 1.29297 11.3215 1.29489 11.3299 1.2986C11.3384 1.30231 11.3459 1.30774 11.3521 1.31453C11.359 1.32098 11.3644 1.32876 11.3682 1.33741C11.3719 1.34605 11.3738 1.35538 11.3738 1.3648C11.3738 1.37422 11.3719 1.38354 11.3682 1.39218C11.3644 1.40082 11.359 1.40861 11.3521 1.41506L5.5504 7.21674C5.53976 7.22793 5.52553 7.23505 5.51019 7.23684Z" fill="#B7B7B7"/>
<path d="M5.51 7.30864C5.49188 7.30868 5.47393 7.30516 5.45717 7.29826C5.44041 7.29136 5.42518 7.28122 5.41234 7.26843C5.39861 7.25554 5.38766 7.23997 5.38018 7.22268C5.37269 7.20539 5.36884 7.18675 5.36884 7.1679C5.36884 7.14906 5.37269 7.13043 5.38018 7.11314C5.38766 7.09585 5.39861 7.08028 5.41234 7.06738L11.214 1.26283C11.2272 1.24963 11.2429 1.23916 11.2602 1.23201C11.2774 1.22487 11.2959 1.22119 11.3146 1.22119C11.3332 1.22119 11.3517 1.22487 11.369 1.23201C11.3862 1.23916 11.4019 1.24963 11.4151 1.26283C11.4283 1.27603 11.4388 1.2917 11.4459 1.30895C11.453 1.3262 11.4567 1.34468 11.4567 1.36335C11.4567 1.38202 11.453 1.40051 11.4459 1.41776C11.4388 1.43501 11.4283 1.45068 11.4151 1.46388L5.61052 7.26843C5.59735 7.28157 5.58166 7.2919 5.56438 7.29881C5.54711 7.30573 5.52861 7.30907 5.51 7.30864Z" fill="#B7B7B7"/>
<path d="M11.2745 6.98413C11.2559 6.98311 11.2384 6.97487 11.2257 6.96115L6.65902 2.4031C6.64671 2.38982 6.63986 2.37238 6.63986 2.35428C6.63986 2.33617 6.64671 2.31873 6.65902 2.30545C6.66547 2.29858 6.67325 2.29311 6.6819 2.28936C6.69054 2.28562 6.69986 2.28369 6.70928 2.28369C6.7187 2.28369 6.72802 2.28562 6.73666 2.28936C6.74531 2.29311 6.75309 2.29858 6.75954 2.30545L11.3262 6.85489C11.3385 6.86816 11.3454 6.8856 11.3454 6.90371C11.3454 6.92182 11.3385 6.93926 11.3262 6.95254C11.3204 6.96125 11.3128 6.9686 11.3039 6.97405C11.2949 6.97951 11.2849 6.98295 11.2745 6.98413Z" fill="#B7B7B7"/>
<path d="M11.2744 7.05563C11.2367 7.05422 11.2009 7.03887 11.1739 7.01255L6.61867 2.45449C6.60494 2.4416 6.59399 2.42603 6.58651 2.40874C6.57902 2.39145 6.57516 2.37281 6.57516 2.35397C6.57516 2.33513 6.57902 2.31649 6.58651 2.2992C6.59399 2.28191 6.60494 2.26634 6.61867 2.25345C6.6457 2.22862 6.68107 2.21484 6.71777 2.21484C6.75447 2.21484 6.78982 2.22862 6.81685 2.25345L11.3749 6.8115C11.3886 6.82439 11.3996 6.83996 11.4071 6.85725C11.4146 6.87454 11.4184 6.89318 11.4184 6.91202C11.4184 6.93086 11.4146 6.9495 11.4071 6.96679C11.3996 6.98408 11.3886 6.99965 11.3749 7.01255C11.3619 7.02607 11.3463 7.03685 11.329 7.04425C11.3117 7.05165 11.2932 7.05552 11.2744 7.05563Z" fill="#B7B7B7"/>
<path d="M10.0391 7.71679C10.03 7.71698 10.0209 7.71529 10.0125 7.71183C10.0041 7.70837 9.99655 7.70321 9.99023 7.69669L5.93192 3.63838C5.91898 3.62543 5.91171 3.60787 5.91171 3.58956C5.91171 3.57124 5.91898 3.55368 5.93192 3.54073C5.94487 3.52778 5.96245 3.52051 5.98076 3.52051C5.99908 3.52051 6.01664 3.52778 6.02958 3.54073L10.1051 7.59903C10.1176 7.61278 10.1246 7.63071 10.1246 7.6493C10.1246 7.66789 10.1176 7.68581 10.1051 7.69956C10.0966 7.70792 10.086 7.71391 10.0744 7.71693C10.0628 7.71995 10.0506 7.7199 10.0391 7.71679Z" fill="#B7B7B7"/>
<path d="M10.0391 7.79149C10.0018 7.79113 9.96589 7.77678 9.93859 7.75128L5.88029 3.69585C5.85428 3.66887 5.83987 3.6328 5.84009 3.59533C5.84045 3.55797 5.85478 3.5221 5.88029 3.4948C5.90727 3.4688 5.94335 3.45437 5.98082 3.45459C6.01829 3.45437 6.05436 3.4688 6.08134 3.4948L10.1396 7.55598C10.1597 7.57566 10.1735 7.60092 10.1791 7.62849C10.1847 7.65606 10.1819 7.68468 10.1711 7.71065C10.1603 7.73661 10.1419 7.75874 10.1184 7.77418C10.0949 7.78961 10.0673 7.79764 10.0391 7.79723V7.79149Z" fill="#B7B7B7"/>
<path d="M8.80426 8.45723C8.78562 8.45621 8.76811 8.44797 8.75544 8.43426L5.19403 4.87283C5.18171 4.85955 5.17487 4.84211 5.17487 4.824C5.17487 4.80589 5.18171 4.78845 5.19403 4.77518C5.20047 4.76831 5.20826 4.76283 5.2169 4.75909C5.22555 4.75535 5.23486 4.75342 5.24428 4.75342C5.2537 4.75342 5.26302 4.75535 5.27167 4.75909C5.28031 4.76283 5.2881 4.76831 5.29454 4.77518L8.85598 8.33661C8.86829 8.34988 8.87512 8.36732 8.87512 8.38543C8.87512 8.40354 8.86829 8.42098 8.85598 8.43426C8.84937 8.44139 8.84137 8.4471 8.83249 8.45105C8.8236 8.455 8.81399 8.4571 8.80426 8.45723Z" fill="#B7B7B7"/>
<path d="M8.80424 8.52874C8.76655 8.52733 8.73074 8.51197 8.70372 8.48565L5.14516 4.92423C5.13137 4.9114 5.12041 4.89584 5.113 4.87852C5.10558 4.86121 5.10186 4.84254 5.10209 4.8237C5.1022 4.80492 5.10607 4.78635 5.11347 4.76908C5.12087 4.75182 5.13164 4.73621 5.14516 4.72318C5.17201 4.69687 5.20811 4.68213 5.2457 4.68213C5.28329 4.68213 5.31937 4.69687 5.34621 4.72318L8.90477 8.29035C8.91851 8.30324 8.92946 8.31881 8.93694 8.3361C8.94443 8.35339 8.94828 8.37204 8.94828 8.39088C8.94828 8.40972 8.94443 8.42836 8.93694 8.44565C8.92946 8.46293 8.91851 8.47851 8.90477 8.4914C8.87751 8.51662 8.84136 8.53005 8.80424 8.52874Z" fill="#B7B7B7"/>
<path d="M12.044 5.70541C12.0349 5.7056 12.0258 5.70391 12.0174 5.70045C12.009 5.69699 12.0014 5.69184 11.9951 5.68531L7.93682 1.62701C7.92996 1.62056 7.92447 1.61277 7.92073 1.60413C7.91699 1.59548 7.91507 1.58616 7.91507 1.57674C7.91507 1.56732 7.91699 1.558 7.92073 1.54936C7.92447 1.54071 7.92996 1.53293 7.93682 1.52648C7.9501 1.51417 7.96754 1.50732 7.98565 1.50732C8.00375 1.50732 8.02119 1.51417 8.03447 1.52648L12.0956 5.58479C12.1082 5.59853 12.1151 5.61646 12.1151 5.63505C12.1151 5.65364 12.1082 5.67156 12.0956 5.68531C12.0889 5.69206 12.0808 5.69733 12.0719 5.70079C12.063 5.70425 12.0535 5.70583 12.044 5.70541Z" fill="#B7B7B7"/>
<path d="M12.044 5.78566C12.0067 5.78531 11.9708 5.77096 11.9435 5.74545L7.8852 1.68428C7.85889 1.65743 7.84415 1.62134 7.84415 1.58375C7.84415 1.54617 7.85889 1.51007 7.8852 1.48323C7.9127 1.4582 7.94854 1.44434 7.98572 1.44434C8.0229 1.44434 8.05874 1.4582 8.08624 1.48323L12.1445 5.54441C12.1583 5.55723 12.1693 5.5728 12.1767 5.59011C12.1841 5.60742 12.1879 5.6261 12.1876 5.64493C12.1875 5.66371 12.1837 5.68228 12.1763 5.69955C12.1689 5.71681 12.1581 5.73242 12.1445 5.74545C12.1176 5.77146 12.0815 5.78589 12.044 5.78566Z" fill="#B7B7B7"/>
<path d="M12.782 4.47968C12.7724 4.48009 12.7629 4.47852 12.754 4.47506C12.7451 4.4716 12.737 4.46633 12.7303 4.45958L9.17172 0.89815C9.15877 0.8852 9.15149 0.867635 9.15149 0.849322C9.15149 0.831009 9.15877 0.813446 9.17172 0.800497C9.18467 0.787547 9.20223 0.780273 9.22054 0.780273C9.23885 0.780273 9.25643 0.787547 9.26938 0.800497L12.8308 4.35905C12.8377 4.3655 12.8431 4.37329 12.8469 4.38193C12.8506 4.39058 12.8526 4.39989 12.8526 4.40931C12.8526 4.41873 12.8506 4.42805 12.8469 4.4367C12.8431 4.44534 12.8377 4.45313 12.8308 4.45958C12.8245 4.46611 12.8169 4.47126 12.8085 4.47472C12.8001 4.47818 12.7911 4.47987 12.782 4.47968Z" fill="#B7B7B7"/>
<path d="M12.7821 4.55721C12.7446 4.55744 12.7085 4.54301 12.6815 4.517L9.12013 0.955576C9.09346 0.928916 9.07849 0.892756 9.07849 0.855053C9.07849 0.817349 9.09346 0.781189 9.12013 0.754529C9.14679 0.727868 9.18294 0.712891 9.22064 0.712891C9.25835 0.712891 9.29452 0.727868 9.32118 0.754529L12.8826 4.31596C12.8957 4.32913 12.9061 4.34483 12.913 4.3621C12.9199 4.37938 12.9232 4.39788 12.9228 4.41648C12.9232 4.43507 12.9198 4.45354 12.9129 4.4708C12.906 4.48805 12.8956 4.50372 12.8825 4.51687C12.8693 4.53001 12.8536 4.54036 12.8364 4.5473C12.8191 4.55423 12.8007 4.55761 12.7821 4.55721Z" fill="#B7B7B7"/>
<path d="M5.10508 5.59647C5.09595 5.59705 5.0868 5.59553 5.07834 5.59205C5.06989 5.58856 5.06232 5.5832 5.05624 5.57637C5.04937 5.56992 5.04391 5.56214 5.04016 5.55349C5.03642 5.54485 5.03448 5.53553 5.03448 5.52611C5.03448 5.51669 5.03642 5.50737 5.04016 5.49872C5.04391 5.49008 5.04937 5.48229 5.05624 5.47584L9.67749 0.854605C9.69076 0.842291 9.7082 0.835449 9.72631 0.835449C9.74442 0.835449 9.76185 0.842291 9.77513 0.854605C9.782 0.861052 9.78748 0.868837 9.79122 0.877482C9.79496 0.886127 9.7969 0.895448 9.7969 0.904868C9.7969 0.914288 9.79496 0.923607 9.79122 0.932252C9.78748 0.940897 9.782 0.948682 9.77513 0.955129L5.1539 5.57637C5.14758 5.5829 5.13998 5.58805 5.13158 5.59151C5.12318 5.59497 5.11416 5.59666 5.10508 5.59647Z" fill="#B7B7B7"/>
<path d="M5.10504 5.66822C5.06757 5.66845 5.03149 5.65402 5.00451 5.62801C4.99077 5.61512 4.97983 5.59955 4.97234 5.58226C4.96486 5.56497 4.961 5.54633 4.961 5.52749C4.961 5.50865 4.96486 5.49001 4.97234 5.47272C4.97983 5.45543 4.99077 5.43986 5.00451 5.42696L9.62575 0.805725C9.63865 0.791988 9.65422 0.781038 9.67151 0.773553C9.6888 0.766069 9.70743 0.762207 9.72627 0.762207C9.74511 0.762207 9.76375 0.766069 9.78104 0.773553C9.79833 0.781038 9.81391 0.791988 9.82681 0.805725C9.8396 0.818561 9.84973 0.833791 9.85663 0.850547C9.86352 0.867303 9.86705 0.885255 9.867 0.903376C9.86743 0.921978 9.8641 0.940476 9.85719 0.957752C9.85028 0.975028 9.83995 0.990725 9.82681 1.0039L5.20556 5.62801C5.17826 5.65352 5.1424 5.66786 5.10504 5.66822Z" fill="#B7B7B7"/>
<path d="M6.50361 8.22416C6.48553 8.22314 6.46832 8.21606 6.45477 8.20405C6.4479 8.19761 6.44244 8.18982 6.43869 8.18117C6.43495 8.17253 6.43301 8.16321 6.43301 8.15379C6.43301 8.14437 6.43495 8.13505 6.43869 8.12641C6.44244 8.11776 6.4479 8.10998 6.45477 8.10353L12.0095 2.54598C12.0156 2.53918 12.0232 2.53376 12.0316 2.53005C12.04 2.52633 12.0491 2.52441 12.0583 2.52441C12.0675 2.52441 12.0766 2.52633 12.085 2.53005C12.0934 2.53376 12.1009 2.53918 12.1071 2.54598C12.114 2.55242 12.1194 2.56021 12.1232 2.56885C12.1269 2.5775 12.1289 2.58682 12.1289 2.59624C12.1289 2.60566 12.1269 2.61498 12.1232 2.62363C12.1194 2.63227 12.114 2.64006 12.1071 2.6465L6.55243 8.20405C6.53914 8.21648 6.52179 8.22363 6.50361 8.22416Z" fill="#B7B7B7"/>
<path d="M6.50385 8.29015C6.48507 8.29004 6.46649 8.28618 6.44923 8.27878C6.43196 8.27138 6.41635 8.2606 6.40331 8.24707C6.37731 8.2201 6.36288 8.18402 6.3631 8.14655C6.36346 8.10919 6.37781 8.07332 6.40331 8.04602L11.958 2.49135C11.9847 2.46468 12.0208 2.44971 12.0585 2.44971C12.0962 2.44971 12.1324 2.46468 12.1591 2.49135C12.1857 2.51801 12.2007 2.55417 12.2007 2.59187C12.2007 2.62957 12.1857 2.66573 12.1591 2.69239L6.60437 8.24707C6.59154 8.26087 6.57598 8.27183 6.55867 8.27925C6.54135 8.28667 6.52268 8.29038 6.50385 8.29015Z" fill="#B7B7B7"/>
<path d="M8.11211 8.57824C8.09846 8.57753 8.0853 8.57294 8.07417 8.56501C8.06304 8.55708 8.05441 8.54614 8.04928 8.53347C8.04415 8.52081 8.04275 8.50694 8.04523 8.4935C8.04771 8.48007 8.05398 8.46761 8.06329 8.45761L12.6903 3.84786C12.6967 3.84145 12.7043 3.83636 12.7127 3.83289C12.721 3.82942 12.73 3.82764 12.7391 3.82764C12.7482 3.82764 12.7571 3.82942 12.7655 3.83289C12.7739 3.83636 12.7815 3.84145 12.7879 3.84786C12.7943 3.85427 12.7994 3.86188 12.8029 3.87026C12.8063 3.87864 12.8081 3.88762 12.8081 3.89669C12.8081 3.90575 12.8063 3.91473 12.8029 3.92311C12.7994 3.93149 12.7943 3.9391 12.7879 3.94551L8.16093 8.57824C8.14515 8.58394 8.12788 8.58394 8.11211 8.57824Z" fill="#B7B7B7"/>
<path d="M8.11209 8.66167C8.07428 8.66082 8.03826 8.64539 8.01157 8.61859C7.99778 8.60576 7.98681 8.59019 7.97939 8.57288C7.97197 8.55557 7.96826 8.5369 7.96849 8.51806C7.96933 8.48025 7.98477 8.44423 8.01157 8.41754L12.6328 3.7963C12.6605 3.77556 12.6947 3.76549 12.7291 3.76794C12.7636 3.77039 12.7961 3.7852 12.8205 3.80964C12.845 3.83408 12.8598 3.86652 12.8622 3.901C12.8647 3.93548 12.8546 3.96969 12.8339 3.99735L8.21261 8.61859C8.18559 8.6449 8.14978 8.66025 8.11209 8.66167Z" fill="#B7B7B7"/>
</svg>
