<svg width="13" height="13" viewBox="0 0 13 13" fill="none" xmlns="http://www.w3.org/2000/svg">
<path d="M6.49996 12.9271C5.22879 12.9271 3.98615 12.5501 2.92921 11.8439C1.87227 11.1377 1.04849 10.1339 0.562032 8.95948C0.0755758 7.78507 -0.0517123 6.49279 0.196281 5.24604C0.444274 3.99929 1.0564 2.85408 1.95526 1.95523C2.85411 1.05637 3.99933 0.444246 5.24608 0.196253C6.49282 -0.0517405 7.7851 0.0755386 8.95951 0.561995C10.1339 1.04845 11.1377 1.87224 11.8439 2.92918C12.5502 3.98612 12.9271 5.22874 12.9271 6.49992C12.9256 8.20403 12.2479 9.83791 11.0429 11.0429C9.83794 12.2479 8.20407 12.9255 6.49996 12.9271ZM6.49996 0.570964C5.32732 0.570964 4.18102 0.918691 3.20601 1.57017C2.231 2.22165 1.47106 3.14763 1.02232 4.231C0.573567 5.31438 0.456157 6.50649 0.684927 7.6566C0.913697 8.8067 1.47837 9.86314 2.30755 10.6923C3.13673 11.5215 4.19317 12.0862 5.34328 12.3149C6.49338 12.5437 7.68549 12.4263 8.76887 11.9776C9.85224 11.5288 10.7782 10.7689 11.4297 9.79387C12.0812 8.81885 12.4289 7.67255 12.4289 6.49992C12.4297 5.72055 12.2769 4.94866 11.9794 4.22833C11.6818 3.508 11.2453 2.85332 10.6948 2.30169C10.1442 1.75005 9.49039 1.31225 8.77064 1.0133C8.0509 0.714339 7.27932 0.560075 6.49996 0.55931V0.570964Z" fill="#B7B7B7"/>
<path d="M6.5 13C5.21443 13 3.95772 12.6188 2.8888 11.9045C1.81988 11.1903 0.98676 10.1752 0.494791 8.98744C0.00282176 7.79972 -0.125907 6.49279 0.124897 5.23191C0.3757 3.97104 0.994767 2.81285 1.90381 1.90381C2.81285 0.994767 3.97104 0.375702 5.23191 0.124899C6.49279 -0.125905 7.79972 0.002816 8.98744 0.494785C10.1752 0.986755 11.1903 1.81988 11.9045 2.88879C12.6188 3.95771 13 5.21442 13 6.5C12.9985 8.22343 12.3131 9.87584 11.0945 11.0945C9.87584 12.3131 8.22344 12.9985 6.5 13ZM6.5 0.145678C5.24324 0.145678 4.01469 0.518352 2.96973 1.21657C1.92477 1.9148 1.11031 2.9072 0.629369 4.06831C0.148426 5.22941 0.0225964 6.50705 0.267779 7.73967C0.512962 8.97228 1.11815 10.1045 2.00682 10.9932C2.89549 11.8819 4.02771 12.487 5.26033 12.7322C6.49295 12.9774 7.77059 12.8516 8.93169 12.3706C10.0928 11.8897 11.0852 11.0752 11.7834 10.0303C12.4816 8.98531 12.8543 7.75676 12.8543 6.5C12.8528 4.8152 12.1828 3.19985 10.9915 2.00852C9.80015 0.817187 8.1848 0.14722 6.5 0.145678ZM6.5 12.5018C5.31296 12.5018 4.15257 12.1498 3.16558 11.4903C2.1786 10.8308 1.40934 9.89347 0.955074 8.79678C0.500813 7.7001 0.381945 6.49334 0.613525 5.32911C0.845105 4.16487 1.41673 3.09546 2.2561 2.25609C3.09546 1.41673 4.16488 0.845112 5.32911 0.613532C6.49335 0.381951 7.7001 0.500807 8.79678 0.955068C9.89346 1.40933 10.8308 2.17859 11.4903 3.16558C12.1498 4.15257 12.5018 5.31296 12.5018 6.5C12.501 8.0918 11.8685 9.61823 10.7432 10.7441C9.61793 11.8699 8.09181 12.5032 6.5 12.5047V12.5018ZM6.5 0.643884C5.34177 0.643884 4.20955 0.987339 3.24651 1.63082C2.28348 2.2743 1.53289 3.1889 1.08965 4.25896C0.646417 5.32903 0.530448 6.50649 0.756408 7.64247C0.982367 8.77845 1.5401 9.8219 2.35909 10.6409C3.17809 11.4599 4.22156 12.0176 5.35753 12.2436C6.49351 12.4695 7.67097 12.3536 8.74103 11.9103C9.8111 11.4671 10.7257 10.7165 11.3692 9.75348C12.0127 8.79045 12.3561 7.65823 12.3561 6.5C12.3538 4.94757 11.7361 3.45939 10.6383 2.36165C9.5406 1.26392 8.05243 0.646196 6.5 0.643884Z" fill="#B7B7B7"/>
<path d="M3.5632 12.1139L3.33013 11.9508L3.4117 11.8342C4.63859 9.97094 5.48882 7.88547 5.91439 5.6955C4.60332 5.22643 3.22233 2.75288 3.23981 1.30487V1.16211H3.53116V1.30487C3.51368 2.67712 4.9005 5.14485 6.12126 5.45659C6.15667 5.46559 6.18728 5.48783 6.20679 5.51872C6.2263 5.54962 6.23323 5.58682 6.22614 5.62266C5.79997 7.89585 4.92435 10.0611 3.65061 11.9916L3.5632 12.1139Z" fill="#B7B7B7"/>
<path d="M3.57784 12.213L3.2224 11.9683L3.34476 11.7906C4.55508 9.9537 5.39805 7.89972 5.82706 5.74218C4.4752 5.20319 3.14373 2.73546 3.16121 1.30202V1.08643H3.5924V1.30202C3.57492 2.65388 4.93261 5.08956 6.12714 5.38091C6.18076 5.39408 6.22715 5.42759 6.25651 5.47435C6.28587 5.52111 6.29591 5.57745 6.28448 5.63147C5.85819 7.91872 4.97959 10.0979 3.7002 12.0412L3.57784 12.213ZM3.42635 11.9217L3.53996 12.0004L3.58075 11.9421C4.84726 10.019 5.71786 7.86277 6.14171 5.59942C6.14532 5.58208 6.14222 5.56401 6.13303 5.54887C6.12383 5.53373 6.10924 5.52264 6.09218 5.51784C4.84521 5.20027 3.42925 2.69176 3.44673 1.29328V1.22627H3.30689V1.2962C3.28941 2.68884 4.64709 5.15948 5.92903 5.61982L5.9873 5.64021V5.70139C5.55632 7.89981 4.70239 9.99357 3.47296 11.8663L3.42635 11.9217Z" fill="#B7B7B7"/>
<path d="M12.3969 6.54625L12.2628 6.49672C10.3288 5.79048 8.25996 5.5315 6.21153 5.73922H6.06876L6.04546 5.44787H6.18531C8.27605 5.23612 10.3876 5.50006 12.3619 6.21994L12.493 6.26947L12.3969 6.54625Z" fill="#B7B7B7"/>
<path d="M12.4377 6.63967L12.2367 6.56392C10.313 5.86092 8.25549 5.601 6.21742 5.8035L6.00182 5.82389L5.96394 5.39561L6.17954 5.37522C8.28008 5.16299 10.4014 5.42791 12.3853 6.1502L12.5892 6.22595L12.4377 6.63967ZM7.60424 5.60538C9.20148 5.59701 10.7873 5.87529 12.2862 6.42699L12.3532 6.45321L12.3999 6.3221L12.3357 6.29588C10.3697 5.57965 8.26705 5.31769 6.18537 5.52963H6.11545V5.66948H6.18537C6.68066 5.62578 7.14682 5.60538 7.60424 5.60538Z" fill="#B7B7B7"/>
<path d="M6.24938 12.7494C6.23704 12.7532 6.22386 12.7532 6.21152 12.7494C6.20367 12.7446 6.19684 12.7383 6.19142 12.7309C6.18601 12.7235 6.1821 12.7151 6.17994 12.7061C6.17777 12.6972 6.17738 12.6879 6.1788 12.6789C6.18022 12.6698 6.18342 12.6611 6.18821 12.6532C8.13442 9.50667 8.58017 5.61133 8.58309 5.57346C8.5838 5.56399 8.58645 5.55477 8.59084 5.54635C8.59523 5.53794 8.6013 5.5305 8.60866 5.5245C8.61602 5.51851 8.62451 5.51407 8.63364 5.51147C8.64277 5.50887 8.65234 5.50815 8.66176 5.50936C8.68057 5.51156 8.69778 5.52101 8.70975 5.5357C8.72172 5.55038 8.72749 5.56915 8.72584 5.58803C8.72584 5.62881 8.27426 9.5562 6.31057 12.7261C6.3029 12.7345 6.29336 12.7409 6.28274 12.745C6.27211 12.749 6.26069 12.7505 6.24938 12.7494Z" fill="#B7B7B7"/>
<path d="M6.24938 12.8222C6.22645 12.8179 6.20465 12.809 6.18529 12.796C6.15299 12.7751 6.13009 12.7424 6.12139 12.7049C6.1127 12.6674 6.1189 12.628 6.13868 12.595C8.0645 9.47465 8.51608 5.59096 8.51608 5.55309C8.51708 5.534 8.52208 5.51533 8.53073 5.49828C8.53939 5.48124 8.55151 5.46619 8.56633 5.45412C8.58115 5.44204 8.59834 5.4332 8.61678 5.42817C8.63522 5.42314 8.6545 5.42202 8.6734 5.4249C8.69231 5.42724 8.71056 5.43334 8.72707 5.44285C8.74358 5.45236 8.75803 5.46508 8.76955 5.48025C8.78183 5.49458 8.79101 5.5113 8.79653 5.52935C8.80204 5.5474 8.80377 5.56639 8.8016 5.58514C8.8016 5.62301 8.35002 9.56205 6.37467 12.7552C6.36125 12.7762 6.34268 12.7933 6.32075 12.805C6.29882 12.8168 6.27424 12.8227 6.24938 12.8222Z" fill="#B7B7B7"/>
<path d="M9.25613 12.0994C9.24386 12.1036 9.23053 12.1036 9.21826 12.0994C9.2101 12.0949 9.20298 12.0887 9.19733 12.0813C9.19167 12.074 9.1876 12.0655 9.18541 12.0564C9.18322 12.0474 9.18293 12.038 9.18458 12.0288C9.18622 12.0197 9.18976 12.0109 9.19496 12.0032C10.286 10.2148 10.9213 8.18592 11.045 6.09466C11.0429 6.08408 11.0431 6.07315 11.0457 6.06267C11.0483 6.0522 11.0532 6.04242 11.06 6.03407C11.0668 6.02571 11.0754 6.01897 11.0852 6.01435C11.0949 6.00972 11.1056 6.00732 11.1164 6.00732C11.1272 6.00732 11.1379 6.00972 11.1476 6.01435C11.1574 6.01897 11.166 6.02571 11.1728 6.03407C11.1796 6.04242 11.1845 6.0522 11.1871 6.06267C11.1897 6.07315 11.1899 6.08408 11.1878 6.09466C11.061 8.20784 10.4177 10.2577 9.31441 12.0644C9.30869 12.0749 9.30027 12.0837 9.29003 12.0898C9.27978 12.096 9.26808 12.0993 9.25613 12.0994Z" fill="#B7B7B7"/>
<path d="M9.25613 12.172C9.22851 12.1728 9.20123 12.1657 9.17748 12.1516C9.14507 12.1307 9.12226 12.0978 9.11407 12.0601C9.10587 12.0224 9.11296 11.983 9.13377 11.9505C10.2153 10.1778 10.8465 8.16724 10.9722 6.09442C10.9729 6.05728 10.9878 6.02182 11.0138 5.99528C11.0398 5.96874 11.0749 5.95314 11.112 5.95166C11.1514 5.95166 11.1892 5.96732 11.2171 5.99518C11.245 6.02305 11.2606 6.06084 11.2606 6.10025C11.1373 8.22461 10.4951 10.2863 9.39016 12.105C9.37734 12.1285 9.35762 12.1475 9.33366 12.1595C9.3097 12.1715 9.28264 12.1758 9.25613 12.172Z" fill="#B7B7B7"/>
<path d="M12.1813 4.14055H12.1551C8.58024 2.6838 4.22457 3.654 4.18087 3.66274C4.17167 3.66486 4.16213 3.6651 4.15284 3.66345C4.14355 3.66179 4.1347 3.65827 4.12681 3.6531C4.11891 3.64793 4.11214 3.64121 4.10691 3.63335C4.10168 3.62549 4.09811 3.61666 4.09638 3.60738C4.09422 3.59839 4.09386 3.58906 4.09533 3.57992C4.09681 3.57079 4.10008 3.56205 4.10495 3.55419C4.10983 3.54633 4.11622 3.53952 4.12375 3.53414C4.13128 3.52877 4.13981 3.52495 4.14882 3.52289C4.19544 3.52289 8.59189 2.54396 12.2075 4.00653C12.2246 4.01421 12.2381 4.02819 12.2452 4.04555C12.2522 4.06292 12.2523 4.08233 12.2454 4.09976C12.2405 4.11251 12.2316 4.12334 12.22 4.13068C12.2085 4.13801 12.195 4.14147 12.1813 4.14055Z" fill="#B7B7B7"/>
<path d="M12.1813 4.21323C12.163 4.21627 12.1443 4.21627 12.126 4.21323C8.54821 2.75648 4.24207 3.72959 4.19837 3.73833C4.16154 3.74702 4.12277 3.74073 4.09057 3.72085C4.05747 3.70045 4.03349 3.66812 4.02356 3.63053C4.01575 3.59308 4.02298 3.55406 4.04369 3.5219C4.06441 3.48973 4.09695 3.46701 4.13428 3.45863C4.17798 3.45863 8.59192 2.47096 12.2338 3.94519C12.2655 3.95682 12.2922 3.97935 12.3089 4.00877C12.3256 4.03819 12.3313 4.07259 12.325 4.10582C12.3187 4.13906 12.3008 4.16898 12.2745 4.19026C12.2482 4.21153 12.2152 4.22277 12.1813 4.22197V4.21323Z" fill="#B7B7B7"/>
<path d="M3.43211 1.94334C3.4133 1.94259 3.39552 1.93459 3.38248 1.92101C3.36944 1.90743 3.36218 1.88933 3.36219 1.87051C3.36276 1.85493 3.36736 1.83977 3.37553 1.8265C3.3837 1.81322 3.39515 1.80229 3.4088 1.79476C3.62731 1.6316 6.68356 0.544869 10.7129 1.78019C10.7305 1.78679 10.745 1.79968 10.7536 1.81637C10.7622 1.83306 10.7644 1.85235 10.7595 1.87051C10.7535 1.88852 10.7407 1.90347 10.7239 1.91217C10.707 1.92088 10.6874 1.92266 10.6692 1.91712C6.75932 0.716765 3.69142 1.75979 3.4933 1.91712C3.48627 1.92645 3.47693 1.93377 3.4662 1.93837C3.45547 1.94297 3.44371 1.94468 3.43211 1.94334Z" fill="#B7B7B7"/>
<path d="M3.43219 2.0162C3.4132 2.01621 3.3944 2.01242 3.37689 2.00506C3.35938 1.99771 3.34351 1.98693 3.33021 1.97336C3.31692 1.9598 3.30645 1.94371 3.29945 1.92605C3.29245 1.9084 3.28905 1.88952 3.28944 1.87053C3.28958 1.84318 3.29658 1.81631 3.30981 1.79239C3.32305 1.76846 3.3421 1.74824 3.36519 1.73359C3.58661 1.57044 6.67782 0.466226 10.7334 1.71029C10.77 1.72171 10.8005 1.74707 10.8185 1.78088C10.8365 1.81469 10.8405 1.85422 10.8295 1.89092C10.8173 1.92827 10.7912 1.95952 10.7567 1.97833C10.7212 1.9929 10.6815 1.9929 10.646 1.97833C6.82059 0.812931 3.81969 1.78021 3.54582 1.94919C3.53367 1.96868 3.51699 1.98494 3.49721 1.99661C3.47743 2.00827 3.45513 2.015 3.43219 2.0162ZM6.9109 1.27618C8.03286 1.28021 9.14947 1.43105 10.2323 1.72485C7.10903 0.885768 4.65003 1.4335 3.7789 1.72485C4.79421 1.41778 5.85022 1.2665 6.9109 1.27618Z" fill="#B7B7B7"/>
<path d="M5.26477 8.27105H5.24145C1.74527 7.10565 1.34611 3.76096 1.30241 3.10252V3.07921C1.30126 3.07003 1.30193 3.06071 1.30438 3.05178C1.30684 3.04286 1.31103 3.03451 1.31671 3.0272C1.32239 3.0199 1.32945 3.01379 1.33749 3.00921C1.34554 3.00464 1.35442 3.00169 1.3636 3.00054C1.37278 2.9994 1.3821 3.00007 1.39102 3.00252C1.39994 3.00498 1.40829 3.00916 1.4156 3.01484C1.4229 3.02053 1.42902 3.02759 1.43359 3.03563C1.43817 3.04368 1.4411 3.05254 1.44225 3.06173V3.09378C1.48595 3.73474 1.87345 6.99494 5.28515 8.13703C5.29428 8.13959 5.30277 8.14407 5.31004 8.15016C5.31731 8.15625 5.32321 8.16381 5.32734 8.17235C5.33147 8.18088 5.33373 8.1902 5.33399 8.19968C5.33426 8.20916 5.33251 8.21859 5.32886 8.22734C5.32337 8.23993 5.31445 8.25071 5.30311 8.25844C5.29177 8.26617 5.27848 8.27054 5.26477 8.27105Z" fill="#B7B7B7"/>
<path d="M5.26467 8.34367C5.25023 8.34643 5.2354 8.34643 5.22096 8.34367C1.67816 7.15788 1.27609 3.77532 1.22948 3.09939V3.07608C1.22495 3.03865 1.23544 3.00094 1.25862 2.9712C1.28457 2.94277 1.31957 2.92423 1.35767 2.91876C1.37464 2.91632 1.39192 2.91738 1.40846 2.9219C1.425 2.92641 1.44044 2.93426 1.45382 2.94498C1.47067 2.95598 1.48489 2.97056 1.49547 2.98768C1.50604 3.0048 1.5127 3.02404 1.51499 3.04404V3.079C1.5587 3.71123 1.94036 6.93063 5.30253 8.05815C5.33908 8.07054 5.3694 8.09666 5.38703 8.13099C5.40019 8.16672 5.40019 8.20597 5.38703 8.2417C5.37874 8.26874 5.36274 8.29279 5.34101 8.31089C5.31928 8.329 5.29277 8.34039 5.26467 8.34367Z" fill="#B7B7B7"/>
<path d="M4.35847 10.5956C2.39769 10.3713 0.474796 7.9735 0.256284 6.51676C0.254634 6.50735 0.254931 6.4977 0.257156 6.4884C0.25938 6.47911 0.263479 6.47037 0.269212 6.46273C0.274946 6.45508 0.282181 6.44869 0.29048 6.44396C0.298779 6.43922 0.307958 6.43623 0.317456 6.43518C0.326484 6.43353 0.335758 6.43374 0.344699 6.43582C0.35364 6.43789 0.362059 6.44178 0.369435 6.44725C0.37681 6.45271 0.382982 6.45963 0.387573 6.46758C0.392163 6.47553 0.39508 6.48433 0.396126 6.49345C0.608811 7.90358 2.47345 10.2402 4.37305 10.4616C4.38251 10.4623 4.39173 10.465 4.40015 10.4694C4.40856 10.4738 4.41599 10.4798 4.42198 10.4872C4.42798 10.4945 4.43243 10.503 4.43504 10.5122C4.43764 10.5213 4.43835 10.5309 4.43714 10.5403C4.43299 10.5575 4.42272 10.5726 4.40824 10.5828C4.39376 10.593 4.37607 10.5976 4.35847 10.5956Z" fill="#B7B7B7"/>
<path d="M4.35853 10.6686H4.34397C2.35405 10.4384 0.399106 7.99398 0.177681 6.51975C0.172666 6.48195 0.182667 6.44369 0.205546 6.41319C0.228424 6.38268 0.262351 6.36236 0.300042 6.35659C0.318866 6.35329 0.338164 6.35388 0.356751 6.35833C0.375337 6.36278 0.392817 6.37099 0.408107 6.38246C0.423396 6.39393 0.43617 6.40841 0.445646 6.425C0.455121 6.4416 0.461095 6.45996 0.463197 6.47896C0.672968 7.86578 2.50264 10.1674 4.37601 10.383C4.39474 10.3849 4.41291 10.3904 4.42943 10.3995C4.44595 10.4085 4.46049 10.4207 4.47216 10.4355C4.48387 10.4506 4.49247 10.468 4.49747 10.4865C4.50247 10.505 4.50376 10.5243 4.50129 10.5433C4.49763 10.5783 4.48091 10.6106 4.45445 10.6339C4.42799 10.6571 4.39373 10.6695 4.35853 10.6686Z" fill="#B7B7B7"/>
</svg>
