<svg width="13" height="17" viewBox="0 0 13 17" fill="none" xmlns="http://www.w3.org/2000/svg">
<path d="M6.50139 4.07327C7.56355 4.06932 8.6102 4.32809 9.54815 4.82653C10.4861 5.32498 11.2862 6.04764 11.8773 6.93015C12.4684 7.81267 12.832 8.82765 12.9359 9.88472C13.0398 10.9418 12.8806 12.0082 12.4726 12.9888C12.0646 13.9695 11.4205 14.8341 10.5975 15.5056C9.7745 16.1771 8.79823 16.6346 7.75562 16.8375C6.71301 17.0403 5.63641 16.9822 4.62169 16.6683C3.60697 16.3544 2.68563 15.7945 1.93969 15.0383C1.04693 14.1368 0.440276 12.9917 0.195864 11.7467C-0.0485481 10.5017 0.0801618 9.21222 0.565839 8.04009C1.05152 6.86796 1.87253 5.86536 2.92588 5.15809C3.97923 4.45082 5.218 4.07037 6.48676 4.06448L6.50139 4.07327ZM6.50139 16.4232C7.87171 16.4225 9.1994 15.9467 10.2582 15.0768C11.3171 14.207 12.0415 12.9969 12.3082 11.6528C12.5749 10.3087 12.3673 8.91369 11.7208 7.70548C11.0743 6.49726 10.0289 5.55059 8.76261 5.02675C7.49637 4.50291 6.08767 4.43431 4.77652 4.83265C3.46538 5.23098 2.33291 6.07161 1.57206 7.21129C0.811211 8.35098 0.469064 9.71921 0.603903 11.0829C0.738742 12.4466 1.34223 13.7213 2.31154 14.6899C2.8611 15.2409 3.51421 15.6777 4.23329 15.9751C4.95237 16.2726 5.72321 16.4249 6.50139 16.4232Z" fill="#B7B7B7"/>
<path d="M6.50132 4.00005C8.00511 4.00035 9.46227 4.52206 10.6245 5.47628C11.7868 6.43049 12.5822 7.75818 12.8753 9.23313C13.1684 10.7081 12.9411 12.239 12.2319 13.5651C11.5228 14.8912 10.3758 15.9304 8.98642 16.5056C7.59701 17.0809 6.05112 17.1566 4.61215 16.7198C3.17319 16.283 1.93018 15.3609 1.09492 14.1104C0.259656 12.8599 -0.116179 11.3585 0.0314414 9.86195C0.179063 8.36542 0.841004 6.96638 1.90449 5.9032C2.50704 5.2981 3.22349 4.81837 4.01249 4.49171C4.80148 4.16506 5.64739 3.99796 6.50132 4.00005ZM6.50132 16.8507C7.97048 16.8489 9.3936 16.3379 10.5282 15.4045C11.6628 14.4712 12.4387 13.1734 12.7238 11.7321C13.0088 10.2909 12.7853 8.7954 12.0914 7.50045C11.3975 6.20549 10.276 5.19119 8.91814 4.63034C7.56025 4.06949 6.0499 3.99679 4.64441 4.42462C3.23892 4.85246 2.02526 5.75436 1.21017 6.97668C0.395075 8.199 0.0289904 9.66611 0.174281 11.1281C0.319572 12.59 0.967239 13.9564 2.00696 14.9944C2.59666 15.5849 3.29735 16.0529 4.06869 16.3715C4.84003 16.6901 5.66678 16.8529 6.50132 16.8507ZM6.50132 4.50073C7.88928 4.50091 9.23423 4.98235 10.307 5.863C11.3798 6.74365 12.1141 7.96903 12.3847 9.33035C12.6553 10.6917 12.4455 12.1047 11.7911 13.3287C11.1367 14.5527 10.0781 15.5119 8.79571 16.0429C7.51334 16.5739 6.08652 16.6439 4.75837 16.2408C3.43022 15.8378 2.28292 14.9867 1.51193 13.8325C0.740942 12.6784 0.393974 11.2927 0.530156 9.91139C0.666339 8.53013 1.27725 7.23882 2.25878 6.25747C2.81445 5.69819 3.47554 5.25468 4.20378 4.95263C4.93201 4.65058 5.71293 4.49599 6.50132 4.4978L6.50132 4.50073ZM6.50132 16.35C7.85622 16.3489 9.16882 15.8781 10.2154 15.0176C11.2621 14.1572 11.9779 12.9605 12.241 11.6314C12.5042 10.3023 12.2983 8.92306 11.6584 7.72876C11.0186 6.53447 9.98438 5.599 8.73209 5.08179C7.4798 4.56458 6.0869 4.49762 4.79077 4.89234C3.49464 5.28705 2.3755 6.119 1.62405 7.24642C0.872599 8.37384 0.535352 9.72695 0.669778 11.0752C0.804205 12.4234 1.40198 13.6833 2.36125 14.6401C2.90392 15.1848 3.54928 15.6164 4.25994 15.9099C4.9706 16.2034 5.73244 16.353 6.50132 16.35Z" fill="#B7B7B7"/>
<path d="M6.50139 4.07327C7.56355 4.06932 8.6102 4.32809 9.54815 4.82653C10.4861 5.32498 11.2862 6.04764 11.8773 6.93015C12.4684 7.81267 12.832 8.82765 12.9359 9.88472C13.0398 10.9418 12.8806 12.0082 12.4726 12.9888C12.0646 13.9695 11.4205 14.8341 10.5975 15.5056C9.7745 16.1771 8.79823 16.6346 7.75562 16.8375C6.71301 17.0403 5.63641 16.9822 4.62169 16.6683C3.60697 16.3544 2.68563 15.7945 1.93969 15.0383C1.04693 14.1368 0.440276 12.9917 0.195864 11.7467C-0.0485481 10.5017 0.0801618 9.21222 0.565839 8.04009C1.05152 6.86796 1.87253 5.86536 2.92588 5.15809C3.97923 4.45082 5.218 4.07037 6.48676 4.06448L6.50139 4.07327ZM6.50139 16.4232C7.87171 16.4225 9.1994 15.9467 10.2582 15.0768C11.3171 14.207 12.0415 12.9969 12.3082 11.6528C12.5749 10.3087 12.3673 8.91369 11.7208 7.70548C11.0743 6.49726 10.0289 5.55059 8.76261 5.02675C7.49637 4.50291 6.08767 4.43431 4.77652 4.83265C3.46538 5.23098 2.33291 6.07161 1.57206 7.21129C0.811211 8.35098 0.469064 9.71921 0.603903 11.0829C0.738742 12.4466 1.34223 13.7213 2.31154 14.6899C2.8611 15.2409 3.51421 15.6777 4.23329 15.9751C4.95237 16.2726 5.72321 16.4249 6.50139 16.4232Z" fill="#B7B7B7"/>
<path d="M6.50132 4.00005C8.00511 4.00035 9.46227 4.52206 10.6245 5.47628C11.7868 6.43049 12.5822 7.75818 12.8753 9.23313C13.1684 10.7081 12.9411 12.239 12.2319 13.5651C11.5228 14.8912 10.3758 15.9304 8.98642 16.5056C7.59701 17.0809 6.05112 17.1566 4.61215 16.7198C3.17319 16.283 1.93018 15.3609 1.09492 14.1104C0.259656 12.8599 -0.116179 11.3585 0.0314414 9.86195C0.179063 8.36542 0.841004 6.96638 1.90449 5.9032C2.50704 5.2981 3.22349 4.81837 4.01249 4.49171C4.80148 4.16506 5.64739 3.99796 6.50132 4.00005ZM6.50132 16.8507C7.97048 16.8489 9.3936 16.3379 10.5282 15.4045C11.6628 14.4712 12.4387 13.1734 12.7238 11.7321C13.0088 10.2909 12.7853 8.7954 12.0914 7.50045C11.3975 6.20549 10.276 5.19119 8.91814 4.63034C7.56025 4.06949 6.0499 3.99679 4.64441 4.42462C3.23892 4.85246 2.02526 5.75436 1.21017 6.97668C0.395075 8.199 0.0289904 9.66611 0.174281 11.1281C0.319572 12.59 0.967239 13.9564 2.00696 14.9944C2.59666 15.5849 3.29735 16.0529 4.06869 16.3715C4.84003 16.6901 5.66678 16.8529 6.50132 16.8507ZM6.50132 4.50073C7.88928 4.50091 9.23423 4.98235 10.307 5.863C11.3798 6.74365 12.1141 7.96903 12.3847 9.33035C12.6553 10.6917 12.4455 12.1047 11.7911 13.3287C11.1367 14.5527 10.0781 15.5119 8.79571 16.0429C7.51334 16.5739 6.08652 16.6439 4.75837 16.2408C3.43022 15.8378 2.28292 14.9867 1.51193 13.8325C0.740942 12.6784 0.393974 11.2927 0.530156 9.91139C0.666339 8.53013 1.27725 7.23882 2.25878 6.25747C2.81445 5.69819 3.47554 5.25468 4.20378 4.95263C4.93201 4.65058 5.71293 4.49599 6.50132 4.4978L6.50132 4.50073ZM6.50132 16.35C7.85622 16.3489 9.16882 15.8781 10.2154 15.0176C11.2621 14.1572 11.9779 12.9605 12.241 11.6314C12.5042 10.3023 12.2983 8.92306 11.6584 7.72876C11.0186 6.53447 9.98438 5.599 8.73209 5.08179C7.4798 4.56458 6.0869 4.49762 4.79077 4.89234C3.49464 5.28705 2.3755 6.119 1.62405 7.24642C0.872599 8.37384 0.535352 9.72695 0.669778 11.0752C0.804205 12.4234 1.40198 13.6833 2.36125 14.6401C2.90392 15.1848 3.54928 15.6164 4.25994 15.9099C4.9706 16.2034 5.73244 16.353 6.50132 16.35Z" fill="#B7B7B7"/>
<path d="M6.29366 6.70569C7.31534 6.69735 8.30437 7.06524 9.07225 7.73925L9.20108 7.85929C9.60633 8.26451 9.91642 8.75477 10.1088 9.29459C10.3013 9.8344 10.3712 10.4103 10.3137 10.9805C10.2141 12.0169 9.71053 13.2847 8.59499 13.7385C6.60694 14.5496 5.66708 15.5363 5.87204 16.5903C5.87644 16.6128 5.87528 16.6361 5.86864 16.658C5.86201 16.68 5.8501 16.6999 5.83397 16.7162C5.81811 16.7332 5.79836 16.7461 5.77643 16.7537C5.7545 16.7614 5.73105 16.7636 5.70807 16.7602C4.34219 16.5571 3.07999 15.9135 2.11337 14.9273C1.14676 13.9412 0.528617 12.6663 0.352922 11.2967C0.349745 11.2741 0.352081 11.2512 0.359731 11.2298C0.367381 11.2083 0.380106 11.1891 0.39683 11.1737C0.413534 11.1583 0.433664 11.1471 0.455553 11.141C0.477441 11.1348 0.50046 11.134 0.522728 11.1386C1.78466 11.4109 2.74794 10.553 3.23105 8.74059C3.3571 8.28464 3.60229 7.87047 3.94139 7.54063C4.28049 7.21079 4.70129 6.97718 5.16056 6.8638C5.52855 6.75622 5.91027 6.70296 6.29366 6.70569ZM5.56168 16.4439C5.49726 15.6153 6.00087 14.4881 8.48959 13.475C9.48801 13.0651 9.95356 11.9057 10.0326 10.9541C10.0847 10.4258 10.0192 9.89245 9.84107 9.39235C9.6629 8.89225 9.37637 8.43772 9.00198 8.06132L8.88194 7.95006C8.39222 7.52309 7.80386 7.22484 7.16999 7.08222C6.53613 6.9396 5.87672 6.95711 5.25132 7.13317C4.83802 7.2317 4.45856 7.43892 4.15226 7.73338C3.84596 8.02784 3.62394 8.39884 3.50921 8.80794C3.01146 10.6759 1.98084 11.6246 0.663281 11.4431C0.866276 12.6768 1.44605 13.8175 2.32306 14.7087C3.20007 15.5998 4.33134 16.1978 5.56168 16.4205L5.56168 16.4439Z" fill="#B7B7B7"/>
<path d="M6.29346 6.63252C7.33344 6.6231 8.34042 6.99732 9.12183 7.68364L9.25357 7.80954C9.66599 8.22266 9.98157 8.72218 10.1775 9.27205C10.3735 9.82192 10.4449 10.4084 10.3867 10.9893C10.2871 12.0433 9.76889 13.3316 8.62993 13.8059C6.67993 14.6023 5.75472 15.5627 5.95089 16.5757C5.95819 16.61 5.95691 16.6456 5.94721 16.6793C5.93751 16.713 5.91968 16.7438 5.89526 16.769C5.87087 16.7931 5.84135 16.8114 5.80891 16.8226C5.77647 16.8337 5.74194 16.8374 5.70787 16.8334C4.32693 16.6263 3.05103 15.975 2.07319 14.9781C1.09535 13.9813 0.468788 12.6931 0.288296 11.3084C0.283471 11.274 0.287089 11.239 0.298822 11.2064C0.310554 11.1737 0.330061 11.1444 0.35565 11.121C0.3815 11.0977 0.412444 11.0808 0.446003 11.0717C0.479564 11.0625 0.514797 11.0614 0.548885 11.0683C1.76397 11.3318 2.69505 10.4827 3.16937 8.72598C3.29897 8.25571 3.55187 7.8286 3.90191 7.48885C4.25195 7.14911 4.68642 6.90906 5.16035 6.79356C5.5284 6.68592 5.90999 6.63168 6.29346 6.63252ZM5.72837 16.687C5.73883 16.6877 5.74931 16.686 5.75898 16.6819C5.76865 16.6778 5.77725 16.6716 5.78407 16.6636C5.7909 16.6557 5.79577 16.6462 5.7983 16.636C5.80083 16.6259 5.80094 16.6152 5.79864 16.605C5.5849 15.5129 6.54233 14.4969 8.56552 13.6771C9.65178 13.235 10.1437 11.9935 10.2432 10.9805C10.2983 10.4208 10.2286 9.85587 10.0393 9.32633C9.84995 8.79678 9.54561 8.31576 9.14817 7.91788C9.10718 7.87689 9.06619 7.8359 9.02228 7.79783C8.26852 7.13553 7.2968 6.77478 6.29346 6.78477C5.91992 6.78252 5.54806 6.83479 5.18963 6.93995C4.74082 7.04904 4.32922 7.27585 3.99726 7.597C3.66531 7.91815 3.42501 8.32202 3.30113 8.76697C2.80632 10.6291 1.81667 11.4987 0.507889 11.2176C0.497015 11.2146 0.48553 11.2147 0.474686 11.2178C0.463842 11.2209 0.454067 11.2269 0.446414 11.2352C0.437818 11.2421 0.431145 11.2512 0.427043 11.2614C0.422942 11.2717 0.421543 11.2828 0.422987 11.2938C0.59848 12.6473 1.21054 13.9067 2.16637 14.881C3.12219 15.8554 4.36964 16.4914 5.71958 16.6928L5.72837 16.687ZM6.29639 6.91653C7.26481 6.90919 8.20233 7.25711 8.93151 7.89445C8.9725 7.93252 9.01348 7.97058 9.05155 8.01157C9.43463 8.3949 9.72789 8.85845 9.91016 9.36882C10.0924 9.87918 10.1592 10.4236 10.1056 10.9629C10.0119 11.935 9.54638 13.1208 8.51575 13.5424C6.02702 14.5584 5.58783 15.6798 5.6376 16.4381L5.6376 16.5347L5.54391 16.5172C4.29806 16.2897 3.15321 15.6821 2.26666 14.7777C1.38011 13.8734 0.795391 12.7166 0.592811 11.4665L0.575243 11.3699L0.674783 11.3699C1.9455 11.5397 2.95563 10.5969 3.43874 8.78454C3.55677 8.36324 3.78504 7.98106 4.10002 7.6774C4.415 7.37374 4.80529 7.1596 5.23062 7.05707C5.57724 6.95909 5.93621 6.91176 6.29639 6.91653ZM5.48242 16.3561C5.46192 15.551 5.98603 14.4149 8.45719 13.4077C9.42633 13.0125 9.86844 11.8764 9.95628 10.9483C10.0083 10.4305 9.94465 9.9077 9.76996 9.41756C9.59527 8.92741 9.31389 8.48219 8.94615 8.11405C8.90808 8.07598 8.87003 8.03792 8.82904 8.00279C8.34802 7.58649 7.77133 7.29586 7.15055 7.15689C6.52976 7.01791 5.88422 7.03492 5.27162 7.20639C4.87121 7.30478 4.50386 7.50712 4.20671 7.79297C3.90955 8.07881 3.69312 8.43802 3.57927 8.83431C3.08738 10.6789 2.05969 11.6568 0.750912 11.5397C0.963614 12.7253 1.52895 13.8192 2.37306 14.6784C3.21717 15.5377 4.3008 16.1224 5.48242 16.3561Z" fill="#B7B7B7"/>
<path fill-rule="evenodd" clip-rule="evenodd" d="M10.0353 11.1597L12.7036 11.1597L12.7036 11.5747L10.0353 11.5747L10.0353 11.1597Z" fill="#B7B7B7"/>
<path fill-rule="evenodd" clip-rule="evenodd" d="M5.08433 2.91992L5.08434 0.548181L5.49939 0.548181L5.49939 2.91992L5.08433 2.91992Z" fill="#B7B7B7"/>
</svg>
